<svg width="391" height="183" viewBox="0 0 391 183" fill="none" xmlns="http://www.w3.org/2000/svg">
<path d="M262.721 51.6487V130.35L334.086 171.41C340.224 175.168 336.298 184.077 329.327 181.614L253.386 137.815C252.392 137.052 251.864 135.955 251.442 134.803C251.041 106.319 251.397 77.7592 251.263 49.2464C251.466 47.3809 251.723 45.7751 253.122 44.4147C278.613 29.433 304.206 14.4406 330.084 0.149143C336.83 -1.22747 339.794 7.29069 333.94 10.69L262.721 51.6487Z" fill="black"/>
<path d="M323.13 36.0627C325.639 35.6412 327.38 36.8544 328.559 38.9432L367.737 61.4948C370.874 61.9148 373.627 62.9362 373.558 66.6008C373.533 67.9334 372.899 68.4255 372.781 69.5537L372.912 115.286C375.905 120.122 369.289 125.228 365.611 120.845C363.881 118.784 364.659 116.675 365.369 114.422L365.369 69.806C365.399 69.055 365.109 68.3852 364.452 67.9968L324.749 45.2266C320.775 45.3322 317.984 41.3295 320.469 37.8615C321.051 37.0491 322.127 36.2312 323.13 36.0627Z" fill="black"/>
<path d="M275.016 61.5792C279.346 60.8275 282.139 65.3307 279.606 68.8869C279.59 84.2281 279.336 99.6521 279.734 114.966C280.051 115.752 281.378 116.348 282.107 116.807C294.499 124.601 308.009 131.173 320.455 138.948C322.47 139.511 324.286 139.702 325.225 141.863C327.336 146.722 321.137 150.835 317.609 146.746C317.064 146.114 316.886 145.204 316.087 144.798L277.077 122.326C275.127 121.491 273.492 122.315 272.054 119.912C270.603 117.486 271.72 116.228 272.366 113.927V69.5579C272.43 68.5949 271.663 67.884 271.472 66.9838C270.97 64.6267 272.593 61.9998 275.016 61.5792Z" fill="black"/>
<path d="M385.629 123.264C390.465 122.483 392.948 128.585 389.15 131.487L333.374 163.719C327.94 166.45 323.608 159.431 328.668 155.797L384.036 123.902C384.526 123.668 385.094 123.351 385.629 123.264Z" fill="black"/>
<path d="M330.324 20.2045C332.068 19.9253 333.323 20.8448 334.771 21.5907C352.883 30.9204 370.287 43.0097 388.402 52.4968C392.98 55.0079 391.108 61.6532 385.841 61.2514C366.715 50.9977 348.123 39.5643 329.167 28.922C325.255 26.9366 325.882 20.9157 330.324 20.2045Z" fill="black"/>
<path d="M352.873 73.4938C354.268 74.8258 353.751 76.9826 352.945 78.4771C353.551 86.3353 352.179 95.3026 352.944 103.027C353.113 104.728 354.128 104.904 353.46 106.989C352.827 108.968 351.342 108.546 349.911 108.891C349.478 108.996 348.993 109.334 348.575 109.538C340.015 113.705 331.748 119.966 323.117 124.179C322.638 126.692 319.45 127.997 317.575 126.093C316.645 125.148 317.142 124.54 315.581 123.502C309.932 119.748 303.201 116.848 297.502 113.071C295.708 112.676 293.456 112.643 292.996 110.39C292.133 106.17 297.742 104.836 299.291 108.807L320.094 120.641L347.242 104.986C347.867 104.446 348.255 103.601 348.257 102.779C347.658 95.0813 349.009 86.2888 348.256 78.7239C348.109 77.24 347.24 76.8368 347.56 75.0782C347.982 72.7535 351.191 71.8889 352.873 73.4938Z" fill="black"/>
<path d="M295.732 75.9526C294.319 80.1035 288.318 78.0267 289.658 73.971C290.293 72.0471 292.176 71.9559 293.862 71.7317L320.534 56.3281C322.503 51.7987 328.876 55.2508 326.229 59.2224C325.225 60.7277 323.968 60.2635 322.631 60.5832C322.195 60.6875 321.715 61.0271 321.293 61.2291C312.713 65.3373 304.357 71.7258 295.732 75.9526Z" fill="black"/>
<path d="M38.364 96.9834C50.9092 98.8383 54.7028 117.53 47.9382 126.714C45.5685 129.931 41.819 130.833 38.7662 133.028C43.3175 140.128 49.1767 147.175 51.9271 155.122H40.6891C39.3664 155.122 28.3829 132.642 26.7386 132.642H14.7256V123.339H33.7138C39.6766 123.339 42.1962 114.945 39.8682 110.201C39.4417 109.332 35.9309 106.286 35.2639 106.286H10.8504V153.959C10.8504 155.909 1.67345 154.891 0 155.122V96.9834H38.364Z" fill="black"/>
<path d="M172.056 96.9832V155.121C168.908 154.84 164.617 156.027 162.022 153.917C151.379 140.167 141.612 125.563 130.211 112.488L130.89 153.898C130.351 156.131 122.966 154.766 120.904 155.121V96.9832H133.305C142.21 111.017 152.733 124.05 162.756 137.292V96.208C165.647 97.6119 168.951 96.8039 172.056 96.9832Z" fill="black"/>
<path d="M110.829 96.9834C109.262 98.9672 111.207 106.286 109.666 106.286H72.0774V121.014H107.729V130.316H75.565C74.8654 130.316 72.5688 130.725 72.0774 131.479V144.657C72.0774 144.739 73.1577 145.82 73.2399 145.82H111.604C111.451 147.474 112.283 155.122 110.441 155.122H62.002V96.9834H110.829Z" fill="black"/>
<path d="M120.13 86.9058L120.9 29.1361C123.969 29.5621 131.743 28.8175 133.747 30.2642C142.697 42.7032 151.58 55.2608 160.981 67.322C161.481 67.9624 160.955 68.7328 162.757 68.3016V28.7676C165.891 30.2316 169.479 29.3087 172.832 29.5503L172.832 86.9058H161.982C161.655 86.9058 159.651 82.4514 158.738 81.2353C153.077 73.6953 147.207 66.3557 141.511 58.9286C137.798 54.0879 134.886 48.2294 130.213 44.2718L130.98 86.9059L120.13 86.9058Z" fill="black"/>
<path d="M61.2275 29.543C63.3397 29.8887 69.8966 28.7354 70.9647 30.2689C72.5324 32.5199 70.283 62.6387 71.6476 69.1199C74.3552 81.9806 99.5279 82.0726 101.461 67.8459C102.841 57.6906 102.42 43.4921 102.354 32.9818C102.342 31.1651 100.681 29.01 103.132 29.0706C105.975 29.1409 109.336 30.0065 112.379 29.5506C108.879 42.735 115.769 67.3334 108.375 78.6368C100.469 90.7228 74.2372 91.1425 65.4742 79.9455C64.3869 78.5561 61.2276 72.278 61.2276 71.0149L61.2275 29.543Z" fill="black"/>
<path d="M10.8504 29.5435V53.5739H36.0389C36.205 53.5739 36.9164 52.4149 37.1937 52.799L37.2015 62.1009H10.8504V86.9065H0V29.5435H10.8504Z" fill="black"/>
<path d="M51.9266 29.5435H41.0762V86.9065H51.9266V29.5435Z" fill="black"/>
<path d="M211.158 155.121H209.608V28.7674C210.111 28.7085 211.158 29.7949 211.158 29.9302V155.121Z" fill="black"/>
</svg>
