<?xml version="1.0" encoding="UTF-8"?><svg id="Layer_2" xmlns="http://www.w3.org/2000/svg" width="87.16" height="106.59" viewBox="0 0 87.16 106.59"><g id="Layer_2-2"><path d="M0,0v106.59h87.16V0H0ZM76.76,8.14c0-.7095.5805-1.29,1.29-1.29h4.22c.7095,0,1.29.5805,1.29,1.29v7.01c0,.7095-.5805,1.29-1.29,1.29h-4.22c-.7095,0-1.29-.5805-1.29-1.29v-7.0099ZM62.13,8.14c0-.7095.5805-1.29,1.29-1.29h4.22c.7095,0,1.29.5805,1.29,1.29v7.01c0,.7095-.5805,1.29-1.29,1.29h-4.23c-.7069,0-1.28-.5731-1.28-1.28v-7.02ZM47.5,8.14c0-.7095.5805-1.29,1.29-1.29h4.22c.7095,0,1.29.5805,1.29,1.29v7.0099c0,.7095-.5805,1.29-1.29,1.29h-4.23c-.7069,0-1.28-.5731-1.28-1.28v-7.02ZM32.86,8.14c0-.7095.5805-1.29,1.29-1.29h4.23c.7069,0,1.28.5731,1.28,1.28v7.02c0,.7095-.5805,1.29-1.29,1.29h-4.22c-.7095,0-1.29-.5805-1.29-1.29v-7.01ZM18.23,8.14c0-.7095.5805-1.29,1.29-1.29h4.23c.7069,0,1.28.5731,1.28,1.28v7.02c0,.7095-.5805,1.29-1.29,1.29h-4.22c-.7095,0-1.29-.5805-1.29-1.29v-7.01ZM3.6,8.14c0-.7095.5805-1.29,1.29-1.29h4.22c.7095,0,1.29.5805,1.29,1.29v7.01c0,.7095-.5805,1.29-1.29,1.29h-4.22c-.7095,0-1.29-.5805-1.29-1.29v-7.01ZM10.4,98.45c0,.7095-.5805,1.29-1.29,1.29h-4.22c-.7095,0-1.29-.5805-1.29-1.29v-7.02c0-.7069.5731-1.28,1.28-1.28h4.2399c.704,0,1.28.576,1.28,1.28v7.02ZM25.03,98.45c0,.7095-.5805,1.29-1.29,1.29h-4.22c-.7095,0-1.29-.5805-1.29-1.29v-7.02c0-.7069.5731-1.28,1.28-1.28h4.2399c.7069,0,1.28.5731,1.28,1.28v7.02ZM39.66,98.45c0,.7095-.5805,1.29-1.29,1.29h-4.22c-.7095,0-1.29-.5805-1.29-1.29v-7.02c0-.7069.5731-1.28,1.28-1.28h4.2399c.7069,0,1.28.5731,1.28,1.28v7.02ZM54.3,98.45c0,.7095-.5805,1.29-1.29,1.29h-4.23c-.7069,0-1.28-.5731-1.28-1.28v-7.03c0-.7069.5731-1.28,1.28-1.28h4.23c.7095,0,1.29.5805,1.29,1.29v7.0099ZM68.93,98.45c0,.7095-.5805,1.29-1.29,1.29h-4.2299c-.7069,0-1.28-.5731-1.28-1.28v-7.03c0-.7069.5731-1.28,1.28-1.28h4.2399c.704,0,1.28.576,1.28,1.28v7.02ZM83.56,98.45c0,.7095-.5805,1.29-1.29,1.29h-4.2199c-.7095,0-1.29-.5805-1.29-1.29v-7.0099c0-.7125.5776-1.29,1.29-1.29h4.2299c.7069,0,1.28.5731,1.28,1.28v7.02ZM79.62,83.29H7.54c-2.1871,0-3.96-1.773-3.96-3.96V27.2501c0-2.1871,1.773-3.96,3.96-3.96h72.0799c2.1871,0,3.96,1.773,3.96,3.96v52.0799c0,2.1871-1.773,3.96-3.96,3.96Z" fill="#1a1a1a"/></g></svg>