<svg width="53" height="9" viewBox="0 0 53 9" fill="none" xmlns="http://www.w3.org/2000/svg">
<path fill-rule="evenodd" clip-rule="evenodd" d="M6.04061 4.36853C6.04061 3.29381 6.0621 2.19043 3.40396 2.19043C0.745826 2.19043 0.60253 2.44836 0.538047 4.01029H2.50837C2.51553 3.77385 2.6445 3.44427 3.30366 3.44427C3.96282 3.44427 3.99864 3.5804 3.99864 3.96013C3.99864 4.33987 3.71205 4.39719 3.41829 4.45451C2.33641 4.65512 0.272949 4.59064 0.272949 6.35318C0.272949 8.11572 1.16138 8.0369 2.2361 8.0369C3.31082 8.0369 3.57592 7.88644 4.0273 7.37058H4.0488C4.04163 7.52104 4.07029 7.74315 4.12044 7.89361H6.28421C6.04777 7.54253 6.02628 7.06966 6.02628 6.6541V4.37569M4.00581 5.90896C4.00581 6.48931 3.59741 6.7759 3.11737 6.7759C2.63733 6.7759 2.45105 6.51797 2.45105 6.26003C2.45105 5.88746 2.69465 5.76566 3.16753 5.65819C3.45412 5.59371 3.74787 5.52206 4.00581 5.39309V5.90896Z" fill="black"/>
<path d="M12.1804 2.32617H10.0596V5.26374C10.0596 6.15217 9.57961 6.33846 9.2142 6.33846C8.59086 6.33846 8.51922 5.88708 8.51922 5.24224V2.32617H6.39844V6.13784C6.39844 7.41318 7.30837 8.02218 8.31144 8.02218C9.31451 8.02218 9.73007 7.73559 10.1241 7.17674H10.1456V7.88605H12.1948V2.32617" fill="black"/>
<path d="M14.7243 0.635742H12.6035V6.29593C12.6035 7.81487 13.5994 7.95816 14.5022 7.95816C15.405 7.95816 15.4336 7.89368 15.8635 7.89368V6.28877C15.7059 6.31026 15.5411 6.31742 15.3835 6.31742C14.8461 6.31742 14.7315 6.09532 14.7315 5.57945V3.63779H15.8707V2.3338H14.7315V0.642907" fill="black"/>
<path fill-rule="evenodd" clip-rule="evenodd" d="M19.8615 5.1065C19.8615 5.69401 19.754 6.48931 18.9515 6.48931C18.1491 6.48931 18.0416 5.69401 18.0416 5.1065C18.0416 4.51899 18.1491 3.73803 18.9515 3.73803C19.754 3.73803 19.8615 4.51899 19.8615 5.1065ZM21.9822 5.1065C21.9822 3.56607 21.0365 2.19043 18.9444 2.19043C16.8522 2.19043 15.9065 3.55891 15.9065 5.1065C15.9065 6.6541 16.8522 8.02974 18.9444 8.02974C21.0365 8.02974 21.9822 6.64693 21.9822 5.1065Z" fill="black"/>
<path fill-rule="evenodd" clip-rule="evenodd" d="M22.3191 8.73905V2.33373H24.3682V2.94273C24.6548 2.59166 24.9772 2.19043 26.0233 2.19043C27.5995 2.19043 28.359 3.74519 28.359 5.13516C28.359 6.07485 28.1298 7.06693 27.4035 7.61108C26.7855 8.07407 26.09 8.03589 25.9875 8.02974C25.1072 7.97698 24.5704 7.39985 24.4614 7.27743L24.4399 8.73189H22.3191M24.3682 5.11367C24.3682 5.76566 24.5402 6.48214 25.2996 6.48214C26.0591 6.48214 26.2311 5.76566 26.2311 5.11367C26.2311 4.46167 26.0591 3.73086 25.2996 3.73086C24.5402 3.73086 24.3682 4.44734 24.3682 5.11367Z" fill="black"/>
<path d="M28.6883 7.89394H30.8091V5.69434C30.8091 4.50499 31.2605 4.01062 32.0988 4.01062C32.937 4.01062 32.7221 4.0751 32.937 4.14675V2.26957C32.7364 2.21942 32.5286 2.18359 32.3137 2.18359C31.5399 2.18359 31.0885 2.549 30.7446 3.21532H30.7231V2.32689H28.6812V7.88677" fill="black"/>
<path fill-rule="evenodd" clip-rule="evenodd" d="M36.9639 5.1065C36.9639 5.69401 36.8564 6.48931 36.054 6.48931C35.2515 6.48931 35.1441 5.69401 35.1441 5.1065C35.1441 4.51899 35.2515 3.73803 36.054 3.73803C36.8564 3.73803 36.9639 4.51899 36.9639 5.1065ZM39.0919 5.1065C39.0919 3.56607 38.1461 2.19043 36.054 2.19043C33.9619 2.19043 33.0161 3.55891 33.0161 5.1065C33.0161 6.6541 33.9619 8.02974 36.054 8.02974C38.1461 8.02974 39.0919 6.64693 39.0919 5.1065Z" fill="black"/>
<path d="M40.6825 7.89386H42.8104V4.95629C42.8104 4.06786 43.2904 3.88157 43.6558 3.88157C44.2792 3.88157 44.3508 4.33296 44.3508 4.97779V7.89386H46.4788V4.08219C46.4788 2.80686 45.5688 2.19785 44.5658 2.19785C43.5627 2.19785 43.1901 2.50593 42.8247 2.93582H42.8032V0.249023H40.6753V7.90102" fill="black"/>
<path d="M52.6476 2.32617H50.5268V5.26374C50.5268 6.15217 50.0467 6.33846 49.6813 6.33846C49.058 6.33846 48.9863 5.88708 48.9863 5.24224V2.32617H46.8584V6.13784C46.8584 7.41318 47.7683 8.02218 48.7714 8.02218C49.7745 8.02218 50.19 7.73559 50.5841 7.17674H50.6056V7.88605H52.6547V2.32617" fill="black"/>
<path d="M39.0488 7.43547C39.0488 7.14171 39.2853 6.90527 39.579 6.90527C39.8728 6.90527 40.1092 7.14171 40.1092 7.43547C40.1092 7.72923 39.8728 7.96566 39.579 7.96566C39.2853 7.96566 39.0488 7.72923 39.0488 7.43547Z" fill="black"/>
</svg>
