<svg width="49" height="17" viewBox="0 0 49 17" fill="none" xmlns="http://www.w3.org/2000/svg">
<path d="M19.4068 10.6547C19.4226 10.8334 19.505 11.324 19.5515 11.4967C19.5917 11.646 19.9192 12.1445 20.0344 12.2476C21.0794 13.1828 23.2452 12.7235 23.6127 11.2987C24.173 9.1261 21.7783 8.37807 20.099 9.02749V5.23052C20.099 5.22006 20.2369 5.08258 20.2474 5.08258C20.9194 4.97156 22.453 4.81298 24.1518 5.52815C24.6555 5.74024 26.7074 6.74356 27.4929 8.55469C29.0218 12.0798 26.3122 16.8228 20.842 16.4229C13.0518 15.8535 15.5504 6.8621 15.1497 1.67542C15.1521 1.58739 15.226 1.1377 15.2534 1.1377H19.2585C19.269 1.1377 19.4068 1.27517 19.4068 1.28563V10.6547Z" fill="black"/>
<path d="M34.1176 5.10761C35.9203 4.88141 37.9483 5.1707 39.4153 6.2827C39.8173 6.58739 40.9387 7.50323 40.5744 7.99735L35.9225 12.5303C35.8032 13.0721 37.4328 12.6115 37.6977 12.5243C37.9704 12.4346 38.9098 11.901 39.0907 12.0274C39.3157 12.1847 39.8249 14.8748 40.0561 15.309C40.066 15.7859 38.3188 16.2063 37.9051 16.2815C34.8431 16.8376 31.0531 16.0686 29.5391 13.0749C27.7725 9.58181 30.4163 5.57205 34.1176 5.10761ZM36.0203 8.83115C35.9903 8.78725 35.2725 8.66539 35.1254 8.67722C34.039 8.76454 32.9176 9.90293 33.1742 11.0284C33.2171 11.2168 33.3773 11.5244 33.6153 11.42C33.7629 11.3552 35.8042 9.36901 35.9267 9.18017C35.9864 9.08803 36.0805 8.91937 36.0203 8.83115Z" fill="black"/>
<path d="M7.2434 5.2794C7.35371 5.38941 7.28625 8.06968 7.24843 8.39103C7.23674 8.49038 7.20336 8.73118 7.09507 8.73118H5.01837C4.99049 8.73118 4.74875 8.88421 4.72181 8.92854L4.6243 16.1294C4.42034 16.5358 1.87792 16.4681 1.3612 16.422C0.153551 16.3141 0.5103 16.1495 0.523832 15.2942C0.569512 12.4089 0.386962 9.47322 0.439903 6.61081C0.491408 3.82578 1.94374 1.48529 4.82604 0.945411C5.29161 0.858202 6.53136 0.857231 6.99645 0.939734C7.07862 0.954307 7.24339 1.01959 7.24339 1.08795V3.84937C7.24339 4.05268 4.85774 4.07652 4.78618 4.95144C4.77693 5.06457 4.97538 5.2794 5.01836 5.2794C5.32977 5.2794 7.16473 5.20095 7.2434 5.2794Z" fill="black"/>
<path d="M42.0526 9.86542C42.3458 6.83104 44.9076 4.81884 47.9231 5.01627C48.0337 5.02351 48.3816 5.14664 48.3816 5.23017V8.68195C48.3816 8.90796 47.1429 8.69896 46.6984 9.173C46.2317 9.67071 46.4041 11.4902 46.3998 12.2365C46.3939 13.242 46.404 14.2659 46.3994 15.2936C46.3988 15.4358 46.5778 16.3252 46.2554 16.3252H42.2009C42.1739 16.3252 42.1028 16.2098 42.0526 16.1773C42.1964 14.1482 41.8596 11.8626 42.0526 9.86542Z" fill="black"/>
<path d="M12.7811 5.2793V16.0785C12.7811 16.3074 11.94 16.4122 11.7463 16.4272C11.3933 16.4546 8.62769 16.488 8.62769 16.1771V5.2793H12.7811Z" fill="black"/>
<path d="M10.3886 0.86977C11.9985 0.756151 13.1029 1.67566 12.8712 3.3478C12.6241 5.13078 9.69073 5.41316 8.74262 3.9322C7.89827 2.61329 8.89546 0.975148 10.3886 0.86977Z" fill="black"/>
</svg>
