<svg width="52" height="7" viewBox="0 0 52 7" fill="none" xmlns="http://www.w3.org/2000/svg">
<path d="M36.5184 0.62793L32.4827 6.24625C32.1398 6.72104 31.8233 6.93206 31.4804 6.93206C31.1375 6.93206 30.7946 6.69466 30.4781 6.21987L26.5215 0.62793H28.8427L31.5331 4.47898L34.2236 0.62793H36.5184Z" fill="black"/>
<mask id="mask0_459_8070" style="mask-type:luminance" maskUnits="userSpaceOnUse" x="0" y="0" width="52" height="7">
<path d="M50.4986 1.02269H50.6832C50.7623 1.02269 50.8151 1.02269 50.8415 1.04906C50.8678 1.04906 50.8942 1.07545 50.9206 1.10182C50.947 1.1282 50.947 1.15457 50.947 1.18095C50.947 1.2337 50.9206 1.26008 50.8942 1.31284C50.8678 1.33921 50.7887 1.36559 50.6832 1.36559H50.4722V1.02269H50.4986ZM50.3403 0.890809V1.97226H50.4986V1.52386H50.6041C50.6568 1.52386 50.7096 1.52386 50.736 1.55024C50.7887 1.57661 50.8415 1.65574 50.9206 1.81401L50.9997 1.97226H51.2107L51.0789 1.76125C51.0261 1.65574 50.9734 1.60299 50.9206 1.55024C50.8942 1.52386 50.8678 1.49748 50.8415 1.49748C50.9206 1.49748 50.9997 1.4711 51.0525 1.39197C51.1052 1.33922 51.1316 1.26008 51.1316 1.18095C51.1316 1.1282 51.1052 1.07545 51.0789 1.02269C51.0525 0.96994 50.9997 0.943556 50.947 0.917179C50.8942 0.890802 50.8151 0.890809 50.6832 0.890809H50.3403ZM46.2519 0.706165C45.1968 0.706165 44.3263 0.996317 43.6405 1.55024C42.9547 2.10416 42.6382 2.84271 42.6382 3.76591C42.6382 4.66273 42.9811 5.42767 43.6669 6.03435C44.3527 6.64102 45.2231 6.93117 46.2519 6.93117H49.2852V5.32216H46.2519C45.7507 5.32216 45.3287 5.19027 44.9858 4.90013C44.6429 4.60998 44.4846 4.26707 44.4846 3.81866C44.4846 3.37025 44.6429 3.00098 44.9858 2.71083C45.3287 2.42068 45.7507 2.28879 46.2519 2.28879H49.2852V0.679787H46.2519V0.706165ZM4.07484 0.706165C3.01976 0.706165 2.14931 0.996317 1.46351 1.55024C0.777704 2.10416 0.461182 2.84271 0.461182 3.76591C0.461182 4.66273 0.804083 5.42767 1.48989 6.03435C2.17569 6.64102 3.04613 6.93117 4.07484 6.93117H8.11054V3.21199H3.91659V4.74186H6.23777V5.32216H4.07484C3.5473 5.32216 3.12527 5.19027 2.80874 4.90013C2.46584 4.63635 2.30758 4.26707 2.30758 3.81866C2.30758 3.37025 2.46584 3.00098 2.80874 2.71083C3.15165 2.42068 3.57368 2.28879 4.07484 2.28879H8.08417V0.679787H4.07484V0.706165ZM8.87548 6.93117H10.7483V0.706165H8.87548V6.93117ZM14.9686 0.706165C13.9135 0.706165 13.0431 0.996317 12.3573 1.55024C11.6715 2.10416 11.3549 2.84271 11.3549 3.76591C11.3549 4.66273 11.6978 5.42767 12.3836 6.03435C13.0694 6.64102 13.9399 6.93117 14.9686 6.93117H19.0043V3.21199H14.784V4.74186H17.1315V5.32216H14.9686C14.4411 5.32216 14.019 5.19027 13.7025 4.90013C13.3596 4.63635 13.2013 4.26707 13.2013 3.81866C13.2013 3.37025 13.3596 3.00098 13.7025 2.71083C14.0454 2.42068 14.4674 2.28879 14.9686 2.28879H18.9779V0.679787H14.9686V0.706165ZM24.6226 3.08011L25.6777 4.5836H23.5939L24.6226 3.08011ZM23.6467 1.31284L19.611 6.93117H21.9322L22.4861 6.13985H26.7592L27.3131 6.93117H29.6343L25.6777 1.33921C25.3348 0.864427 25.0183 0.627037 24.6754 0.627037C24.3325 0.627037 23.9896 0.864425 23.6467 1.31284ZM38.2068 3.08011L39.2092 4.53085H37.2045L38.2068 3.08011ZM37.2309 1.31284L33.1952 6.93117H35.5164L36.123 6.0871H40.317L40.9237 6.93117H43.2449L39.2883 1.33921C38.9454 0.864427 38.6289 0.627037 38.2596 0.627037C37.9167 0.627037 37.5738 0.864425 37.2309 1.31284ZM50.3667 2.13053C50.2348 2.0514 50.1293 1.94589 50.0765 1.81401C49.9974 1.68212 49.971 1.55023 49.971 1.39197C49.971 1.26009 49.9974 1.10182 50.0765 0.969937C50.1557 0.838051 50.2612 0.732539 50.3667 0.653408C50.4986 0.574277 50.6304 0.547901 50.7623 0.547901C50.8942 0.547901 51.0261 0.574277 51.158 0.653408C51.2899 0.732539 51.3954 0.838051 51.4482 0.969937C51.5273 1.10182 51.5536 1.23371 51.5536 1.39197C51.5536 1.52386 51.5273 1.68212 51.4482 1.81401C51.369 1.94589 51.2899 2.0514 51.158 2.13053C51.0261 2.20966 50.8942 2.23603 50.7623 2.23603C50.6304 2.23603 50.4986 2.20966 50.3667 2.13053ZM50.2875 0.547901C50.1293 0.627033 50.0238 0.758916 49.9183 0.917179C49.8391 1.07544 49.7864 1.23371 49.7864 1.41835C49.7864 1.60299 49.8391 1.76125 49.9183 1.91951C49.9974 2.07778 50.1293 2.20966 50.2875 2.28879C50.4458 2.36792 50.6041 2.42068 50.7623 2.42068C50.9206 2.42068 51.0789 2.36792 51.2371 2.28879C51.3954 2.20966 51.5009 2.07778 51.6064 1.91951C51.6855 1.76125 51.7383 1.60298 51.7383 1.44472V1.39197C51.7383 1.23371 51.6855 1.07544 51.6064 0.917179C51.5273 0.758916 51.3954 0.627033 51.2371 0.547901C51.0789 0.46877 50.9206 0.416016 50.7623 0.416016C50.6041 0.416016 50.4458 0.46877 50.2875 0.547901Z" fill="white"/>
</mask>
<g mask="url(#mask0_459_8070)">
<path d="M51.7119 0.416016H0.461182V6.93117H51.7119V0.416016Z" fill="black"/>
</g>
</svg>
