<svg width="55" height="7" viewBox="0 0 55 7" fill="none" xmlns="http://www.w3.org/2000/svg">
<path d="M23.6159 0.970917C24.6639 0.970921 25.6577 0.97752 26.6514 0.968584C27.3298 0.962483 27.9172 1.12972 28.2175 1.8002C28.5171 2.46912 28.3606 3.06794 27.853 3.57728C28.0224 3.81313 28.2327 4.02239 28.3434 4.27528C28.7656 5.23932 28.1353 6.27546 27.0418 6.31182C25.4174 6.36581 23.79 6.32357 22.164 6.33308C21.8656 6.33482 21.8014 6.19311 21.8024 5.93262C21.8086 4.41494 21.8109 2.89718 21.8008 1.37953C21.7988 1.07839 21.8977 0.954721 22.2068 0.966597C22.6578 0.983928 23.11 0.97095 23.6159 0.970917ZM26.6682 5.13926C26.985 5.13862 27.3488 5.15042 27.2937 4.69644C27.2732 4.52769 27.0464 4.25358 26.9078 4.24991C25.6119 4.21555 24.3147 4.22954 22.9895 4.22954C22.9895 4.54704 22.9895 4.8094 22.9895 5.13922C24.1931 5.13922 25.3808 5.13922 26.6682 5.13926ZM23.1754 3.07139C24.3478 3.07237 25.5202 3.07277 26.6926 3.07472C26.999 3.07523 27.2191 2.9989 27.2212 2.62407C27.2232 2.25533 27.0177 2.16044 26.7045 2.16147C26.1814 2.1632 25.6584 2.16148 25.1353 2.1614C24.4211 2.1613 23.707 2.16138 22.9027 2.16138C22.9739 2.52306 23.0263 2.78975 23.1754 3.07139Z" fill="black"/>
<path d="M33.6051 5.09515C33.9969 5.09517 34.3356 5.09517 34.7047 5.09517C34.7047 5.52912 34.7047 5.89902 34.7047 6.30091C32.8353 6.30091 30.9983 6.30091 29.1211 6.30091C29.1211 4.53976 29.1211 2.79471 29.1211 1.00781C30.9793 1.00781 32.8327 1.00781 34.7278 1.00781C34.7278 1.37895 34.7278 1.74829 34.7278 2.18646C33.2566 2.18646 31.7842 2.18646 30.28 2.18646C30.28 2.48153 30.28 2.70906 30.28 3.01556C31.6532 3.01556 33.0329 3.01556 34.4427 3.01556C34.4427 3.46289 34.4427 3.83179 34.4427 4.25816C33.05 4.25816 31.6823 4.25816 30.2815 4.25816C30.2815 4.55658 30.2815 4.79791 30.2815 5.09513C31.3891 5.09513 32.4705 5.09513 33.6051 5.09515Z" fill="black"/>
<path d="M8.40667 3.97578C8.40667 4.77092 8.40667 5.51182 8.40667 6.29164C8.02249 6.29164 7.6715 6.29164 7.28149 6.29164C7.28149 4.53549 7.28149 2.79054 7.28149 0.968136C7.68297 0.968136 8.07454 0.968136 8.46611 0.968136C9.67911 0.968137 10.8933 1.00259 12.1048 0.958814C13.415 0.91147 13.8753 1.81487 13.9273 2.72432C13.9893 3.80971 13.3252 4.51576 12.218 4.59524C12.151 4.60005 12.0851 4.6206 11.9244 4.65259C12.413 5.20683 12.8584 5.71199 13.3532 6.2733C12.5214 6.37514 11.8295 6.46241 11.2713 5.70321C10.6866 4.90812 9.97801 4.2042 9.23383 3.35843C10.2815 3.35843 11.2118 3.36281 12.1419 3.35669C12.6533 3.35332 12.8348 3.16147 12.7285 2.65205C12.6929 2.48133 12.4607 2.22773 12.3127 2.22381C11.0324 2.18986 9.75077 2.20426 8.40667 2.20426C8.40667 2.80931 8.40667 3.36542 8.40667 3.97578Z" fill="black"/>
<path d="M4.48916 5.0973C4.83078 5.09733 5.11848 5.09733 5.45505 5.09733C5.45505 4.82256 5.45505 4.58429 5.45505 4.28244C4.93621 4.28244 4.42051 4.28244 3.86611 4.28244C3.86611 3.85186 3.86611 3.48251 3.86611 3.07271C4.77675 3.07271 5.68855 3.07271 6.63448 3.07271C6.63448 4.14383 6.63448 5.20192 6.63448 6.33159C5.78199 6.33159 4.93664 6.33167 4.09129 6.33156C3.58447 6.33149 3.07689 6.34887 2.57099 6.3272C1.52678 6.28246 0.859894 5.60029 0.835711 4.55787C0.821441 3.94278 0.819074 3.32668 0.836548 2.71175C0.863182 1.77443 1.41372 1.06312 2.33281 1.01426C3.75387 0.938712 5.1819 0.994343 6.63736 0.994343C6.63736 1.39526 6.63736 1.76568 6.63736 2.20272C5.54047 2.20272 4.45932 2.20698 3.37823 2.20169C1.8733 2.19433 1.99003 2.13652 1.99582 3.58117C1.99706 3.88888 2.00332 4.1968 1.99442 4.50426C1.98242 4.91877 2.18909 5.09856 2.58896 5.09706C3.20437 5.09475 3.8198 5.09698 4.48916 5.0973Z" fill="black"/>
<path d="M17.8563 6.33113C17.3143 6.33105 16.8261 6.34342 16.3388 6.32845C15.1987 6.29345 14.5382 5.61602 14.5249 4.47695C14.5184 3.91696 14.517 3.35672 14.5253 2.79677C14.5415 1.71252 15.1794 1.01602 16.2577 0.978728C17.3043 0.942534 18.354 0.944387 19.4008 0.977704C20.4813 1.01209 21.1142 1.71041 21.1181 2.7967C21.1201 3.35676 21.1196 3.91685 21.1182 4.47692C21.1153 5.62023 20.4621 6.29741 19.3197 6.32886C18.8503 6.34179 18.3803 6.3311 17.8563 6.33113ZM18.3439 5.09849C18.6879 5.09831 19.032 5.09163 19.3758 5.09962C19.7888 5.10922 19.9648 4.91755 19.9542 4.50472C19.9393 3.92579 19.9422 3.34604 19.9533 2.76694C19.9608 2.37817 19.7848 2.2008 19.4011 2.20196C18.3511 2.20511 17.3011 2.20259 16.2511 2.2041C15.8775 2.20463 15.6814 2.38219 15.6847 2.76904C15.6896 3.34831 15.6929 3.92777 15.6836 4.50693C15.6769 4.92239 15.8818 5.09966 16.2806 5.09829C16.9323 5.09606 17.5841 5.09822 18.3439 5.09849Z" fill="black"/>
<path d="M44.5541 6.42098C44.0121 6.4209 43.5239 6.43326 43.0365 6.4183C41.8965 6.38329 41.236 5.70587 41.2227 4.5668C41.2162 4.0068 41.2147 3.44656 41.2231 2.88661C41.2392 1.80237 41.8772 1.10586 42.9555 1.06857C44.0021 1.03238 45.0518 1.03423 46.0986 1.06755C47.1791 1.10194 47.8119 1.80026 47.8158 2.88654C47.8178 3.44661 47.8174 4.00669 47.8159 4.56676C47.813 5.71007 47.1599 6.38725 46.0175 6.41871C45.5481 6.43163 45.078 6.42095 44.5541 6.42098ZM45.0417 5.18833C45.3857 5.18815 45.7298 5.18147 46.0735 5.18946C46.4865 5.19906 46.6626 5.0074 46.652 4.59457C46.6371 4.01564 46.6399 3.43588 46.6511 2.85678C46.6586 2.46802 46.4825 2.29065 46.0988 2.2918C45.0488 2.29496 43.9988 2.29244 42.9488 2.29394C42.5752 2.29447 42.3791 2.47203 42.3824 2.85888C42.3874 3.43816 42.3906 4.01761 42.3813 4.59678C42.3747 5.01223 42.5795 5.1895 42.9784 5.18813C43.6301 5.1859 44.2818 5.18807 45.0417 5.18833Z" fill="black"/>
<path d="M49.6149 6.32867C49.2102 6.32933 48.8505 6.32933 48.3606 6.32933C49.1328 5.38058 49.8422 4.50897 50.572 3.61232C49.8786 2.76103 49.1968 1.92406 48.5083 1.07885C49.3407 0.79969 49.8581 0.933091 50.3557 1.53997C50.6638 1.91576 50.9697 2.29332 51.3218 2.72554C51.6154 2.36463 51.8845 2.03534 52.152 1.7048C52.8198 0.879676 52.9266 0.841903 54.168 1.03937C53.4659 1.90345 52.7888 2.73676 52.0774 3.61222C52.7885 4.48431 53.501 5.35818 54.2484 6.27482C53.363 6.42297 52.6317 6.41196 52.1545 5.55264C51.9582 5.19922 51.6327 4.91758 51.3254 4.55545C50.9029 5.05632 50.5184 5.52778 50.1145 5.98197C49.9903 6.1216 49.813 6.21399 49.6149 6.32867Z" fill="black"/>
<path d="M36.4399 1.70647C36.4399 2.84285 36.4399 3.92641 36.4399 5.08006C37.82 5.08006 39.1647 5.08006 40.5434 5.08006C40.5434 5.52015 40.5434 5.89045 40.5434 6.29699C38.8063 6.29699 37.0785 6.29699 35.3127 6.29699C35.3127 4.53585 35.3127 2.79114 35.3127 1.00684C35.6736 1.00684 36.0235 1.00684 36.4399 1.00684C36.4399 1.23216 36.4399 1.44291 36.4399 1.70647Z" fill="black"/>
</svg>
