<svg width="25" height="30" viewBox="0 0 25 30" fill="none" xmlns="http://www.w3.org/2000/svg">
<path d="M23.8463 21.3732L12.594 27.8698L1.34158 21.3732V8.3803L12.594 1.8841L23.8463 8.38032V21.3732H23.8463ZM12.594 0.733398L0.345459 7.80498V21.9485L12.594 29.0205L24.8424 21.9485V7.80498L12.594 0.733398Z" fill="black"/>
<path d="M10.3471 5.47696H14.841V9.10568H10.3471V5.47696ZM10.0276 5.47679H9.53892L8.07224 6.32355V9.10553H10.0276V5.47679ZM17.1148 6.32331L15.6482 5.47656H15.1595V9.10529H17.1148V6.32331ZM19.3749 16.132C19.4805 16.2139 19.6543 16.2689 19.8969 16.297C20.0956 16.3207 20.4614 16.3327 20.9094 16.3327C21.6462 16.3327 22.1388 16.3086 22.3022 16.2609C22.4684 16.2131 22.5881 16.1235 22.6616 15.9926C22.7346 15.8601 22.7712 15.6522 22.7712 15.3691C22.7712 15.1154 22.7338 14.9315 22.6595 14.8175C22.6102 14.74 22.5443 14.6802 22.4616 14.638C22.3793 14.5958 22.2685 14.5637 22.1288 14.5428C21.9906 14.5216 21.6293 14.5043 21.129 14.4898C20.5766 14.473 20.2237 14.4553 20.1546 14.4372C20.0727 14.4148 20.0321 14.3525 20.0321 14.2514C20.0321 14.1454 20.0707 14.0799 20.1482 14.0546C20.2172 14.0333 20.4802 14.0229 20.8524 14.0229C21.2282 14.0229 21.5076 14.0273 21.6048 14.0358C21.7148 14.0454 21.7795 14.09 21.7991 14.1687C21.8064 14.1955 21.8112 14.2433 21.814 14.3124H22.6656C22.6672 14.2449 22.668 14.1955 22.668 14.1646C22.668 13.8772 22.6001 13.678 22.4648 13.5664C22.3648 13.4861 22.2014 13.4299 21.9746 13.3974C21.8028 13.3737 21.4659 13.3616 21.0487 13.3616C20.408 13.3616 19.9595 13.3757 19.7888 13.4038C19.6001 13.4363 19.4592 13.503 19.3665 13.6045C19.2424 13.7382 19.1806 13.9687 19.1806 14.2955C19.1806 14.4505 19.193 14.5762 19.2183 14.6717C19.2633 14.8452 19.3593 14.9676 19.5058 15.0395C19.6198 15.0957 19.8165 15.1282 20.0956 15.1367C20.2024 15.1395 20.479 15.1491 20.8395 15.1664C21.1889 15.1832 21.4611 15.1916 21.5711 15.1916C21.7301 15.1945 21.8308 15.2162 21.8734 15.2571C21.9043 15.2868 21.92 15.3382 21.92 15.4113C21.92 15.5185 21.8951 15.5875 21.8457 15.6185C21.8104 15.6397 21.7373 15.6546 21.6261 15.663C21.5667 15.6658 21.3073 15.6678 20.9327 15.6691C20.6593 15.6678 20.4553 15.6662 20.4059 15.665C20.3076 15.6622 20.2385 15.657 20.1992 15.6502C20.1594 15.6429 20.1245 15.6297 20.0932 15.61C20.0341 15.5691 20.0052 15.4775 20.0069 15.3354H19.1553V15.4876C19.1553 15.5932 19.1605 15.6847 19.1717 15.7622C19.193 15.9212 19.2605 16.0449 19.3749 16.132ZM15.2915 16.132C15.3971 16.2139 15.571 16.2689 15.8135 16.297C16.0122 16.3207 16.378 16.3327 16.826 16.3327C17.5628 16.3327 18.0554 16.3086 18.2188 16.2609C18.3851 16.2131 18.5047 16.1235 18.5782 15.9926C18.6513 15.8601 18.6878 15.6522 18.6878 15.3691C18.6878 15.1154 18.6505 14.9315 18.5758 14.8175C18.5268 14.74 18.4609 14.6802 18.3783 14.638C18.2959 14.5958 18.1851 14.5637 18.0454 14.5428C17.9073 14.5216 17.5459 14.5043 17.0457 14.4898C16.4932 14.473 16.1403 14.4553 16.0712 14.4372C15.9893 14.4148 15.9484 14.3525 15.9484 14.2514C15.9484 14.1454 15.9873 14.0799 16.0648 14.0546C16.1339 14.0333 16.3969 14.0229 16.769 14.0229C17.1448 14.0229 17.4243 14.0273 17.5214 14.0358C17.6314 14.0454 17.6961 14.09 17.7158 14.1687C17.723 14.1955 17.7278 14.2433 17.7306 14.3124H18.5822C18.5838 14.2449 18.5842 14.1955 18.5842 14.1646C18.5842 13.8772 18.5167 13.678 18.3815 13.5664C18.2815 13.4861 18.1181 13.4299 17.8912 13.3974C17.7194 13.3737 17.3825 13.3616 16.9654 13.3616C16.3246 13.3616 15.8761 13.3757 15.7055 13.4038C15.5168 13.4363 15.3758 13.503 15.2831 13.6045C15.159 13.7382 15.0972 13.9687 15.0972 14.2955C15.0972 14.4505 15.1097 14.5762 15.135 14.6717C15.1799 14.8452 15.2759 14.9676 15.4224 15.0395C15.5365 15.0957 15.7332 15.1282 16.0122 15.1367C16.119 15.1395 16.3957 15.1491 16.7562 15.1664C17.1055 15.1832 17.3777 15.1916 17.4877 15.1916C17.6467 15.1945 17.7475 15.2162 17.7901 15.2571C17.821 15.2868 17.8362 15.3382 17.8362 15.4113C17.8362 15.5185 17.8117 15.5875 17.7624 15.6185C17.727 15.6397 17.6539 15.6546 17.5427 15.663C17.4833 15.6658 17.2239 15.6678 16.8493 15.6691C16.5759 15.6678 16.372 15.6662 16.3226 15.665C16.2242 15.6622 16.1551 15.657 16.1154 15.6502C16.0761 15.6429 16.0407 15.6297 16.0098 15.61C15.9508 15.5691 15.9219 15.4775 15.9231 15.3354H15.0719V15.4876C15.0719 15.5932 15.0771 15.6847 15.0884 15.7622C15.1097 15.9212 15.1771 16.0448 15.2916 16.132M4.22732 14.6548V15.2317H5.34067C5.34067 15.3361 5.33588 15.4136 5.32582 15.4642C5.30897 15.5461 5.24351 15.5959 5.12947 15.6143C5.00382 15.6284 4.76695 15.6368 4.33291 15.6397C3.93585 15.634 3.74031 15.6276 3.66121 15.6208C3.50061 15.6051 3.40506 15.5304 3.37373 15.3968C3.35005 15.2968 3.33802 15.1101 3.33802 14.8367C3.33802 14.5986 3.34926 14.4332 3.37173 14.34C3.39983 14.2176 3.48096 14.1441 3.61464 14.12C3.75555 14.0963 3.96597 14.0842 4.33093 14.0842C4.74085 14.0842 4.97291 14.0935 5.11262 14.112C5.21822 14.126 5.28085 14.169 5.30054 14.2404C5.30776 14.2689 5.31177 14.3223 5.31336 14.4014H6.19226C6.19226 14.2814 6.19024 14.1927 6.18585 14.1348C6.16774 13.9192 6.11679 13.7618 6.03366 13.6615C5.93931 13.5503 5.77591 13.4728 5.54343 13.429C5.31379 13.3856 4.96569 13.3636 4.41321 13.3636C3.98362 13.3636 3.68529 13.3748 3.43315 13.3973C3.2541 13.4129 3.11558 13.433 3.01764 13.4575C2.92005 13.4824 2.83854 13.5177 2.7739 13.5643C2.64985 13.6502 2.56231 13.7984 2.51173 14.0084C2.47639 14.1589 2.45874 14.4203 2.45874 14.7921C2.45874 15.0121 2.46232 15.2189 2.46956 15.4136C2.47479 15.5686 2.49687 15.7059 2.535 15.8255C2.61251 16.0709 2.81325 16.2202 3.13727 16.2736C3.37092 16.313 3.71823 16.3326 4.26347 16.3326C4.5702 16.3326 4.79344 16.3286 5.01748 16.3202C5.22865 16.313 5.42298 16.2917 5.60085 16.2567C5.94454 16.1861 6.13321 15.9849 6.16697 15.6521C6.18824 15.4465 6.19867 15.155 6.19867 14.7772C6.19867 14.7592 6.19707 14.7182 6.19465 14.6548H4.22734H4.22732ZM9.25812 14.714C9.22561 14.7831 9.14771 14.8212 9.02366 14.8281C8.98991 14.8309 8.8803 14.8337 8.69602 14.8365H7.52365V14.1267H8.69402C8.89116 14.1279 9.00959 14.1299 9.04895 14.1327C9.16178 14.1411 9.23284 14.1809 9.26216 14.2511C9.28222 14.2993 9.29186 14.3724 9.29186 14.4711C9.29186 14.5852 9.2806 14.6663 9.25812 14.714ZM10.1246 14.8365C10.1571 14.7437 10.1731 14.5795 10.1731 14.3443C10.1731 14.1949 10.1667 14.0672 10.1543 13.9616C10.1442 13.8717 10.1153 13.785 10.0675 13.7019C10.021 13.6244 9.95593 13.5605 9.87201 13.5104C9.78811 13.4606 9.69497 13.4305 9.59216 13.4208C9.50183 13.4124 9.20594 13.4072 8.70445 13.406H6.6444V16.2903H7.52365V15.5572H8.69804C8.89275 15.5572 9.02004 15.5636 9.08067 15.576C9.17223 15.5957 9.22921 15.6592 9.25171 15.7664C9.26736 15.841 9.275 15.9643 9.275 16.1362V16.2903H10.1414V16.0221C10.1414 15.8615 10.1406 15.7551 10.1394 15.7029C10.1338 15.6014 10.1234 15.5243 10.1089 15.4717C10.0945 15.4199 10.0689 15.3719 10.0338 15.3311C9.95351 15.2396 9.82102 15.1866 9.63634 15.1725C9.7295 15.1585 9.79894 15.1424 9.84553 15.124C9.98244 15.0706 10.0752 14.9746 10.1246 14.8365ZM11.5657 14.3507C11.5983 14.2463 11.6713 14.1793 11.7857 14.1499C11.8801 14.1258 12.1475 14.1138 12.5887 14.1138C12.9055 14.1138 13.1007 14.1154 13.1741 14.1182C13.3769 14.1278 13.5098 14.1556 13.5732 14.2005C13.6439 14.2483 13.6888 14.3451 13.7085 14.49C13.7198 14.5775 13.7254 14.7245 13.7254 14.9317C13.7254 15.1007 13.7158 15.2256 13.6961 15.3059C13.6619 15.4524 13.5563 15.5359 13.3789 15.5572C13.248 15.574 12.9958 15.5825 12.6225 15.5825C12.2491 15.5825 11.9969 15.574 11.8661 15.5572C11.6886 15.5359 11.5822 15.4524 11.5469 15.3059C11.5284 15.2268 11.5191 15.0979 11.5191 14.9188C11.5191 14.643 11.5348 14.4535 11.5657 14.3507ZM11.3377 16.2863C11.5713 16.3172 11.9997 16.3329 12.6225 16.3329C13.2464 16.3329 13.6748 16.3172 13.9073 16.2863C14.2441 16.2413 14.4505 16.0815 14.5264 15.8065C14.5786 15.6178 14.6047 15.2986 14.6047 14.8494C14.6047 14.3985 14.5786 14.0789 14.5264 13.8898C14.4505 13.6152 14.2441 13.4553 13.9073 13.41C13.6736 13.379 13.2536 13.3638 12.6477 13.3638C12.0098 13.3638 11.573 13.3791 11.3377 13.41C11.0008 13.4553 10.7945 13.6152 10.7186 13.8898C10.6664 14.0773 10.6403 14.3969 10.6403 14.8494C10.6403 15.2986 10.6664 15.6178 10.7186 15.8065C10.7945 16.0815 11.0008 16.2413 11.3377 16.2863M10.3467 19.9015H14.8402V23.3914H10.3467V19.9015ZM8.07237 20.4664V22.8826L8.95404 23.3917H10.0276V19.9019H9.05001L8.07237 20.4664ZM10.3468 24.4287L11.2272 24.937H13.9598L14.8403 24.4287V23.7108H10.3468V24.4287ZM15.1597 19.9019V23.3917H16.234L17.1149 22.883V20.4664L16.1373 19.9019H15.1597ZM10.3471 9.42448H14.8406V12.1976H10.3471V9.42448ZM10.3468 19.5826H11.4248L14.8407 18.6672V18.0886L10.3468 19.2927V19.5826ZM10.3468 18.3832V18.9622L14.8407 17.7581V17.4678H13.7627L10.3468 18.3832ZM14.8405 19.5826V18.998L12.658 19.5826H14.8405ZM10.3468 17.4679V18.0528L12.5297 17.4679H10.3468Z" fill="black"/>
</svg>
