<svg width="55" height="20" viewBox="0 0 55 20" fill="none" xmlns="http://www.w3.org/2000/svg">
<path d="M0.969727 9.61602C0.969727 4.32882 5.41963 0.0429688 10.9102 0.0429688C15.3677 0.0429688 19.1399 2.86789 20.4008 6.76024L16.618 6.74776C15.543 4.76782 13.3901 3.41703 10.9102 3.41703C7.35451 3.41703 4.47278 6.19204 4.47278 9.61602C4.47278 13.0393 7.35451 15.8143 10.9102 15.8143C12.0811 15.8143 13.1789 15.5133 14.125 14.9869L13.1805 18.9372C12.4509 19.101 11.6908 19.1883 10.9102 19.1883C5.41963 19.1883 0.969727 14.9025 0.969727 9.61602Z" fill="black"/>
<path d="M32.5776 9.01758H29.2926L28.133 14.2475C27.8624 15.6064 27.2433 16.5373 25.852 16.5373C25.0981 16.5373 24.7695 16.0902 24.7695 15.5323C24.7695 15.1593 24.8084 14.8245 24.9052 14.3782L26.0457 9.01758H22.7599L21.4646 14.8803C21.3678 15.29 21.271 15.7929 21.271 16.4257C21.271 16.9469 21.5416 18.9569 24.2671 18.9569C25.6203 18.9569 26.8187 18.4357 27.5528 17.3558H27.5917L27.3013 18.6773H30.4521L32.5776 9.01758Z" fill="black"/>
<path d="M32.925 18.6767H36.2108L37.1767 14.2469C37.5053 12.6091 38.2014 11.5116 39.999 11.5116C40.6181 11.5116 41.0427 11.585 41.4871 11.6966L42.1252 8.90542C41.7967 8.75639 41.4681 8.7373 41.0236 8.7373C39.6895 8.7373 38.549 9.46334 37.8735 10.599H37.8347L38.2013 9.01699H35.0124L32.925 18.6767Z" fill="black"/>
<path fill-rule="evenodd" clip-rule="evenodd" d="M47.3205 5.3877H44.0355L43.5133 7.8074H46.7991L47.3205 5.3877ZM41.1545 18.6769H44.4411L46.5284 9.01723H43.2427L41.1545 18.6769Z" fill="black"/>
<path d="M53.4651 6.11328H50.1793L49.5412 9.01749H47.8793L47.4348 11.065H49.0968L48.3245 14.5639C48.0729 15.6995 47.9372 16.4439 47.9372 17.1135C47.9372 18.5839 49.5222 18.7895 51.0499 18.7895C51.6873 18.7895 52.3056 18.7146 52.9635 18.6772L53.4651 16.314C53.1182 16.3323 52.7889 16.3698 52.4413 16.3698C51.8809 16.3698 51.4166 16.3324 51.4166 15.8669C51.4166 15.5322 51.4936 15.1416 51.5904 14.7129L52.3833 11.065H54.4707L54.9151 9.01749H52.8468L53.4651 6.11328Z" fill="black"/>
<path fill-rule="evenodd" clip-rule="evenodd" d="M15.71 17.7449L17.0495 12.0048H12.563L13.2186 8.99707H20.8399L18.7099 18.6589L15.5026 18.6604L15.71 17.7449Z" fill="black"/>
</svg>
