<svg width="108" height="105" viewBox="0 0 108 105" fill="none" xmlns="http://www.w3.org/2000/svg">
<path d="M102.683 10.7055C99.7048 10.7055 97.3652 8.41313 97.3652 5.48272C97.3652 2.5523 99.7521 0.236328 102.683 0.236328C105.637 0.236328 108 2.50504 108 5.48272C108 8.3895 105.589 10.7055 102.683 10.7055ZM102.683 1.8906C100.697 1.8906 99.114 3.4976 99.114 5.45908C99.114 7.42057 100.697 9.05121 102.683 9.05121C104.62 9.05121 106.227 7.46784 106.227 5.48272C106.227 3.54486 104.62 1.8906 102.683 1.8906ZM103.202 7.98775L102.328 6.04989H102.186V7.98775H100.816V2.93042H102.919C104.171 2.93042 104.715 3.4976 104.715 4.32473C104.715 5.12823 104.313 5.57725 103.699 5.76631C103.817 5.88447 103.959 6.09716 104.077 6.38075L104.833 7.98775H103.202ZM102.541 3.97024H102.186V5.12823H102.446C102.99 5.12823 103.226 4.84464 103.226 4.51379C103.226 4.13567 103.013 3.97024 102.541 3.97024Z" fill="black"/>
<path d="M15.5029 61.3733V43.6963H10.6346V50.1479H5.34093V43.6963H0.472656V61.3733H5.34093V54.4018H10.6346V61.3733H15.5029Z" fill="black"/>
<path d="M29.3045 61.3733L28.4064 58.4902H22.9474L22.073 61.3733H17.252L23.0183 43.6963H28.5719L34.6218 61.3733H29.3045ZM26.3032 51.8022C26.0432 50.9514 25.8069 50.1243 25.6414 49.3208H25.5942C25.4366 50.1085 25.2239 50.9514 24.9561 51.8495L24.1053 54.6617H27.2012L26.3032 51.8022Z" fill="black"/>
<path d="M44.7362 61.3733L41.4513 54.9217H41.2149V61.3733H36.3467V43.6963C38.0009 43.6018 40.1751 43.5781 42.3966 43.5781C46.8867 43.5781 49.4154 45.1615 49.4154 49.0845C49.4154 51.1878 48.2338 53.1965 46.2486 53.9291C46.7213 54.6381 47.123 55.2998 47.5248 55.9615L50.6443 61.3733H44.7362ZM42.1366 47.572C41.8294 47.572 41.3804 47.5956 41.2386 47.6193V51.4241C41.404 51.4477 41.7821 51.4713 42.0421 51.4713C43.3655 51.4713 44.2872 50.7624 44.2872 49.4626C44.2872 48.3991 43.7436 47.572 42.1366 47.572Z" fill="black"/>
<path d="M63.358 47.8792V43.6963H50.8564V47.8792H54.6613V61.3733H59.5295V47.8792H63.358Z" fill="black"/>
<path d="M70.6847 43.6963H65.8164V61.3733H70.6847V43.6963Z" fill="black"/>
<path d="M89.7796 61.3733V43.6963H85.1004V49.8643C85.1004 50.9751 85.1477 52.3457 85.2894 53.5274C84.675 52.1331 83.8951 50.526 83.1389 48.9663L80.563 43.6963H74.3477V61.3733H79.0269V54.1418C79.0269 52.9838 79.0032 52.393 78.8851 51.3532C79.3341 52.5112 79.9722 53.9291 80.6575 55.3234L83.6115 61.3733H89.7796Z" fill="black"/>
<path d="M107.315 60.4518V51.7314H102.447V57.096C102.187 57.1669 101.809 57.2378 101.454 57.2378C98.4294 57.2378 97.1296 55.4181 97.1296 52.6767C97.1296 49.8172 98.6893 47.8085 101.927 47.8085C103.676 47.8085 105.921 48.0684 107.126 48.5411V44.0982C105.85 43.6964 104.101 43.4128 102.092 43.4128C95.8298 43.4128 91.8359 47.2886 91.8359 53.0076C91.8359 58.3012 95.0027 61.6807 100.958 61.6807C103.345 61.6807 105.614 61.208 107.315 60.4518Z" fill="black"/>
<path d="M0 17.7953C0 17.7953 21.1746 0.0709909 53.7637 9.3738e-05C86.66 -0.047171 107.787 17.7953 107.787 17.7953V37.1975C107.787 37.1975 86.66 23.1598 53.74 23.1126C20.9383 23.0417 0.0236325 37.1975 0.0236325 37.1975L0 17.7953Z" fill="black"/>
<path d="M0 86.8962C0 86.8962 21.1746 104.62 53.7637 104.691C86.66 104.739 107.787 86.8962 107.787 86.8962V67.5413C107.787 67.5413 86.66 81.5316 53.74 81.5789C20.9383 81.6498 0.0236325 67.5413 0.0236325 67.5413L0 86.8962Z" fill="black"/>
</svg>
