<svg width="184" height="102" viewBox="0 0 184 102" fill="none" xmlns="http://www.w3.org/2000/svg">
<path fill-rule="evenodd" clip-rule="evenodd" d="M91.5385 0C142.078 0 183.098 22.8527 183.098 51.0021C183.098 79.1559 142.078 102 91.5385 102C41.0198 102 0 79.1559 0 51.0021C0 22.8527 41.0198 0 91.5385 0ZM91.5385 4.60036C43.5755 4.60036 4.62165 25.4297 4.62165 51.0021C4.62165 76.5852 43.5755 97.3656 91.5385 97.3656C139.501 97.3656 178.455 76.5852 178.455 51.0021C178.455 25.4297 139.501 4.60036 91.5385 4.60036ZM75.4586 55.8985H57.4405C57.6535 60.3328 60.1453 62.388 63.8725 62.388C66.6412 62.388 68.5367 60.829 69.0266 59.2593H74.9261C73.4139 64.6243 69.0266 67.1076 63.6169 67.1076C55.9496 67.1076 51.1789 61.8321 51.1789 54.2969C51.1789 46.9981 56.2265 41.4394 63.6169 41.4394C71.9231 41.4394 75.9271 48.4102 75.4586 55.8985ZM63.4465 46.0355C59.6981 46.0355 57.7813 48.5295 57.4831 51.7199H69.1757C68.7284 48.3143 67.3014 46.0355 63.4465 46.0355ZM153.473 55.8985H135.455C135.646 60.3328 138.16 62.388 141.865 62.388C144.655 62.388 146.551 60.829 147.041 59.2593H152.94C151.428 64.6243 147.041 67.1076 141.631 67.1076C133.943 67.1076 129.193 61.8321 129.193 54.2969C129.193 46.9981 134.241 41.4394 141.631 41.4394C149.937 41.4394 153.941 48.4102 153.473 55.8985ZM141.439 46.0355C137.712 46.0355 135.796 48.5295 135.476 51.7199H147.19C146.743 48.3143 145.316 46.0355 141.439 46.0355ZM19.658 66.4474H26.3455V51.9414H40.7855V66.4474H47.4731V32.7562H40.7855V46.5509H26.3455V32.7562H19.658V66.4474ZM79.1431 66.4474H85.4473V53.2768C85.4473 48.3314 87.1937 46.306 90.8144 46.306C93.9239 46.306 95.3295 48.2845 95.3295 52.2864V66.4474H101.612V51.4707C101.612 45.4434 99.8234 41.4394 92.6885 41.4394C89.8772 41.4394 86.9381 42.7598 85.2556 45.4902H85.1065V42.0996H79.1431V66.4474ZM106.979 66.4474H113.262V53.2618L122.548 66.4474H130.365L120.142 52.7848L129.193 42.0996H121.696L113.262 52.5974V32.7562H106.979V66.4474ZM157.157 66.4474H163.44V32.7562H157.157V66.4474Z" fill="black"/>
</svg>
