<svg width="50" height="19" viewBox="0 0 50 19" fill="none" xmlns="http://www.w3.org/2000/svg">
<path fill-rule="evenodd" clip-rule="evenodd" d="M16.7625 5.79994C16.6553 5.33825 16.3944 4.92675 16.0227 4.63298C15.651 4.33921 15.1906 4.18062 14.7169 4.18324C14.2521 4.17231 13.7951 4.30442 13.4076 4.56174C13.0202 4.81905 12.721 5.18916 12.5505 5.62208L7.38599 14.9914H11.6513L16.7625 5.79994Z" fill="black"/>
<path fill-rule="evenodd" clip-rule="evenodd" d="M11.3775 5.78708C11.2655 5.3278 11.0033 4.91913 10.6328 4.62593C10.2622 4.33272 9.80436 4.17176 9.33195 4.16861C8.86516 4.15748 8.40635 4.29116 8.01848 4.55131C7.63061 4.81147 7.33267 5.18535 7.16555 5.62168L1.9939 14.991H6.2414L11.3775 5.78708Z" fill="black"/>
<path fill-rule="evenodd" clip-rule="evenodd" d="M22.2204 5.79916C22.1132 5.33747 21.8523 4.92597 21.4806 4.6322C21.1089 4.33843 20.6485 4.17985 20.1748 4.18247C19.7094 4.16988 19.2515 4.3013 18.8634 4.5588C18.4754 4.81631 18.1762 5.18735 18.0067 5.6213L12.8528 14.9835H17.1003L22.2204 5.79916Z" fill="black"/>
<path fill-rule="evenodd" clip-rule="evenodd" d="M34.1631 8.40697C34.3781 7.40388 35.2792 6.81696 36.2086 6.78851C36.6768 6.77953 37.1364 6.9148 37.5252 7.17599C37.914 7.43718 38.2132 7.81165 38.3822 8.24868L44.0905 18.4273H39.8252L34.1631 8.40697Z" fill="black"/>
<path fill-rule="evenodd" clip-rule="evenodd" d="M39.5833 8.40714C39.6896 7.9475 39.9482 7.5374 40.317 7.24354C40.6858 6.94968 41.1432 6.78936 41.6146 6.78867C42.0833 6.77804 42.5439 6.91262 42.9333 7.174C43.3227 7.43538 43.6219 7.81079 43.7899 8.24885L49.4965 18.4274H45.2312L39.5833 8.40714Z" fill="black"/>
<path fill-rule="evenodd" clip-rule="evenodd" d="M32.5318 15.1209L21.8331 15.0764C21.2705 15.0798 20.7294 14.8605 20.3276 14.4665C19.9259 14.0724 19.6959 13.5354 19.688 12.9724C19.7031 12.5632 19.8211 12.1644 20.031 11.8128L25.3946 2.26564C25.5679 1.8323 25.8687 1.46194 26.2572 1.20369C26.6458 0.945447 27.1035 0.811522 27.5699 0.819688C28.0437 0.817158 28.5044 0.976 28.8761 1.27012C29.2478 1.56424 29.5086 1.97614 29.6154 2.43816C27.984 5.38697 26.3383 8.30733 24.7086 11.2544C26.5817 11.2544 28.414 11.2401 30.3299 11.2544L29.7363 10.1535H27.6836L28.6842 8.33579C29.1569 7.41806 29.9016 6.80269 30.8168 6.78846C31.2846 6.78127 31.7434 6.91725 32.1319 7.17821C32.5203 7.43916 32.8198 7.81264 32.9903 8.24864C34.9364 11.6848 37.053 15.2916 38.6969 18.413H34.4316L32.5318 15.1209Z" fill="black"/>
<path fill-rule="evenodd" clip-rule="evenodd" d="M46.0205 6.34482H46.2214C46.3883 6.34878 46.5553 6.33926 46.7207 6.31636C46.7853 6.29738 46.8412 6.2565 46.8789 6.20076C46.9159 6.14885 46.9358 6.08667 46.9358 6.0229C46.9307 5.96004 46.9113 5.89918 46.8789 5.84505C46.8383 5.79567 46.7828 5.76074 46.7207 5.74545C46.5572 5.70747 46.389 5.6931 46.2214 5.70277H46.0205V6.34482ZM45.5638 7.66094V5.35773H46.7652C46.89 5.3613 47.0121 5.3955 47.1206 5.45733C47.2101 5.50689 47.2831 5.58174 47.3303 5.67253C47.3868 5.77293 47.4162 5.88633 47.4156 6.00156C47.4186 6.15925 47.3621 6.31227 47.2575 6.43019C47.1396 6.56166 46.9765 6.64363 46.8007 6.65962C46.8598 6.67278 46.9141 6.70237 46.9571 6.74499C47.0209 6.79337 47.0747 6.85379 47.1153 6.92284C47.1295 6.93707 47.1864 7.03667 47.293 7.20919L47.5649 7.66627H46.9927L46.7972 7.28922C46.7225 7.10987 46.6104 6.94856 46.4684 6.81613C46.3791 6.74577 46.2673 6.71036 46.1538 6.71653H46.0241V7.66094H45.5638ZM46.5501 4.75481C46.2462 4.75511 45.9468 4.82894 45.6775 4.97001C45.4087 5.1254 45.1865 5.35021 45.0342 5.62096C44.8813 5.89218 44.8022 6.19883 44.8049 6.51022C44.8025 6.81202 44.8818 7.10884 45.0342 7.36926C45.1746 7.65101 45.3995 7.88174 45.6775 8.0291C45.876 8.14454 46.0956 8.21909 46.3233 8.24837C46.5511 8.27764 46.7823 8.26106 47.0036 8.19958C47.2248 8.1381 47.4315 8.03297 47.6115 7.89038C47.7915 7.74778 47.9413 7.5706 48.0519 7.36926C48.2077 7.1096 48.2918 6.81311 48.2953 6.51022C48.2922 6.19774 48.2084 5.89138 48.0519 5.62096C47.8981 5.35319 47.6761 5.13103 47.4085 4.97712C47.1437 4.83693 46.8497 4.76079 46.5501 4.75481ZM46.5359 4.32618C46.9086 4.32518 47.2755 4.41881 47.6022 4.5983C47.9427 4.78059 48.2216 5.05969 48.4038 5.40042C48.6026 5.73651 48.7081 6.11965 48.7094 6.51022C48.7053 6.88436 48.6069 7.2514 48.4233 7.57735C48.2371 7.91447 47.96 8.19242 47.6236 8.37947C47.2934 8.57132 46.9176 8.67026 46.5359 8.66581C46.1611 8.66916 45.7924 8.57016 45.4696 8.37947C45.1286 8.19662 44.8487 7.91775 44.6645 7.57735C44.4759 7.25356 44.3777 6.885 44.3802 6.51022C44.3835 6.12549 44.4811 5.74744 44.6645 5.40931C44.8519 5.07247 45.1295 4.79467 45.466 4.60719C45.7931 4.42431 46.1613 4.32761 46.5359 4.32618Z" fill="black"/>
<path d="M2.50226 18.3809C2.19346 18.435 1.8809 18.4648 1.56745 18.4699C1.37102 18.4798 1.17447 18.4527 0.988081 18.3898C0.931338 18.3716 0.88073 18.338 0.841842 18.2928C0.802955 18.2477 0.7773 18.1926 0.767709 18.1337C0.752708 17.9905 0.777299 17.8459 0.838797 17.7158C0.926074 17.5099 1.02947 17.3113 1.14803 17.1217C1.36903 16.7151 1.67155 16.3584 2.03663 16.0742C2.3718 15.8639 2.76282 15.7603 3.15804 15.7772C3.44646 15.7806 3.73366 15.8152 4.01465 15.8803L3.74096 16.3C3.50133 16.2655 3.25972 16.2465 3.01764 16.2431C2.85787 16.237 2.6983 16.2599 2.54669 16.3107C2.41403 16.3684 2.29571 16.4546 2.20013 16.5633C2.03181 16.7621 1.88191 16.9758 1.75228 17.2018C1.57456 17.5006 1.48747 17.7087 1.50169 17.8243C1.51591 17.9399 1.65098 18.0021 1.90512 18.0021C2.1867 18.0004 2.46795 17.9825 2.74751 17.9488L2.50226 18.3809Z" fill="black"/>
<path d="M5.44178 18.1468C5.08186 18.3721 4.66292 18.4848 4.23861 18.4705C3.76469 18.4705 3.49337 18.3626 3.42465 18.1468C3.36067 17.9333 3.46553 17.5954 3.74277 17.1383C3.96933 16.7361 4.27965 16.3874 4.6527 16.1157C5.01314 15.8845 5.43507 15.7679 5.86297 15.7813C6.33926 15.7813 6.6094 15.8934 6.66982 16.1157C6.73025 16.338 6.62184 16.6795 6.34459 17.1366C6.12189 17.5359 5.81356 17.8809 5.44178 18.1468ZM4.12665 17.8124C4.13731 17.9458 4.26705 18.0116 4.51585 18.0116C4.74266 18.0188 4.96518 17.9486 5.14676 17.8124C5.3652 17.6216 5.54865 17.3941 5.68881 17.1401C5.87897 16.8253 5.97138 16.5977 5.96427 16.4554C5.95716 16.3131 5.83276 16.2419 5.58573 16.2419C5.35533 16.2371 5.13042 16.3125 4.94949 16.4554C4.72766 16.6505 4.54074 16.8821 4.39678 17.1401C4.20662 17.4549 4.11776 17.679 4.12665 17.8124Z" fill="black"/>
<path d="M6.25049 18.4269L7.81976 15.832H8.88608L8.35292 17.9663H8.40979L9.70181 15.832H10.338L8.76523 18.4269H7.71668L8.23207 16.2927H8.17875L6.88673 18.4269H6.25049Z" fill="black"/>
<path d="M10.592 16.2931L10.8728 15.8271H13.1831L12.8988 16.2931H12.067L10.7786 18.4274H10.1423L11.4308 16.2931H10.592Z" fill="black"/>
<path d="M13.313 17.5543L12.7799 18.424H12.1418L13.7129 15.8291H14.9303C15.6672 15.8291 15.8639 16.1143 15.5203 16.6846C15.3079 17.0288 14.9862 17.2918 14.6068 17.4316L14.4611 18.4275H13.7644L13.919 17.5543H13.313ZM14.5819 16.9887C14.7013 16.9122 14.8016 16.8094 14.8752 16.6881C14.9086 16.6469 14.9317 16.5983 14.9426 16.5463C14.9534 16.4943 14.9516 16.4405 14.9374 16.3893C14.9036 16.3164 14.813 16.2791 14.6655 16.2791H14.0843L13.5849 17.1043H14.175C14.3189 17.106 14.4603 17.0658 14.5819 16.9887Z" fill="black"/>
<path d="M17.4859 18.1468C17.126 18.3721 16.707 18.4848 16.2827 18.4705C15.8064 18.4705 15.5345 18.362 15.4706 18.1468C15.4066 17.9316 15.5114 17.5954 15.7887 17.1384C16.0141 16.7354 16.3246 16.3864 16.6986 16.1157C17.0583 15.8844 17.4797 15.7678 17.9071 15.7813C18.381 15.7813 18.65 15.8928 18.7139 16.1157C18.7744 16.338 18.666 16.6795 18.3887 17.1366C18.1665 17.5363 17.8581 17.8814 17.4859 18.1468ZM16.1708 17.8124C16.1814 17.9458 16.3112 18.0116 16.56 18.0116C16.7868 18.0189 17.0093 17.9486 17.1909 17.8124C17.4066 17.6213 17.587 17.3938 17.724 17.1401C17.9231 16.8271 18.0155 16.5977 18.0066 16.4554C17.9977 16.3131 17.8751 16.242 17.6298 16.242C17.3988 16.2367 17.1732 16.3122 16.9918 16.4554C16.77 16.6505 16.5831 16.8821 16.4391 17.1401C16.2507 17.4549 16.1619 17.679 16.1708 17.8124Z" fill="black"/>
<path d="M20.0788 18.4271H18.3015L19.8709 15.832H20.4947L19.2079 17.9664H20.3561L20.0788 18.4271Z" fill="black"/>
<path d="M22.3947 18.4271H20.6174L22.1868 15.832H22.8231L21.5363 17.9664H22.6844L22.3947 18.4271Z" fill="black"/>
<path d="M22.9258 18.4269L24.495 15.832H26.5246L26.2474 16.2927H24.854L24.4879 16.8992H25.604L25.3321 17.3491H24.216L23.8393 17.9716H25.2326L24.9553 18.4269H22.9258Z" fill="black"/>
<path d="M26.7822 17.5543L26.249 18.424H25.6128L27.1821 15.8291H28.3994C29.1388 15.8291 29.3354 16.1143 28.9895 16.6846C28.7775 17.0292 28.4557 17.2923 28.076 17.4316L27.9303 18.4275H27.2336L27.3953 17.5578L26.7822 17.5543ZM28.0511 16.9887C28.1714 16.9134 28.272 16.8103 28.3443 16.6881C28.3778 16.6469 28.4009 16.5983 28.4117 16.5463C28.4225 16.4943 28.4208 16.4405 28.4066 16.3893C28.3728 16.3164 28.2821 16.2791 28.1346 16.2791H27.5535L27.0541 17.1043H27.6459C27.7893 17.1059 27.9301 17.0658 28.0511 16.9887Z" fill="black"/>
<path d="M30.9019 16.2413C30.5678 16.2413 30.3439 16.332 30.2337 16.5152C30.1839 16.597 30.1875 16.6593 30.2461 16.6931C30.3937 16.7761 30.5514 16.8395 30.7153 16.8816C30.9007 16.9169 31.0686 17.0141 31.1916 17.1573C31.252 17.2604 31.2183 17.4187 31.0885 17.6322C30.929 17.8997 30.6949 18.1148 30.415 18.2511C30.1312 18.3903 29.8193 18.4621 29.5033 18.4609C29.226 18.4572 28.9498 18.4262 28.6787 18.3685L28.5276 18.3418L28.8475 17.9434C29.147 17.9821 29.4484 18.0047 29.7503 18.011C29.8855 18.0237 30.0216 17.9991 30.1438 17.9398C30.266 17.8806 30.3696 17.7889 30.4434 17.6748C30.4932 17.5948 30.4932 17.5308 30.4434 17.4845C30.3362 17.4116 30.2153 17.3614 30.088 17.3369C29.7823 17.2515 29.5904 17.1591 29.5139 17.0363C29.4375 16.9136 29.4624 16.7607 29.5868 16.5544C29.7366 16.3015 29.9589 16.0995 30.2248 15.9746C30.5062 15.8434 30.8137 15.7777 31.1241 15.7825C31.3993 15.7873 31.6738 15.8129 31.9451 15.8589L32.0944 15.8856L31.7923 16.3018C31.3747 16.2609 31.0814 16.2413 30.9019 16.2413Z" fill="black"/>
<path fill-rule="evenodd" clip-rule="evenodd" d="M16.7625 5.79994C16.6553 5.33825 16.3944 4.92675 16.0227 4.63298C15.651 4.33921 15.1906 4.18062 14.7169 4.18324C14.2521 4.17231 13.7951 4.30442 13.4076 4.56174C13.0202 4.81905 12.721 5.18916 12.5505 5.62208L7.38599 14.9914H11.6513L16.7625 5.79994Z" fill="black"/>
<path fill-rule="evenodd" clip-rule="evenodd" d="M11.3775 5.78708C11.2655 5.3278 11.0033 4.91913 10.6328 4.62593C10.2622 4.33272 9.80436 4.17176 9.33195 4.16861C8.86516 4.15748 8.40635 4.29116 8.01848 4.55131C7.63061 4.81147 7.33267 5.18535 7.16555 5.62168L1.9939 14.991H6.2414L11.3775 5.78708Z" fill="black"/>
<path fill-rule="evenodd" clip-rule="evenodd" d="M22.2204 5.79916C22.1132 5.33747 21.8523 4.92597 21.4806 4.6322C21.1089 4.33843 20.6485 4.17985 20.1748 4.18247C19.7094 4.16988 19.2515 4.3013 18.8634 4.5588C18.4754 4.81631 18.1762 5.18735 18.0067 5.6213L12.8528 14.9835H17.1003L22.2204 5.79916Z" fill="black"/>
<path fill-rule="evenodd" clip-rule="evenodd" d="M34.1631 8.40697C34.3781 7.40388 35.2792 6.81696 36.2086 6.78851C36.6768 6.77953 37.1364 6.9148 37.5252 7.17599C37.914 7.43718 38.2132 7.81165 38.3822 8.24868L44.0905 18.4273H39.8252L34.1631 8.40697Z" fill="black"/>
<path fill-rule="evenodd" clip-rule="evenodd" d="M39.5833 8.40714C39.6896 7.9475 39.9482 7.5374 40.317 7.24354C40.6858 6.94968 41.1432 6.78936 41.6146 6.78867C42.0833 6.77804 42.5439 6.91262 42.9333 7.174C43.3227 7.43538 43.6219 7.81079 43.7899 8.24885L49.4965 18.4274H45.2312L39.5833 8.40714Z" fill="black"/>
<path fill-rule="evenodd" clip-rule="evenodd" d="M32.5318 15.1209L21.8331 15.0764C21.2705 15.0798 20.7294 14.8605 20.3276 14.4665C19.9259 14.0724 19.6959 13.5354 19.688 12.9724C19.7031 12.5632 19.8211 12.1644 20.031 11.8128L25.3946 2.26564C25.5679 1.8323 25.8687 1.46194 26.2572 1.20369C26.6458 0.945447 27.1035 0.811522 27.5699 0.819688C28.0437 0.817158 28.5044 0.976 28.8761 1.27012C29.2478 1.56424 29.5086 1.97614 29.6154 2.43816C27.984 5.38697 26.3383 8.30733 24.7086 11.2544C26.5817 11.2544 28.414 11.2401 30.3299 11.2544L29.7363 10.1535H27.6836L28.6842 8.33579C29.1569 7.41806 29.9016 6.80269 30.8168 6.78846C31.2846 6.78127 31.7434 6.91725 32.1319 7.17821C32.5203 7.43916 32.8198 7.81264 32.9903 8.24864C34.9364 11.6848 37.053 15.2916 38.6969 18.413H34.4316L32.5318 15.1209Z" fill="black"/>
<path fill-rule="evenodd" clip-rule="evenodd" d="M46.0205 6.34482H46.2214C46.3883 6.34878 46.5553 6.33926 46.7207 6.31636C46.7853 6.29738 46.8412 6.2565 46.8789 6.20076C46.9159 6.14885 46.9358 6.08667 46.9358 6.0229C46.9307 5.96004 46.9113 5.89918 46.8789 5.84505C46.8383 5.79567 46.7828 5.76074 46.7207 5.74545C46.5572 5.70747 46.389 5.6931 46.2214 5.70277H46.0205V6.34482ZM45.5638 7.66094V5.35773H46.7652C46.89 5.3613 47.0121 5.3955 47.1206 5.45733C47.2101 5.50689 47.2831 5.58174 47.3303 5.67253C47.3868 5.77293 47.4162 5.88633 47.4156 6.00156C47.4186 6.15925 47.3621 6.31227 47.2575 6.43019C47.1396 6.56166 46.9765 6.64363 46.8007 6.65962C46.8598 6.67278 46.9141 6.70237 46.9571 6.74499C47.0209 6.79337 47.0747 6.85379 47.1153 6.92284C47.1295 6.93707 47.1864 7.03667 47.293 7.20919L47.5649 7.66627H46.9927L46.7972 7.28922C46.7225 7.10987 46.6104 6.94856 46.4684 6.81613C46.3791 6.74577 46.2673 6.71036 46.1538 6.71653H46.0241V7.66094H45.5638ZM46.5501 4.75481C46.2462 4.75511 45.9468 4.82894 45.6775 4.97001C45.4087 5.1254 45.1865 5.35021 45.0342 5.62096C44.8813 5.89218 44.8022 6.19883 44.8049 6.51022C44.8025 6.81202 44.8818 7.10884 45.0342 7.36926C45.1746 7.65101 45.3995 7.88174 45.6775 8.0291C45.876 8.14454 46.0956 8.21909 46.3233 8.24837C46.5511 8.27764 46.7823 8.26106 47.0036 8.19958C47.2248 8.1381 47.4315 8.03297 47.6115 7.89038C47.7915 7.74778 47.9413 7.5706 48.0519 7.36926C48.2077 7.1096 48.2918 6.81311 48.2953 6.51022C48.2922 6.19774 48.2084 5.89138 48.0519 5.62096C47.8981 5.35319 47.6761 5.13103 47.4085 4.97712C47.1437 4.83693 46.8497 4.76079 46.5501 4.75481ZM46.5359 4.32618C46.9086 4.32518 47.2755 4.41881 47.6022 4.5983C47.9427 4.78059 48.2216 5.05969 48.4038 5.40042C48.6026 5.73651 48.7081 6.11965 48.7094 6.51022C48.7053 6.88436 48.6069 7.2514 48.4233 7.57735C48.2371 7.91447 47.96 8.19242 47.6236 8.37947C47.2934 8.57132 46.9176 8.67026 46.5359 8.66581C46.1611 8.66916 45.7924 8.57016 45.4696 8.37947C45.1286 8.19662 44.8487 7.91775 44.6645 7.57735C44.4759 7.25356 44.3777 6.885 44.3802 6.51022C44.3835 6.12549 44.4811 5.74744 44.6645 5.40931C44.8519 5.07247 45.1295 4.79467 45.466 4.60719C45.7931 4.42431 46.1613 4.32761 46.5359 4.32618Z" fill="black"/>
<path d="M2.50226 18.3809C2.19346 18.435 1.8809 18.4648 1.56745 18.4699C1.37102 18.4798 1.17447 18.4527 0.988081 18.3898C0.931338 18.3716 0.88073 18.338 0.841842 18.2928C0.802955 18.2477 0.7773 18.1926 0.767709 18.1337C0.752708 17.9905 0.777299 17.8459 0.838797 17.7158C0.926074 17.5099 1.02947 17.3113 1.14803 17.1217C1.36903 16.7151 1.67155 16.3584 2.03663 16.0742C2.3718 15.8639 2.76282 15.7603 3.15804 15.7772C3.44646 15.7806 3.73366 15.8152 4.01465 15.8803L3.74096 16.3C3.50133 16.2655 3.25972 16.2465 3.01764 16.2431C2.85787 16.237 2.6983 16.2599 2.54669 16.3107C2.41403 16.3684 2.29571 16.4546 2.20013 16.5633C2.03181 16.7621 1.88191 16.9758 1.75228 17.2018C1.57456 17.5006 1.48747 17.7087 1.50169 17.8243C1.51591 17.9399 1.65098 18.0021 1.90512 18.0021C2.1867 18.0004 2.46795 17.9825 2.74751 17.9488L2.50226 18.3809Z" fill="black"/>
<path d="M5.44178 18.1468C5.08186 18.3721 4.66292 18.4848 4.23861 18.4705C3.76469 18.4705 3.49337 18.3626 3.42465 18.1468C3.36067 17.9333 3.46553 17.5954 3.74277 17.1383C3.96933 16.7361 4.27965 16.3874 4.6527 16.1157C5.01314 15.8845 5.43507 15.7679 5.86297 15.7813C6.33926 15.7813 6.6094 15.8934 6.66982 16.1157C6.73025 16.338 6.62184 16.6795 6.34459 17.1366C6.12189 17.5359 5.81356 17.8809 5.44178 18.1468ZM4.12665 17.8124C4.13731 17.9458 4.26705 18.0116 4.51585 18.0116C4.74266 18.0188 4.96518 17.9486 5.14676 17.8124C5.3652 17.6216 5.54865 17.3941 5.68881 17.1401C5.87897 16.8253 5.97138 16.5977 5.96427 16.4554C5.95716 16.3131 5.83276 16.2419 5.58573 16.2419C5.35533 16.2371 5.13042 16.3125 4.94949 16.4554C4.72766 16.6505 4.54074 16.8821 4.39678 17.1401C4.20662 17.4549 4.11776 17.679 4.12665 17.8124Z" fill="black"/>
<path d="M6.25049 18.4269L7.81976 15.832H8.88608L8.35292 17.9663H8.40979L9.70181 15.832H10.338L8.76523 18.4269H7.71668L8.23207 16.2927H8.17875L6.88673 18.4269H6.25049Z" fill="black"/>
<path d="M10.592 16.2931L10.8728 15.8271H13.1831L12.8988 16.2931H12.067L10.7786 18.4274H10.1423L11.4308 16.2931H10.592Z" fill="black"/>
<path d="M13.313 17.5543L12.7799 18.424H12.1418L13.7129 15.8291H14.9303C15.6672 15.8291 15.8639 16.1143 15.5203 16.6846C15.3079 17.0288 14.9862 17.2918 14.6068 17.4316L14.4611 18.4275H13.7644L13.919 17.5543H13.313ZM14.5819 16.9887C14.7013 16.9122 14.8016 16.8094 14.8752 16.6881C14.9086 16.6469 14.9317 16.5983 14.9426 16.5463C14.9534 16.4943 14.9516 16.4405 14.9374 16.3893C14.9036 16.3164 14.813 16.2791 14.6655 16.2791H14.0843L13.5849 17.1043H14.175C14.3189 17.106 14.4603 17.0658 14.5819 16.9887Z" fill="black"/>
<path d="M17.4859 18.1468C17.126 18.3721 16.707 18.4848 16.2827 18.4705C15.8064 18.4705 15.5345 18.362 15.4706 18.1468C15.4066 17.9316 15.5114 17.5954 15.7887 17.1384C16.0141 16.7354 16.3246 16.3864 16.6986 16.1157C17.0583 15.8844 17.4797 15.7678 17.9071 15.7813C18.381 15.7813 18.65 15.8928 18.7139 16.1157C18.7744 16.338 18.666 16.6795 18.3887 17.1366C18.1665 17.5363 17.8581 17.8814 17.4859 18.1468ZM16.1708 17.8124C16.1814 17.9458 16.3112 18.0116 16.56 18.0116C16.7868 18.0189 17.0093 17.9486 17.1909 17.8124C17.4066 17.6213 17.587 17.3938 17.724 17.1401C17.9231 16.8271 18.0155 16.5977 18.0066 16.4554C17.9977 16.3131 17.8751 16.242 17.6298 16.242C17.3988 16.2367 17.1732 16.3122 16.9918 16.4554C16.77 16.6505 16.5831 16.8821 16.4391 17.1401C16.2507 17.4549 16.1619 17.679 16.1708 17.8124Z" fill="black"/>
<path d="M20.0788 18.4271H18.3015L19.8709 15.832H20.4947L19.2079 17.9664H20.3561L20.0788 18.4271Z" fill="black"/>
<path d="M22.3947 18.4271H20.6174L22.1868 15.832H22.8231L21.5363 17.9664H22.6844L22.3947 18.4271Z" fill="black"/>
<path d="M22.9258 18.4269L24.495 15.832H26.5246L26.2474 16.2927H24.854L24.4879 16.8992H25.604L25.3321 17.3491H24.216L23.8393 17.9716H25.2326L24.9553 18.4269H22.9258Z" fill="black"/>
<path d="M26.7822 17.5543L26.249 18.424H25.6128L27.1821 15.8291H28.3994C29.1388 15.8291 29.3354 16.1143 28.9895 16.6846C28.7775 17.0292 28.4557 17.2923 28.076 17.4316L27.9303 18.4275H27.2336L27.3953 17.5578L26.7822 17.5543ZM28.0511 16.9887C28.1714 16.9134 28.272 16.8103 28.3443 16.6881C28.3778 16.6469 28.4009 16.5983 28.4117 16.5463C28.4225 16.4943 28.4208 16.4405 28.4066 16.3893C28.3728 16.3164 28.2821 16.2791 28.1346 16.2791H27.5535L27.0541 17.1043H27.6459C27.7893 17.1059 27.9301 17.0658 28.0511 16.9887Z" fill="black"/>
<path d="M30.9019 16.2413C30.5678 16.2413 30.3439 16.332 30.2337 16.5152C30.1839 16.597 30.1875 16.6593 30.2461 16.6931C30.3937 16.7761 30.5514 16.8395 30.7153 16.8816C30.9007 16.9169 31.0686 17.0141 31.1916 17.1573C31.252 17.2604 31.2183 17.4187 31.0885 17.6322C30.929 17.8997 30.6949 18.1148 30.415 18.2511C30.1312 18.3903 29.8193 18.4621 29.5033 18.4609C29.226 18.4572 28.9498 18.4262 28.6787 18.3685L28.5276 18.3418L28.8475 17.9434C29.147 17.9821 29.4484 18.0047 29.7503 18.011C29.8855 18.0237 30.0216 17.9991 30.1438 17.9398C30.266 17.8806 30.3696 17.7889 30.4434 17.6748C30.4932 17.5948 30.4932 17.5308 30.4434 17.4845C30.3362 17.4116 30.2153 17.3614 30.088 17.3369C29.7823 17.2515 29.5904 17.1591 29.5139 17.0363C29.4375 16.9136 29.4624 16.7607 29.5868 16.5544C29.7366 16.3015 29.9589 16.0995 30.2248 15.9746C30.5062 15.8434 30.8137 15.7777 31.1241 15.7825C31.3993 15.7873 31.6738 15.8129 31.9451 15.8589L32.0944 15.8856L31.7923 16.3018C31.3747 16.2609 31.0814 16.2413 30.9019 16.2413Z" fill="black"/>
</svg>
