<svg width="53" height="20" viewBox="0 0 53 20" fill="none" xmlns="http://www.w3.org/2000/svg">
<path d="M34.5521 9.07272V10.2593H36.2145V11.3254H32.8957V8.00659H40.0092V4.21191H30.5165C29.7274 4.21191 29.095 4.85038 29.095 5.63341V13.6986C29.095 14.4877 29.7334 15.1201 30.5165 15.1201H38.5817C39.3707 15.1201 40.0032 14.4816 40.0032 13.6986V9.07272H34.5521Z" fill="black"/>
<path d="M50.827 4.20605H42.7618C41.9728 4.20605 41.3403 4.84452 41.3403 5.62755V13.6927C41.3403 14.4818 41.9788 15.1142 42.7618 15.1142H50.827C51.6161 15.1142 52.2485 14.4758 52.2485 13.6927V5.62755C52.2485 4.84452 51.6101 4.20605 50.827 4.20605ZM48.4539 11.3256H45.135V8.00676H48.4539V11.3256Z" fill="black"/>
<path d="M21.3792 4.20605L13.5248 16.3069H12.1636L13.9284 19.0294L19.7529 16.3069H18.0483L20.0541 13.2229H23.9692V15.1203H27.7639V4.20605H21.3792ZM21.2889 11.3256L23.9692 7.19963V11.3256H21.2889Z" fill="black"/>
<path d="M4.89939 15.1202L8.19413 10.0486V15.1202H12.7538L20.6142 3.01941H21.8429L20.0781 0.296875L14.2476 3.01941H16.0425L11.9888 9.25955V4.206H7.46532L4.18262 9.25352V4.206H0.387939V15.1202H4.89939Z" fill="black"/>
</svg>
