<svg width="1824" height="625" viewBox="0 0 1824 625" fill="none" xmlns="http://www.w3.org/2000/svg">
<path d="M1002.67 255.157C1000.4 258.837 997.436 261.78 993.791 263.987C990.144 266.195 986.248 267.299 982.101 267.299H957.618V193.247H984.108C989.191 193.849 993.54 195.84 997.152 199.217C1000.76 202.596 1002.57 206.692 1002.57 211.509C1002.57 212.446 1002.24 214.787 1001.57 218.533C1000.9 222.28 997.486 225.155 991.333 227.162L988.021 228.065C992.903 228.601 996.934 230.658 1000.11 234.236C1003.29 237.815 1004.88 241.947 1004.88 246.628C1004.88 249.572 1004.14 252.415 1002.67 255.157ZM988.423 214.82C988.423 211.343 987.134 208.834 984.559 207.295C981.983 205.757 978.756 204.986 974.877 204.986L972.569 205.388V223.249C973.237 223.316 973.823 223.366 974.325 223.399C974.827 223.434 975.278 223.449 975.679 223.449C979.224 223.449 982.234 222.797 984.71 221.493C987.184 220.188 988.423 217.965 988.423 214.82ZM989.727 247.531C989.86 246.596 989.927 245.926 989.927 245.525C989.927 242.314 988.656 239.822 986.115 238.049C983.572 236.277 980.496 235.39 976.884 235.39C976.146 235.39 975.529 235.407 975.027 235.441C974.525 235.475 973.706 235.591 972.569 235.791V255.76C973.839 256.028 975.311 256.161 976.984 256.161C980.128 256.161 982.904 255.476 985.312 254.104C987.72 252.734 989.191 250.542 989.727 247.531Z" fill="#1A1A1A"/>
<path d="M1121.07 267.299H1105.62L1100.2 207.295L1081.94 267.299H1073.31L1054.85 206.19L1049.03 267.299H1034.28L1045.31 193.046L1061.57 193.048L1078.12 247.467L1093.31 193.058L1110.15 193.046L1121.07 267.299Z" fill="#1A1A1A"/>
<path d="M1197.53 235.19H1170.74V254.355H1197.33V267.299H1155.79V193.046H1197.33V205.789H1170.74V223.048H1197.53V235.19Z" fill="#1A1A1A"/>
<path d="M1504.18 370.539H1485.41V432.048H1470.46V370.539H1451.7V357.796H1504.18L1504.18 370.539Z" fill="#1A1A1A"/>
<path d="M1598.9 399.939H1572.11V419.104H1598.7V432.048H1557.16V357.796H1598.7V370.539H1572.11V387.798H1598.9V399.939Z" fill="#1A1A1A"/>
<path d="M1715.59 432.048H1699.34L1694.22 416.194H1667.03L1662.31 432.048H1646.66L1673.05 357.796H1689.41L1715.59 432.048ZM1690.31 404.454L1680.98 370.539L1671.34 404.454H1690.31Z" fill="#1A1A1A"/>
<path d="M1823.46 432.048H1808.01L1802.59 372.044L1784.33 432.048H1775.7L1757.24 370.94L1751.42 432.048H1736.67L1747.7 357.796L1763.96 357.797L1780.5 412.217L1795.7 357.807L1812.54 357.796L1823.46 432.048Z" fill="#1A1A1A"/>
<path d="M1398.62 200.472L1389.59 210.706C1388.18 208.634 1386.51 207.011 1384.57 205.84C1382.63 204.67 1380.59 204.084 1378.45 204.084C1376.04 204.084 1373.77 204.853 1371.62 206.392C1369.88 208.132 1369.02 210.104 1369.02 212.311C1369.02 214.921 1370.32 217.228 1372.93 219.235L1388.98 227.162C1392.46 229.169 1395.12 231.846 1396.96 235.189C1398.8 238.535 1399.72 242.147 1399.72 246.026C1399.72 249.171 1399.07 252.247 1397.76 255.258C1396.46 258.267 1394.54 260.911 1391.99 263.184C1387.11 266.731 1381.42 268.503 1374.94 268.503C1368.98 268.503 1363.7 266.998 1359.08 263.987C1356.87 262.382 1354.9 260.61 1353.16 258.669L1361.19 247.933C1363.26 250.408 1365.44 252.397 1367.71 253.903C1369.98 255.408 1372.39 256.161 1374.94 256.161C1376.81 256.161 1378.71 255.626 1380.66 254.556C1383.73 253.017 1385.27 250.408 1385.27 246.728C1385.27 244.521 1384.89 242.983 1384.12 242.113C1383.35 241.244 1382.61 240.542 1381.91 240.006C1381.21 239.471 1380.66 239.037 1380.25 238.701L1363.6 230.474C1357.84 225.523 1354.97 219.805 1354.97 213.315C1354.97 212.713 1355.02 211.978 1355.12 211.107C1355.22 210.239 1355.65 208.333 1356.42 205.388C1357.19 202.445 1359.55 199.385 1363.5 196.207C1367.44 193.03 1372.16 191.44 1377.65 191.44C1381.73 191.44 1385.62 192.193 1389.34 193.698C1393.05 195.203 1396.14 197.461 1398.62 200.472Z" fill="#F9AC1B"/>
<path d="M1519.63 228.467C1519.63 239.439 1515.92 248.903 1508.49 256.863C1501.07 264.824 1492 268.804 1481.3 268.804C1470.06 268.804 1460.26 265.309 1451.9 258.318C1443.53 251.329 1439.36 242.515 1439.36 231.878C1439.36 220.908 1443.07 211.443 1450.49 203.481C1457.92 195.521 1467.01 191.541 1477.79 191.541C1489.09 191.541 1498.89 195.037 1507.19 202.026C1515.48 209.018 1519.63 217.83 1519.63 228.467ZM1505.08 230.474C1505.08 223.384 1502.55 217.379 1497.5 212.462C1492.45 207.546 1486.38 205.087 1479.29 205.087C1472.2 205.087 1466.2 207.613 1461.28 212.663C1456.36 217.715 1453.91 223.785 1453.91 230.875C1453.91 237.899 1456.45 243.886 1461.53 248.836C1466.61 253.787 1472.7 256.261 1479.79 256.261C1486.88 256.261 1492.87 253.753 1497.75 248.735C1502.64 243.719 1505.08 237.632 1505.08 230.474Z" fill="#F9AC1B"/>
<path d="M1600.5 267.299H1562.07V193.046H1576.72V254.355H1600.5L1600.5 267.299Z" fill="#F9AC1B"/>
<path d="M1715.59 267.299H1699.34L1694.22 251.444H1667.03L1662.31 267.299H1646.66L1673.05 193.046H1689.41L1715.59 267.299ZM1690.31 239.705L1680.98 205.789L1671.34 239.705H1690.31Z" fill="#F9AC1B"/>
<path d="M1807.61 267.299H1789.65L1770.58 232.982V267.299H1755.83V193.046L1783.32 193.247C1788.74 193.247 1793.36 195.311 1797.17 199.437C1800.98 203.564 1802.89 208.389 1802.89 213.912C1802.89 216.242 1802.49 218.572 1801.69 220.902C1800.42 224.231 1798.49 226.976 1795.92 229.14C1793.34 231.303 1790.31 232.584 1786.84 232.983L1807.61 267.299ZM1783.53 207.295C1781.85 206.358 1780.15 205.789 1778.41 205.589H1770.58V225.155H1780.11C1782.39 224.487 1784.24 223.198 1785.68 221.292C1787.12 219.386 1787.84 217.329 1787.84 215.121C1787.84 213.583 1787.49 212.145 1786.79 210.807C1786.08 209.469 1785 208.298 1783.53 207.295Z" fill="#F9AC1B"/>
<path d="M1002.67 419.906C1000.4 423.586 997.436 426.529 993.791 428.736C990.144 430.944 986.248 432.048 982.101 432.048H957.618V357.996H984.108C989.191 358.599 993.54 360.589 997.152 363.967C1000.76 367.345 1002.57 371.441 1002.57 376.258C1002.57 377.195 1002.24 379.536 1001.57 383.282C1000.9 387.029 997.486 389.904 991.333 391.911L988.021 392.814C992.903 393.35 996.934 395.407 1000.11 398.985C1003.29 402.564 1004.88 406.696 1004.88 411.378C1004.88 414.322 1004.14 417.164 1002.67 419.906ZM988.423 379.569C988.423 376.092 987.134 373.584 984.559 372.044C981.983 370.506 978.756 369.736 974.877 369.736L972.569 370.138V387.998C973.237 388.066 973.823 388.115 974.325 388.149C974.827 388.184 975.278 388.199 975.679 388.199C979.224 388.199 982.234 387.547 984.71 386.242C987.184 384.938 988.423 382.715 988.423 379.569ZM989.727 412.28C989.86 411.345 989.927 410.675 989.927 410.273C989.927 407.063 988.656 404.571 986.115 402.799C983.572 401.026 980.496 400.14 976.884 400.14C976.146 400.14 975.529 400.156 975.027 400.189C974.525 400.224 973.706 400.34 972.569 400.541V420.509C973.839 420.777 975.311 420.91 976.984 420.91C980.128 420.91 982.904 420.225 985.312 418.853C987.72 417.483 989.191 415.291 989.727 412.28Z" fill="#F9AC1B"/>
<path d="M1118.26 393.216C1118.26 404.187 1114.55 413.652 1107.13 421.612C1099.7 429.574 1090.64 433.553 1079.93 433.553C1068.7 433.553 1058.89 430.059 1050.53 423.067C1042.17 416.078 1037.99 407.264 1037.99 396.628C1037.99 385.657 1041.7 376.192 1049.13 368.23C1056.55 360.271 1065.65 356.29 1076.42 356.29C1087.73 356.29 1097.53 359.786 1105.82 366.776C1114.11 373.766 1118.26 382.58 1118.26 393.216ZM1103.71 395.223C1103.71 388.133 1101.19 382.128 1096.14 377.212C1091.09 372.295 1085.02 369.836 1077.93 369.836C1070.84 369.836 1064.83 372.362 1059.92 377.412C1055 382.464 1052.54 388.534 1052.54 395.624C1052.54 402.647 1055.08 408.636 1060.17 413.585C1065.25 418.536 1071.34 421.011 1078.43 421.011C1085.52 421.011 1091.51 418.502 1096.39 413.484C1101.27 408.468 1103.71 402.382 1103.71 395.223Z" fill="#F9AC1B"/>
<path d="M1213.89 432.048H1197.63L1192.52 416.194H1165.32L1160.61 432.048H1144.95L1171.34 357.796H1187.7L1213.89 432.048ZM1188.6 404.454L1179.27 370.539L1169.64 404.454H1188.6Z" fill="#F9AC1B"/>
<path d="M1303.49 370.539H1284.73V432.048H1269.78V370.539H1251.02V357.796H1303.49L1303.49 370.539Z" fill="#F9AC1B"/>
<g opacity="0.5">
<path d="M385.192 155.969C391.857 148.082 399.058 140.828 406.42 133.766C413.803 126.729 421.397 119.94 429.17 113.366C436.943 106.789 444.904 100.435 453.074 94.3293C461.264 88.2471 469.619 82.3603 478.515 77.1128C471.856 85.0079 464.658 92.2638 457.294 99.3242C449.911 106.361 442.318 113.15 434.536 119.716C426.756 126.284 418.796 132.638 410.626 138.743C402.434 144.824 394.081 150.713 385.192 155.969Z" fill="url(#paint0_linear_120_2914)"/>
<path d="M400.797 181.717C407.437 173.778 414.615 166.471 421.955 159.354C429.317 152.261 436.891 145.417 444.646 138.785C452.4 132.151 460.343 125.739 468.497 119.574C476.671 113.432 485.011 107.485 493.895 102.174C487.263 110.12 480.087 117.43 472.745 124.545C465.382 131.637 457.809 138.482 450.047 145.106C442.285 151.731 434.343 158.143 426.188 164.308C418.013 170.448 409.674 176.398 400.797 181.717Z" fill="url(#paint1_linear_120_2914)"/>
<path d="M416.403 207.464C423.016 199.475 430.172 192.114 437.491 184.941C444.831 177.794 452.385 170.894 460.122 164.204C467.857 157.513 475.782 151.043 483.92 144.818C492.078 138.617 500.403 132.61 509.276 127.235C502.669 135.233 495.516 142.597 488.195 149.767C480.854 156.914 473.3 163.815 465.557 170.496C457.814 177.178 449.889 183.649 441.751 189.873C433.591 196.072 425.268 202.082 416.403 207.464Z" fill="url(#paint2_linear_120_2914)"/>
</g>
<path d="M252.207 428.836L86.1204 475.957L0.539307 109.167L150.104 299.143L241.029 414.64L252.207 428.836Z" fill="url(#paint3_linear_120_2914)"/>
<path d="M186.164 241.553L150.104 299.143L0.539307 109.167L186.164 241.553Z" fill="url(#paint4_linear_120_2914)"/>
<path d="M297.118 64.2471L241.029 414.641L150.104 299.143L186.164 241.553L297.118 64.2471Z" fill="url(#paint5_linear_120_2914)"/>
<path d="M750.539 0.621582L627.523 624.371L252.207 428.836L274.204 409.931L339.963 353.424L390.043 310.396L425.536 279.896L750.539 0.621582Z" fill="url(#paint6_linear_120_2914)"/>
<path d="M627.523 624.371L86.1204 475.957L252.207 428.836L627.523 624.371Z" fill="url(#paint7_linear_120_2914)"/>
<path d="M297.118 64.2471L288.724 190.839L281.556 298.993L274.204 409.931L252.207 428.836L241.029 414.641L297.118 64.2471Z" fill="url(#paint8_linear_120_2914)"/>
<path d="M339.963 353.424L274.204 409.931L281.556 298.993L327.626 270.144L339.963 353.424Z" fill="url(#paint9_linear_120_2914)"/>
<path d="M425.536 279.896L390.043 310.396L365.82 246.229L394.711 228.132L425.536 279.896Z" fill="url(#paint10_linear_120_2914)"/>
<path d="M394.711 228.132L365.82 246.229L337.546 171.334L356.401 163.799L394.711 228.132Z" fill="url(#paint11_linear_120_2914)"/>
<path d="M314.356 180.603L288.724 190.839L297.118 64.2471L314.356 180.603Z" fill="url(#paint12_linear_120_2914)"/>
<path d="M356.401 163.799L337.546 171.334L297.118 64.2471L356.401 163.799Z" fill="url(#paint13_linear_120_2914)"/>
<path d="M365.82 246.229L327.626 270.144L314.356 180.603L337.546 171.334L365.82 246.229Z" fill="url(#paint14_linear_120_2914)"/>
<path d="M390.043 310.396L339.963 353.424L327.626 270.143L365.82 246.229L390.043 310.396Z" fill="url(#paint15_linear_120_2914)"/>
<path d="M327.626 270.144L281.556 298.993L288.724 190.839L314.356 180.603L327.626 270.144Z" fill="url(#paint16_linear_120_2914)"/>
<path d="M337.546 171.334L314.356 180.603L297.118 64.2471L337.546 171.334Z" fill="url(#paint17_linear_120_2914)"/>
<g style="mix-blend-mode:hard-light">
<path d="M425.538 279.896L390.045 310.396L339.965 353.424L274.206 409.931L281.558 298.993L288.726 190.839L297.12 64.2468L356.403 163.798L394.713 228.132L425.538 279.896Z" fill="url(#paint18_linear_120_2914)"/>
</g>
<g style="mix-blend-mode:multiply" opacity="0.7">
<path d="M425.538 279.896L390.045 310.396L339.965 353.424L274.206 409.931L281.558 298.993L288.726 190.839L297.12 64.2468L356.403 163.798L394.713 228.132L425.538 279.896Z" fill="url(#paint19_linear_120_2914)"/>
</g>
<g style="mix-blend-mode:multiply">
<path d="M385.192 155.969C391.857 148.082 399.058 140.828 406.42 133.766C413.803 126.729 421.397 119.94 429.17 113.366C436.943 106.789 444.904 100.435 453.074 94.3293C461.264 88.2471 469.619 82.3603 478.515 77.1128C471.856 85.0079 464.658 92.2638 457.294 99.3242C449.911 106.361 442.318 113.15 434.536 119.716C426.756 126.284 418.796 132.638 410.626 138.743C402.434 144.824 394.081 150.713 385.192 155.969Z" fill="#F9AE1B"/>
<path d="M400.797 181.717C407.437 173.778 414.615 166.471 421.955 159.354C429.317 152.261 436.891 145.417 444.646 138.785C452.4 132.151 460.343 125.739 468.497 119.574C476.671 113.432 485.011 107.485 493.895 102.174C487.263 110.12 480.087 117.43 472.745 124.545C465.382 131.637 457.809 138.482 450.047 145.106C442.285 151.731 434.343 158.143 426.188 164.308C418.013 170.448 409.674 176.398 400.797 181.717Z" fill="#F9AE1B"/>
<path d="M416.403 207.464C423.016 199.475 430.172 192.114 437.491 184.941C444.831 177.794 452.385 170.894 460.122 164.204C467.857 157.513 475.782 151.043 483.92 144.818C492.078 138.617 500.403 132.61 509.276 127.235C502.669 135.233 495.516 142.597 488.195 149.767C480.854 156.914 473.3 163.815 465.557 170.496C457.814 177.178 449.889 183.649 441.751 189.873C433.591 196.072 425.268 202.082 416.403 207.464Z" fill="#F9AE1B"/>
</g>
<g style="mix-blend-mode:hard-light" opacity="0.5">
<path d="M385.192 155.969C391.857 148.082 399.058 140.828 406.42 133.766C413.803 126.729 421.397 119.94 429.17 113.366C436.943 106.789 444.904 100.435 453.074 94.3293C461.264 88.2471 469.619 82.3603 478.515 77.1128C471.856 85.0079 464.658 92.2638 457.294 99.3242C449.911 106.361 442.318 113.15 434.536 119.716C426.756 126.284 418.796 132.638 410.626 138.743C402.434 144.824 394.081 150.713 385.192 155.969Z" fill="#F9AE1B"/>
<path d="M400.797 181.717C407.437 173.778 414.615 166.471 421.955 159.354C429.317 152.261 436.891 145.417 444.646 138.785C452.4 132.151 460.343 125.739 468.497 119.574C476.671 113.432 485.011 107.485 493.895 102.174C487.263 110.12 480.087 117.43 472.745 124.545C465.382 131.637 457.809 138.482 450.047 145.106C442.285 151.731 434.343 158.143 426.188 164.308C418.013 170.448 409.674 176.398 400.797 181.717Z" fill="#F9AE1B"/>
<path d="M416.403 207.464C423.016 199.475 430.172 192.114 437.491 184.941C444.831 177.794 452.385 170.894 460.122 164.204C467.857 157.513 475.782 151.043 483.92 144.818C492.078 138.617 500.403 132.61 509.276 127.235C502.669 135.233 495.516 142.597 488.195 149.767C480.854 156.914 473.3 163.815 465.557 170.496C457.814 177.178 449.889 183.649 441.751 189.873C433.591 196.072 425.268 202.082 416.403 207.464Z" fill="#F9AE1B"/>
</g>
<defs>
<linearGradient id="paint0_linear_120_2914" x1="384.803" y1="163.257" x2="478.566" y2="69.4945" gradientUnits="userSpaceOnUse">
<stop stop-color="#808080"/>
<stop offset="0.0958" stop-color="#898989"/>
<stop offset="0.4798" stop-color="#ACACAC"/>
<stop offset="0.7949" stop-color="#C2C2C1"/>
<stop offset="1" stop-color="#CACAC9"/>
</linearGradient>
<linearGradient id="paint1_linear_120_2914" x1="400.161" y1="188.798" x2="494.194" y2="94.7646" gradientUnits="userSpaceOnUse">
<stop stop-color="#808080"/>
<stop offset="0.0958" stop-color="#898989"/>
<stop offset="0.4798" stop-color="#ACACAC"/>
<stop offset="0.7949" stop-color="#C2C2C1"/>
<stop offset="1" stop-color="#CACAC9"/>
</linearGradient>
<linearGradient id="paint2_linear_120_2914" x1="415.519" y1="214.338" x2="509.822" y2="120.035" gradientUnits="userSpaceOnUse">
<stop stop-color="#808080"/>
<stop offset="0.0958" stop-color="#898989"/>
<stop offset="0.4798" stop-color="#ACACAC"/>
<stop offset="0.7949" stop-color="#C2C2C1"/>
<stop offset="1" stop-color="#CACAC9"/>
</linearGradient>
<linearGradient id="paint3_linear_120_2914" x1="4.64659" y1="121.19" x2="165.882" y2="445.984" gradientUnits="userSpaceOnUse">
<stop stop-color="#CCCBCB"/>
<stop offset="1" stop-color="#E4E3E3"/>
</linearGradient>
<linearGradient id="paint4_linear_120_2914" x1="1.28872" y1="132.575" x2="174.293" y2="275.415" gradientUnits="userSpaceOnUse">
<stop stop-color="#B2B3B3"/>
<stop offset="1" stop-color="#808080"/>
</linearGradient>
<linearGradient id="paint5_linear_120_2914" x1="333.773" y1="87.0978" x2="188.94" y2="369.292" gradientUnits="userSpaceOnUse">
<stop stop-color="#E6E6E5"/>
<stop offset="0.2876" stop-color="#E3E3E2"/>
<stop offset="0.4956" stop-color="#D9D9D8"/>
<stop offset="0.6786" stop-color="#C9C9C9"/>
<stop offset="0.8461" stop-color="#B3B3B3"/>
<stop offset="1" stop-color="#989898"/>
</linearGradient>
<linearGradient id="paint6_linear_120_2914" x1="413.556" y1="523.209" x2="809.177" y2="220.175" gradientUnits="userSpaceOnUse">
<stop stop-color="#F2F2F2"/>
<stop offset="0.9083" stop-color="#CFCECE"/>
<stop offset="1" stop-color="#CCCBCB"/>
</linearGradient>
<linearGradient id="paint7_linear_120_2914" x1="353.452" y1="560.924" x2="385.675" y2="450.814" gradientUnits="userSpaceOnUse">
<stop stop-color="#B2B3B3"/>
<stop offset="0.4115" stop-color="#C4C5C4"/>
<stop offset="1" stop-color="#E6E6E5"/>
</linearGradient>
<linearGradient id="paint8_linear_120_2914" x1="257.896" y1="243.496" x2="307.589" y2="252.124" gradientUnits="userSpaceOnUse">
<stop stop-color="#CCCBCB"/>
<stop offset="0.0191" stop-color="#C4C3C4"/>
<stop offset="0.1111" stop-color="#A7A6A7"/>
<stop offset="0.2136" stop-color="#8F8F8F"/>
<stop offset="0.3291" stop-color="#7C7C7D"/>
<stop offset="0.465" stop-color="#6F6F70"/>
<stop offset="0.6408" stop-color="#686869"/>
<stop offset="1" stop-color="#666667"/>
</linearGradient>
<linearGradient id="paint9_linear_120_2914" x1="274.028" y1="339.873" x2="339.788" y2="339.873" gradientUnits="userSpaceOnUse">
<stop stop-color="#E6E6E5"/>
<stop offset="0.2971" stop-color="#E3E3E2"/>
<stop offset="0.4808" stop-color="#DADADA"/>
<stop offset="0.6337" stop-color="#CCCCCB"/>
<stop offset="0.7696" stop-color="#B7B7B7"/>
<stop offset="0.8932" stop-color="#9D9D9D"/>
<stop offset="1" stop-color="#808080"/>
</linearGradient>
<linearGradient id="paint10_linear_120_2914" x1="365.646" y1="269.098" x2="425.363" y2="269.098" gradientUnits="userSpaceOnUse">
<stop stop-color="#E6E6E5"/>
<stop offset="0.2971" stop-color="#E3E3E2"/>
<stop offset="0.4808" stop-color="#DADADA"/>
<stop offset="0.6337" stop-color="#CCCCCB"/>
<stop offset="0.7696" stop-color="#B7B7B7"/>
<stop offset="0.8932" stop-color="#9D9D9D"/>
<stop offset="1" stop-color="#808080"/>
</linearGradient>
<linearGradient id="paint11_linear_120_2914" x1="337.371" y1="204.847" x2="394.537" y2="204.847" gradientUnits="userSpaceOnUse">
<stop stop-color="#E6E6E5"/>
<stop offset="0.2971" stop-color="#E3E3E2"/>
<stop offset="0.4808" stop-color="#DADADA"/>
<stop offset="0.6337" stop-color="#CCCCCB"/>
<stop offset="0.7696" stop-color="#B7B7B7"/>
<stop offset="0.8932" stop-color="#9D9D9D"/>
<stop offset="1" stop-color="#808080"/>
</linearGradient>
<linearGradient id="paint12_linear_120_2914" x1="288.549" y1="127.374" x2="314.181" y2="127.374" gradientUnits="userSpaceOnUse">
<stop stop-color="#E6E6E5"/>
<stop offset="0.2971" stop-color="#E3E3E2"/>
<stop offset="0.4808" stop-color="#DADADA"/>
<stop offset="0.6337" stop-color="#CCCCCB"/>
<stop offset="0.7696" stop-color="#B7B7B7"/>
<stop offset="0.8932" stop-color="#9D9D9D"/>
<stop offset="1" stop-color="#808080"/>
</linearGradient>
<linearGradient id="paint13_linear_120_2914" x1="296.943" y1="117.622" x2="356.226" y2="117.622" gradientUnits="userSpaceOnUse">
<stop stop-color="#E6E6E5"/>
<stop offset="0.2971" stop-color="#E3E3E2"/>
<stop offset="0.4808" stop-color="#DADADA"/>
<stop offset="0.6337" stop-color="#CCCCCB"/>
<stop offset="0.7696" stop-color="#B7B7B7"/>
<stop offset="0.8932" stop-color="#9D9D9D"/>
<stop offset="1" stop-color="#808080"/>
</linearGradient>
<linearGradient id="paint14_linear_120_2914" x1="314.181" y1="220.572" x2="365.646" y2="220.572" gradientUnits="userSpaceOnUse">
<stop stop-color="#E6E6E5"/>
<stop offset="0.2971" stop-color="#E3E3E2"/>
<stop offset="0.4808" stop-color="#DADADA"/>
<stop offset="0.6337" stop-color="#CCCCCB"/>
<stop offset="0.7696" stop-color="#B7B7B7"/>
<stop offset="0.8932" stop-color="#9D9D9D"/>
<stop offset="1" stop-color="#808080"/>
</linearGradient>
<linearGradient id="paint15_linear_120_2914" x1="327.451" y1="299.661" x2="389.869" y2="299.661" gradientUnits="userSpaceOnUse">
<stop stop-color="#E6E6E5"/>
<stop offset="0.2971" stop-color="#E3E3E2"/>
<stop offset="0.4808" stop-color="#DADADA"/>
<stop offset="0.6337" stop-color="#CCCCCB"/>
<stop offset="0.7696" stop-color="#B7B7B7"/>
<stop offset="0.8932" stop-color="#9D9D9D"/>
<stop offset="1" stop-color="#808080"/>
</linearGradient>
<linearGradient id="paint16_linear_120_2914" x1="281.38" y1="239.632" x2="327.451" y2="239.632" gradientUnits="userSpaceOnUse">
<stop stop-color="#E6E6E5"/>
<stop offset="0.2971" stop-color="#E3E3E2"/>
<stop offset="0.4808" stop-color="#DADADA"/>
<stop offset="0.6337" stop-color="#CCCCCB"/>
<stop offset="0.7696" stop-color="#B7B7B7"/>
<stop offset="0.8932" stop-color="#9D9D9D"/>
<stop offset="1" stop-color="#808080"/>
</linearGradient>
<linearGradient id="paint17_linear_120_2914" x1="296.943" y1="122.256" x2="337.371" y2="122.256" gradientUnits="userSpaceOnUse">
<stop stop-color="#E6E6E5"/>
<stop offset="0.2971" stop-color="#E3E3E2"/>
<stop offset="0.4808" stop-color="#DADADA"/>
<stop offset="0.6337" stop-color="#CCCCCB"/>
<stop offset="0.7696" stop-color="#B7B7B7"/>
<stop offset="0.8932" stop-color="#9D9D9D"/>
<stop offset="1" stop-color="#808080"/>
</linearGradient>
<linearGradient id="paint18_linear_120_2914" x1="224.893" y1="277.973" x2="384.247" y2="170.015" gradientUnits="userSpaceOnUse">
<stop stop-color="#3C3E95"/>
<stop offset="0.5" stop-color="#93549F"/>
<stop offset="0.9572" stop-color="#F9AC1B"/>
</linearGradient>
<linearGradient id="paint19_linear_120_2914" x1="224.893" y1="277.973" x2="384.247" y2="170.015" gradientUnits="userSpaceOnUse">
<stop stop-color="#3C3E95"/>
<stop offset="0.5" stop-color="#93549F"/>
<stop offset="0.9572" stop-color="#F9AC1B"/>
</linearGradient>
</defs>
</svg>
