<svg width="270" height="90" viewBox="0 0 270 90" fill="none" xmlns="http://www.w3.org/2000/svg">
<path d="M17.4404 39.7344V38.1894H18.6338V29.9065H17.4404V28.3615H21.4872C22.8294 28.3716 23.82 28.5981 24.4556 29.0376C25.0912 29.4771 25.409 30.2074 25.409 31.2284C25.409 31.7828 25.2602 32.2527 24.9694 32.628C24.6787 33.0067 24.2831 33.3042 23.7896 33.5239C24.4522 33.7842 24.9593 34.146 25.3177 34.5956C25.676 35.0487 25.8518 35.6403 25.8518 36.3739C25.8518 37.3172 25.5848 38.0677 25.0573 38.6086C24.5299 39.1529 23.8098 39.5045 22.9072 39.6668C22.7584 39.6871 22.5928 39.704 22.4102 39.7141C22.2276 39.7243 22.0417 39.731 21.8524 39.731C21.663 39.7412 21.4839 39.7479 21.3081 39.7412C21.1323 39.7344 20.9734 39.731 20.8246 39.731H17.4404V39.7344ZM20.6894 32.8072H21.5109C21.5616 32.8173 21.6123 32.8241 21.6597 32.8241C21.707 32.8241 21.7577 32.8173 21.8084 32.8072C22.1972 32.7869 22.5522 32.6686 22.8801 32.459C23.2047 32.2494 23.367 31.8606 23.367 31.2892C23.367 30.87 23.2689 30.5623 23.0694 30.3595C22.87 30.1634 22.6502 30.0349 22.4068 29.9707C22.2682 29.9301 22.1397 29.9031 22.0113 29.8929C21.8828 29.8828 21.7746 29.876 21.6766 29.876H20.686V32.8038L20.6894 32.8072ZM20.6894 38.1894H21.5413C22.2242 38.1995 22.7719 38.0711 23.1878 37.8108C23.6036 37.5504 23.8098 37.0467 23.8098 36.3097C23.8098 35.8026 23.7084 35.4172 23.4954 35.1467C23.2858 34.8796 23.0559 34.6801 22.8024 34.5517C22.6232 34.4705 22.4474 34.4131 22.2851 34.386C22.1161 34.359 21.9944 34.3454 21.9065 34.3454H20.6961V38.186L20.6894 38.1928V38.1894Z" fill="black"/>
<path d="M27.0307 28.365H31.4427V29.91H30.2154V35.752C30.2154 36.3403 30.3236 36.8812 30.5434 37.3714C30.7631 37.865 31.3649 38.1084 32.3386 38.1084C33.2311 38.1084 33.7686 37.8616 33.958 37.3714C34.1473 36.8778 34.2386 36.3369 34.2386 35.752V29.91H33.0113V28.365H37.4233V29.91H36.2907V35.9413C36.2907 37.2328 35.9662 38.1862 35.317 38.7981C34.6645 39.4134 33.9478 39.7887 33.1567 39.9273C33.0181 39.9476 32.8863 39.9645 32.7578 39.9746C32.6259 39.9848 32.4975 39.9915 32.3724 39.9915C31.2297 39.9915 30.2391 39.667 29.4142 39.0179C28.5825 38.3654 28.1667 37.4323 28.1667 36.2118V29.9134H27.0341V28.3684H27.0273L27.0307 28.365Z" fill="black"/>
<path d="M39.5501 29.9065H38.3398V28.3615H42.3866C43.2385 28.3716 43.9316 28.4494 44.4624 28.5913C44.9965 28.7333 45.4225 28.8956 45.7403 29.0748C45.9499 29.1762 46.1257 29.281 46.2576 29.3824C46.3962 29.4805 46.5078 29.5616 46.6058 29.6292C46.6971 29.6901 46.8425 29.8152 47.0318 29.9944C47.2211 30.1736 47.4206 30.4102 47.6302 30.701C47.9108 31.0897 48.1677 31.5766 48.401 32.1682C48.6309 32.7565 48.7492 33.4394 48.7492 34.2136C48.7492 34.8255 48.6512 35.3766 48.4585 35.8769C48.2624 36.3739 48.0595 36.8067 47.8364 37.1583C47.6572 37.4186 47.4882 37.6417 47.3327 37.8108C47.1738 37.9866 47.0622 38.0981 46.9844 38.1488C46.9135 38.2097 46.8357 38.2705 46.7546 38.328C46.6734 38.3855 46.599 38.4396 46.5247 38.4937C46.0209 38.8723 45.4631 39.1766 44.8579 39.4031C44.246 39.6296 43.3873 39.7412 42.2716 39.7412H38.333V38.1962H39.5433L39.5501 29.9065ZM41.5989 38.2063H42.7483C44.104 38.2165 45.0878 37.8175 45.7031 36.9994C46.3184 36.1846 46.6464 35.2921 46.6869 34.3184C46.6971 34.2677 46.7038 34.217 46.7038 34.1696V34.0209C46.7038 33.862 46.6937 33.7065 46.6768 33.5476C46.6599 33.3887 46.6362 33.2332 46.6058 33.0743C46.457 32.2832 46.0784 31.5597 45.4563 30.9004C44.8343 30.2412 43.8809 29.9099 42.5894 29.9099H41.5989V38.2097V38.2029V38.2063Z" fill="black"/>
<path d="M49.5684 39.7345V38.1895H50.4981L53.3346 29.9066H52.087V28.3616H57.9595V29.9066H56.7323L59.4876 38.1895H60.3531V39.7345H56.1643V38.1895H57.4118L56.641 35.9683H53.1959L52.4251 38.1895H53.6557V39.7345H49.5684ZM56.2454 34.4267L54.9675 30.5861H54.9371L53.6287 34.4267H56.2454Z" fill="black"/>
<path d="M61.0801 39.7344V38.1894H62.3276V29.9065H61.0801V28.3615H65.394C66.4961 28.3716 67.507 28.6387 68.4265 29.1559C69.3461 29.6732 69.8059 30.6131 69.8059 31.9654C69.8059 33.1926 69.4509 34.075 68.7443 34.6024C68.0377 35.1298 67.2568 35.4374 66.4048 35.5253C66.3135 35.5355 66.2087 35.5456 66.1073 35.5524C66.0059 35.5592 65.9011 35.5625 65.8098 35.5625H64.3797V38.1928H65.8267V39.7378H61.0868L61.0801 39.731V39.7344ZM64.3696 34.0074H64.8868C64.8868 34.0074 64.9139 34.0243 64.9342 34.0243H65.0119C65.0424 34.0344 65.0796 34.0412 65.1201 34.0412H65.2621C65.4007 34.0412 65.5596 34.031 65.7456 34.0141C65.9315 33.9972 66.1208 33.9567 66.3203 33.8958C66.6787 33.7944 67.0066 33.5983 67.3041 33.3109C67.6016 33.0303 67.7571 32.5841 67.7571 31.9721C67.7571 31.3602 67.6016 30.8835 67.3007 30.5928C66.9965 30.3054 66.6584 30.1059 66.2966 30.0045C66.1073 29.9538 65.9214 29.9166 65.7388 29.9031C65.5529 29.8862 65.394 29.876 65.2554 29.876H65.0052C64.9646 29.8862 64.9342 29.8929 64.9139 29.8929H64.853L64.3797 29.876V34.0006L64.373 34.0107L64.3696 34.0074Z" fill="black"/>
<path d="M70.7012 39.7344V38.1894H71.9115V29.9065H70.7012V28.3615H79.4574V31.367H77.6453V29.8997H73.9636V32.7666H77.1281V34.5618H73.9636V38.1826H77.6453V36.3266H79.4574V39.7277H70.7012V39.7344Z" fill="black"/>
<path d="M82.3687 35.8466C82.46 36.6005 82.7541 37.2226 83.2342 37.7027C83.7177 38.1861 84.3431 38.4262 85.1072 38.4262C85.5703 38.4262 85.9693 38.2673 86.3141 37.9427C86.659 37.6249 86.828 37.226 86.828 36.7527C86.828 36.1847 86.6792 35.7925 86.3817 35.5795C86.0842 35.3632 85.665 35.184 85.1308 35.0352C84.9212 34.9845 84.7015 34.927 84.4682 34.8594C84.2383 34.7986 83.9949 34.7276 83.7447 34.6532C83.6433 34.6228 83.4472 34.5721 83.1598 34.5044C82.8792 34.4368 82.5716 34.3151 82.247 34.1359C81.8582 33.9162 81.5032 33.5815 81.1753 33.1352C80.8508 32.689 80.6885 32.0635 80.6885 31.2521C80.6885 31.0729 80.7155 30.8735 80.7662 30.6537C80.817 30.434 80.8981 30.2142 81.0029 29.9911C81.2328 29.5178 81.608 29.0884 82.1219 28.6996C82.6358 28.3108 83.339 28.1147 84.2315 28.1147C84.6711 28.1147 85.0936 28.2026 85.4993 28.3751C85.905 28.5509 86.26 28.7808 86.5609 29.0783V28.3548H88.2107V31.7559H86.6353C86.5744 31.4651 86.4764 31.1879 86.3445 30.9343C86.2127 30.6841 86.0538 30.4678 85.8611 30.2886C85.6616 30.0993 85.4351 29.9539 85.1748 29.8491C84.9178 29.7477 84.6305 29.6902 84.3194 29.6902C83.8563 29.6902 83.4776 29.822 83.1767 30.0891C82.8792 30.3562 82.7305 30.7349 82.7305 31.2318C82.7305 31.6511 82.9299 31.9587 83.3356 32.1616C83.7413 32.361 84.2282 32.5402 84.8063 32.6957C84.9652 32.7363 85.1308 32.7836 85.3033 32.8276C85.4791 32.8749 85.6481 32.9256 85.8171 32.9763C86.5913 33.2062 87.2979 33.5409 87.9268 33.9669C88.559 34.3963 88.87 35.2279 88.87 36.4552C88.87 37.5167 88.5252 38.3687 87.8456 39.0043C87.1627 39.6466 86.3006 39.9644 85.2593 39.9644C84.7353 39.9644 84.2349 39.8934 83.7582 39.7447C83.2815 39.5959 82.8353 39.3559 82.4296 39.0212V39.7142H80.7798V35.8263H82.3687L82.3789 35.8466H82.3687Z" fill="black"/>
<path d="M90.0566 31.5496V28.3683H98.5898V31.5496H96.7777V29.9133H95.3476V38.1962H96.7168V39.7413H91.933V38.1962H93.3022V29.9133H91.8721V31.5496H90.0566Z" fill="black"/>
<path d="M17.428 60.9219V57.1354H19.2638V46.1851H17.3672V42.3884H29.0309C30.4982 42.3884 31.6612 42.5068 32.53 42.7434C33.3955 42.9801 34.1156 43.4601 34.6904 44.1904C35.2651 44.9173 35.5525 45.8402 35.5525 46.9559C35.5525 48.0715 35.2549 49.008 34.6667 49.7146C34.0784 50.4212 33.1859 50.8979 31.9959 51.1514C33.453 51.3408 34.5247 51.8175 35.2076 52.5815C35.8905 53.3456 36.232 54.4139 36.232 55.7831C36.232 56.5438 36.1238 57.2233 35.9074 57.8353C35.6911 58.4472 35.3834 58.9442 34.9845 59.3262C34.5856 59.7116 34.1325 60.0091 33.6254 60.2187C33.1183 60.4283 32.3576 60.6143 31.3535 60.763C30.6199 60.8644 29.5549 60.9118 28.1587 60.9118H17.4449L17.4348 60.9219H17.428ZM24.8184 46.0025V49.7349H26.4818C27.3473 49.7349 28.0167 49.6774 28.4934 49.5692C28.9667 49.461 29.3284 49.2548 29.582 48.9539C29.8322 48.6497 29.9573 48.2609 29.9573 47.7842C29.9573 47.1959 29.7612 46.7496 29.3791 46.4521C28.9937 46.1546 28.1992 45.9991 26.9991 45.9991H24.8252L24.8184 46.0025ZM24.8184 52.8182V57.1895H26.8909C28.2973 57.1895 29.271 57.0306 29.8153 56.7128C30.3528 56.395 30.6266 55.8372 30.6266 55.0258C30.6266 54.2787 30.4001 53.7242 29.9437 53.3591C29.4907 52.994 28.5441 52.8148 27.1039 52.8148H24.8218V52.8215L24.8184 52.8182Z" fill="black"/>
<path d="M48.1761 61.5475C46.905 61.5475 45.6743 61.3074 44.4877 60.8206C43.3044 60.3338 42.2767 59.661 41.4145 58.809C40.5524 57.9571 39.8797 57.024 39.3996 56.0097C38.7572 54.6777 38.4395 53.2713 38.4395 51.7871C38.4395 50.6647 38.6153 49.6031 38.9635 48.6058C39.3117 47.6119 39.7681 46.743 40.3226 45.9958C40.8804 45.2521 41.543 44.5759 42.3138 43.9741C43.0847 43.369 43.9806 42.8923 45.0049 42.5373C46.0293 42.1823 47.0875 42.0099 48.1761 42.0099C49.2647 42.0099 50.3398 42.1857 51.3304 42.5339C52.3142 42.8821 53.1831 43.3385 53.937 43.9031C54.6841 44.4677 55.3637 45.1337 55.9689 45.9147C56.574 46.6957 57.0507 47.5983 57.3989 48.6227C57.7471 49.6471 57.9229 50.7053 57.9229 51.7871C57.9229 53.2341 57.6457 54.556 57.0879 55.746C56.5301 56.9361 55.837 57.9402 55.0019 58.7583C54.1703 59.5731 53.2676 60.2053 52.2939 60.6448C50.972 61.25 49.6028 61.5576 48.1863 61.5576L48.1795 61.5475H48.1761ZM48.1761 47.2501C47.4797 47.2501 46.8103 47.4293 46.1848 47.7944C45.5526 48.1595 45.0455 48.7072 44.65 49.4409C44.2544 50.1779 44.0549 50.9487 44.0549 51.7601C44.0549 52.5715 44.2443 53.295 44.6229 54.0049C45.0016 54.7217 45.5053 55.266 46.1409 55.6446C46.7731 56.0233 47.4526 56.2126 48.1761 56.2126C48.8996 56.2126 49.5656 56.0233 50.208 55.648C50.8436 55.2727 51.3507 54.7284 51.726 54.0185C52.1012 53.3051 52.2906 52.5512 52.2906 51.7499C52.2906 50.9487 52.0945 50.161 51.7124 49.4273C51.327 48.6937 50.8165 48.146 50.1843 47.7877C49.5521 47.4225 48.8861 47.2433 48.1897 47.2433L48.1728 47.2501H48.1761Z" fill="black"/>
<path d="M58.6016 60.922V57.1356H59.8998L63.6964 46.1852H62.0331V42.3885H76.4758V46.1852H74.7888L78.4874 57.1356H79.7856V60.922H70.5594V57.1356H72.571L71.8847 54.6372H66.33L65.5829 57.1356H67.4795V60.922H58.6049H58.6016ZM71.0598 51.8683L69.4607 46.601H68.8082L67.1212 51.8683H71.0598Z" fill="black"/>
<path d="M79.0664 49.3867V42.3953H97.1807V49.3867H93.7492L93.002 46.1919H90.9668V57.1423H93.0392V60.9288H83.1504V57.1423H85.2837V46.1919H83.2112L82.4979 49.3867H79.0664Z" fill="black"/>
<path d="M102.08 54.61C102.236 55.8372 102.702 56.8413 103.487 57.6256C104.271 58.41 105.285 58.7988 106.53 58.7988C107.277 58.7988 107.929 58.5385 108.484 58.0178C109.038 57.5005 109.315 56.8548 109.315 56.0908C109.315 55.1712 109.075 54.5356 108.588 54.1874C108.102 53.8392 107.425 53.545 106.557 53.305C106.212 53.2171 105.86 53.1258 105.485 53.0244C105.11 52.923 104.714 52.8148 104.312 52.6897C104.143 52.639 103.825 52.5578 103.368 52.4496C102.905 52.3381 102.415 52.1352 101.888 51.8512C101.255 51.4929 100.677 50.9553 100.15 50.2251C99.6226 49.5016 99.3555 48.4806 99.3555 47.1689C99.3555 46.8815 99.396 46.5535 99.4839 46.1986C99.5718 45.8402 99.6936 45.4818 99.8694 45.1269C100.245 44.356 100.85 43.6596 101.685 43.0308C102.52 42.3986 103.666 42.0875 105.11 42.0875C105.826 42.0875 106.509 42.2261 107.165 42.5067C107.821 42.7873 108.396 43.1694 108.893 43.6461V42.4729H111.574V47.9971H109.014C108.913 47.5205 108.754 47.0776 108.541 46.6685C108.325 46.2594 108.068 45.9078 107.76 45.6238C107.436 45.3162 107.067 45.0795 106.648 44.9071C106.232 44.7381 105.765 44.6502 105.252 44.6502C104.504 44.6502 103.882 44.8665 103.399 45.3027C102.912 45.7388 102.672 46.3541 102.672 47.1553C102.672 47.8382 103 48.3386 103.656 48.6632C104.312 48.9877 105.106 49.2785 106.046 49.5286C106.303 49.5963 106.57 49.6673 106.851 49.745C107.131 49.8228 107.409 49.9039 107.682 49.985C108.943 50.3603 110.086 50.8979 111.107 51.5943C112.128 52.2908 112.642 53.6397 112.642 55.6344C112.642 57.3586 112.088 58.7379 110.979 59.7792C109.87 60.8205 108.47 61.3377 106.783 61.3377C105.931 61.3377 105.116 61.2194 104.342 60.9794C103.568 60.7393 102.844 60.3472 102.182 59.8062V60.9287H99.5009V54.6167H102.08V54.61Z" fill="black"/>
<path d="M114.328 60.922V58.4135H116.299V44.9647H114.328V42.4562H121.59V44.9647H119.619V49.6167H126.215V44.9647H124.244V42.4562H131.506V44.9647H129.535V58.4135H131.506V60.922H124.244V58.4135H126.215V52.5309H119.619V58.4135H121.59V60.922H114.328Z" fill="black"/>
<path d="M136.023 58.8495C134.478 57.1996 133.545 55.3706 133.224 53.376C133.187 53.1055 133.163 52.8317 133.136 52.5544C133.109 52.284 133.099 52.0101 133.099 51.7329C133.099 49.0553 134.018 46.78 135.857 44.8902C137.7 43.0071 140.006 42.0638 142.788 42.0638C145.57 42.0638 147.903 43.0071 149.742 44.8902C151.585 46.7733 152.501 49.0553 152.501 51.7329C152.501 54.4105 151.541 56.7399 149.624 58.5756C147.707 60.408 145.428 61.3242 142.781 61.3242C139.816 61.3242 137.561 60.4993 136.016 58.8427L136.023 58.8495ZM138.136 47.1519C136.993 48.4907 136.422 50.1406 136.422 52.1014C136.422 53.8256 137.02 55.2861 138.221 56.4863C139.421 57.6865 140.881 58.2849 142.605 58.2849C144.512 58.2849 146.088 57.6391 147.325 56.3511C148.562 55.063 149.178 53.4774 149.178 51.5977C149.178 49.8228 148.579 48.3014 147.379 47.0235C146.179 45.7523 144.681 45.1167 142.893 45.1167C140.861 45.1336 139.275 45.8098 138.139 47.1519H138.136Z" fill="black"/>
<path d="M153.961 42.4629H160.351V44.9714H158.613L161.757 55.3538H161.808L164.722 44.9714H163.059V42.4629H169.628V44.9714H167.941L171.034 55.3538H171.085L174.128 44.9714H172.414V42.4629H178.502V44.9714H177.147L172.136 60.9288H169.858L166.305 49.6031H166.254L162.853 60.9288H160.574L155.307 44.9714H153.951V42.4629H153.958H153.961Z" fill="black"/>
<path d="M245.08 23.4932C241.943 25.9511 240.151 28.5813 239.191 30.2514C237.99 32.3475 236.52 34.944 236.56 38.4769C236.618 43.112 239.251 46.415 240.33 47.6152C234.954 46.5942 230.39 46.4218 227.047 46.486C223.463 46.557 219.46 46.6719 214.518 48.2305C212.408 48.8965 210.718 49.6369 209.548 50.2015C209.565 48.8153 209.686 46.8917 210.153 44.6637C210.616 42.4493 211.897 36.6513 216.651 31.5598C220.491 27.4521 224.728 25.7956 227.155 24.8827C234.704 22.0327 241.54 22.8002 245.087 23.4865L245.08 23.4932Z" fill="black"/>
<path d="M244.371 68.9245C241.406 68.9752 238.6 68.1638 235.78 67.3795C232.477 66.4599 229.147 65.635 225.823 64.8134C224.992 64.6072 224.552 64.2353 224.373 63.3462C223.775 60.3981 223.075 57.4636 222.426 54.5257C222.081 52.9672 221.763 51.4018 221.422 49.8433C221.256 49.0962 221.55 48.7141 222.304 48.7851C224.278 48.9846 226.29 49.0556 228.217 49.4782C230.709 50.0157 233.197 50.6953 235.587 51.5878C239.147 52.9097 242.295 54.972 245.138 57.5008C246.815 58.9917 248.39 60.5739 249.415 62.5821C249.675 63.096 249.783 63.8601 249.604 64.3807C249.151 65.7127 248.536 67.0008 247.89 68.2517C247.724 68.5695 247.197 68.8298 246.811 68.8772C246.007 68.9752 245.185 68.9076 244.371 68.9076V68.9177V68.9245Z" fill="black"/>
<path d="M251.713 71.1692C250.381 71.7338 249.063 72.3423 247.707 72.8461C245.205 73.769 242.592 73.6778 240.002 73.4512C238.843 73.3498 237.7 73.0117 236.561 72.7075C233.684 71.9434 230.766 71.4566 227.791 71.7575C226.341 71.9062 224.894 72.2849 223.487 72.7007C222.595 72.9678 221.888 73.0557 221.209 72.2747C219.691 70.5201 217.699 69.5667 215.502 68.9785C215.252 68.9108 215.015 68.7993 214.69 68.6809C215.279 67.4402 216.306 66.9669 217.425 66.6897C221.709 65.6112 225.877 66.3921 230.005 67.5518C234.035 68.6809 237.977 70.2395 242.169 70.6249C244.925 70.8818 247.717 70.7027 250.493 70.7263C250.862 70.7263 251.237 70.7737 251.605 70.7973C251.636 70.919 251.673 71.0441 251.707 71.1658L251.713 71.1692Z" fill="black"/>
<path d="M218.954 49.5964C219.394 50.9657 219.799 52.1557 220.161 53.3559C220.875 55.7765 221.557 58.2039 222.257 60.628C222.507 61.4901 222.795 62.3454 223.042 63.2143C223.217 63.8296 223.072 64.1575 222.315 64.1643C220.898 64.1812 219.488 64.3434 218.072 64.3603C217.653 64.3603 217.071 64.1845 216.824 63.8769C215.256 61.9228 213.711 59.9078 213.281 57.3723C213.126 56.4527 213.261 55.3201 213.68 54.4986C214.792 52.3349 216.638 50.8406 218.958 49.5964H218.951H218.954Z" fill="black"/>
<path d="M230.892 17.9047C231.842 16.3293 233.88 15.9777 235.124 16.9209C236.169 17.7154 236.521 19.3247 235.787 20.6533C235.462 20.18 234.756 19.2739 233.515 18.6181C232.443 18.0535 231.449 17.9318 230.895 17.9047H230.892Z" fill="black"/>
<path d="M269.074 0H0V5.81496H269.074V0Z" fill="black"/>
<path d="M269.074 84.1852H0V90.0001H269.074V84.1852Z" fill="black"/>
</svg>
