<svg width="315" height="40" viewBox="0 0 315 40" fill="none" xmlns="http://www.w3.org/2000/svg">
<path d="M309.855 40.0002C308.606 40.0002 307.537 39.5591 306.655 38.6717C305.768 37.7874 305.327 36.7194 305.327 35.4688C305.327 34.2191 305.768 33.1533 306.655 32.2678C307.537 31.3804 308.606 30.9392 309.855 30.9392C311.107 30.9392 312.173 31.3804 313.056 32.2678C313.942 33.1533 314.386 34.2191 314.386 35.4688C314.386 36.7194 313.942 37.7874 313.056 38.6717C312.173 39.5591 311.107 40.0002 309.855 40.0002Z" fill="black"/>
<path d="M289.474 33.3857C290.304 33.3857 291.046 33.2319 291.705 32.92C292.359 32.6102 292.929 32.1854 293.413 31.6499C293.896 31.1143 294.266 30.4906 294.529 29.7827C294.786 29.0747 294.917 28.3391 294.917 27.58C294.917 25.92 294.388 24.5463 293.333 23.4557C292.282 22.3682 290.978 21.824 289.424 21.824C288.595 21.824 287.844 21.9789 287.168 22.2892C286.497 22.5996 285.925 23.0326 285.462 23.5855C284.992 24.1406 284.629 24.7725 284.371 25.4789C284.113 26.1868 283.982 26.9234 283.982 27.6846C283.982 28.5136 284.138 29.2717 284.45 29.9632C284.761 30.6557 285.166 31.259 285.667 31.7781C286.167 32.2962 286.745 32.6942 287.403 32.9723C288.058 33.2483 288.751 33.3857 289.474 33.3857ZM289.085 39.844C287.314 39.844 285.667 39.5403 284.138 38.9319C282.611 38.3267 281.277 37.4751 280.13 36.3804C278.985 35.2868 278.091 33.9921 277.451 32.5024C276.806 31.0077 276.487 29.3589 276.487 27.5523C276.487 25.8513 276.799 24.2632 277.425 22.7863C278.047 21.3116 278.924 20.025 280.053 18.9324C281.179 17.8382 282.543 16.9698 284.138 16.328C285.735 15.6874 287.507 15.3643 289.45 15.3643C291.323 15.3643 293.05 15.6709 294.63 16.2762C296.208 16.8826 297.58 17.7341 298.742 18.8293C299.906 19.9204 300.806 21.2151 301.45 22.7089C302.092 24.2021 302.412 25.8328 302.412 27.6046C302.412 29.1671 302.117 30.6783 301.526 32.1362C300.936 33.593 300.078 34.8959 298.952 36.0429C297.823 37.1889 296.424 38.1101 294.761 38.8016C293.093 39.4963 291.201 39.844 289.085 39.844Z" fill="black"/>
<path d="M262.952 21.7191H259.827V16.198H262.952V8.07202H270.447V16.198H274.663V21.7191H270.447V39.0101H262.952V21.7191Z" fill="black"/>
<path d="M232.704 16.198H240.201V27.9157C240.201 28.7169 240.258 29.4618 240.379 30.1563C240.497 30.8509 240.708 31.4511 241.012 31.9548C241.315 32.4595 241.74 32.8576 242.282 33.15C242.824 33.4455 243.517 33.5942 244.362 33.5942C245.208 33.5942 245.894 33.4393 246.42 33.1254C246.943 32.8115 247.34 32.3949 247.612 31.8758C247.884 31.3547 248.07 30.7739 248.172 30.1307C248.271 29.4885 248.325 28.8196 248.325 28.125V16.198H255.819V28.125C255.819 30.0712 255.664 31.7373 255.349 33.1254C255.038 34.5145 254.344 35.7302 253.266 36.7715C252.156 37.8826 250.803 38.6737 249.205 39.1424C247.612 39.6104 245.962 39.8453 244.26 39.8453C242.457 39.8453 240.774 39.5754 239.209 39.0378C237.65 38.5002 236.261 37.6231 235.046 36.4063C234.214 35.5743 233.616 34.5063 233.253 33.2033C232.887 31.9035 232.704 30.2086 232.704 28.125V16.198Z" fill="black"/>
<path d="M216.619 24.5832L213.497 16.1988C213.15 15.2595 212.793 14.2377 212.428 13.1251C212.064 12.0145 211.726 10.9019 211.412 9.7903C211.1 10.9373 210.77 12.0581 210.423 13.1523C210.076 14.2443 209.729 15.2785 209.381 16.2506L206.362 24.5832H216.619ZM207.092 2.08301H215.63L230.832 39.0109H221.93L219.168 31.5626H203.865L201.157 39.0109H192.566L207.092 2.08301Z" fill="black"/>
<path d="M180.541 21.7189H177.418V16.1978H180.541V8.0719H188.036V16.1978H192.254V21.7189H188.036V39.01H180.541V21.7189Z" fill="black"/>
<path d="M165.914 0H169.678H173.41V39.011H165.914V0Z" fill="black"/>
<path d="M154.2 24.9997C154.2 24.4468 154.095 23.9061 153.889 23.3865C153.68 22.8653 153.384 22.397 153.003 21.9789C152.622 21.5624 152.162 21.2249 151.623 20.9637C151.085 20.7047 150.469 20.5729 149.775 20.5729C148.455 20.5729 147.38 20.9909 146.548 21.8235C145.713 22.6566 145.226 23.7168 145.088 24.9997H154.2ZM161.02 34.5841C159.701 36.322 158.158 37.63 156.386 38.5174C154.616 39.4018 152.413 39.8461 149.775 39.8461C148.246 39.8461 146.765 39.5916 145.323 39.0899C143.885 38.5862 142.617 37.8383 141.523 36.8493C140.431 35.8603 139.555 34.6107 138.896 33.0985C138.236 31.5904 137.905 29.8094 137.905 27.7596C137.905 25.9898 138.192 24.3488 138.765 22.8402C139.337 21.3279 140.152 20.0163 141.211 18.9053C142.27 17.7967 143.528 16.9282 144.984 16.3024C146.443 15.6766 148.058 15.3643 149.826 15.3643C151.563 15.3643 153.151 15.633 154.59 16.1732C156.031 16.7108 157.264 17.4828 158.287 18.4912C159.31 19.4987 160.109 20.7386 160.681 22.2154C161.255 23.6917 161.541 25.3825 161.541 27.2927V28.1514C161.541 28.5146 161.524 28.926 161.488 29.3744H145.036C145.107 30.8342 145.644 32.0408 146.652 32.9959C147.658 33.9501 148.961 34.4271 150.556 34.4271C152.846 34.4271 154.737 33.4207 156.231 31.4077L161.02 34.5841Z" fill="black"/>
<path d="M89.333 2.08301H97.6616L102.816 22.2405C103.13 23.4895 103.414 24.8182 103.676 26.2237C103.937 27.6302 104.151 29.0471 104.326 30.469C104.535 29.0112 104.769 27.5625 105.027 26.1211C105.289 24.6781 105.558 23.3157 105.834 22.0317L110.209 2.08301H119.11L123.64 22.3436C123.917 23.4557 124.194 24.7135 124.472 26.1211C124.75 27.5256 124.995 29.0112 125.202 30.5736C125.443 29.0799 125.692 27.6138 125.95 26.1734C126.21 24.7325 126.475 23.4895 126.752 22.4498L131.814 2.08301H139.936L129.158 39.0109H120.516L115.936 18.6441C115.727 17.6756 115.492 16.5107 115.232 15.1564C114.972 13.8007 114.703 12.293 114.424 10.6249C114.182 12.293 113.956 13.7694 113.751 15.0523C113.542 16.3367 113.314 17.5355 113.073 18.6441L108.648 39.0109H100.11L89.333 2.08301Z" fill="black"/>
<path d="M69.0835 31.8236C69.3614 32.589 69.7859 33.2138 70.3591 33.699C70.9334 34.1853 71.5994 34.4264 72.3629 34.4264C73.092 34.4264 73.6652 34.29 74.0815 34.0109C74.4968 33.735 74.706 33.3522 74.706 32.867C74.706 32.3109 74.428 31.8668 73.8743 31.5374C73.318 31.2061 72.632 30.8942 71.8162 30.5997C70.9995 30.3063 70.1166 29.9944 69.1604 29.66C68.2072 29.3337 67.3208 28.8987 66.5071 28.3601C65.6918 27.8215 65.0058 27.1269 64.4495 26.2754C63.8948 25.4275 63.6168 24.342 63.6168 23.0216C63.6168 21.9803 63.824 21.0005 64.2419 20.0792C64.6582 19.159 65.2566 18.3516 66.0385 17.6555C66.8188 16.9615 67.7725 16.4161 68.9015 16.0156C70.0305 15.617 71.321 15.4189 72.7782 15.4189C74.9321 15.4189 76.743 15.8355 78.2191 16.666C79.6937 17.499 80.8125 18.8728 81.5774 20.781L75.6447 23.0739C75.2607 22.1701 74.786 21.5448 74.2107 21.1975C73.6396 20.8518 73.0566 20.6763 72.4675 20.6763C71.9819 20.6763 71.5302 20.818 71.1154 21.0929C70.6975 21.3724 70.4904 21.771 70.4904 22.2912C70.4904 22.8816 70.7653 23.3607 71.321 23.7244C71.8773 24.0907 72.5628 24.4189 73.379 24.7154C74.1943 25.0094 75.0885 25.3228 76.0596 25.6496C77.0322 25.984 77.9248 26.4149 78.7401 26.9525C79.5538 27.4921 80.2413 28.1867 80.7961 29.0382C81.3524 29.8897 81.6302 30.9721 81.6302 32.2915C81.6302 33.4385 81.3862 34.4716 80.9007 35.3898C80.4151 36.3131 79.746 37.0928 78.8969 37.7351C78.0459 38.3794 77.0487 38.8646 75.9022 39.194C74.7588 39.5223 73.5083 39.6874 72.1552 39.6874C69.5521 39.6874 67.5218 39.2545 66.0635 38.3886C64.6064 37.5176 63.5297 36.1459 62.835 34.2736L69.0835 31.8236Z" fill="black"/>
<path d="M46.1792 33.9607C47.0539 33.9607 47.8322 33.7945 48.5167 33.4683C49.1986 33.1368 49.777 32.6998 50.2502 32.1448C50.7239 31.5918 51.0813 30.9588 51.3289 30.2509C51.5715 29.543 51.6955 28.791 51.6955 27.9959C51.6955 27.1659 51.5541 26.3872 51.2745 25.6619C50.9956 24.9376 50.607 24.2964 50.1209 23.7424C49.6272 23.191 49.0232 22.7508 48.3059 22.4205C47.5876 22.0922 46.7913 21.9264 45.9151 21.9264C44.3396 21.9264 43.0321 22.4543 41.9985 23.5095C40.9663 24.5647 40.4485 25.9738 40.4485 27.7353C40.4485 28.5673 40.5818 29.3614 40.8443 30.1216C41.1078 30.8819 41.4837 31.5476 41.9738 32.1191C42.4635 32.6864 43.0603 33.1368 43.7612 33.4683C44.462 33.7945 45.2675 33.9607 46.1792 33.9607ZM51.4351 36.6681C50.4978 37.6058 49.4026 38.362 48.1562 38.9344C46.9057 39.5069 45.3957 39.7921 43.6268 39.7921C41.96 39.7921 40.4675 39.4967 39.1493 38.9057C37.8295 38.3178 36.7097 37.5011 35.7894 36.4589C34.8696 35.4165 34.1687 34.1699 33.6831 32.709C33.196 31.2501 32.9541 29.6548 32.9541 27.918C32.9541 26.1123 33.215 24.4539 33.7354 22.9432C34.2564 21.431 35.0009 20.1228 35.9735 19.0103C36.9436 17.8991 38.1336 17.0313 39.5404 16.406C40.9438 15.7816 42.5327 15.4697 44.3042 15.4697C45.8976 15.4697 47.3302 15.7919 48.5987 16.4331C49.8641 17.0763 50.8096 17.8822 51.4351 18.8554V16.1998H58.7746V39.0104H51.4351V36.6681Z" fill="black"/>
<path d="M10.1518 32.5527C11.9217 32.5527 13.4671 32.3351 14.7858 31.9002C16.104 31.4662 17.2663 30.7603 18.2743 29.7868C19.1383 28.9167 19.9197 27.7246 20.6144 26.2104C21.3086 24.6971 21.6573 22.7397 21.6573 20.3389C21.6573 18.4236 21.3711 16.7107 20.7959 15.197C20.2232 13.6832 19.472 12.4577 18.5333 11.5165C17.3182 10.3001 15.964 9.49741 14.4725 9.11469C12.98 8.73355 11.4008 8.54329 9.73554 8.54329H7.91223V32.5527H10.1518ZM0 2.08301H10.4641C13.5881 2.08301 16.3465 2.48253 18.7425 3.2818C21.1348 4.08095 23.1319 5.27974 24.7274 6.87406C26.4989 8.64793 27.835 10.5731 28.7384 12.6567C29.6372 14.7383 30.089 17.1883 30.089 19.9998C30.089 23.1607 29.5773 25.8522 28.5554 28.0734C27.5309 30.2956 26.2031 32.2244 24.5725 33.8536C22.6991 35.731 20.537 37.0576 18.0903 37.8382C15.6456 38.6201 12.9462 39.0109 9.99543 39.0109H0V2.08301Z" fill="black"/>
</svg>
