<svg width="202" height="80" viewBox="0 0 202 80" fill="none" xmlns="http://www.w3.org/2000/svg">
<path d="M201.21 0.0228105C201.21 3.45743 201.203 6.8888 201.2 10.3234C200.812 10.5352 200.389 10.4244 199.985 10.4244C167.567 10.431 135.15 10.431 102.736 10.4375C102.3 10.4375 101.844 10.3136 101.423 10.5483L101.436 10.5287C101.211 10.8774 101.325 11.2684 101.325 11.6367C101.319 20.7935 101.322 29.9471 101.312 39.1039C101.312 39.5243 101.495 40.0228 100.98 40.3128C98.9889 38.8367 96.7893 37.7027 94.707 36.3731C92.7486 35.1251 90.6761 34.0595 88.8187 32.655C88.6297 32.2966 88.7242 31.912 88.7242 31.5405C88.7177 24.9059 88.7243 18.2745 88.7145 11.6399C88.7145 11.2717 88.8252 10.8839 88.6036 10.5352L88.62 10.5483C88.2354 10.3202 87.8117 10.4375 87.4077 10.4375C58.7445 10.431 30.0814 10.431 1.41829 10.4244C1.01421 10.4244 0.593852 10.532 0.202813 10.3234C0.202813 6.8888 0.196289 3.45418 0.196289 0.0195518C0.610138 0.0130345 1.02067 0 1.43451 0C67.6146 0 133.795 0 199.971 0C200.385 0 200.796 0.0162932 201.21 0.0228105Z" fill="black"/>
<path d="M201.064 69.4418C201.07 72.9481 201.077 76.4577 201.083 79.964C200.669 79.9771 200.259 79.9999 199.845 79.9999C133.684 79.9999 67.5239 79.9999 1.36343 79.9999C0.470555 79.9999 0.0240043 79.5447 0.0240043 78.6345C0.0240043 75.9494 0.0631654 73.261 0.00125094 70.5758C-0.018301 69.6667 0.183666 69.3929 1.15149 69.3929C26.191 69.4223 51.2273 69.419 76.2669 69.4158C80.3988 69.4158 84.5308 69.4125 88.6628 69.4092C90.5463 72.2215 92.4428 75.0304 94.3133 77.8524C94.8086 78.6019 95.1377 78.1978 95.4538 77.7384C96.6236 76.0373 97.7804 74.3266 98.9373 72.6158C99.6574 71.5502 100.368 70.4813 101.081 69.4125" fill="black"/>
<path d="M105.314 47.4003C105.314 37.4158 105.314 27.4313 105.314 17.45C105.314 17.0753 105.256 16.694 105.376 16.3225C105.699 16.1433 106.051 16.228 106.386 16.228C109.925 16.2215 113.467 16.2215 117.006 16.228C117.345 16.228 117.694 16.1661 118.026 16.2964C118.196 16.6582 118.111 17.0427 118.111 17.4142C118.117 29.1356 118.111 40.8569 118.121 52.5816C118.121 52.9531 118.082 53.2594 118.075 53.6993C118.033 54.5172 118.091 55.6187 118.424 56.5637C118.645 57.1959 118.779 57.8867 119.636 57.8476C120.499 57.8085 121.236 57.525 121.51 56.5669C121.819 55.4883 121.721 54.3901 121.728 53.292C121.62 52.4545 121.637 52.4284 121.637 52.158C121.637 40.3421 121.637 28.8553 121.637 17.0394C121.637 16.8015 121.608 16.5571 121.696 16.3258C121.946 16.1628 122.23 16.228 122.5 16.2248C126.215 16.2215 129.93 16.2215 133.642 16.2248C133.88 16.2248 134.124 16.1889 134.352 16.2997C134.518 16.6614 134.437 17.0459 134.437 17.4174C134.443 28.373 134.44 39.3286 134.44 50.281C134.512 51.1706 134.44 50.281 134.535 51.4117C134.541 52.1938 134.535 52.1091 134.535 52.3339C134.505 54.628 134.492 56.9677 133.495 59.0663C132.159 61.8818 130.064 63.9901 127.072 65.16C125.267 65.8671 123.863 65.9942 121.539 66.2712C120.363 66.2712 120.154 66.3201 118.812 66.2093C115.188 66.1246 111.939 65.0068 109.104 62.6899C106.777 60.7901 105.712 58.2875 105.611 55.3221C105.572 54.1653 105.477 53.0085 105.405 51.8484C105.207 51.4476 105.353 51.0174 105.308 50.6036" fill="black"/>
<path d="M189.942 65.1081C189.323 62.99 188.707 60.8718 188.085 58.757C186.739 54.2014 185.386 49.6458 184.037 45.0934C183.943 44.7708 183.838 44.4515 183.737 44.1289C183.653 43.9627 183.529 43.9529 183.47 44.1191C183.366 44.4156 183.425 44.7317 183.425 45.0413C183.425 51.3761 183.425 57.7077 183.418 64.0425C183.418 64.4107 183.526 64.8018 183.301 65.1505C179.856 65.1961 176.412 65.2775 172.968 65.1081C172.834 64.8116 172.893 64.4987 172.893 64.1924C172.893 48.5476 172.893 32.8995 172.893 17.2547C172.893 16.9484 172.85 16.6356 172.948 16.3325C173.652 16.1044 174.379 16.238 175.092 16.2315C177.5 16.2119 179.912 16.2185 182.32 16.2282C182.659 16.2282 183.011 16.1435 183.333 16.3227C183.767 16.4857 183.777 16.9158 183.887 17.2547C185.807 23.1268 187.716 29.0054 189.619 34.8808C189.88 35.6889 190.105 36.5101 190.349 37.3248C190.47 37.4421 190.597 37.4519 190.636 37.2694C190.701 36.9663 190.662 36.6535 190.662 36.3439C190.662 30.0156 190.662 23.6906 190.669 17.3623C190.669 16.994 190.555 16.6062 190.793 16.2608C194.126 16.1728 197.456 16.238 200.79 16.225C200.904 16.225 200.982 16.2869 201.074 16.3325C201.08 21.4258 201.096 26.5158 201.096 31.6091C201.096 42.757 201.087 53.9048 201.083 65.056" fill="black"/>
<path d="M70.9129 15.1755C74.1586 15.257 75.2861 15.5503 77.3717 16.2542C78.6263 16.6778 79.7765 17.3295 80.891 18.0888C83.1329 19.6138 83.7977 21.8819 84.1138 24.3324C84.2833 25.6521 84.3549 26.721 84.3223 28.3307C84.3353 29.4419 84.1854 29.8753 84.029 30.8758C80.2099 30.8692 76.3908 30.9442 72.5749 30.8366C72.3761 29.4485 72.4055 28.0603 72.5586 26.6688C72.3371 25.4957 72.3305 24.2248 71.0824 23.534C70.6881 23.3971 70.2906 23.3906 69.8963 23.5373C68.4919 24.0358 68.4429 25.3165 68.1953 26.4831C68.0682 26.9426 68.0583 27.3988 68.1984 27.8582C68.2147 30.488 69.5704 32.202 71.7863 33.4957C74.8918 35.3043 77.8799 37.279 80.6889 39.5601C83.6282 41.9487 84.8405 45.0085 85.199 48.6061C85.2935 49.5641 85.4075 50.5124 85.3554 51.4737C85.3424 52.5263 85.2739 56.1629 85.1045 57.2383C84.8764 58.6819 84.5114 60.1222 83.6381 61.367C82.3053 63.2668 80.3664 64.29 78.2809 65.0754C76.7526 65.6489 75.1981 66.1377 73.5167 66.0432C72.992 66.1246 70.7207 66.2289 69.6779 66.1246C65.7186 66.0041 62.1537 64.8766 59.2632 62.0415C57.862 60.6664 57.3439 58.8774 57.0506 57.0167C56.7573 55.169 56.728 53.2986 56.6433 51.4346C56.4934 50.1833 56.4706 48.9352 56.6531 47.6872C60.5635 47.5796 64.4771 47.622 68.3875 47.6676C68.697 48.6028 68.4657 49.5674 68.5211 50.5157C68.5928 51.78 68.4201 53.0542 68.6156 54.3153C68.6222 54.7584 68.6189 55.2016 68.6352 55.6448C68.6776 56.8961 69.2087 57.6424 70.1863 57.8411C71.1899 58.0464 72.4185 57.3947 72.8454 56.4106C72.9366 56.1988 72.9593 55.9544 73.0115 55.723C73.1842 55.4167 72.9528 55.042 73.1809 54.7454C73.1842 54.6737 73.1907 54.602 73.194 54.5336C73.3504 53.9307 73.3276 53.3279 73.207 52.725C73.2201 51.0892 72.9529 49.4794 71.8189 48.2672C70.9032 47.2896 69.7822 46.4749 68.6645 45.7157C65.9337 43.868 63.1508 42.0855 60.5244 40.088C58.403 38.4749 57.2006 36.2362 56.6401 33.6749C56.3761 32.4595 56.3597 31.1886 56.2294 29.9405C56.1642 29.0574 56.2424 28.6664 56.2294 27.4868C56.5976 25.9259 56.3598 24.3063 56.8161 22.7389C57.6731 19.7931 59.5141 17.8183 62.2514 16.5018C64.4934 15.4265 66.8625 15.2309 69.2674 15.0908" fill="black"/>
<path d="M88.9165 51.6498C92.1165 53.5822 95.3165 55.5113 98.5165 57.4469C99.2432 57.8868 99.9406 58.3854 100.693 58.7699C101.192 59.0241 101.29 59.2653 100.977 59.7117C99.0901 62.4261 97.2131 65.1471 95.3166 67.8551C95.0265 68.2689 94.6746 68.4872 94.2901 67.9039C92.4196 65.0559 90.5426 62.2176 88.6656 59.3728C88.4668 56.8897 88.6135 54.4001 88.5875 51.9137C88.5875 51.7084 88.6982 51.6074 88.9165 51.6498Z" fill="black"/>
<path d="M88.7145 44.1872C90.5133 45.2691 92.338 46.3119 94.1042 47.4426C96.4178 48.922 98.8586 50.206 101.074 51.8385C101.29 52.6956 101.14 53.5689 101.162 54.4324C101.169 54.6605 101.123 54.944 100.755 54.7648C96.9653 52.4707 93.1722 50.1831 89.3856 47.8825C89.1249 47.7261 88.9067 47.5013 88.6688 47.3058C88.5352 46.263 88.4701 45.2202 88.7145 44.184V44.1872Z" fill="black"/>
<path d="M88.9399 36.9694C92.9905 39.459 97.041 41.9519 101.091 44.4415C101.196 45.4093 101.297 46.3772 101.042 47.3417C99.5891 46.9833 98.5139 45.9372 97.2626 45.2203C94.6556 43.7311 92.1464 42.0757 89.5753 40.5213C89.2462 40.3226 88.9953 40.0456 88.6694 39.8631C88.4674 39.0158 88.6205 38.1588 88.5846 37.3051C88.5749 37.0932 88.6336 36.8814 88.9399 36.9694Z" fill="black"/>
<path d="M13.8926 44.4351C13.5407 44.4384 13.1335 44.2656 12.8435 44.6306C12.5893 44.7838 12.6349 45.0412 12.6349 45.2726C12.6349 48.4237 12.6349 51.5748 12.6349 54.7292C12.6349 54.9638 12.5991 55.2213 12.8695 55.3549C15.8903 55.3744 18.9078 55.394 21.9285 55.4135C21.9285 58.6265 21.9285 61.8428 21.9285 65.0559C15.4112 65.0689 8.89392 65.0787 2.37661 65.0917C1.58801 65.0917 0.799337 65.095 0.0107422 65.0982C0.0172595 50.8351 0.0237959 36.572 0.0303132 22.3056C0.0303132 20.3113 0.049897 18.3202 0.0629316 16.3259C7.0723 16.3259 14.0817 16.3324 21.0943 16.3324C21.0943 19.4868 21.0944 22.6379 21.0911 25.7923C18.6928 25.8054 16.2944 25.8054 13.896 25.8379C13.5473 25.8412 13.14 25.6522 12.85 26.0269C12.5925 26.1768 12.6349 26.4343 12.6349 26.6689C12.6349 29.2758 12.6349 31.8828 12.6349 34.4929C12.6349 34.7276 12.5925 34.9817 12.85 35.1349C13.1042 35.4966 13.4821 35.3239 13.795 35.3239C16.0988 35.3402 18.4027 35.3337 20.7066 35.3337C20.6903 38.3577 20.6772 41.3817 20.6609 44.4058" fill="black"/>
<path d="M167.923 51.363C167.968 50.8774 167.822 50.3821 168.017 49.9096C167.828 49.033 167.815 48.1434 167.818 47.2538C167.828 44.2721 165.938 41.7011 163.11 40.7528C162.64 40.5964 162.08 40.5605 161.643 40.0587C164.579 39.7361 166.792 38.6835 167.431 35.5618C167.75 34.0009 167.913 32.8766 167.949 30.9214C167.975 29.618 167.985 28.7707 167.923 28.0114C167.828 26.5222 167.864 26.6656 167.665 25.587C166.981 21.8624 165.296 18.897 161.529 17.6098C159.027 16.7528 156.4 16.7007 153.777 16.7789C152.656 16.7039 153.06 16.7398 152.705 16.7235C152.216 16.7235 151.724 16.7235 151.235 16.7235C149.335 16.7235 147.429 16.73 145.601 16.6811C143.874 16.6322 142.153 16.756 140.423 16.73C140.1 16.7235 139.758 16.6355 139.458 16.8473C139.39 17.0819 139.413 17.3263 139.413 17.5642C139.413 33.31 139.413 49.0559 139.413 64.8017C139.413 65.0722 139.361 65.3524 139.491 65.6131C141.14 65.7402 150.697 65.7337 152.141 65.6066C152.281 65.2416 152.213 64.8571 152.213 64.4856C152.216 57.9292 152.213 51.3695 152.219 44.8131C152.219 44.4416 152.138 44.0571 152.304 43.6954C154.445 43.4119 155.286 44.0017 155.849 46.0449C156.113 46.9931 155.993 47.9349 156.035 48.8799C155.892 49.0982 155.941 49.3459 155.941 49.5805C155.941 54.6933 155.941 59.8062 155.941 64.919C155.941 65.1569 155.898 65.4013 156.029 65.6229C158.564 65.7923 161.099 65.675 163.634 65.6848C165.035 65.6913 166.44 65.7956 167.841 65.6098C167.988 65.2449 167.916 64.8603 167.916 64.4856C167.923 60.1125 167.919 55.7394 167.919 51.3662L167.923 51.363ZM156.035 32.7137C155.905 34.5776 152.307 35.3076 152.307 35.3076C152.307 35.3076 152.245 32.0229 152.229 30.3805C152.206 28.4937 152.206 26.6037 152.232 24.7169C152.464 24.3324 152.796 24.4986 153.105 24.5638C154.784 24.8505 155.898 25.6978 156.032 27.5129C156.032 29.0314 156.032 29.9275 156.032 31.3874C156.032 31.8306 156.061 32.2738 156.032 32.7137H156.035Z" fill="black"/>
<path d="M54.7599 62.5663C54.5611 62.2535 54.8088 61.8559 54.5742 61.5496C54.5547 60.4905 54.3395 59.4608 54.1375 58.4311C53.9452 58.1182 54.1896 57.7272 53.9549 57.4209C53.8344 55.8861 53.5966 54.3675 53.3131 52.8555C53.1143 52.5427 53.3619 52.1484 53.1272 51.8388C53.1077 50.7797 52.8894 49.75 52.6906 48.717C52.4984 48.4042 52.7427 48.0131 52.5081 47.7068C52.3876 46.172 52.1498 44.6535 51.8663 43.1414C51.6707 42.8286 51.9151 42.4343 51.6838 42.1247C51.6642 41.0657 51.4458 40.0359 51.2438 39.003C51.0515 38.6901 51.2959 38.2991 51.0613 37.9928C50.9407 36.4579 50.7029 34.9394 50.4194 33.4274C50.2239 33.1146 50.4683 32.7203 50.2369 32.4139C50.2206 31.3549 49.999 30.3252 49.797 29.2922C49.6047 28.9793 49.849 28.5883 49.6177 28.282C49.4971 26.7471 49.2592 25.2254 48.9725 23.7133C48.7769 23.4005 49.0215 23.0062 48.7901 22.6999C48.6728 21.1651 48.4316 19.6465 48.1481 18.1345C47.9493 17.8217 48.197 17.4241 47.9624 17.1178C47.995 16.8278 48.0471 16.5345 47.7668 16.3194C47.5485 16.1728 47.3041 16.2217 47.0663 16.2217C41.4092 16.2217 35.7488 16.2217 30.0918 16.2217C29.8539 16.2217 29.6096 16.1761 29.3881 16.3097C29.2447 17.1993 29.1012 18.0856 28.9578 18.9753C28.7134 19.35 28.9741 19.7997 28.7818 20.1842C28.7721 20.3374 28.7591 20.4905 28.7494 20.6437C28.5147 20.9467 28.7688 21.3443 28.5635 21.6539C28.4886 22.3512 28.4136 23.0453 28.3387 23.7427C28.1008 24.049 28.3582 24.4465 28.1497 24.7561C28.0747 25.4502 27.9998 26.1443 27.9248 26.8416C27.687 27.148 27.9476 27.5488 27.7358 27.8583C27.6609 28.5492 27.5893 29.24 27.5143 29.9309C27.2699 30.3056 27.5306 30.7553 27.3383 31.1398C27.3286 31.293 27.3155 31.4461 27.3057 31.5993C27.0711 31.9023 27.3253 32.2966 27.12 32.6062C27.0451 33.3036 26.97 33.9977 26.8951 34.695C26.6604 35.0013 26.9147 35.3956 26.7062 35.7085C26.6312 36.4025 26.5561 37.0999 26.4812 37.794C26.2433 38.1003 26.5041 38.4979 26.2923 38.8107C26.2174 39.5015 26.1424 40.1924 26.0707 40.8865C25.8263 41.2612 26.087 41.7076 25.898 42.0922C25.7481 43.2783 25.6015 44.4645 25.4516 45.6506C25.2169 45.9537 25.471 46.3512 25.2657 46.6608C25.1908 47.3582 25.1158 48.0522 25.0409 48.7496C24.803 49.0559 25.0604 49.4535 24.8519 49.763C24.7769 50.4571 24.702 51.1512 24.627 51.8486C24.3892 52.1549 24.6499 52.5557 24.4348 52.8653C24.3599 53.5561 24.2881 54.2469 24.2132 54.9378C23.9688 55.3125 24.2295 55.7622 24.0372 56.1467C24.0274 56.2999 24.0145 56.4531 24.0047 56.6062C23.7701 56.9093 24.0242 57.3068 23.8189 57.6164C23.744 58.3138 23.669 59.0078 23.5941 59.7052C23.3562 60.0115 23.6136 60.4091 23.405 60.7186C23.3301 61.4127 23.2552 62.1068 23.1802 62.8042C22.9423 63.1105 23.203 63.5113 22.9912 63.8209C22.9814 64.2347 22.9717 64.6518 22.9619 65.0657C23.265 65.3133 23.6234 65.1928 23.9526 65.1928C26.6279 65.2025 29.3001 65.2123 31.9754 65.1928C33.3766 65.183 34.781 65.2905 36.1822 65.1243C36.3582 62.2144 36.8602 59.3305 36.8211 56.4042C38.3363 56.2836 39.8548 56.2021 41.3668 56.4433C41.432 56.6355 41.5428 56.8278 41.5558 57.0233C41.6406 58.3854 41.6046 59.7639 41.8034 61.1097C41.9989 62.4262 41.7872 63.7753 42.1783 65.0624C42.4781 65.3166 42.8365 65.1895 43.1656 65.1928C45.5998 65.2058 48.0341 65.2156 50.4683 65.1928C52.0422 65.1797 53.6161 65.2938 55.1868 65.1243C55.0467 64.2738 54.9032 63.4233 54.7631 62.5728L54.7599 62.5663ZM40.9138 47.5406C39.5452 47.6482 38.1798 47.7459 36.8177 47.4918C37.0686 44.9924 37.3325 42.493 37.5606 39.9903C37.7073 38.374 38.0528 36.7806 38.0462 35.1512L38.2189 33.9488C38.4926 32.7789 38.61 31.5895 38.6654 30.3936C38.9098 30.0905 38.6557 29.693 38.8512 29.3801C38.861 29.1553 38.8674 28.9272 38.8771 28.7023C39.3171 27.8649 39.0336 29.1944 39.2845 29.328C39.5615 32.4465 39.8157 35.5683 40.122 38.6869C40.399 41.4958 40.7282 44.2983 41.0508 47.104C41.0736 47.293 41.0866 47.4331 40.9171 47.5439L40.9138 47.5406Z" fill="black"/>
</svg>
