<svg width="310" height="40" viewBox="0 0 310 40" fill="none" xmlns="http://www.w3.org/2000/svg">
<path d="M1.32601 39.8902C0.592133 39.8902 0 39.2958 0 38.5619V1.41742C0 0.685819 0.592133 0.0913976 1.32601 0.0891113H38.4728C39.2044 0.0891113 39.7988 0.683533 39.7988 1.41513V6.72149C39.7988 7.45308 39.2067 8.0475 38.4751 8.0475C38.4751 8.0475 38.4751 8.0475 38.4728 8.0475H11.941C11.2094 8.0475 10.615 8.64192 10.615 9.37581V14.6822C10.615 15.4138 11.2094 16.0082 11.941 16.0082H35.8207C36.5523 16.0082 37.1468 16.6003 37.1468 17.3319V22.6406C37.1468 23.3721 36.5546 23.9666 35.8207 23.9689H11.941C11.2071 23.9689 10.615 24.5633 10.615 25.2972V38.5619C10.615 39.2958 10.0206 39.8879 9.28898 39.8902C9.28898 39.8902 2.06219 39.8902 1.3283 39.8902H1.32601Z" fill="black"/>
<path d="M271.063 0C270.332 0 269.737 0.594421 269.737 1.32602V38.4728C269.737 39.2044 270.332 39.7988 271.063 39.7988H308.21C308.942 39.7988 309.536 39.2044 309.536 38.4728V33.1664C309.536 32.4348 308.944 31.8404 308.21 31.8381H281.676C280.944 31.8381 280.35 31.246 280.348 30.5144C280.348 29.7782 280.316 1.18884 280.316 1.18884C280.316 1.18884 280.407 0.00457209 279.019 0.00228585H271.061L271.063 0Z" fill="black"/>
<path d="M42.4538 1.41742C42.4538 0.685819 43.0459 0.0913976 43.7798 0.0891113H83.5786C84.3102 0.0891113 84.9047 0.683533 84.9047 1.41513V6.72149C84.9047 7.45308 84.3125 8.0475 83.5809 8.0475C83.5809 8.0475 83.5809 8.0475 83.5786 8.0475H54.3925C53.6587 8.0475 53.0665 8.64192 53.0642 9.37581V14.6822C53.0642 15.4138 53.6587 16.0082 54.3925 16.0082H80.9243C81.6559 16.0082 82.2503 16.6003 82.2503 17.3319V22.6406C82.2503 23.3721 81.6582 23.9666 80.9243 23.9689H54.3903C53.6564 23.9689 53.0619 24.5633 53.0619 25.2949V30.6012C53.0619 31.3328 53.6564 31.9272 54.388 31.9272H83.574C84.3079 31.9272 84.9001 32.5217 84.9001 33.2556V38.5619C84.9001 39.2958 84.3056 39.8879 83.574 39.8902H43.7752C43.0414 39.8902 42.4492 39.2958 42.4492 38.5619V1.41742H42.4538Z" fill="black"/>
<path d="M87.5586 16.0105C87.5586 20.4069 91.1228 23.9712 95.5193 23.9712H116.745C118.21 23.9712 119.397 25.1577 119.399 26.6232V29.2798C119.399 30.7453 118.21 31.9319 116.747 31.9319H99.4996C98.768 31.9319 98.1736 31.3397 98.1736 30.6081C98.1736 29.8742 97.5815 29.2798 96.8476 29.2798H88.8869C88.1553 29.2798 87.5609 29.872 87.5609 30.6035V31.9296C87.5609 36.326 91.1251 39.8925 95.5215 39.8925H122.056C126.452 39.8925 130.016 36.326 130.016 31.9296V23.9712C130.016 19.5747 126.452 16.0105 122.056 16.0105H100.83C99.3647 16.0105 98.1759 14.8239 98.1759 13.3585V10.7064C98.1759 9.24095 99.3624 8.05211 100.83 8.04982H118.078C118.809 8.04982 119.404 8.64424 119.404 9.37812C119.404 10.112 119.998 10.7064 120.732 10.7064H128.69C129.424 10.7064 130.016 10.112 130.019 9.37812V8.04982C130.019 3.65567 126.454 0.0914307 122.058 0.0914307H95.5238C91.1274 0.0914307 87.5632 3.65567 87.5632 8.04982V16.0105H87.5586Z" fill="black"/>
<path d="M132.664 1.41742C132.664 0.683533 133.258 0.0891113 133.992 0.0891113H173.793C174.525 0.0891113 175.119 0.683533 175.119 1.41513V6.72149C175.119 7.45308 174.527 8.0475 173.796 8.0475H160.529C159.795 8.0475 159.203 8.64192 159.2 9.37581V38.5619C159.2 39.2935 158.608 39.8879 157.877 39.8902H149.916C149.182 39.8902 148.588 39.2958 148.588 38.5619V9.37581C148.588 8.64192 147.993 8.0475 147.259 8.0475H133.995C133.263 8.0475 132.669 7.45537 132.666 6.72377V1.41742H132.664Z" fill="black"/>
<path d="M185.729 39.8902C181.332 39.8902 177.766 36.3237 177.766 31.9272V8.0475C177.766 3.65335 181.332 0.0891113 185.729 0.0891113H212.263C216.657 0.0891113 220.221 3.65335 220.221 8.0475V31.9272C220.221 36.3237 216.657 39.8902 212.263 39.8902H185.729ZM191.035 31.9295H206.954C208.419 31.9295 209.608 30.743 209.611 29.2775V10.7041C209.611 9.23863 208.422 8.04979 206.954 8.0475H191.035C189.569 8.0475 188.381 9.23635 188.381 10.7041V29.2775C188.381 30.743 189.569 31.9295 191.035 31.9295Z" fill="black"/>
<path d="M231.832 40C227.433 40 223.871 36.438 223.871 32.0416V8.16185C223.871 3.76542 227.433 0.201172 231.832 0.201172H258.364C262.76 0.201172 266.324 3.76542 266.324 8.16185V32.0416C266.324 36.438 262.76 40 258.364 40H231.832ZM237.138 32.0416H253.057C254.523 32.0416 255.712 30.855 255.712 29.3896V10.8139C255.712 9.3484 254.523 8.16185 253.059 8.16185H237.14C235.675 8.16185 234.488 9.34841 234.486 10.8116V29.385C234.486 30.8505 235.67 32.0393 237.136 32.0416H237.138Z" fill="black"/>
</svg>
