<svg width="291" height="40" viewBox="0 0 291 40" fill="none" xmlns="http://www.w3.org/2000/svg">
<path fill-rule="evenodd" clip-rule="evenodd" d="M0 39.9999H10.6646V28.499H30.8433V23.0622H10.6646V16.1617H32.6207V9.36572H9.93259C5.88981 9.36572 0.156832 14.6538 0.156832 19.1415L0 39.9999Z" fill="black"/>
<path fill-rule="evenodd" clip-rule="evenodd" d="M46.3226 9.7002C42.8121 9.7002 36.918 15.324 36.918 18.4827V31.1258C36.918 34.4997 42.8251 39.9998 45.6822 39.9998H66.7785C69.1194 39.9998 75.3231 35.028 75.3231 31.1258V19.0499C75.3231 15.2682 69.9527 9.7002 66.2845 9.7002H46.3226ZM47.4753 16.3969H65.1318C65.1318 16.3969 65.2695 32.9174 65.1318 33.4312C64.9941 33.9451 47.4753 33.4312 47.4753 33.4312V16.3969Z" fill="black"/>
<path fill-rule="evenodd" clip-rule="evenodd" d="M78.31 9.26123H90.4382L97.1295 17.3119L104.553 9.26123H117.204L103.612 24.7355L116.786 40H104.762L97.1295 31.5312L90.1246 40H77.5781L91.0655 24.7355L78.31 9.26123Z" fill="black"/>
<path fill-rule="evenodd" clip-rule="evenodd" d="M151.811 16.5798H129.646V33.5175H151.811V39.9998H129.646C127.394 39.9998 119.504 34.9101 119.504 31.0082V18.3572C119.504 15.6622 125.847 9.57471 129.646 9.57471H151.916L151.811 16.5798Z" fill="black"/>
<path fill-rule="evenodd" clip-rule="evenodd" d="M199.594 39.9998H210.363V16.4751H227.614V39.9998H238.026V19.6116C238.1 15.5579 232.904 9.3437 227.98 9.41765H199.803L199.594 39.9998Z" fill="black"/>
<path d="M285.373 0C286.238 0 287.082 0.222016 287.907 0.665942C288.731 1.10993 289.373 1.74514 289.833 2.57157C290.293 3.39806 290.523 4.2598 290.523 5.15679C290.523 6.04476 290.296 6.89855 289.843 7.71814C289.39 8.53778 288.755 9.17408 287.937 9.6272C287.12 10.0803 286.265 10.3068 285.373 10.3068C284.48 10.3068 283.625 10.0803 282.808 9.6272C281.991 9.17408 281.354 8.53778 280.899 7.71814C280.443 6.89855 280.216 6.04476 280.216 5.15679C280.216 4.2598 280.447 3.39806 280.909 2.57157C281.371 1.74514 282.014 1.10993 282.839 0.665942C283.663 0.222016 284.507 0 285.373 0ZM285.373 0.853771C284.649 0.853771 283.944 1.03932 283.259 1.41047C282.573 1.78156 282.037 2.31203 281.65 3.00187C281.263 3.69176 281.07 4.41004 281.07 5.15679C281.07 5.89903 281.26 6.61053 281.64 7.29123C282.02 7.972 282.552 8.50248 283.235 8.88271C283.918 9.26293 284.63 9.45302 285.373 9.45302C286.115 9.45302 286.827 9.26293 287.51 8.88271C288.194 8.50248 288.724 7.972 289.102 7.29123C289.48 6.61053 289.669 5.89903 289.669 5.15679C289.669 4.41004 289.476 3.69176 289.092 3.00187C288.707 2.31203 288.171 1.78156 287.483 1.41047C286.796 1.03932 286.092 0.853771 285.373 0.853771ZM283.112 8.00503V2.45886H285.017C285.669 2.45886 286.14 2.5101 286.431 2.61256C286.723 2.71502 286.955 2.89379 287.128 3.14878C287.301 3.40376 287.388 3.67466 287.388 3.96156C287.388 4.36678 287.243 4.71967 286.954 5.02021C286.665 5.32074 286.281 5.48924 285.803 5.52566C285.999 5.60763 286.156 5.70552 286.274 5.81934C286.497 6.0379 286.771 6.40451 287.094 6.91904L287.77 8.00503H286.677L286.185 7.13074C285.798 6.44319 285.486 6.01286 285.25 5.83985C285.086 5.71233 284.847 5.64863 284.533 5.64863H284.007V8.00503H283.112ZM284.007 4.88362H285.093C285.612 4.88362 285.966 4.80622 286.155 4.65141C286.344 4.4966 286.438 4.29166 286.438 4.03668C286.438 3.87274 286.393 3.72589 286.302 3.59609C286.21 3.46634 286.084 3.36964 285.922 3.30587C285.761 3.24211 285.461 3.21023 285.024 3.21017H284.007V4.88362Z" fill="black"/>
<path fill-rule="evenodd" clip-rule="evenodd" d="M166.004 9.7002C162.494 9.7002 156.6 15.324 156.6 18.4827V31.1258C156.6 34.4997 162.507 39.9998 165.364 39.9998H186.46C188.801 39.9998 195.005 35.028 195.005 31.1258V19.0499C195.005 15.2682 189.634 9.7002 185.966 9.7002H166.004ZM167.157 16.3969H184.813C184.813 16.3969 184.951 32.9174 184.813 33.4312C184.676 33.9451 167.157 33.4312 167.157 33.4312V16.3969Z" fill="black"/>
<path fill-rule="evenodd" clip-rule="evenodd" d="M242.197 39.9998H252.966V16.4751H270.218V39.9998H280.63V19.6116C280.704 15.5579 275.507 9.3437 270.584 9.41765H242.406L242.197 39.9998Z" fill="black"/>
</svg>
