<svg width="322" height="35" viewBox="0 0 322 35" fill="none" xmlns="http://www.w3.org/2000/svg">
<path d="M0 0H34.3644V11.6357H0V0ZM0.0930232 33.8184H34.4557V22.181H0.0930232V33.8184ZM0 13.546H17.3648V12.4556H0V13.546ZM0 15.5458H17.3648V14.4555H0V15.5458ZM0 17.4544H17.3648V16.364H0V17.4544ZM0 19.4542H17.3648V18.2726H0V19.4542ZM0 21.3645H17.3648V20.1829H0V21.3645Z" fill="black"/>
<path d="M71.5479 33.9096V11.1826H83.4557V19.2733H89.1848V11.1826H100.459V33.9096H89.1848V27.3657H83.4557V33.9113H71.5479M101.911 33.9096L102.093 11.093H127.911V18.7273H113.731V20.6375H127.819V26.2737H113.731V27.8188H127.819V33.9096H101.911ZM129.275 33.9096V11.1826H141.002V25.9102H150.729V33.9096H129.275ZM151.456 23.4539V11.1809H163.093V23.5435C163.093 25.1816 163.365 26.9988 165.093 26.9988C167.093 26.9988 167.546 25.3624 167.546 23.5435V11.1809H178.546V23.4539C178.546 32.6367 172.82 35 165.095 35C157.369 35 151.456 32.6367 151.456 23.4539ZM180.274 33.9096V11.1826H191.456V20.0019L197.273 11.1826H210.275L201.912 22.6374L210.186 33.9096H197.003L191.458 26.365V33.9096H180.276H180.274ZM235.727 11.1826H218.181L210.365 33.9096H222.546L223.273 31.0003H230.182L231.001 33.9096H242.821L235.729 11.1826H235.727ZM224.638 24.4547L226.813 17.7644L228.911 24.4547H224.638ZM273.819 33.9096V11.1826H298.82V18.2742H285.002V20.7288H298.82V25.9119H285.091V27.8222H298.82V33.9131H273.819V33.9096ZM268.274 22.7287C270.546 22.2739 272.91 20.0019 272.91 17.4543C272.91 11.1809 267.093 11.1809 263.274 11.1809H243.546V33.9079H261.911C268.183 33.9079 272.91 33.5444 272.91 28.0892C272.91 24.999 270.911 23.0904 268.274 22.7287ZM300.911 33.9096V11.2739H312.001V25.9102H321.909V33.9096H300.909H300.911ZM258.365 28.4561H254.728V25.2729H258.365C259.371 25.2729 261.002 25.7293 261.002 26.818C261.002 27.9066 259.822 28.4561 258.365 28.4561ZM258.365 20.455H254.821V17.2717H258.365C259.221 17.2717 261.002 17.3492 261.002 18.7255C261.002 20.1018 259.433 20.455 258.365 20.455Z" fill="black"/>
</svg>
