<svg width="349" height="60" viewBox="0 0 349 60" fill="none" xmlns="http://www.w3.org/2000/svg">
<path d="M0 36.5097C0.630073 36.5127 1.26014 36.5214 1.89021 36.5214C116.864 36.5214 231.838 36.5214 346.811 36.5214C347.199 36.5214 347.587 36.5156 347.975 36.5214C348.999 36.5418 349.008 36.5564 348.996 37.589C348.984 38.47 348.981 38.4787 348.121 38.505C347.686 38.5196 347.249 38.505 346.811 38.505C231.838 38.505 116.864 38.505 1.89021 38.505C1.26014 38.505 0.630073 38.5225 0 38.5312V36.5039V36.5097Z" fill="black"/>
<path d="M273.433 14.4541C277.648 14.4541 281.864 14.4541 286.079 14.4541C286.37 14.4541 286.662 14.4657 286.951 14.4511C287.68 14.4103 287.735 14.3461 287.776 13.576C287.785 13.4331 287.785 13.2873 287.776 13.1414C287.598 10.6824 287.727 8.22043 287.683 5.7614C287.674 5.28009 287.695 4.7842 287.593 4.3204C287.371 3.31986 286.825 2.6052 285.761 2.29308C284.71 1.98387 283.652 2.02763 282.593 2.02763C282.053 2.02763 281.788 1.85553 281.799 1.28088C281.811 0.808321 281.954 0.574963 282.473 0.589548C284.506 0.642054 286.542 0.627472 288.573 0.720816C289.83 0.779156 291.075 0.776237 292.336 0.717897C294.608 0.609967 296.886 0.618721 299.161 0.574966C299.587 0.566215 299.774 0.764573 299.765 1.18754C299.756 1.58425 299.791 1.98388 299.223 2.01597C298.31 2.07139 297.397 2.02472 296.489 2.28141C294.932 2.72188 294.176 3.50947 294.042 5.08757C293.972 5.90433 293.952 6.72692 293.949 7.5466C293.943 13.2902 293.946 19.0338 293.949 24.7744C293.949 25.4016 293.952 26.0316 294.024 26.653C294.214 28.2602 294.867 28.9662 296.475 29.2345C297.379 29.3862 298.301 29.427 299.217 29.5C299.666 29.535 299.765 29.8004 299.756 30.1855C299.751 30.5267 299.622 30.7455 299.263 30.7601C298.875 30.7747 298.487 30.7776 298.102 30.7747C294.229 30.7572 290.355 30.7309 286.481 30.7193C285.174 30.7164 283.867 30.7514 282.558 30.7747C282.114 30.7834 281.814 30.6726 281.808 30.1417C281.799 29.6137 282.1 29.497 282.537 29.4708C283.118 29.4329 283.698 29.3979 284.273 29.3133C286.528 28.9749 287.639 27.9744 287.651 25.8916C287.665 22.9046 287.668 19.9147 287.686 16.9277C287.686 16.4347 287.452 16.2334 286.974 16.2539C286.685 16.2655 286.394 16.2539 286.102 16.2539C277.526 16.2539 268.95 16.2539 260.377 16.2539C260.231 16.2539 260.085 16.2509 259.942 16.2539C258.962 16.283 258.901 16.2976 258.912 17.2019C258.953 20.2881 258.755 23.3772 259.044 26.4604C259.204 28.1611 259.936 28.9749 261.631 29.2491C262.489 29.3862 263.361 29.4445 264.23 29.4941C264.746 29.5233 264.887 29.78 264.866 30.2409C264.846 30.7076 264.545 30.7805 264.178 30.7747C262.725 30.7572 261.272 30.7193 259.82 30.7222C256.284 30.7309 252.749 30.7601 249.213 30.7776C248.633 30.7805 248.05 30.7659 247.469 30.7747C247.037 30.7805 246.877 30.5792 246.88 30.1592C246.886 29.7654 246.991 29.5204 247.437 29.4912C248.064 29.4504 248.694 29.4008 249.316 29.3162C251.258 29.0595 252.373 28.1756 252.661 26.6209C252.784 25.9587 252.889 25.2791 252.869 24.6081C252.685 18.287 252.845 11.9659 252.79 5.64763C252.79 5.50178 252.79 5.35885 252.784 5.213C252.702 3.40737 252.049 2.6577 250.252 2.20265C249.388 1.98387 248.519 2.06263 247.653 2.0218C246.947 1.98679 246.848 1.84678 246.871 1.14962C246.886 0.703315 247.093 0.583717 247.507 0.592468C249.394 0.627472 251.29 0.569134 253.172 0.685814C254.671 0.779158 256.153 0.782072 257.655 0.691645C259.829 0.563296 262.013 0.609967 264.192 0.572046C264.685 0.563295 264.887 0.76749 264.875 1.26046C264.863 1.69801 264.787 2.01888 264.254 2.0218C263.623 2.02471 262.991 2.01013 262.366 2.08014C260.324 2.30475 258.948 3.48613 259.044 5.52803C259.058 5.8139 258.968 6.10269 258.965 6.39147C258.939 8.70465 258.91 11.0207 258.91 13.3339C258.91 14.4249 258.942 14.4511 260.068 14.4541C264.525 14.4628 268.982 14.457 273.439 14.457L273.433 14.4541Z" fill="black"/>
<path d="M149.378 29.9609C148.99 29.9376 148.599 29.9521 148.217 29.9288C145.375 29.7567 142.8 28.9137 140.696 26.9243C139.886 26.16 139.086 25.3929 138.328 24.5761C135.991 22.0675 133.681 19.5355 131.365 17.0065C131.108 16.7235 130.639 16.4493 130.726 16.111C130.776 15.9126 131.383 15.8426 131.741 15.7434C131.925 15.6938 132.129 15.7172 132.319 15.6822C134.422 15.2913 136.479 14.7721 138.267 13.5178C141.359 11.3475 141.91 7.35121 139.46 4.5538C138.593 3.56494 137.488 2.85611 136.266 2.3398C133.652 1.243 130.919 0.700446 128.095 0.575014C125.093 0.437915 122.092 0.612936 119.09 0.630438C118.221 0.630438 117.346 0.630438 116.482 0.712114C115.129 0.834628 113.787 0.796704 112.431 0.717945C110.401 0.604182 108.367 0.618763 106.334 0.577925C105.981 0.572091 105.824 0.747114 105.789 1.10007C105.716 1.83807 105.85 1.99559 106.655 2.02477C107.093 2.03935 107.527 2.02476 107.962 2.04518C110.695 2.15602 111.675 3.16531 111.678 5.91021C111.678 11.8463 111.678 17.7824 111.678 23.7156C111.678 24.3923 111.684 25.0691 111.643 25.7429C111.521 27.8023 110.646 28.8233 108.642 29.2404C108.122 29.3483 107.589 29.3833 107.058 29.4446C106.815 29.4708 106.573 29.4796 106.331 29.4913C105.885 29.5117 105.786 29.7888 105.783 30.1768C105.783 30.6085 106.002 30.7806 106.407 30.7777C106.748 30.7777 107.087 30.7777 107.425 30.7835H122.095C122.436 30.7835 122.774 30.7777 123.113 30.7747C123.664 30.7689 123.696 30.3547 123.717 29.9667C123.734 29.5758 123.437 29.5233 123.127 29.5C122.404 29.4446 121.678 29.4154 120.96 29.3133C118.717 28.9954 117.871 28.1524 117.81 25.915C117.731 23.1176 117.795 20.3144 117.778 17.517C117.778 16.9919 118.014 16.8373 118.486 16.8694C119.402 16.9277 120.33 17.0707 121.237 17.0065C123.212 16.8665 124.685 17.7212 125.931 19.1242C126.059 19.2701 126.205 19.3984 126.342 19.5355C128.743 21.9216 131.132 24.3136 133.547 26.688C135.776 28.8758 138.389 30.3605 141.502 30.8943C144.101 31.3436 146.711 31.1977 149.319 31.0373C149.692 31.0139 149.999 30.9118 149.973 30.4509C149.952 30.0776 149.681 29.9784 149.375 29.9609H149.378ZM118.527 15.0346C117.993 14.9617 117.781 14.7196 117.783 14.1887C117.801 12.3072 117.792 10.4228 117.792 8.54135C117.792 6.70947 117.807 4.87467 117.783 3.03988C117.778 2.4944 117.973 2.27854 118.527 2.22895C120.75 2.03059 122.961 1.96934 125.19 2.20562C127.229 2.42148 129.204 2.8211 131 3.84205C132.631 4.76674 133.754 6.07648 134.151 7.95503C134.591 10.0611 133.83 12.0476 132.068 13.2727C130.645 14.2587 129.02 14.7225 127.345 15.0229C124.411 15.5509 121.47 15.443 118.527 15.0317V15.0346Z" fill="black"/>
<path d="M94.5195 6.69178C91.8388 4.32318 88.6621 2.77425 85.2434 1.76205C81.0488 0.519409 76.7491 -0.069829 72.3328 0.026432C67.6189 -0.10775 63.0246 0.676919 58.585 2.33669C55.0846 3.64351 51.9751 5.54832 49.5656 8.44199C47.0628 11.4465 46.0739 14.8594 47.124 18.6923C47.8095 21.1864 49.3672 23.1466 51.3071 24.8209C53.6844 26.8687 56.403 28.3214 59.3609 29.3219C64.9848 31.2208 70.7605 31.8363 76.6791 31.3871C80.7192 31.0779 84.625 30.2757 88.3763 28.7327C91.6141 27.3996 94.3707 25.4219 96.5789 22.7003C98.1862 20.7167 99.0263 18.4473 99.0117 15.8978C98.9884 12.1262 97.2673 9.12164 94.5224 6.69469L94.5195 6.69178ZM91.5821 20.2588C91.0395 22.1811 89.794 23.6687 88.3617 24.9785C85.366 27.7175 81.7372 29.0681 77.7584 29.5669C76.4633 29.7273 75.1623 29.8819 74.4185 29.8119C68.847 29.7682 64.136 28.6335 59.9589 25.8361C56.0822 23.2429 53.7807 19.652 53.769 14.8594C53.7573 9.93841 56.1609 6.45259 60.3818 4.12191C62.8263 2.77133 65.5157 2.08584 68.2577 1.82331C71.6327 1.50535 75.0252 1.52285 78.3535 2.36586C82.0231 3.29055 85.4127 4.78114 88.0671 7.55229C91.5121 11.146 92.9647 15.3261 91.585 20.2588H91.5821Z" fill="black"/>
<path d="M324.522 30.7777C319.097 30.7777 313.674 30.7777 308.248 30.7777C307.86 30.7777 307.472 30.7661 307.084 30.7777C306.65 30.7865 306.492 30.5736 306.495 30.1593C306.495 29.7685 306.597 29.5176 307.046 29.4884C307.627 29.4534 308.205 29.398 308.782 29.328C311.224 29.0305 312.326 27.8783 312.338 25.4192C312.37 18.713 312.361 12.0039 312.338 5.29774C312.332 3.43961 311.588 2.6141 309.756 2.17655C308.942 1.98402 308.12 2.03362 307.297 2.03362C306.79 2.03362 306.475 1.94319 306.481 1.32479C306.483 0.77639 306.644 0.548862 307.227 0.566364C311.098 0.688878 314.966 0.598446 318.84 0.753047C322.314 0.893063 325.806 0.919319 329.291 0.683042C331.173 0.554694 333.066 0.621785 334.956 0.601366C336.362 0.586781 337.765 0.583866 339.171 0.566364C339.588 0.56053 339.927 0.586783 339.944 1.14976C340.006 3.02831 340.315 4.89227 340.251 6.77957C340.224 7.58758 340.233 7.5905 339.449 7.61675C338.436 7.64884 338.442 7.64885 338.197 6.57539C337.949 5.48443 337.354 4.64433 336.368 4.0901C335.126 3.39002 333.781 3.06623 332.375 2.89705C329.289 2.52659 326.191 2.60535 323.096 2.54409C321.836 2.51784 320.575 2.52367 319.318 2.547C318.542 2.56159 318.478 2.61701 318.475 3.37252C318.461 6.65415 318.469 9.93577 318.464 13.2174C318.464 13.6491 318.531 13.9642 319.07 13.9904C322.842 14.18 326.611 14.3317 330.353 13.6579C331.815 13.3953 333.084 12.8849 333.206 11.1113C333.227 10.8284 333.419 10.7 333.69 10.6884C333.979 10.6767 334.271 10.6825 334.563 10.6738C335.041 10.6592 335.289 10.8634 335.257 11.3593C335.251 11.4555 335.263 11.5518 335.257 11.6481C335.14 13.6695 335.096 15.691 335.251 17.7125C335.289 18.1996 335.321 18.6809 334.589 18.7451C333.509 18.8414 333.168 18.7626 333.016 17.9984C332.748 16.6565 331.751 16.2102 330.625 16.0352C329.484 15.8573 328.335 15.6618 327.162 15.6735C324.546 15.6968 321.929 15.6618 319.315 15.6735C318.51 15.6735 318.478 15.7056 318.475 16.4844C318.461 19.4277 318.396 22.3739 318.496 25.3142C318.572 27.5545 318.796 28.4733 321.804 28.73C325.914 29.0801 330.027 28.8642 334.137 28.6279C335.009 28.5783 335.861 28.3946 336.709 28.1962C339.098 27.6361 340.773 26.2622 341.703 23.987C341.858 23.6078 341.922 23.1673 342.511 23.1031C343.827 22.9602 344.014 23.1323 343.774 24.4624C343.442 26.306 342.937 28.1204 342.797 29.9989C342.753 30.6027 342.406 30.7923 341.82 30.7836C339.303 30.7457 336.782 30.7282 334.265 30.7194C331.021 30.7107 327.775 30.7194 324.531 30.7194C324.531 30.7398 324.531 30.7602 324.531 30.7777H324.522Z" fill="black"/>
<path d="M38.4399 4.27394C37.524 3.46593 36.4943 2.8446 35.38 2.35746C32.8189 1.24609 30.109 0.782289 27.3495 0.604352C23.9103 0.382659 20.4683 0.621847 17.0292 0.624764C14.9056 0.624764 12.7936 0.90188 10.6555 0.671437C9.07447 0.502251 7.46138 0.589764 5.86287 0.58393C5.23571 0.58393 5.1453 0.735609 5.14821 1.37152C5.14821 1.87907 5.39032 2.02785 5.86871 2.03368C6.87799 2.04535 7.89598 1.95492 8.88776 2.31371C10.3083 2.83002 10.9968 3.61761 10.9997 5.08194C11.0201 11.9369 11.0288 18.7948 10.9997 25.6468C10.9909 27.82 9.82412 29.0247 7.65387 29.2931C7.02964 29.3689 6.39958 29.4039 5.77534 29.4885C5.2357 29.5643 5.06649 29.8619 5.17442 30.3811C5.27652 30.8682 5.66156 30.7749 5.97952 30.7749C8.69233 30.7837 11.4052 30.7807 14.118 30.7807V30.6932C14.506 30.6932 14.8939 30.6932 15.2819 30.6932C17.6067 30.7224 19.9316 30.7516 22.2593 30.7778C22.7202 30.7836 23.1403 30.7691 23.1257 30.1157C23.114 29.5702 22.7786 29.5206 22.3556 29.4885C21.4397 29.4127 20.512 29.3689 19.6136 29.1997C18.3768 28.9634 17.5017 28.2984 17.3033 26.942C17.2275 26.414 17.1517 25.8977 17.1546 25.3639C17.1604 23.287 17.1196 21.2101 17.1633 19.1361C17.2333 15.9886 16.4808 16.4349 19.9578 16.6624C24.4296 16.9541 28.8664 16.817 33.2127 15.6298C35.38 15.0348 37.4074 14.1276 38.9213 12.3599C40.7736 10.1955 40.9515 6.48794 38.4341 4.27394H38.4399ZM31.6142 13.3516C30.2811 14.4193 28.6767 14.8539 27.0403 15.0348C24.097 15.3615 21.1509 15.3206 18.2484 14.568C17.1837 14.2909 17.1692 14.2938 17.1604 13.2525C17.1487 11.5635 17.1604 9.87166 17.1604 8.18272C17.1604 6.49377 17.1808 4.80483 17.1487 3.11589C17.1371 2.50915 17.3558 2.25537 17.9597 2.20286C20.0862 2.01034 22.2127 1.96075 24.3363 2.16786C25.9727 2.3283 27.5945 2.62 29.126 3.24715C31.4596 4.1981 33.1718 5.7266 33.5423 8.34899C33.8281 10.3471 33.2302 12.0565 31.6142 13.3516Z" fill="black"/>
<path d="M220.513 29.6197C224.722 29.7043 228.771 29.1092 232.63 27.4844C235.101 26.446 237.359 25.0516 239.485 23.4327C239.663 23.2985 239.853 22.9952 240.06 23.1381C240.194 23.2285 240.156 23.5786 240.179 23.8148C240.194 23.9578 240.179 24.1036 240.179 24.2495C240.194 26.4576 240.206 26.4781 238.225 27.5749C235.745 28.9488 233.05 29.7539 230.305 30.3664C222.806 32.0466 215.306 31.9591 207.85 30.1156C204.099 29.188 200.604 27.6565 197.623 25.1362C195.301 23.1731 193.7 20.7724 193.224 17.7096C192.889 15.5481 193.207 13.4857 194.099 11.5051C195.465 8.47724 197.824 6.35367 200.607 4.68806C204.3 2.47697 208.337 1.20808 212.593 0.557584C215.429 0.125867 218.267 -0.0287353 221.131 0.00918575C224.871 0.0587748 228.549 0.580915 232.213 1.26349C234.395 1.66896 236.583 2.05692 238.765 2.47114C239.861 2.68116 239.867 2.69866 239.838 3.74294C239.803 4.99142 239.619 6.2399 239.838 7.49129C239.888 7.77716 239.853 8.10095 239.558 8.25264C239.24 8.41599 238.896 8.38682 238.598 8.16804C238.482 8.08345 238.391 7.96677 238.295 7.85884C235.597 4.92434 232.126 3.41041 228.31 2.63449C224.699 1.8994 221.05 1.63687 217.348 1.95774C213.786 2.26694 210.373 3.0137 207.197 4.67639C204.615 6.02696 202.433 7.818 201.153 10.5133C199.394 14.2179 199.805 17.8437 201.786 21.3033C203.755 24.7424 206.914 26.7523 210.56 28.0707C213.783 29.2375 217.129 29.7072 220.507 29.6138L220.513 29.6197Z" fill="black"/>
<path d="M170.721 0.0324164C173.288 -0.139687 176.053 0.414548 178.836 0.729584C179.749 0.831679 180.659 0.954195 181.572 1.05921C182.059 1.11463 182.365 1.26339 182.357 1.85846C182.328 3.83619 182.345 5.81684 182.351 7.79456C182.351 8.2117 182.167 8.41588 181.744 8.41005C181.452 8.40421 181.164 8.41005 180.872 8.41297C180.545 8.4188 180.318 8.31088 180.242 7.96084C180.181 7.67789 180.096 7.40077 180.011 7.12657C179.559 5.63598 178.696 4.46626 177.345 3.6495C175.872 2.75981 174.277 2.27267 172.579 2.02765C170.31 1.70386 168.049 1.62802 165.788 2.03932C163.91 2.3806 162.177 2.99318 160.698 4.30291C159.234 5.6039 159.301 7.86457 160.593 9.21222C161.529 10.1894 162.696 10.7553 163.915 11.225C165.765 11.9396 167.658 12.5289 169.58 13.0218C172.019 13.649 174.414 14.4045 176.794 15.2154C178.357 15.7492 179.831 16.4843 181.199 17.409C184.676 19.7572 184.509 23.2459 183.063 25.7866C182.167 27.3589 180.805 28.4149 179.227 29.217C177.795 29.9463 176.254 30.3634 174.682 30.6959C168.268 32.0553 161.871 31.5915 155.479 30.5443C155.24 30.5063 155.004 30.4538 154.765 30.4072C154.377 30.3284 154.213 30.1155 154.216 29.6983C154.231 27.8198 154.202 25.9383 154.222 24.0598C154.225 23.6543 154.213 23.1788 154.852 23.1088C155.832 23.0009 156.232 23.1234 156.457 23.8264C157.122 25.9121 158.615 27.2626 160.517 28.1261C165.03 30.1796 169.679 30.3663 174.39 28.8407C175.406 28.5111 176.345 27.9919 177.182 27.3181C179.516 25.4337 179.624 22.7763 177.471 20.7111C176.278 19.5676 174.79 18.9929 173.261 18.5204C170.998 17.8203 168.717 17.1844 166.444 16.5193C163.755 15.7317 161.039 15.0083 158.49 13.8182C157.387 13.3019 156.41 12.6076 155.52 11.7675C153.598 9.95898 153.566 6.75611 155.284 4.81339C156.36 3.597 157.676 2.71023 159.137 2.03348C161.127 1.11171 163.239 0.63624 165.397 0.292034C167.083 0.0236697 168.769 0.0178342 170.721 0.0353363V0.0324164Z" fill="black"/>
<path d="M91.0001 52.7371C89.0137 52.7371 87.0272 52.7255 85.0436 52.743C84.1715 52.7488 84.1452 52.7721 84.1365 53.6385C84.1277 54.8432 84.1073 56.0538 84.2007 57.2527C84.294 58.4749 84.5711 58.6995 85.8079 58.8833C86.228 58.9474 86.896 58.9183 86.8901 59.3383C86.8814 59.9742 86.1988 59.6475 85.8371 59.6533C83.7572 59.6913 81.6745 59.6738 79.5918 59.6738C79.3497 59.6738 79.1046 59.6796 78.8684 59.6446C78.74 59.6271 78.5563 59.5717 78.5913 59.385C78.6146 59.2625 78.6904 59.0816 78.7838 59.0495C79.0521 58.9591 79.3438 58.9328 79.6267 58.8803C80.8052 58.6499 81.1961 58.2474 81.2078 57.0164C81.2341 53.8806 81.2282 50.7448 81.2078 47.609C81.202 46.6756 80.8607 46.3081 79.971 46.101C79.7843 46.0572 79.583 46.0747 79.3934 46.0397C79.0959 45.9843 78.565 46.1476 78.6262 45.6605C78.6758 45.2579 79.1863 45.4067 79.4984 45.4096C81.6249 45.4388 83.7485 45.4592 85.8721 45.3338C86.155 45.3163 86.4496 45.3863 86.7326 45.4475C86.8726 45.4767 86.9747 45.6051 86.928 45.7655C86.9047 45.8443 86.8289 45.958 86.7618 45.9697C86.4293 46.0222 86.0908 46.0222 85.7612 46.0776C84.7928 46.2468 84.4631 46.6144 84.2852 47.5682C84.0722 48.7175 84.1248 49.8756 84.1365 51.0307C84.1452 51.827 84.1714 51.8504 84.959 51.8591C86.5576 51.8766 88.1561 51.8649 89.7546 51.8649C92.129 51.8649 94.5006 51.8737 96.875 51.8649C97.7239 51.862 97.7385 51.8416 97.7501 50.9636C97.7647 49.9018 97.7705 48.84 97.7501 47.7782C97.7268 46.5618 97.365 46.2147 96.1078 46.0455C95.7257 45.993 95.049 46.2556 95.0723 45.6313C95.084 45.2638 95.7373 45.4125 96.102 45.4096C98.1818 45.395 100.262 45.398 102.341 45.4009C102.63 45.4009 102.922 45.4155 103.211 45.4446C103.357 45.4592 103.473 45.5526 103.482 45.713C103.494 45.8938 103.345 45.958 103.214 45.9989C103.077 46.0397 102.928 46.0368 102.782 46.0543C101.105 46.2818 100.766 46.5677 100.734 48.2333C100.679 51.1765 100.682 54.1198 100.728 57.063C100.749 58.4165 101.038 58.6441 102.432 58.9037C102.718 58.9562 103.004 59.0145 103.278 59.102C103.406 59.1429 103.543 59.2479 103.47 59.4229C103.438 59.5017 103.36 59.5979 103.284 59.6154C103.097 59.6592 102.902 59.6767 102.712 59.6767C100.387 59.6796 98.0622 59.6796 95.7403 59.6738C95.5536 59.6738 95.3582 59.6358 95.1802 59.5804C95.1131 59.56 95.0431 59.4346 95.0373 59.3529C95.0315 59.2771 95.0927 59.172 95.1569 59.1254C95.4894 58.892 95.8949 58.927 96.2712 58.8541C97.295 58.6586 97.6772 58.3261 97.7238 57.3547C97.788 56.0071 97.7414 54.6536 97.7501 53.303C97.753 52.7255 97.3592 52.74 96.9567 52.74C94.9702 52.74 92.9837 52.74 91.0001 52.74V52.7371Z" fill="black"/>
<path d="M234.499 59.2389C234.166 59.1835 233.831 59.1397 233.496 59.1222C232.332 59.0639 231.296 58.6205 230.497 57.8242C228.957 56.2898 227.501 54.6709 226.005 53.0957C225.742 52.8215 225.873 52.6582 226.136 52.5706C226.41 52.4802 226.708 52.4685 226.988 52.4073C227.898 52.2177 228.755 51.8939 229.485 51.3047C230.471 50.5054 230.774 49.4086 230.401 48.201C229.975 46.8154 228.82 46.2816 227.621 45.8907C225.908 45.3306 224.114 45.1089 222.321 45.2635C220.188 45.4473 218.068 45.4736 215.935 45.3715C215.358 45.3423 214.777 45.4065 214.197 45.4327C214.033 45.4386 213.931 45.5494 213.896 45.6894C213.852 45.8645 214.007 45.9549 214.138 45.987C214.325 46.0336 214.523 46.0249 214.716 46.0424C216.408 46.2174 216.694 46.5179 216.699 48.2185C216.708 50.9225 216.699 53.6266 216.699 56.3307C216.699 56.6194 216.699 56.9111 216.667 57.197C216.539 58.2442 216.174 58.6322 215.156 58.8422C214.87 58.9005 214.582 58.9384 214.302 58.9968C214.106 59.0376 213.896 59.1281 213.899 59.341C213.899 59.6765 214.2 59.6677 214.433 59.6706C215.643 59.6765 216.857 59.6706 218.067 59.6706C219.036 59.6706 220.007 59.694 220.973 59.659C221.425 59.6415 222.216 59.9098 222.253 59.4081C222.306 58.7576 221.483 58.953 221.023 58.8568C220.022 58.6555 219.672 58.3463 219.628 57.3312C219.581 56.1294 219.622 54.9188 219.616 53.7112C219.616 53.3057 219.754 53.0957 220.2 53.0753C221.396 53.0286 222.507 53.1686 223.4 54.0904C224.543 55.2718 225.751 56.3919 226.886 57.5821C228.98 59.7844 231.629 59.9448 234.403 59.6998C234.449 59.6998 234.502 59.6765 234.531 59.6444C234.587 59.5802 234.665 59.4985 234.66 59.4343C234.651 59.3585 234.566 59.2447 234.502 59.2331L234.499 59.2389ZM219.967 52.1185C219.66 52.0602 219.619 51.8268 219.616 51.5759C219.616 50.7592 219.616 49.9366 219.616 49.1169C219.616 48.2972 219.616 47.4776 219.616 46.6579C219.616 46.3166 219.786 46.1387 220.142 46.1095C221.944 45.9607 223.732 45.9928 225.43 46.7016C226.859 47.2996 227.539 48.6152 227.236 49.9337C227.069 50.6513 226.67 51.1909 226.049 51.4913C224.109 52.4306 222.058 52.524 219.969 52.1214L219.967 52.1185Z" fill="black"/>
<path d="M154.463 52.2088C154.463 51.1003 154.471 49.9889 154.457 48.8805C154.451 48.4954 154.407 48.1133 154.36 47.7312C154.244 46.7977 153.69 46.2756 152.779 46.1006C152.497 46.0451 152.205 46.0189 151.925 45.9518C151.855 45.9343 151.788 45.8205 151.759 45.7359C151.691 45.5434 151.852 45.488 151.98 45.4501C152.117 45.4121 152.266 45.3976 152.409 45.3976C154.393 45.3976 156.379 45.3976 158.363 45.4005C158.506 45.4005 158.654 45.4238 158.786 45.4734C158.853 45.4997 158.926 45.6105 158.923 45.6834C158.923 45.7651 158.859 45.8964 158.794 45.9139C158.567 45.9839 158.328 46.0072 158.094 46.0597C156.647 46.4039 156.306 46.7481 156.213 48.1979C156.093 50.021 156.014 51.847 155.965 53.6731C155.918 55.4087 155.936 57.1473 155.909 58.8829C155.898 59.688 155.609 59.898 154.848 59.7346C154.401 59.6384 154.078 59.3379 153.73 59.0812C150.501 56.701 147.278 54.3119 144.055 51.9258C142.345 50.6598 140.642 49.388 138.93 48.1308C138.507 47.8216 138.302 47.8887 138.291 48.3933C138.241 50.1756 138.212 51.9608 138.235 53.746C138.25 54.8516 138.355 55.96 138.46 57.0626C138.577 58.3082 138.877 58.6028 140.128 58.8595C140.481 58.9325 141.065 58.8158 141.042 59.3262C141.018 59.8805 140.435 59.653 140.099 59.6588C138.358 59.685 136.613 59.6705 134.872 59.6675C134.63 59.6675 134.385 59.6675 134.149 59.6267C134.017 59.6063 133.845 59.5246 133.892 59.3467C133.924 59.2242 134.017 59.0637 134.122 59.0229C134.341 58.9354 134.586 58.9004 134.822 58.8741C135.835 58.7603 136.371 58.1682 136.535 57.1998C136.59 56.8672 136.678 56.5376 136.683 56.2051C136.733 53.3639 136.791 50.5227 136.797 47.6816C136.797 46.4068 136.549 46.1997 135.283 46.0685C134.808 46.0189 134.312 46.1443 133.857 45.9285C133.787 45.8964 133.729 45.7739 133.729 45.6922C133.729 45.6193 133.799 45.488 133.854 45.4763C134.087 45.4296 134.329 45.4005 134.569 45.3976C135.683 45.3917 136.8 45.4501 137.909 45.3801C138.781 45.3246 139.446 45.5668 140.152 46.0976C144.591 49.4405 149.075 52.7251 153.544 56.03C153.698 56.1438 153.85 56.2663 154.013 56.3684C154.317 56.5609 154.471 56.3976 154.474 56.1117C154.489 54.8107 154.48 53.5068 154.48 52.2029H154.457L154.463 52.2088Z" fill="black"/>
<path d="M182.313 53.2472C183.428 53.2472 184.542 53.2413 185.653 53.253C185.843 53.253 186.056 53.3143 186.068 53.5476C186.079 53.8043 185.855 53.8335 185.668 53.851C185.429 53.8743 185.181 53.851 184.945 53.8918C184.061 54.0522 183.833 54.3119 183.804 55.257C183.781 56.0767 183.804 56.8963 183.798 57.7189C183.786 58.7778 183.769 58.8215 182.71 59.0374C181.575 59.2678 180.435 59.4983 179.283 59.6354C177.36 59.8629 175.435 60.035 173.492 59.9708C171.103 59.8892 168.787 59.4837 166.573 58.5794C164.838 57.8706 163.356 56.8467 162.262 55.2832C161.186 53.7518 160.882 50.7969 162.737 48.8571C163.446 48.1161 164.231 47.4832 165.138 47.0135C167.183 45.9576 169.359 45.3421 171.652 45.1787C175.441 44.9045 179.189 45.2225 182.9 46.0363C183.352 46.1355 183.606 46.2843 183.594 46.7685C183.582 47.2994 183.611 47.8303 183.579 48.3612C183.547 48.8775 183.092 49.0933 182.678 48.8104C182.561 48.7316 182.462 48.6179 182.375 48.5012C181.179 46.9027 179.414 46.3222 177.573 46.1209C175.269 45.8701 172.932 45.8 170.64 46.3572C169.414 46.6547 168.218 47.0544 167.171 47.7836C163.916 50.053 163.776 53.7722 166.83 56.3158C168.356 57.5876 170.141 58.2965 172.057 58.6903C174.607 59.2124 177.153 59.1103 179.676 58.4832C180.706 58.2265 180.706 58.2061 180.735 57.1122C180.75 56.5346 180.82 55.957 180.788 55.3853C180.727 54.3002 180.47 54.0435 179.42 53.8831C179.277 53.8626 179.128 53.8772 178.985 53.8597C178.76 53.8335 178.437 53.8889 178.434 53.5593C178.434 53.2442 178.743 53.2501 178.974 53.2501C180.088 53.2442 181.202 53.2472 182.313 53.2472Z" fill="black"/>
<path d="M270.225 59.0345C270.047 58.9645 269.861 58.8974 269.671 58.8858C268.178 58.7837 267.195 57.9377 266.407 56.7476C265.687 55.6625 264.931 54.6007 264.184 53.5301C262.306 50.8348 260.433 48.1337 258.548 45.4471C258 44.6654 257.668 44.6654 257.137 45.4034C257.023 45.558 256.935 45.733 256.827 45.8934C254.514 49.458 252.178 53.0109 249.897 56.593C249.077 57.8881 248.138 58.8916 246.469 58.9003C246.297 58.9003 246.087 59.0054 245.965 59.1279C245.822 59.2708 245.819 59.4925 246.049 59.5946C246.175 59.6529 246.329 59.6704 246.469 59.6704C248.505 59.6704 250.538 59.6704 252.572 59.6704C252.668 59.6704 252.764 59.6529 252.86 59.6442C253.027 59.6267 253.126 59.5188 253.164 59.3758C253.222 59.1337 253.05 59.0199 252.866 58.9616C252.682 58.9033 252.484 58.9003 252.294 58.8624C251.23 58.6437 251.034 58.317 251.513 57.4068C252.032 56.4267 252.618 55.4816 253.158 54.5132C253.365 54.1398 253.607 53.9473 254.068 53.9502C256.3 53.9735 258.525 53.9706 260.757 53.956C261.25 53.9502 261.562 54.1369 261.827 54.5423C262.466 55.5108 263.163 56.4384 263.799 57.4068C264.277 58.1419 264.105 58.5678 263.268 58.7749C262.802 58.8916 262.309 58.8887 261.833 58.9733C261.641 59.0083 261.504 59.1629 261.527 59.3904C261.544 59.5654 261.69 59.6325 261.824 59.65C262.066 59.6792 262.308 59.6733 262.554 59.6763H265.897C267.008 59.6763 268.125 59.6763 269.236 59.6763C269.528 59.6763 269.82 59.6763 270.106 59.65C270.249 59.6354 270.389 59.5654 270.403 59.3933C270.418 59.2416 270.362 59.0987 270.216 59.0404L270.225 59.0345ZM260.051 53.008C259.185 53.0313 258.315 53.0138 257.449 53.0138V53.0197C256.536 53.0197 255.617 53.0372 254.704 53.0109C254.214 52.9992 254.118 52.8067 254.38 52.3692C255.2 51.0157 256.043 49.6739 256.874 48.3262C257.075 47.9966 257.242 47.7953 257.557 48.2737C258.481 49.6739 259.453 51.0449 260.395 52.4363C260.678 52.8534 260.599 52.9963 260.051 53.008Z" fill="black"/>
<path d="M212.298 58.9091C212.251 58.8974 212.202 58.8945 212.155 58.8945C210.589 58.8508 209.609 57.9494 208.772 56.7272C206.537 53.4631 204.262 50.231 201.998 46.9902C201.61 46.436 201.219 45.8847 200.805 45.3538C200.274 44.68 200.032 44.7004 199.501 45.415C199.355 45.6076 199.224 45.8088 199.093 46.013C197.573 48.3612 196.059 50.7123 194.536 53.0576C193.647 54.4344 192.728 55.7937 191.844 57.1735C191.205 58.1682 190.356 58.7982 189.14 58.8683C188.901 58.8828 188.662 58.9266 188.431 58.982C188.262 59.0229 188.242 59.1833 188.233 59.3291C188.224 59.4983 188.352 59.6179 188.481 59.6354C188.767 59.6763 189.061 59.6675 189.347 59.6675C190.896 59.6675 192.442 59.6675 193.991 59.6675C194.426 59.6675 194.86 59.6588 195.295 59.65C195.452 59.65 195.575 59.5625 195.613 59.4167C195.651 59.2591 195.56 59.1162 195.42 59.0724C195.1 58.9733 194.77 58.9091 194.446 58.8333C193.583 58.6378 193.384 58.3024 193.787 57.5177C194.321 56.4938 194.942 55.5137 195.487 54.4957C195.735 54.0289 196.109 53.9531 196.567 53.9531C198.746 53.9589 200.922 53.9531 203.098 53.9444C203.512 53.9444 203.842 54.029 204.087 54.3994C204.813 55.4816 205.574 56.5405 206.292 57.6256C206.622 58.1273 206.508 58.3753 205.971 58.6437C205.432 58.9179 204.828 58.807 204.271 58.9587C204.069 59.0112 203.923 59.1425 203.923 59.3583C203.923 59.615 204.133 59.6529 204.326 59.6558C205.63 59.6617 206.937 59.6558 208.244 59.6558V59.6675C209.308 59.6675 210.376 59.6675 211.438 59.6675C211.729 59.6675 212.021 59.6675 212.307 59.6529C212.502 59.6413 212.715 59.5859 212.744 59.3583C212.785 59.0433 212.526 58.9791 212.295 58.9062L212.298 58.9091ZM202.471 53.0226C201.511 53.0226 200.548 53.0226 199.586 53.0226C198.722 53.0226 197.856 53.0226 196.99 53.0284C196.628 53.0284 196.4 52.9176 196.631 52.5355C197.471 51.1411 198.331 49.7585 199.186 48.3729C199.419 47.9995 199.682 47.947 199.953 48.3496C200.896 49.7351 201.847 51.1178 202.786 52.5063C203.034 52.8767 202.841 53.0197 202.471 53.0226Z" fill="black"/>
<path d="M109.415 50.9197C109.415 49.8579 109.441 48.7961 109.409 47.7373C109.374 46.6376 109.018 46.2642 108.003 46.0658C107.56 45.9783 106.729 46.2321 106.761 45.7333C106.802 45.1003 107.618 45.427 108.082 45.4153C110.013 45.3716 111.944 45.3949 113.875 45.3949C114.164 45.3949 114.459 45.392 114.744 45.4212C114.925 45.4416 115.159 45.4941 115.095 45.7537C115.068 45.8558 114.911 45.9754 114.794 45.9987C114.462 46.06 114.117 46.0483 113.788 46.1154C113.067 46.2584 112.571 46.6084 112.469 47.4281C112.411 47.9065 112.335 48.379 112.335 48.8603C112.338 50.5493 112.329 52.2353 112.341 53.9242C112.358 56.4825 113.353 57.8272 115.827 58.5885C118.207 59.3236 120.599 59.2886 122.956 58.5098C125.266 57.7484 126.99 56.2024 126.882 53.1308C126.83 51.6373 126.862 50.1409 126.83 48.6474C126.792 46.9497 126.386 46.4625 124.735 46.0483C124.598 46.0133 124.455 45.9842 124.339 45.9171C124.274 45.8791 124.222 45.7566 124.234 45.6808C124.242 45.6049 124.327 45.4853 124.391 45.4766C124.77 45.427 125.161 45.3453 125.537 45.3803C126.987 45.5145 128.437 45.3716 129.884 45.3949C130.076 45.3978 130.272 45.3949 130.464 45.4095C130.666 45.4241 130.841 45.4941 130.846 45.7333C130.849 45.9025 130.718 45.9754 130.578 46.0133C130.488 46.0396 130.383 46.0221 130.289 46.0454C128.752 46.4567 128.595 46.6521 128.583 48.2332C128.574 49.7763 128.597 51.3194 128.577 52.8624C128.527 56.3979 127.328 58.0168 123.951 59.1602C120.686 60.2629 117.402 60.2395 114.106 59.3265C113.07 59.0407 112.113 58.5564 111.297 57.8593C110.104 56.8442 109.409 55.5636 109.424 53.9563C109.433 52.9441 109.424 51.9319 109.424 50.9168C109.421 50.9168 109.415 50.9168 109.412 50.9168L109.415 50.9197Z" fill="black"/>
<path d="M240.153 59.6618C238.893 59.6618 237.633 59.6647 236.376 59.6589C236.186 59.6589 235.97 59.6326 235.947 59.3817C235.927 59.1513 236.09 59.0463 236.291 59.0084C236.624 58.9413 236.959 58.8975 237.289 58.8246C238.222 58.6204 238.479 58.3287 238.587 57.3544C238.613 57.1152 238.613 56.8731 238.613 56.631C238.613 53.7344 238.619 50.8378 238.605 47.9442C238.599 46.4915 238.322 46.2144 236.848 46.0452C236.609 46.019 236.37 46.0044 236.137 45.9548C236.07 45.9402 236 45.8294 235.973 45.7506C235.915 45.5727 236.067 45.4968 236.186 45.4385C236.268 45.3976 236.376 45.4035 236.472 45.4035C238.937 45.4035 241.399 45.3976 243.864 45.4035C244.007 45.4035 244.156 45.4268 244.287 45.4793C244.354 45.5056 244.421 45.6193 244.421 45.6923C244.421 45.7739 244.363 45.8877 244.296 45.9314C243.992 46.1298 243.636 46.0073 243.307 46.0685C242.192 46.2815 241.766 46.6811 241.749 47.81C241.705 50.9458 241.699 54.0845 241.731 57.2203C241.743 58.4104 242.058 58.6642 243.283 58.8888C243.692 58.9646 244.427 58.9179 244.401 59.2913C244.351 59.9681 243.628 59.6355 243.202 59.6559C242.187 59.7055 241.169 59.6705 240.15 59.6705C240.15 59.6676 240.15 59.6647 240.15 59.6589L240.153 59.6618Z" fill="black"/>
</svg>
