<svg width="143" height="70" viewBox="0 0 143 70" fill="none" xmlns="http://www.w3.org/2000/svg">
<path d="M73.5136 58.0674C68.5815 58.0674 66.5132 55.2067 66.5132 52.9522C66.5132 51.0669 67.2673 49.7495 71.5917 47.8021L80.2452 55.3213C78.6001 57.2703 75.8874 58.0674 73.5136 58.0674ZM73.9273 18.2537C76.5636 18.2537 78.9119 19.6411 78.8706 22.1406C78.8292 24.4412 75.1794 27.7442 73.87 28.6797C69.089 25.0426 68.6976 23.3148 68.6976 22.1931C68.6976 19.8893 71.1605 18.2537 73.9273 18.2537ZM129.54 49.4568V32.4854H140.93V20.0516H129.54V0L109.956 10.06V20.0516H99.051V32.4854H109.956V52.152C109.953 54.4876 110.105 56.5177 110.398 58.2917L86.307 37.7326C90.6457 34.6428 94.9383 30.721 94.9383 23.8398C94.9383 10.5564 79.4099 9.59543 73.8891 9.59543C62.3654 9.59543 52.2338 14.5769 52.2019 23.6823C52.1797 30.6446 58.0617 36.5504 60.6232 38.7906C56.7475 40.4182 51.2219 42.1572 48.9913 47.5396C47.596 42.6202 44.0639 40.0618 39.3195 38.5567C27.0209 34.7335 19.0499 34.8624 19.0499 31.0408C19.0499 28.0449 20.8732 26.4714 23.7689 26.4714C26.4545 26.4714 27.9692 27.1746 29.0001 28.309C29.9341 29.3463 30.2268 30.8355 30.2268 32.592H48.8624C48.0383 18.2251 36.7914 15.1831 24.4928 15.1831C14.1591 15.1831 0.517743 18.5354 0.517743 31.351C0.517743 50.16 31.2101 44.6805 31.2101 53.8782C31.2101 57.1859 28.4194 58.6354 24.5946 58.6354C22.7347 58.6354 21.0832 57.598 19.9441 56.26C18.8097 54.9124 18.291 53.1575 18.6028 51.6062H0.00066221C-0.104345 67.4194 12.296 70 25.0099 70C35.1987 70 46.0272 67.4098 48.9085 58.0101C49.6325 59.9161 50.6507 61.3353 51.4351 62.3504C56.3959 68.7526 65.5665 69.9332 70.8503 69.9332C81.8919 69.9332 85.3858 65.5977 88.7954 62.8022L96.8443 70L119.309 69.9729C119.314 69.9793 119.33 70 119.33 70H142.129L142.212 59.4563C139.935 59.7666 129.635 59.0077 129.54 49.4568Z" fill="black"/>
</svg>
