<svg width="316" height="65" viewBox="0 0 316 65" fill="none" xmlns="http://www.w3.org/2000/svg">
<path d="M213.935 13.9641C214.025 15.5085 214.025 17.0529 214.028 18.6002C214.036 25.3945 214.036 32.1888 214.042 38.9832C214.042 39.5017 214.025 40.0175 213.854 40.508C213.403 41.8226 212.528 42.7251 211.155 43.0306C209.714 43.3502 208.472 42.9073 207.477 41.831C206.81 41.1078 206.477 40.2389 206.44 39.2551C206.438 39.1261 206.438 38.9972 206.438 38.8683V10.4884C206.438 9.73445 206.502 8.98326 206.704 8.25449C207.405 5.72904 209.498 4.08371 212.136 3.97439C214.757 3.86508 216.696 4.97785 218.016 7.20899C219.757 10.1465 221.492 13.0924 223.23 16.0327C226.324 21.2686 229.413 26.5045 232.508 31.7432C232.634 31.959 232.774 32.1664 233.015 32.3654C233.015 32.186 233.021 32.0038 233.015 31.8245C232.76 23.8725 232.917 15.9149 232.872 7.96018C232.869 7.41921 232.897 6.88946 233.068 6.36811C233.634 4.63308 235.372 3.51751 237.124 3.76417C239.061 4.03886 240.387 5.48238 240.479 7.42762C240.485 7.57618 240.482 7.72754 240.482 7.8789C240.482 17.5995 240.482 27.3145 240.485 37.0323C240.485 37.9685 240.342 38.8711 239.972 39.7344C239.05 41.8898 236.97 43.154 234.61 43.011C232.665 42.8961 231.106 42.0608 229.929 40.5192C229.671 40.1772 229.441 39.81 229.22 39.4429C224.284 31.1265 219.356 22.8074 214.423 14.491C214.305 14.2948 214.182 14.1042 214.062 13.9108C214.014 13.9333 213.969 13.9529 213.93 13.9669L213.935 13.9641Z" fill="black"/>
<path d="M182.255 36.7522C179.99 34.0754 177.723 31.3985 175.464 28.7189C175.329 28.5592 175.155 28.419 175.074 28.1555C178.485 26.9587 180.587 24.5622 181.627 21.1846C182.255 19.1413 182.401 17.0475 182.129 14.934C181.563 10.5166 179.267 7.32685 175.259 5.38161C173.272 4.4202 171.153 3.97734 168.952 3.96332C165.012 3.9409 161.076 3.95771 157.135 3.95771C156.961 3.95771 156.79 3.95771 156.617 3.97453C154.509 4.12589 152.897 5.33676 152.314 7.21193C152.115 7.85381 152.07 8.51811 152.07 9.18801C152.07 19.0544 152.07 28.9235 152.073 38.7955C152.073 39.1151 152.09 39.4402 152.132 39.7597C152.348 41.2817 153.57 42.5907 155.112 42.9663C156.558 43.3195 158.085 42.7112 159.002 41.4163C159.529 40.6679 159.742 39.8298 159.742 38.9273C159.739 36.0038 159.742 33.0775 159.742 30.1568C159.742 30.0083 159.75 29.8569 159.742 29.7056C159.72 29.4393 159.809 29.3188 160.104 29.3244C161.651 29.3412 163.204 29.33 164.751 29.3468C165.639 29.3524 166.379 29.7168 166.976 30.3643C167.296 30.7118 167.601 31.0762 167.901 31.4378C170.701 34.8686 173.496 38.3078 176.307 41.7358C177.675 43.4064 180.131 43.5745 181.849 42.1366C183.43 40.8136 183.612 38.3639 182.252 36.755L182.255 36.7522ZM174.317 18.7601C173.939 20.2092 173.025 21.2014 171.64 21.7704C170.547 22.2189 169.398 22.3759 168.235 22.3871C165.569 22.4123 162.901 22.4011 160.235 22.3955C159.759 22.3955 159.748 22.3871 159.748 21.891C159.745 20.1952 159.745 18.4966 159.745 16.8008V11.8368C159.745 11.3407 159.753 11.3323 160.227 11.3323C163.002 11.3323 165.777 11.3267 168.549 11.3407C169.367 11.3435 170.177 11.4668 170.962 11.7107C172.851 12.2993 174.043 13.527 174.404 15.4946C174.609 16.5878 174.598 17.6809 174.314 18.7573L174.317 18.7601Z" fill="black"/>
<path d="M249.292 23.3231C249.292 18.7459 249.295 14.1659 249.289 9.5859C249.289 9.02251 249.334 8.46753 249.466 7.92375C250.026 5.62534 251.854 4.13417 254.301 3.98001C254.539 3.96319 254.774 3.966 255.013 3.966H273.027C273.327 3.966 273.633 3.96319 273.927 4.01645C275.679 4.32197 276.887 5.67579 276.949 7.37157C277.007 9.07016 275.799 10.651 274.118 11.0659C273.739 11.1584 273.355 11.1836 272.968 11.1836C267.87 11.1808 262.766 11.1808 257.667 11.1836C256.913 11.1836 256.964 11.0911 256.964 11.8619V19.214C256.964 19.9316 256.921 19.8559 257.639 19.8559C262.525 19.8559 267.413 19.8587 272.296 19.8531C272.772 19.8531 273.24 19.8839 273.7 20.0269C275.236 20.5062 276.183 21.9217 276.057 23.5418C275.937 25.0554 274.664 26.4484 273.167 26.6783C272.806 26.7343 272.439 26.7427 272.074 26.7427C267.298 26.7455 262.519 26.7455 257.74 26.7455C256.899 26.7455 256.969 26.6671 256.969 27.4967V34.8489C256.969 34.9778 256.978 35.1067 256.969 35.2357C256.944 35.53 257.092 35.6113 257.359 35.5888C257.507 35.5748 257.659 35.586 257.81 35.586C262.909 35.586 268.013 35.5916 273.111 35.5804C274.098 35.5776 274.975 35.8383 275.74 36.469C276.915 37.4388 277.361 38.8879 276.915 40.2922C276.475 41.6824 275.18 42.6859 273.697 42.7924C273.526 42.8064 273.352 42.8008 273.179 42.8008H254.973C254.326 42.8008 253.684 42.7447 253.059 42.5597C251.021 41.9599 249.847 40.5809 249.421 38.5319C249.325 38.0666 249.3 37.5957 249.3 37.1192C249.297 32.5252 249.297 27.9256 249.297 23.3231H249.292Z" fill="black"/>
<path d="M299.024 29.6216C298.797 29.8963 298.617 30.1093 298.444 30.3223C295.54 33.9185 292.636 37.5175 289.735 41.1165C288.597 42.5292 287.111 43.0309 285.371 42.7057C282.918 42.2517 281.595 39.5692 282.66 37.3185C282.865 36.8868 283.154 36.514 283.454 36.1468C286.755 32.0994 290.057 28.0463 293.356 23.9933C293.424 23.912 293.496 23.8279 293.561 23.7438C293.883 23.3178 293.948 23.4355 293.558 22.9534C291.248 20.0944 288.939 17.2298 286.629 14.3708C285.519 13.0001 284.415 11.6295 283.305 10.256C282.618 9.40675 282.217 8.45375 282.296 7.34658C282.416 5.67323 283.731 4.18766 285.424 3.8457C287.142 3.49814 288.569 4.03911 289.665 5.39293C292.496 8.8854 295.316 12.3835 298.138 15.8787C298.446 16.2599 298.76 16.644 299.083 17.0392C299.338 16.9299 299.45 16.7112 299.59 16.5346C302.589 12.846 305.588 9.16289 308.576 5.46861C309.294 4.58008 310.157 3.97464 311.309 3.79525C313.249 3.49253 315.188 4.6978 315.783 6.58138C316.209 7.93801 315.881 9.12365 315.012 10.1916C313.627 11.8902 312.231 13.5831 310.841 15.2789C308.781 17.7876 306.721 20.299 304.663 22.8076C304.568 22.9254 304.481 23.0459 304.375 23.158C304.249 23.2981 304.26 23.4215 304.38 23.5532C304.464 23.6485 304.546 23.7522 304.624 23.8531C308.01 28.0547 311.399 32.2536 314.785 36.458C315.867 37.7978 316.018 39.3843 315.191 40.7745C314.32 42.2461 312.669 43.0253 311.026 42.7534C309.874 42.56 308.957 42.0246 308.218 41.0912C305.288 37.4026 302.331 33.7391 299.385 30.0673C299.282 29.9355 299.17 29.801 299.015 29.6188L299.024 29.6216Z" fill="black"/>
<path d="M146.291 37.5904C143.502 29.9019 140.713 22.2134 137.921 14.525C137.167 12.4452 136.455 10.3514 135.628 8.29962C134.353 5.13789 131.766 3.4337 127.404 3.42529C125.866 3.4309 123.78 4.3867 122.239 6.44967C121.642 7.24851 121.238 8.14826 120.899 9.08164C118.275 16.2376 115.652 23.3907 113.028 30.5494C112.151 32.9487 111.257 35.3424 110.399 37.7502C109.679 39.7823 110.791 42.0387 112.768 42.6413C114.721 43.2411 116.832 42.204 117.541 40.2784C118.023 38.9694 118.477 37.6493 118.94 36.3319C119.422 34.9556 119.907 33.5766 120.389 32.2031C120.565 31.7042 120.568 31.707 121.115 31.7014H135.511C135.64 31.7014 135.768 31.707 135.9 31.7014C136.074 31.693 136.189 31.7575 136.242 31.9284C136.287 32.0714 136.34 32.2115 136.391 32.3545C137.327 35.0061 138.271 37.6577 139.196 40.3092C139.499 41.1866 140.043 41.8453 140.856 42.2797C142.285 43.0505 144.085 42.8599 145.265 41.8256C146.448 40.7858 146.849 39.1208 146.291 37.5904ZM133.722 24.9575H122.979C122.886 24.7025 123.029 24.5147 123.096 24.3184C124.512 20.243 125.933 16.1675 127.351 12.0948C127.374 12.0359 127.393 11.9715 127.418 11.9154C127.626 11.3716 127.945 11.0998 128.391 11.125C128.884 11.153 129.151 11.4501 129.305 11.9014C130.762 16.1479 132.226 20.3887 133.683 24.6324C133.717 24.7305 133.767 24.8314 133.722 24.9575Z" fill="black"/>
<path d="M38.9208 43.1652C39.1871 41.7581 39.4365 40.4071 39.6916 39.0588C40.6642 33.9351 41.6368 28.8057 42.6123 23.6819C43.5008 19.0178 44.3837 14.3565 45.2723 9.69798C45.5918 8.01061 45.9113 6.32324 46.2309 4.63306C46.2505 4.52655 46.2701 4.42004 46.2897 4.31633C46.3962 3.85104 46.3962 3.85945 46.884 3.89589C48.9217 4.05285 50.9595 4.20421 52.9972 4.36118C55.6572 4.56579 58.3144 4.78162 60.9744 4.97782C61.3359 5.00305 61.4032 5.13479 61.3528 5.45993C61.1453 6.77451 60.9547 8.0919 60.7557 9.40928C60.3045 12.4056 59.8532 15.3964 59.3991 18.3927C58.9955 21.0695 58.5891 23.7463 58.1826 26.4176C57.7678 29.156 57.3558 31.8973 56.9409 34.6358C56.5401 37.2902 56.1421 39.9446 55.7328 42.599C55.6403 43.1904 55.632 43.196 55.1358 43.196H39.2515C39.1703 43.196 39.0861 43.182 38.918 43.168L38.9208 43.1652Z" fill="black"/>
<path d="M92.8782 43.4594C90.0276 43.451 88.1216 42.4504 86.7006 40.522C85.9914 39.5605 85.5037 38.4926 85.0917 37.3771C82.1318 29.2934 79.1634 21.2125 76.2007 13.1316C75.713 11.8002 75.2309 10.4716 74.7376 9.14018C74.39 8.19559 74.3732 7.23418 74.6955 6.29519C75.2197 4.76198 76.3128 3.86504 77.9385 3.75853C79.5306 3.65482 80.7779 4.32472 81.602 5.70938C81.7758 6.00088 81.8907 6.33163 82.0028 6.65397C85.2795 16.0158 88.5505 25.3776 91.8243 34.7367C91.8944 34.9385 91.9729 35.1375 92.0542 35.3365C92.1383 35.5327 92.3064 35.6308 92.5167 35.6336C92.7353 35.6364 92.8782 35.5103 92.9595 35.3169C93.0268 35.1599 93.0772 34.9946 93.1333 34.8348C96.3931 25.515 99.6558 16.1924 102.913 6.8726C103.101 6.34284 103.305 5.8299 103.639 5.37302C104.704 3.9183 106.537 3.36331 108.171 3.99678C109.713 4.59381 110.705 6.32322 110.5 8.06385C110.453 8.46748 110.352 8.85989 110.209 9.2495C106.702 18.7094 103.201 28.1694 99.6922 37.6321C99.2802 38.7449 98.7504 39.7988 98.0132 40.7378C96.6005 42.5485 94.745 43.4707 92.8782 43.4622V43.4594Z" fill="black"/>
<path d="M189.972 23.3849C189.972 18.2023 189.977 13.0224 189.966 7.8398C189.966 7.02134 190.112 6.25894 190.552 5.56381C191.468 4.11469 193.229 3.42797 194.874 3.87924C196.488 4.32211 197.587 5.78244 197.612 7.52868C197.626 8.38918 197.615 9.24688 197.615 10.1074C197.615 19.6738 197.612 29.2459 197.618 38.8124C197.618 39.5327 197.537 40.225 197.217 40.8781C196.455 42.4562 194.787 43.2718 193.027 42.9299C191.393 42.6103 190.075 41.1024 189.98 39.4458C189.963 39.1683 189.966 38.8852 189.966 38.6077C189.969 33.5344 189.969 28.4583 189.969 23.3849H189.972Z" fill="black"/>
<path d="M18.8777 44.1268C20.9855 44.1268 23.0485 44.1296 25.1143 44.1268C28.9655 44.1184 32.8168 44.1128 36.6681 44.0848C37.1221 44.082 37.3379 44.2165 37.5145 44.6369C38.5544 47.1344 39.6251 49.6178 40.6875 52.1068C40.7603 52.2806 40.8192 52.4572 40.8809 52.6197C40.7099 52.7515 40.5557 52.7122 40.4128 52.715C34.6892 52.858 28.9712 52.9953 23.2504 53.1299C22.4852 53.1467 22.6281 53.2504 22.3254 52.53C21.2378 49.9569 20.1503 47.3894 19.0683 44.8163C18.9871 44.6229 18.8497 44.4463 18.8777 44.1268Z" fill="black"/>
<path d="M23.8162 55.7954C24.3684 55.7702 24.8365 55.7449 25.3046 55.7281C30.6807 55.5543 36.0539 55.3778 41.43 55.2096C42.355 55.1816 42.1307 55.0554 42.4895 55.8823C43.5069 58.248 44.5076 60.6221 45.5195 62.9906C45.5951 63.1671 45.6624 63.3437 45.7269 63.5091C45.6204 63.6969 45.4522 63.6577 45.3092 63.6661C42.7978 63.8146 40.2864 63.9548 37.7721 64.1061C34.5936 64.2967 31.4178 64.4985 28.2421 64.6947C28.0936 64.7032 27.9422 64.7032 27.7908 64.72C27.6171 64.7368 27.5021 64.6695 27.4489 64.5013C27.4209 64.4201 27.3816 64.3444 27.3508 64.2631C26.2268 61.5919 25.1056 58.9235 23.9788 56.2495C23.9284 56.1346 23.8948 56.0112 23.8135 55.7926L23.8162 55.7954Z" fill="black"/>
<path d="M14.0994 32.8841C14.2648 32.7692 14.4386 32.8197 14.6039 32.8253C20.3892 32.9262 26.1745 33.0327 31.957 33.1336C32.2821 33.1392 32.5007 33.1812 32.6521 33.5344C33.7733 36.1384 34.9169 38.7255 36.0577 41.321C36.0885 41.3967 36.1474 41.4696 36.0885 41.6181C35.9344 41.6237 35.7494 41.6405 35.5672 41.6405C29.866 41.6574 24.1676 41.6658 18.4664 41.6966C17.9843 41.6994 17.7517 41.5564 17.5667 41.1108C16.4931 38.5573 15.386 36.0206 14.2928 33.4812C14.2143 33.285 14.077 33.1056 14.0966 32.8841H14.0994Z" fill="black"/>
<path d="M26.7481 20.3243C26.0614 20.3243 25.4616 20.3467 24.8617 20.3215C22.1317 20.2037 19.4044 20.0748 16.6743 19.9487C14.0339 19.8253 11.388 19.6992 8.74759 19.5843C8.48972 19.5703 8.31872 19.5254 8.2038 19.2535C7.0574 16.4758 5.89699 13.7037 4.74498 10.9316C4.71975 10.8755 4.72814 10.8083 4.71973 10.741C5.02805 10.6709 5.32519 10.7634 5.6223 10.7802C8.02723 10.9204 10.4322 11.0549 12.8371 11.2007C16.0969 11.3969 19.3623 11.6043 22.6249 11.7865C23.0622 11.8117 23.2472 11.9771 23.4098 12.3611C24.4357 14.8389 25.4952 17.3055 26.5379 19.7777C26.6164 19.9431 26.6724 20.1224 26.7509 20.3271L26.7481 20.3243Z" fill="black"/>
<path d="M0.00280568 0C1.25292 0.0953001 2.45259 0.187798 3.65225 0.277492C6.16088 0.473698 8.66951 0.672707 11.1753 0.868913C13.4906 1.0483 15.8086 1.23049 18.121 1.40428C18.3789 1.4239 18.5583 1.49677 18.6704 1.75184C19.8561 4.44267 21.0501 7.13069 22.2414 9.81872C22.2666 9.87197 22.2666 9.93925 22.2862 10.0486C21.109 9.98129 19.9514 9.92523 18.7966 9.85516C17.0139 9.74864 15.2312 9.62812 13.4541 9.5216C10.7941 9.35623 8.13135 9.20207 5.46855 9.0423C5.10417 9.01988 4.73977 8.97783 4.37259 8.99465C4.0082 9.01147 3.84563 8.8545 3.70549 8.53216C2.83657 6.50564 1.94245 4.48471 1.05952 2.45538C0.709153 1.65374 0.364383 0.843686 0 0H0.00280568Z" fill="black"/>
<path d="M31.2808 30.8546C31.149 30.9443 30.9921 30.8939 30.8519 30.8883C25.1115 30.7734 19.3738 30.65 13.6306 30.5407C13.283 30.5351 13.056 30.4875 12.8934 30.1035C11.7582 27.4379 10.595 24.7863 9.44303 22.1291C9.39258 22.0142 9.31129 21.9048 9.37015 21.717C10.4465 21.7479 11.5396 21.7759 12.6328 21.8208C15.4273 21.9273 18.219 22.0422 21.0136 22.1487C23.1186 22.23 25.2264 22.3197 27.3286 22.3897C27.6005 22.3982 27.7547 22.471 27.8668 22.7317C28.9852 25.3581 30.1175 27.976 31.2443 30.5996C31.2836 30.6781 31.3228 30.7565 31.2779 30.8518L31.2808 30.8546Z" fill="black"/>
<path d="M261.845 54.1867C261.845 54.4501 261.837 54.6351 261.845 54.8173C261.988 57.7184 261.89 60.6194 261.915 63.5233C261.915 63.6943 261.907 63.868 261.859 64.0306C261.73 64.4959 261.377 64.7594 260.92 64.7678C260.469 64.7734 260.116 64.5099 259.953 64.0558C259.88 63.8428 259.894 63.6326 259.894 63.4168V53.5532C259.894 53.4047 259.886 53.2505 259.908 53.1019C260.006 52.4124 260.32 51.8798 261.027 51.6724C261.738 51.465 262.347 51.6528 262.84 52.191C263.028 52.3956 263.165 52.6451 263.308 52.8833C265.018 55.7171 266.725 58.5509 268.429 61.3874C268.55 61.5893 268.676 61.7855 268.802 61.9873C269.018 61.892 268.917 61.721 268.917 61.5921C268.85 58.7106 268.892 55.832 268.883 52.9534C268.883 52.76 268.878 52.561 268.914 52.376C269.007 51.8939 269.458 51.5547 269.943 51.5799C270.411 51.6052 270.789 51.9499 270.854 52.4264C270.876 52.5974 270.87 52.7712 270.87 52.9422V62.873C270.87 62.9795 270.87 63.0888 270.868 63.1953C270.848 63.8849 270.548 64.3922 269.906 64.6669C269.312 64.9191 268.516 64.7426 268.062 64.2605C267.888 64.0727 267.748 63.8484 267.619 63.6326C265.836 60.6699 264.059 57.7016 262.277 54.7389C262.17 54.5651 262.097 54.3633 261.851 54.1895L261.845 54.1867Z" fill="black"/>
<path d="M90.6058 54.1781C90.4908 54.4331 90.5329 54.6041 90.5385 54.7723C90.6198 57.6537 90.5693 60.5324 90.5833 63.4138C90.5833 63.5876 90.5861 63.7585 90.5609 63.9295C90.4852 64.4228 90.1293 64.7424 89.6444 64.7676C89.151 64.7928 88.711 64.4649 88.6185 63.9744C88.5792 63.7866 88.5933 63.5876 88.5933 63.397V53.5951C88.5933 53.4661 88.5905 53.3372 88.5961 53.2083C88.6381 52.5047 88.938 51.9694 89.6135 51.7087C90.2694 51.4536 91.0262 51.6358 91.4999 52.174C91.6821 52.3814 91.825 52.6253 91.9708 52.8663C93.703 55.7365 95.4296 58.6067 97.1618 61.477C97.2796 61.6704 97.3608 61.8946 97.5767 62.0628C97.6608 61.8413 97.6215 61.6563 97.6103 61.4713C97.4786 58.5927 97.5711 55.7113 97.543 52.8327C97.543 52.7262 97.5403 52.6168 97.5571 52.5103C97.6384 51.9722 98.056 51.5966 98.5577 51.5938C99.065 51.591 99.4771 51.9638 99.55 52.5103C99.5696 52.6589 99.5584 52.8102 99.5584 52.9616V62.8924C99.5584 63.0214 99.564 63.1503 99.55 63.2792C99.4743 63.9492 99.1716 64.4677 98.5129 64.7087C97.8682 64.9414 97.0834 64.7172 96.6405 64.1818C96.4919 64.0024 96.3714 63.7922 96.2481 63.5904C94.4878 60.6613 92.7304 57.7322 90.9758 54.8031C90.8749 54.6125 90.7571 54.4332 90.6058 54.1837V54.1781Z" fill="black"/>
<path d="M293.137 54.2258C292.989 54.3912 293.039 54.5229 293.042 54.6406C293.112 57.5865 293.067 60.5296 293.081 63.4755C293.081 63.582 293.084 63.6914 293.079 63.7979C293.031 64.3837 292.633 64.7705 292.083 64.7677C291.54 64.7649 291.147 64.3725 291.097 63.781C291.088 63.6521 291.091 63.5232 291.091 63.3942V53.5923C291.091 53.4634 291.091 53.3345 291.094 53.2055C291.122 52.4964 291.425 51.9666 292.106 51.7004C292.762 51.4453 293.51 51.6219 293.989 52.1628C294.172 52.3675 294.317 52.6113 294.463 52.8524C296.204 55.7394 297.942 58.632 299.685 61.5191C299.792 61.6957 299.856 61.9143 300.077 62.0404V61.1042C300.069 58.3293 300.055 55.56 300.044 52.7851C300.044 52.5693 300.052 52.359 300.159 52.16C300.355 51.7732 300.739 51.5462 301.154 51.5854C301.574 51.6247 301.905 51.9106 302.009 52.345C302.048 52.5104 302.056 52.687 302.056 52.8524C302.059 56.2271 302.059 59.6019 302.056 62.9766C302.056 63.0831 302.056 63.1924 302.042 63.2989C301.969 63.9745 301.65 64.507 300.983 64.6976C300.296 64.8966 299.651 64.7509 299.167 64.1903C298.998 63.9969 298.869 63.7698 298.74 63.5484C296.989 60.6418 295.242 57.7295 293.496 54.8172C293.387 54.6294 293.275 54.4472 293.14 54.223L293.137 54.2258Z" fill="black"/>
<path d="M251.522 63.0886C251.404 62.9344 251.276 62.7886 251.155 62.6373C250.311 61.6114 249.47 60.5799 248.588 59.5008C248.778 59.4279 248.876 59.3831 248.977 59.3522C250.457 58.8953 251.236 57.8695 251.433 56.3587C251.696 54.3546 250.721 52.642 248.941 51.9553C248.349 51.7282 247.733 51.6357 247.108 51.6273C245.883 51.6133 244.655 51.6105 243.43 51.6273C242.312 51.6441 241.81 52.1459 241.807 53.2558C241.802 56.6922 241.804 60.1314 241.804 63.5679C241.804 63.7613 241.804 63.9547 241.872 64.1397C242.023 64.5657 242.359 64.8404 242.766 64.86C243.195 64.8796 243.584 64.6049 243.752 64.1705C243.834 63.9631 243.828 63.75 243.828 63.5342V60.4398C243.828 59.8904 243.834 59.8904 244.403 59.8876C244.661 59.8848 244.921 59.91 245.176 59.882C245.981 59.7895 246.55 60.1006 247.043 60.7537C247.976 61.987 248.977 63.1698 249.955 64.3695C250.412 64.9245 250.998 65.017 251.472 64.6358C251.943 64.2658 251.962 63.6604 251.525 63.0914L251.522 63.0886ZM246.561 58.004C245.894 57.9956 245.23 58.004 244.565 58.0012C243.778 57.9956 243.825 58.1105 243.825 57.2921V55.7504C243.825 55.1506 243.828 54.5508 243.825 53.9481C243.823 53.7295 243.851 53.5782 244.128 53.581C245.286 53.6062 246.446 53.5137 247.601 53.6342C248.456 53.7267 249.092 54.1556 249.333 55.0301C249.473 55.5346 249.465 56.0504 249.333 56.5549C249.137 57.3257 248.585 57.7237 247.839 57.8863C247.422 57.9788 246.993 58.0096 246.564 58.0012L246.561 58.004Z" fill="black"/>
<path d="M163.011 63.243C162.893 63.0664 162.748 62.9038 162.61 62.7412C161.741 61.6789 160.872 60.6138 159.962 59.5066C160.295 59.3833 160.539 59.2992 160.777 59.2011C161.52 58.8928 162.086 58.3827 162.442 57.6595C163.743 55.0135 162.114 52.0256 159.188 51.6948C158.824 51.6528 158.459 51.636 158.095 51.6304C156.976 51.622 155.858 51.6107 154.74 51.6332C153.697 51.6556 153.206 52.1685 153.184 53.1972V63.5064C153.184 63.6802 153.178 63.854 153.209 64.0222C153.307 64.5267 153.725 64.8743 154.201 64.8659C154.653 64.8575 155.051 64.5323 155.152 64.053C155.194 63.8456 155.194 63.627 155.194 63.4111C155.197 62.3769 155.202 61.3482 155.191 60.3167C155.188 60.028 155.255 59.8738 155.583 59.8878C156.077 59.9075 156.573 59.8962 157.069 59.8962C157.509 59.8962 157.856 60.07 158.12 60.4204C158.263 60.611 158.42 60.7876 158.568 60.9698C159.516 62.1386 160.455 63.313 161.419 64.4707C161.817 64.95 162.406 64.9948 162.851 64.6388C163.258 64.3053 163.331 63.7223 163.011 63.243ZM157.523 58.0043C156.923 58.0015 156.323 58.0071 155.721 58.0043C155.205 58.0015 155.202 57.9959 155.199 57.4605C155.194 56.8999 155.199 56.3449 155.199 55.7899C155.199 55.1901 155.213 54.5903 155.194 53.9932C155.185 53.6849 155.295 53.5812 155.6 53.5896C156.587 53.6092 157.571 53.6036 158.56 53.6064C158.602 53.6064 158.644 53.612 158.689 53.6148C160.421 53.7438 161.321 55.2378 160.626 56.841C160.354 57.4661 159.833 57.7688 159.191 57.9062C158.636 58.0155 158.075 58.0099 157.52 58.0071L157.523 58.0043Z" fill="black"/>
<path d="M221.528 56.5437C221.189 53.7436 219.333 51.9441 216.533 51.689C215.244 51.5741 213.955 51.6218 212.665 51.633C211.519 51.6414 211.045 52.1571 211.037 53.3203C211.031 54.9545 211.037 56.5886 211.037 58.2171V63.2484C211.068 64.1734 211.555 64.7339 212.447 64.7592C213.82 64.79 215.202 64.8404 216.572 64.7255C219.059 64.5181 220.808 62.9933 221.394 60.58C221.719 59.243 221.688 57.8948 221.525 56.5437H221.528ZM219.566 59.3439C219.412 61.4209 218.128 62.6738 216.023 62.7803C215.168 62.8251 214.305 62.7803 213.444 62.8055C213.105 62.8139 213.058 62.6598 213.058 62.3795C213.066 60.9836 213.06 59.5905 213.06 58.1919C213.06 56.7932 213.058 55.487 213.06 54.136C213.06 53.6371 213.069 53.6315 213.54 53.6287C214.358 53.6259 215.174 53.6119 215.992 53.6427C218.122 53.7128 219.412 54.9629 219.577 57.0931C219.633 57.8415 219.616 58.5927 219.56 59.3467L219.566 59.3439Z" fill="black"/>
<path d="M113.496 56.7961C113.222 53.7773 111.344 51.9358 108.336 51.6807C107.047 51.5714 105.757 51.6387 104.468 51.6331C104.362 51.6331 104.252 51.6527 104.149 51.6723C103.529 51.7732 103.156 52.1348 103.01 52.7458C102.954 52.9785 102.954 53.2139 102.954 53.4494V62.8617C102.954 63.0775 102.949 63.2933 102.982 63.5035C103.109 64.2828 103.585 64.7396 104.378 64.7593C105.752 64.7901 107.134 64.8405 108.504 64.7256C111.097 64.5042 112.913 62.8308 113.401 60.2661C113.622 59.1141 113.6 57.9509 113.494 56.7961H113.496ZM111.433 59.8373C111.133 61.6508 109.864 62.7019 107.907 62.786C107.069 62.8196 106.228 62.786 105.393 62.8056C105.079 62.814 104.989 62.7075 104.992 62.402C105.006 61.0061 104.998 59.6074 104.998 58.2116C104.998 56.8157 104.995 55.4619 104.998 54.0885C104.998 53.6428 105.006 53.6344 105.463 53.6316C106.279 53.6288 107.097 53.6148 107.916 53.64C109.993 53.7072 111.212 54.8284 111.492 56.8858C111.627 57.878 111.596 58.8647 111.436 59.8401L111.433 59.8373Z" fill="black"/>
<path d="M304.885 58.3042C304.916 57.2643 304.924 56.3169 305.201 55.3976C306.191 52.1377 309.773 50.5176 312.879 51.9443C313.893 52.4096 314.656 53.1384 315.188 54.111C315.239 54.2063 315.292 54.3016 315.331 54.3997C315.505 54.865 315.351 55.3191 314.939 55.5742C314.532 55.8264 314.053 55.762 313.717 55.3751C313.577 55.2154 313.476 55.022 313.352 54.8454C311.915 52.746 308.789 52.8665 307.522 55.0752C307.25 55.5461 307.079 56.0507 307.004 56.5888C306.858 57.6595 306.85 58.7303 306.99 59.801C307.312 62.2311 309.479 63.627 311.811 62.8702C313.507 62.318 313.837 61.1716 313.742 59.7842C313.725 59.5684 313.599 59.5543 313.439 59.5543C312.879 59.5543 312.321 59.5515 311.76 59.5543C311.522 59.5543 311.287 59.5459 311.071 59.431C310.695 59.2348 310.471 58.8031 310.544 58.4135C310.622 57.9903 310.939 57.6511 311.379 57.6427C312.413 57.6175 313.445 57.6091 314.476 57.6483C315.124 57.6736 315.609 58.1445 315.676 58.7947C315.769 59.63 315.799 60.4793 315.592 61.2978C315.085 63.2991 313.728 64.4567 311.752 64.8519C308.173 65.5751 305.159 63.2094 304.944 59.5599C304.918 59.1115 304.902 58.663 304.885 58.3042Z" fill="black"/>
<path d="M181.891 63.5091C181.849 63.3213 181.782 63.1391 181.715 62.9597C180.613 59.8877 179.506 56.8185 178.399 53.7464C178.27 53.3821 178.149 53.0093 177.976 52.6701C177.572 51.8741 176.911 51.4564 176.011 51.4368C175.613 51.42 175.24 51.5097 174.892 51.6919C174.279 52.0142 173.97 52.5636 173.743 53.1859C172.552 56.4961 171.355 59.812 170.161 63.1223C170.105 63.2821 170.041 63.4474 170.012 63.6156C169.934 64.1173 170.234 64.6051 170.682 64.7312C171.164 64.8657 171.649 64.6611 171.879 64.2098C171.947 64.0781 171.986 63.9323 172.036 63.7894C172.361 62.8784 172.698 61.9731 173 61.0565C173.099 60.7622 173.244 60.6557 173.555 60.6585C175.17 60.6725 176.782 60.6669 178.399 60.6613C178.648 60.6613 178.811 60.7286 178.875 60.9808C178.915 61.1266 178.971 61.2639 179.021 61.4069C179.349 62.3178 179.66 63.2344 180.011 64.1342C180.226 64.6863 180.753 64.905 181.275 64.72C181.732 64.5546 182.009 64.0276 181.891 63.5091ZM173.917 58.8058C173.791 58.632 173.911 58.5058 173.959 58.3741C174.464 56.9362 174.976 55.5011 175.484 54.0688C175.529 53.9454 175.559 53.8193 175.63 53.7128C175.809 53.4297 176.123 53.4325 176.308 53.7072C176.342 53.7577 176.372 53.8221 176.392 53.881C176.958 55.4983 177.524 57.1156 178.113 58.8114H173.914L173.917 58.8058Z" fill="black"/>
<path d="M134.626 51.4453C135.694 51.4537 136.644 51.5995 137.555 51.9667C137.897 52.1012 138.222 52.2694 138.499 52.516C138.878 52.8552 138.956 53.3934 138.712 53.8082C138.474 54.2034 138.037 54.3492 137.529 54.1726C137.286 54.0885 137.059 53.968 136.826 53.8558C135.758 53.3541 134.648 53.228 133.496 53.5027C133.154 53.584 132.849 53.7353 132.588 53.9708C131.699 54.7668 131.867 56.0646 132.933 56.5859C133.695 56.9587 134.525 57.0876 135.346 57.2558C136.125 57.4128 136.896 57.609 137.622 57.9453C139.881 58.9852 140.383 61.8639 138.62 63.6325C138.124 64.1314 137.532 64.4846 136.862 64.6724C134.617 65.2975 132.479 65.0396 130.483 63.8007C130.317 63.6998 130.161 63.5793 130.026 63.4475C129.645 63.0663 129.597 62.5786 129.883 62.1582C130.152 61.763 130.682 61.606 131.147 61.8106C131.363 61.9059 131.548 62.0573 131.75 62.1806C133.048 63.0075 134.457 63.2457 135.951 62.9262C136.728 62.758 137.344 62.36 137.569 61.5359C137.785 60.7567 137.552 60.1961 136.843 59.8009C136.251 59.4729 135.601 59.33 134.951 59.1842C134.258 59.0301 133.558 58.9124 132.888 58.6797C132.605 58.5816 132.322 58.4779 132.05 58.3518C130.867 57.8108 130.104 56.9671 130.02 55.6105C129.936 54.1866 130.435 53.043 131.64 52.2498C132.574 51.6443 133.619 51.4453 134.623 51.4509L134.626 51.4453Z" fill="black"/>
<path d="M127.161 56.3504C127.161 57.295 127.167 58.2424 127.161 59.187C127.156 59.9214 127.083 60.6417 126.847 61.3481C125.931 64.137 123.307 65.2666 120.984 64.9415C118.139 64.5434 116.286 62.4272 116.247 59.5542C116.218 57.3203 116.238 55.0835 116.238 52.8468C116.238 52.7402 116.233 52.6309 116.252 52.5244C116.331 52.0423 116.751 51.6611 117.225 51.6359C117.707 51.6107 118.133 51.9386 118.237 52.4543C118.279 52.6618 118.27 52.8804 118.27 53.0962C118.273 55.1368 118.273 57.1829 118.27 59.2235C118.27 59.7196 118.298 60.2101 118.444 60.6894C118.898 62.2086 120.202 63.1055 121.88 63.0523C123.445 63.0018 124.669 61.9928 125.011 60.4708C125.101 60.0727 125.143 59.6691 125.143 59.2543C125.137 57.1913 125.14 55.1283 125.14 53.0654C125.14 52.872 125.126 52.6758 125.157 52.488C125.23 52.0003 125.662 51.6415 126.149 51.6415C126.626 51.6387 127.021 51.9442 127.116 52.4263C127.158 52.6337 127.158 52.8524 127.158 53.0682C127.164 54.1613 127.161 55.2573 127.161 56.3532V56.3504Z" fill="black"/>
<path d="M239.122 54.5172C238.587 52.8355 237.18 51.7591 235.232 51.6554C233.881 51.5825 232.521 51.6302 231.164 51.633C231.016 51.633 230.865 51.661 230.719 51.7003C230.192 51.8404 229.864 52.1796 229.766 52.7177C229.724 52.9476 229.721 53.1886 229.721 53.4269C229.718 55.0806 229.721 56.7344 229.721 58.3909V63.4194C229.721 63.6352 229.721 63.851 229.76 64.0613C229.839 64.4761 230.189 64.8068 230.59 64.8517C231.019 64.8993 231.335 64.7003 231.565 64.3528C231.705 64.1481 231.714 63.9099 231.714 63.6716C231.711 62.7887 231.711 61.9086 231.714 61.0257C231.717 60.2745 231.633 60.3558 232.417 60.353C233.3 60.3502 234.183 60.3866 235.063 60.3389C236.877 60.2408 238.309 59.5009 239.018 57.7462C239.447 56.7007 239.464 55.6076 239.119 54.5228L239.122 54.5172ZM237.283 56.4232C237.177 57.4463 236.56 58.105 235.543 58.2872C235.119 58.3629 234.691 58.3769 234.259 58.3713C233.569 58.3657 232.885 58.3741 232.199 58.3685C231.736 58.3657 231.731 58.3545 231.725 57.9116C231.719 57.2669 231.725 56.625 231.725 55.9804C231.725 55.3357 231.733 54.691 231.722 54.0491C231.717 53.7716 231.756 53.6091 232.101 53.6175C233.129 53.6399 234.164 53.6007 235.195 53.6427C236.476 53.696 237.247 54.4976 237.311 55.7786C237.314 55.9944 237.306 56.2074 237.283 56.4232Z" fill="black"/>
<path d="M204.498 53.6286H201.585C201.025 53.6286 200.467 53.6454 199.906 53.623C199.264 53.6006 198.858 53.2054 198.847 52.6392C198.838 52.0674 199.225 51.6525 199.875 51.6385C201.078 51.6133 202.283 51.6301 203.491 51.6301C204.136 51.6301 204.781 51.6245 205.428 51.6329C205.666 51.6357 205.905 51.6413 206.132 51.6918C206.998 51.8796 207.382 52.6756 207.003 53.4717C206.888 53.7099 206.706 53.8921 206.53 54.0771C205.793 54.8507 205.061 55.6271 204.318 56.4148C204.509 56.5549 204.688 56.5493 204.848 56.5689C206.586 56.7651 208.282 58.3011 207.738 60.9191C207.499 62.0571 206.83 62.8952 205.882 63.5286C204.938 64.1649 203.872 64.4956 202.763 64.6806C201.826 64.8348 200.882 64.9021 199.934 64.8488C199.304 64.8152 198.942 64.5209 198.872 64.0191C198.774 63.3296 199.228 62.8447 199.999 62.8839C200.775 62.926 201.546 62.9036 202.314 62.8027C203.085 62.7018 203.833 62.5056 204.514 62.1103C205.151 61.7403 205.627 61.2414 205.798 60.4958C206.067 59.3298 205.386 58.3208 204.203 58.1554C203.774 58.0965 203.343 58.1161 202.917 58.1834C202.833 58.1974 202.751 58.2311 202.667 58.2479C202.017 58.3768 201.585 58.2311 201.369 57.8162C201.156 57.4098 201.255 57.037 201.714 56.5549C202.6 55.6159 203.486 54.6853 204.492 53.6286H204.498Z" fill="black"/>
<path d="M146.813 58.8702V63.4474C146.813 63.6633 146.827 63.8735 146.765 64.0893C146.63 64.563 146.241 64.8685 145.776 64.8573C145.299 64.8433 144.873 64.4789 144.8 63.9856C144.772 63.795 144.783 63.5988 144.783 63.4082V54.4444C144.783 54.293 144.769 54.1416 144.786 53.9931C144.811 53.7128 144.688 53.6175 144.413 53.6231C143.746 53.6371 143.079 53.6259 142.409 53.6259C142.087 53.6259 141.762 53.6399 141.439 53.6231C140.797 53.5923 140.383 53.2055 140.371 52.6477C140.357 52.0731 140.739 51.6975 141.395 51.6358C141.501 51.6274 141.61 51.6302 141.717 51.6302H149.854C150.047 51.6302 150.243 51.6386 150.428 51.6807C150.86 51.7788 151.152 52.1123 151.199 52.5272C151.244 52.9196 150.997 53.3232 150.608 53.5138C150.386 53.6203 150.154 53.6287 149.915 53.6287C149.033 53.6259 148.15 53.6231 147.267 53.6287C146.824 53.6315 146.815 53.6371 146.815 54.0968C146.807 55.6917 146.81 57.2837 146.81 58.873L146.813 58.8702Z" fill="black"/>
<path d="M279.297 58.8703V63.4475C279.297 63.6409 279.3 63.8371 279.269 64.0249C279.19 64.5014 278.806 64.8349 278.341 64.8517C277.865 64.8714 277.402 64.521 277.318 64.0417C277.279 63.8343 277.293 63.6156 277.293 63.3998V54.436C277.293 54.2846 277.279 54.1333 277.296 53.9847C277.324 53.696 277.186 53.6147 276.917 53.6175C276.25 53.6315 275.583 53.6203 274.913 53.6203C274.591 53.6203 274.266 53.6343 273.943 53.6175C273.299 53.5867 272.887 53.1999 272.875 52.6421C272.861 52.0675 273.245 51.6919 273.901 51.6302C274.05 51.6162 274.201 51.6218 274.353 51.6218H282.229C282.467 51.6218 282.705 51.6246 282.932 51.6751C283.378 51.7704 283.65 52.0955 283.686 52.5244C283.726 52.942 283.496 53.3204 283.098 53.511C282.876 53.6175 282.644 53.6203 282.403 53.6203C281.52 53.6175 280.637 53.6147 279.754 53.6203C279.303 53.6231 279.291 53.6287 279.291 54.0884C279.289 55.6833 279.291 57.2726 279.291 58.8646L279.297 58.8703Z" fill="black"/>
<path d="M184.061 58.0798V52.9897C184.061 52.8187 184.053 52.6421 184.084 52.4768C184.179 51.9862 184.611 51.6331 185.087 51.6359C185.575 51.6387 185.981 51.9834 186.074 52.488C186.105 52.6786 186.096 52.8748 186.096 53.0654V62.018C186.096 62.1665 186.105 62.3179 186.096 62.4693C186.077 62.7243 186.197 62.8028 186.441 62.7972C186.934 62.7832 187.43 62.7944 187.924 62.7944C189.149 62.7944 190.373 62.7972 191.598 62.7916C191.912 62.7916 192.198 62.8421 192.434 63.0635C192.725 63.3354 192.84 63.6605 192.731 64.0529C192.621 64.4425 192.361 64.6752 191.966 64.7424C191.817 64.7677 191.666 64.7677 191.517 64.7677H185.583C185.435 64.7677 185.281 64.7649 185.132 64.7424C184.476 64.6443 184.081 64.1706 184.067 63.4223C184.05 62.4552 184.064 61.491 184.064 60.524C184.064 59.7112 184.064 58.8955 184.064 58.077L184.061 58.0798Z" fill="black"/>
<path d="M167.897 58.2902V63.4393C167.897 63.6102 167.905 63.784 167.88 63.955C167.804 64.4623 167.412 64.8295 166.932 64.8547C166.439 64.88 165.982 64.5128 165.881 63.9914C165.851 63.8233 165.856 63.6495 165.856 63.4785V52.9815C165.856 52.8329 165.85 52.6787 165.873 52.533C165.963 52.0032 166.391 51.6304 166.893 51.636C167.401 51.6417 167.813 52.0144 167.885 52.5582C167.908 52.7292 167.899 52.903 167.899 53.074C167.899 54.809 167.899 56.5468 167.899 58.2874L167.897 58.2902Z" fill="black"/>
<path d="M256.513 58.2199V63.3072C256.513 63.4362 256.505 63.5651 256.513 63.694C256.569 64.3807 256.051 64.86 255.499 64.86C254.946 64.86 254.523 64.4116 254.478 63.7501C254.47 63.6211 254.476 63.495 254.476 63.3633V53.1269C254.476 52.8719 254.456 52.6112 254.543 52.3617C254.697 51.8992 255.109 51.6133 255.571 51.647C256.037 51.6778 256.418 52.0198 256.491 52.4935C256.519 52.6841 256.51 52.8803 256.51 53.0709C256.513 54.7835 256.513 56.5017 256.513 58.2171V58.2199Z" fill="black"/>
<path d="M83.1715 58.1891V53.0401C83.1715 52.8663 83.1575 52.6954 83.1855 52.5244C83.2584 52.0311 83.6732 51.6583 84.1497 51.6359C84.6402 51.6134 85.0606 51.9386 85.1672 52.4459C85.2092 52.6337 85.2064 52.8271 85.2064 53.0205C85.2092 56.4962 85.2064 59.9746 85.2064 63.4503C85.2064 63.6437 85.212 63.8399 85.1756 64.0249C85.0747 64.5238 84.6458 64.8658 84.1665 64.8489C83.6872 64.8321 83.2696 64.4677 83.1939 63.9744C83.1687 63.8062 83.1771 63.6325 83.1771 63.4587C83.1743 61.7068 83.1743 59.9494 83.1743 58.1891H83.1715Z" fill="black"/>
<path d="M285.676 58.2229V53.0738C285.676 52.8804 285.668 52.6842 285.699 52.4964C285.772 52.0031 286.195 51.6443 286.677 51.6359C287.17 51.6303 287.577 51.9695 287.664 52.4768C287.694 52.6674 287.692 52.8636 287.692 53.0542V63.4167C287.692 63.6325 287.692 63.8484 287.652 64.0586C287.563 64.5267 287.159 64.8518 286.694 64.8546C286.243 64.8574 285.805 64.5267 285.71 64.0754C285.668 63.8708 285.676 63.6494 285.676 63.4335C285.671 61.6985 285.674 59.9607 285.674 58.2229H285.676Z" fill="black"/>
</svg>
