<svg width="306" height="50" viewBox="0 0 306 50" fill="none" xmlns="http://www.w3.org/2000/svg">
<path fill-rule="evenodd" clip-rule="evenodd" d="M0 16.1028H20.1697L0 38.3059V48.8148H38.8148V38.3059H17.7969L39.1517 16.1028V0.678628H0V16.1028ZM64.2365 0C50.6786 0 39.6607 11.1876 39.6607 24.9152C39.6607 38.6428 50.6786 50 64.2365 50C77.7945 50 88.9821 38.8148 88.9821 24.9152C88.9821 11.0155 77.9641 0 64.2365 0ZM64.2365 38.6428C57.7969 38.6428 52.7121 33.3883 52.7121 26.951C52.7121 20.5138 57.7969 15.0873 64.2365 15.0873C70.6762 15.0873 75.9307 20.3417 75.9307 26.951C75.9307 33.5604 70.6762 38.6428 64.2365 38.6428ZM105.254 0.678628H91.1876V48.8148H125.254V38.3059H105.254V0.678628Z" fill="black"/>
<path fill-rule="evenodd" clip-rule="evenodd" d="M114.07 16.1028H128.476V48.8149H141.864V16.1028H155.931V0.678711H114.067V16.1028H114.07ZM159.322 0.678711H158.985V48.8149H191.355V38.306H172.373V33.3908H191.355V22.7146H172.373V16.1028H191.355V0.678711H159.322ZM242.204 48.8149L223.222 23.8997L241.018 0.678711H224.748L210.34 18.4756V0.678711H196.952V48.8149H210.34V29.4935L225.766 48.8149H242.204Z" fill="black"/>
<path fill-rule="evenodd" clip-rule="evenodd" d="M261.526 0.678711H305.596V16.1028L294.238 28.3084C294.238 28.3084 292.884 30.3394 291.357 30.3394C290.002 30.3394 288.982 28.3084 288.982 28.3084L278.473 16.1028C278.473 16.1028 277.29 15.0849 276.102 15.0849C275.084 15.0849 273.897 16.1028 273.897 16.1028L268.642 21.6966H261.526V0.678711Z" fill="black"/>
<path fill-rule="evenodd" clip-rule="evenodd" d="M305.595 48.8148H261.525V33.3906L272.88 21.1899C272.88 21.1899 274.235 19.1565 275.592 19.1565C276.95 19.1565 278.135 21.1899 278.135 21.1899L288.644 33.3906C288.644 33.3906 289.831 34.4086 291.019 34.4086C292.037 34.4086 293.05 33.3906 293.05 33.3906L298.304 27.7968H305.595V48.8148Z" fill="black"/>
</svg>
