<?xml version="1.0" encoding="UTF-8"?><svg id="a" xmlns="http://www.w3.org/2000/svg" width="702.1751" height="187.5676" viewBox="0 0 702.1751 187.5676"><path d="M310.3625,79.7307l.0002.0003c-.4524-.4697-.9802-.8604-1.5616-1.1554h-.0003c-2.5347-1.2317-5.4961-1.2317-8.0308,0-.5814.295-1.1095.6857-1.5616,1.1554v-.0003c-.658.6605-1.0395,1.5469-1.067,2.4786v24.4153h13.288v-24.4153h-.0003c-.0272-.9318-.4088-1.8182-1.0667-2.4786Z" fill="#191919" fill-rule="evenodd"/><path d="M333.5119,79.731c-.4523-.4697-.9802-.8604-1.5616-1.1554h-.0003c-2.5347-1.2317-5.4961-1.2317-8.0308,0-.5814.295-1.1094.6857-1.5616,1.1554v-.0003c-.6579.6605-1.0394,1.5469-1.067,2.4786v24.4153h13.288v-24.4153c-.0272-.9318-.4088-1.8182-1.0667-2.4786v.0003Z" fill="#191919" fill-rule="evenodd"/><path d="M357.7275,82.2093c-.0272-.9318-.4088-1.8182-1.0667-2.4786v.0003c-.4524-.4697-.9802-.8604-1.5616-1.1554-2.5347-1.2317-5.4958-1.2317-8.0305,0h-.0003c-.5814.295-1.1095.6857-1.5616,1.1554v-.0003c-.6579.6605-1.0394,1.5469-1.067,2.4786v24.4153h13.2877v-24.4153Z" fill="#191919" fill-rule="evenodd"/><path d="M380.8766,82.2093c-.0272-.9318-.4088-1.8182-1.0667-2.4786v.0003c-.4524-.4697-.9802-.8604-1.5616-1.1554-2.5347-1.2317-5.4961-1.2317-8.0308,0h-.0003c-.5813.295-1.1093.6855-1.5614,1.1552-.6578.6604-1.0394,1.5468-1.0668,2.4785h-.0003v24.4153h13.288v-24.4153Z" fill="#191919" fill-rule="evenodd"/><path d="M404.0258,82.2093c-.0272-.9318-.4088-1.8182-1.0667-2.4786v.0003c-.4525-.4697-.9803-.8604-1.5616-1.1554-2.5347-1.2317-5.4961-1.2317-8.0308,0-.5814.295-1.1095.6857-1.5616,1.1554v-.0003c-.658.6605-1.0395,1.5469-1.067,2.4786v24.4153h13.2877v-24.4153Z" fill="#191919" fill-rule="evenodd"/><rect x="393.8018" y="126.6523" width="7.6045" height="6.6875" fill="#191919"/><rect x="392.6455" y="116.5293" width="9.918" height="4.5996" fill="#191919"/><rect x="388.0264" y="14.9508" width=".0264" height=".0063" transform="translate(299.7735 393.1171) rotate(-79.0689)" fill="#191919"/><rect x="300.7686" y="126.8496" width="7.6045" height="6.4902" fill="#191919"/><rect x="299.6118" y="116.5293" width="9.918" height="4.5996" fill="#191919"/><path d="M260.0255,78.3241l-.0003-.0002v8.8582h4.3512v-8.8582l-.0003.0002c-1.142-2.1257-3.7349-1.665-4.3506,0Z" fill="#191919" fill-rule="evenodd"/><path d="M421.3862,78.3241l-.0002-.0002v8.8582h4.3511v-8.8582l-.0003.0002c-1.142-2.1257-3.7352-1.665-4.3506,0Z" fill="#191919" fill-rule="evenodd"/><path d="M268.2759,78.3241l-.0002-.0002v8.8582h4.3511v-8.8582l-.0002.0002c-.8129-2.0599-3.8665-2.0599-4.3506,0Z" fill="#191919" fill-rule="evenodd"/><path d="M429.6367,78.3241l-.0002-.0002v8.8582h4.3512v-8.8582l-.0003.0002c-.813-2.0599-3.8667-2.0599-4.3506,0Z" fill="#191919" fill-rule="evenodd"/><path d="M275.9754,78.3241l-.0002-.0002v8.8582h4.3515v-8.8582l-.0003.0002c-.7473-1.7966-3.3403-2.0599-4.351,0Z" fill="#191919" fill-rule="evenodd"/><path d="M437.3362,78.3241l-.0003-.0002v8.8582h4.3512v-8.858c-.7475-1.7966-3.3404-2.0599-4.3509,0Z" fill="#191919" fill-rule="evenodd"/><rect x="260.0251" y="95.2002" width="4.3512" height="9.6057" fill="#191919"/><rect x="421.386" y="95.2002" width="4.3511" height="9.6057" fill="#191919"/><rect x="268.2757" y="95.2002" width="4.3511" height="9.6057" fill="#191919"/><rect x="429.6365" y="95.2002" width="4.3512" height="9.6057" fill="#191919"/><rect x="275.9752" y="95.2002" width="4.3515" height="9.6057" fill="#191919"/><rect x="437.3359" y="95.2002" width="4.3512" height="9.6057" fill="#191919"/><rect x="260.0424" y="116.4495" width="4.3515" height="9.9371" fill="#191919"/><rect x="421.4033" y="116.4495" width="4.3511" height="9.9371" fill="#191919"/><rect x="268.2757" y="116.4495" width="4.3511" height="9.9371" fill="#191919"/><rect x="429.6365" y="116.4495" width="4.3512" height="9.9371" fill="#191919"/><rect x="276.1132" y="116.4495" width="4.3513" height="9.9371" fill="#191919"/><rect x="437.474" y="116.4495" width="4.3512" height="9.9371" fill="#191919"/><rect x="259.9906" y="135.1976" width="4.4203" height="3.8322" fill="#191919"/><rect x="421.3514" y="135.1976" width="4.4203" height="3.8322" fill="#191919"/><rect x="268.2411" y="135.1976" width="4.4203" height="3.8322" fill="#191919"/><rect x="429.6019" y="135.1976" width="4.4203" height="3.8322" fill="#191919"/><rect x="276.0962" y="135.1976" width="4.4203" height="3.8322" fill="#191919"/><rect x="437.4567" y="135.1976" width="4.4203" height="3.8322" fill="#191919"/><rect x="54.8901" y="135.4521" width="5.9087" height="3.8369" fill="#191919"/><rect x="678.8262" y="135.4521" width="5.9082" height="3.8369" fill="#191919"/><rect x="36.5337" y="135.4521" width="5.9087" height="3.8369" fill="#191919"/><rect x="660.4688" y="135.4521" width="5.9092" height="3.8369" fill="#191919"/><rect x="17.5845" y="135.4521" width="5.9087" height="3.8369" fill="#191919"/><rect x="641.5205" y="135.4521" width="5.9082" height="3.8369" fill="#191919"/><path d="M695.9287,142.6257v-10.2507c0-.3076-.1455-.5967-.3926-.7793l-.8711-.6416v-16.5615h.7051c.5342,0,.9678-.4336.9678-.9678v-2.6582c0-.5342-.4336-.9678-.9678-.9678h-.9619v-37.5518c.0378-.1035.0664-.212.0664-.3286s-.0286-.2251-.0664-.3286v-3.3804c.4082-.1133.708-.4883.708-.9326v-4.1694c0-.2756-.1179-.5212-.3027-.6976v-12.1276l-.79-.2349v-3.2754c-.0176-2.5752-1.2656-4.2388-3.1797-4.2388h-.001c-1.1074,0-2.0234.6045-2.5801,1.7017-.5137,1.0112-.5684,2.1074-.5674,2.5229l-.003.353-14.9856-20.6046h-.058v-5.5253l-.3615-1.3255-.9853-.9578-.1034-.0992-.1727-.1168-.1726.1168-.1038.0992-.9164.8479-.4176,1.1763h-12.5408l-.4175-1.1763-.9164-.8479-.1035-.0992-.1726-.1168-.1727.1168-.1036.0992-.9851.9578-.362,1.3255v5.5253l-12.5336,17.0765h-3.4741c-.5477-.6661-1.2975-1.0495-2.2039-1.0495h-.001c-.8572,0-1.5981.371-2.1552,1.0432l-184.5635-.0002.0009-.8022c.0098-2.8838-1.0938-5.3872-3.373-7.6528-.3633-.3608-.9463-.3765-1.3271-.0356-.8201.7319-1.4284,1.472-1.9067,2.2149l-8.3429-25.6106v-1.7266h-.7943v-4.9183l-.3453-1.8848-.8974-3.16-.8983,3.16-.3452,1.8848v4.9183h-.7943v1.7266l-8.3497,25.6243c-.4795-.7468-1.0903-1.4919-1.9158-2.2286-.3799-.3408-.9619-.3252-1.3271.0356-2.2793,2.2656-3.3828,4.769-3.373,7.6494v.8057h-2.2863l-21.9711-25.4537-2.424-3.1531-.005.0259.0003-.0192.0012-.0114-.0179-.0232.0202-.0004.0005-.0049h.1987v-5.4935c.0059-.5414-.114-1.0763-.3501-1.5636v-.0002c-.2092-.4873-.6219-.8572-1.1288-1.012l-.0003-.0002-.2735-.0468-.2736.0468.0003.0002c-.5071.1545-.9199.5244-1.1291,1.0117h-.0002c-.2358.4868-.3558,1.0214-.3504,1.5622v4.7012h-67.2882v-4.6992c.0057-.5414-.114-1.0763-.3501-1.5636l-.0003-.0002c-.2092-.4873-.6219-.8572-1.129-1.012v-.0002l-.2736-.0408-.2735.0408v.0002c-.5068.1545-.9199.5244-1.1291,1.0117-.2355.4868-.3557,1.0214-.35,1.5622v5.4955h.0806l-.0675-.0145.1856.0145h-.1181l.1414.0303.025-.0255-.017.0272-.0079-.0017-.0023.0023-2.3641,3.1813-22.0527,25.4262h-2.2793v-.7358c.0093-2.8828-1.0938-5.3862-3.3735-7.6528-.3633-.3608-.9453-.3774-1.3271-.0356-.8206.7324-1.4292,1.4733-1.9077,2.2167l-8.3643-25.6788v-1.7266h-.7943v-4.9183l-.3452-1.8848-.8983-3.16-.8975,3.16-.3455,1.8848v4.9183h-.794v1.7266l-8.3561,25.6439c-.4756-.731-1.0787-1.4604-1.887-2.1818-.3823-.3408-.9634-.3257-1.3271.0356-2.2798,2.2661-3.3828,4.7695-3.3735,7.6494v.7393l-184.5575.0002c-.5572-.6722-1.298-1.0432-2.1544-1.0432h-.001c-.9059,0-1.6553.3832-2.2031,1.0495h-3.4761l-12.5337-17.0765v-5.5253l-.362-1.3255-.985-.9578-.1037-.0992-.1727-.1168-.1726.1168-.1035.0992-.9164.8479-.4175,1.1763h-12.5408l-.4175-1.1763-.9164-.8479-.1038-.0992-.1726-.1168-.1726.1168-.1035.0992-.9853.9578-.3614,1.3255v5.5253h-.0582l-14.9843,20.6031-.0029-.3422c0-.4243-.0547-1.5205-.5679-2.5322-.5566-1.0972-1.4727-1.7017-2.5796-1.7017h-.001c-1.9141,0-3.1621,1.6641-3.1807,4.2456v3.2686l-.7905.2349v12.128c-.1846.1763-.3022.4218-.3022.6972v4.1694c0,.4443.2998.8193.708.9326v3.6318c-.0023.0268-.0156.0498-.0156.0771s.0134.0504.0156.0771l-.0004,37.7808h-.957c-.5479,0-.9922.4443-.9922.9922,0,.0352.0165.0649.02.0991v2.5571c0,.5342.4336.9678.9683.9678h.7041v16.5615l-.8701.6416c-.2476.1826-.3936.4717-.3936.7793v10.2507H0v3.2537h702.1751v-3.2537h-6.2464ZM388.2969,139.1729v3.4529h-74.4185v-3.4529h74.4185ZM390.2324,138.2051c0-.5342-.4336-.9678-.9678-.9678h-8.5646v-3.4174l.0692-.0692v-10.6245l-.0002.0022c.0045-3.6076-2.9225-6.5364-6.5305-6.5344-3.6076-.0043-6.5361,2.9231-6.5339,6.531l-.0005.0012v10.5899l.0777.1069-.0067,3.4142h-10.2242v-3.4174l.0692-.0692v-10.4981h-.0003c.0028-3.6074-2.9248-6.535-6.5322-6.5325-3.6077-.0026-6.5353,2.925-6.5324,6.5325v10.4635l.0776.1069-.0066,3.4142h-10.2242v-3.4174l.0692-.0692v-10.8777l-.0006.002c.0046-3.6076-2.9225-6.5361-6.5305-6.5344-3.6076-.004-6.5361,2.9233-6.5338,6.5313l-.0002.0011v10.8431l.0776.1069-.0067,3.4142c-.03,0-.0598-.002-.0889,0h-8.4775c-.5342,0-.9678.4336-.9678.9678v4.4207h-22.2812v-10.3318c0-.209-.0679-.4121-.1929-.5791l-.4175-.5588v-17.1546c.1716-.1747.2817-.4093.2817-.6733v-1.5674h123.5156v1.501c0,.2575.1028.4886.2666.6619v17.1865l-.4023.5383c-.125.167-.1924.3701-.1924.5791v10.3982h-22.2881v-4.4207ZM46.6562,130.4697v-18.709h3.2441v18.709h-3.2441ZM39.1614,130.4697c-.0414-.0052-.078-.0244-.1208-.0244h-5.6797v-18.6846h11.3599v18.709h-5.5593ZM8.4888,112.457h-.7041v-.6963h5.165v18.6846h-3.4927v-17.0205c0-.5342-.4336-.9678-.9683-.9678ZM14.8853,111.7607h11.3599v18.6846h-11.3599v-18.6846ZM9.4307,66.5923c-.1191-.1187-.2656-.2036-.4243-.248v-2.2725h4.6558v2.2725c-.4082.1133-.708.4883-.708.9326v3.6494h-3.2398v-3.6494c0-.2568-.102-.5029-.2836-.6846ZM84.3169,58.6573h6.1299v7.3925h-6.1299v-7.3925ZM83.2427,67.9854c.0366.0042.0687.0215.1064.0215s.0698-.0173.1064-.0215h7.8525c.0366.0042.0687.0215.1064.0215s.0698-.0173.1064-.0215h6.4126c.0366.0042.0687.0215.1064.0215s.0698-.0173.1064-.0215h7.5645c.0366.0042.0687.0215.1064.0215s.0698-.0173.1064-.0215h6.4126c.0366.0042.0687.0215.1064.0215s.0698-.0173.1064-.0215h7.8525c.0366.0042.0687.0215.1064.0215s.0698-.0173.1064-.0215h6.4126c.0366.0042.0687.0215.1064.0215s.0698-.0173.1064-.0215h8.5728c.0366.0042.0687.0215.1064.0215s.0698-.0173.1064-.0215h6.4126c.0366.0042.0687.0215.1064.0215s.0698-.0173.1064-.0215h7.7085c.0366.0042.0687.0215.1064.0215s.0698-.0173.1064-.0215h6.4126c.0366.0042.0687.0215.1064.0215s.0698-.0173.1064-.0215h8.394c.0366.0042.0687.0215.1064.0215s.0698-.0173.1064-.0215h6.4126c.0366.0042.0687.0215.1064.0215s.0698-.0173.1064-.0215h7.7524c.0366.0042.0687.0215.1064.0215s.0698-.0173.1064-.0215h6.4126c.0366.0042.0687.0215.1064.0215s.0698-.0173.1064-.0215h7.7524c.0366.0042.0687.0215.1064.0215s.0698-.0173.1064-.0215h6.4126c.0366.0042.0687.0215.1064.0215s.0698-.0173.1064-.0215h7.7524c.0366.0042.0687.0215.1064.0215s.0698-.0173.1064-.0215h6.4126c.0366.0042.0687.0215.1064.0215s.0698-.0173.1064-.0215h8.2334c.0366.0042.0687.0215.1064.0215s.0698-.0173.1064-.0215h6.4126c.0366.0042.0687.0215.1064.0215s.0698-.0173.1064-.0215h7.2715c.0366.0042.0687.0215.1064.0215s.0698-.0173.1064-.0215h12.6587v2.9409h-121.8125c-.0428,0-.0794.0192-.1208.0244h-58.0813v-2.9653h5.2139c.0366.0042.0687.0215.1064.0215s.0698-.0173.1064-.0215h6.4126ZM98.999,58.6573h5.8506v7.3925h-5.8418v-7.3486c0-.0156-.0081-.0284-.0089-.0438ZM113.4106,58.6573h6.1299v7.3925h-6.1299v-7.3925ZM128.1016,58.6573h6.8501v7.3925h-6.8501v-7.3925ZM143.5127,58.6573h5.9858v7.3925h-5.9858v-7.3925ZM158.0594,58.6567l6.6721-.0026c0,.0011-.0006.002-.0006.0031v7.3926h-6.6714v-7.3926s-.0001-.0003-.0001-.0005ZM173.292,58.6785l6.0298-.0172v7.3885h-6.0298v-7.3713ZM187.874,58.6573h6.0475c-.0007.0154-.0089.0283-.0089.0438v7.3486h-6.0298v-7.3486c0-.0156-.0081-.0284-.0089-.0438ZM202.4648,58.6573h6.0475c-.0007.0154-.0089.0283-.0089.0438v7.3486h-6.0298v-7.3486c0-.0156-.0081-.0284-.0089-.0438ZM217.0645,58.6573h6.5107v7.3925h-6.5107v-7.3925ZM232.1362,58.6573h5.5488v7.3925h-5.5488v-7.3925ZM246.2461,58.6573l3.3711-.0002v.8405c0,.5347.4336.9683.9683.9683h.8325v5.584h-5.1719v-7.3925ZM254.478,55.9805h32.0873l2.8126.6294v1.9185h-2.1602c-.0309,0-.0569.0148-.087.0176h-.0922c-.012,0-.022.0064-.0339.0068h-32.9956c-.0398-.005-.0749-.0234-.116-.0234h-2.3394v-1.9194l2.8655-.6412c.0205.0013.038.0118.0588.0118ZM410.8682,55.9502v2.5781h-119.5537v-2.5781h119.5537ZM343.3794,54.0146h-7.7324v-5.6396c0-.0022-.0012-.004-.0012-.0061l7.738-.0154c-.0003.0076-.0043.0139-.0043.0215v5.6396ZM366.5273,54.0146h-7.7305v-5.6396h0s7.7305,0,7.7305,0h0v5.6397ZM447.6215,55.9561l3.0093.6709-.002,1.8525h-2.3398c-.1285,0-.2501.0276-.3624.0732h-32.8478c-.0414-.0052-.078-.0244-.1208-.0244h-2.1543v-1.9707l2.9429-.6016h31.8749ZM464.5225,58.6573h5.5205v7.4247h-5.5205v-7.4247ZM630.6777,68.0176v2.9331h-179.9307v-2.9331h179.9307ZM478.6045,58.6573h6.3701v7.4247h-6.3701v-7.4247ZM493.5352,58.6573h6.292v7.4247h-6.292v-7.4247ZM508.3887,58.6573h5.916v7.4247h-5.916v-7.4247ZM522.8652,58.6613l6.1903.0176c0,.0015-.0009.0027-.0009.0042v7.3989h-6.1895v-7.4207ZM537.6094,58.6542l6.6368.0026s0,.0002,0,.0004v7.4248h-6.6309v-7.3989c0-.0103-.0056-.0187-.0059-.0289ZM552.8076,58.6573h6.0293v7.4247h-6.0293v-7.4247ZM567.3975,58.6573h6.4775v7.4247h-6.4775v-7.4247ZM582.4355,58.6573h6.3955v7.4247h-6.3955v-7.4247ZM597.3916,58.6573h5.9023v7.4247h-5.9023v-7.4247ZM611.8545,58.6573h5.9961v7.4247h-5.9961v-7.4247ZM626.4111,58.6573h5.0615v3.7545c-.1833.1762-.2998.4211-.2998.6956v2.9746h-4.7617v-7.4247ZM693.6973,112.457c-.5342,0-.9678.4336-.9678.9678v17.0449h-3.5039v-18.7334h5.1768v.7207h-.7051ZM675.9297,109.8008v-36.9146h11.3604v36.9146h-11.3604ZM687.29,111.7363v18.7334h-11.3604v-18.7334h11.3604ZM675.9219,70.9507v-2.7412c.4082-.1133.708-.4883.708-.9326v-3.1968h9.958v3.1968c0,.4443.2998.8193.708.9326v2.7412h-11.374ZM652.2744,111.7363h3.2451v18.7334h-3.2451v-18.7334ZM652.2744,109.8008v-36.9146h3.2451v36.9146h-3.2451ZM652.29,70.9507v-3.6738c0-.4443-.2998-.8193-.708-.9326v-2.2642h4.6582v2.2642c-.4082.1143-.707.4883-.707.9326v3.6738h-3.2432ZM652.6621,46.7661c0-.7495.3066-2.2964,1.252-2.2964h.001c1.168,0,1.2412,1.9292,1.2441,2.3091v4.7129l.791.2349v10.4087h-4.0566v-10.4253l.7764-.3286-.0078-4.6152ZM657.4551,111.7363h11.3594v18.7334h-11.3594v-18.7334ZM657.4551,109.8008v-36.9146h11.3594v36.9146h-11.3594ZM657.4688,70.9507v-2.7412c.4082-.1143.707-.4883.707-.9326v-3.1968h9.959v3.1968c0,.4443.2998.8193.708.9326v2.7412h-11.374ZM671.5469,45.1108c.3252-.6411.6953-.6411.8535-.6411h.001c1.168,0,1.2412,1.9292,1.2441,2.3091v4.7129l.79.2349v10.4087h-4.0557v-10.4253l.7705-.3262.0381-4.6187c0-.458.0938-1.1333.3584-1.6543ZM673.9863,67.2769v3.6738h-3.208v-3.6738c0-.4443-.2998-.8193-.708-.9326v-2.2642h4.624v2.2642c-.4082.1133-.708.4883-.708.9326ZM670.75,111.7363h3.2441v18.7334h-3.2441v-18.7334ZM670.75,109.8008v-36.9146h3.2441v36.9146h-3.2441ZM692.4727,67.2769v3.6738h-3.2412v-3.6738c0-.4443-.2998-.8193-.708-.9326v-2.2642h4.6572v2.2642c-.4082.1133-.708.4883-.708.9326ZM689.2256,109.8008v-36.9146h3.2471v36.9146h-3.2471ZM686.8867,62.1445h-4.3018v-8.3618l4.3018-.0009v8.3626ZM680.6494,62.1445h-4.2783v-8.3605l4.2783-.0009v8.3613ZM668.4443,62.1445h-4.3477v-8.3581l4.3477-.0008v8.3589ZM662.1611,62.1445h-4.2754v-8.357l4.2754-.0008v8.3578ZM649.958,62.1445h-4.209v-8.3544l4.209-.0006v8.355ZM649.6465,64.0801v3.1968c0,.4443.2998.8193.708.9326v2.7412h-11.3662v-2.7412c.4082-.1133.708-.4883.708-.9326v-3.1968h9.9502ZM638.9795,111.7363h11.3594v18.7334h-11.3594v-18.7334ZM638.9795,109.8008v-36.9146h11.3594v36.9146h-11.3594ZM637.7607,64.0718v2.2725c-.4082.1133-.708.4883-.708.9326v3.6738h-3.2364v-3.6738c0-.2294-.0916-.4434-.2383-.6174-.104-.2349-.2678-.4351-.4697-.5891v-1.9987h4.6523ZM619.708,130.4697h-169.377v-16.5574c.1562-.1718.252-.3997.252-.6506v-1.5254h179.3672v1.6885c0,.3407.1868.6261.4531.7985v16.2464h-10.6953ZM341.7381,104.087l-.2024-30.6964h-3.9804l-.2024,30.7638-1.012,2.2938v3.3281h-16.7983v-3.3281l-.9448-2.3613-.2024-30.6964h-3.9804l-.2024,30.7638-1.012,2.2938v3.3281h-16.7984v-3.3281l-.9448-2.3613-.2024-30.6964h-3.9804l-.2024,30.7638-1.012,2.2938v3.3281h-.5807v-42.2876h.7592l.5543,4.0532h4.8438l.553-4.0518c.0071-.0008.0146-.0005.0217-.0015h17.1762l.5547,4.0532h4.8438l.5528-4.0532h17.1981l.5543,4.0532h4.8438l.5528-4.0532h17.1976l.5538,4.0532h4.8447l.5532-4.0532h17.1976l.5538,4.0532h4.8447l.5523-4.0532h17.1985l.5538,4.0532h4.8447l.5523-4.0532h.7504v42.2876h-.5142v-3.3281l-.9448-2.3613-.2024-30.6964h-3.9803l-.2025,30.7638-1.0119,2.2938v3.3281h-16.7985v-3.3281l-.9448-2.3613-.2024-30.6964h-3.9804l-.2024,30.7638-1.012,2.2938v3.3281h-16.7984v-3.3281l-.9448-2.3613-.2023-30.6964h-3.9805l-.2024,30.7638-1.012,2.2938v3.3281h-16.8658v-3.3281l-.9448-2.3613ZM254.396,129.7441v-16.416c0-.499-.377-.9092-.8613-.9619v-.6055h33.8618v.6055c-.4839.0527-.8608.4639-.8608.9619v16.416h-32.1396ZM145.3184,130.4453h-15.7129c-.0428,0-.0794.0192-.1208.0244h-57.8416v-16.153c.3482-.1467.5928-.4908.5928-.8919v-1.6641h179.3623v1.5674c0,.2408.0911.4586.2363.6278v16.4894h-106.5161ZM14.8906,68.2095c.4082-.1138.708-.4883.708-.9326v-3.1724h9.958v3.1724c0,.4443.2993.8193.708.9326v2.7168h-11.374v-2.7168ZM28.541,46.7856c.0029-.3867.0757-2.3159,1.2446-2.3159h.0005c.1582,0,.5283,0,.8535.6411.2646.5215.3584,1.1963.3584,1.6636l.0381,4.6094.77.3262v10.4102h-4.0552v-10.3936l.7905-.2349-.0005-4.7061ZM39.0405,64.1045c.0428,0,.0794-.0192.1208-.0244h4.8484v3.1968c0,.4443.2998.8188.7075.9326v2.7412h-5.5559c-.0414-.0052-.078-.0244-.1208-.0244h-5.6963v-2.7168c.4077-.1138.7075-.4883.7075-.9326v-3.1724h4.9888ZM47.0269,46.7856c.0029-.3867.0757-2.3159,1.2446-2.3159h.0005c.1611,0,.5386,0,.8789.6514.2749.5269.373,1.1948.3726,1.6436l-.0078,4.6167.7764.3286v10.4253h-4.0552v-10.4087l.7905-.2349-.0005-4.7061ZM50.6035,66.3442c-.4077.1138-.7075.4883-.7075.9326v3.6738h-3.2422v-3.6738c0-.4443-.2998-.8188-.7075-.9326v-2.2642h4.6572v2.2642ZM27.4922,66.3442v-2.2397h4.623v2.2397c-.4077.1138-.7075.4883-.7075.9326v3.6494h-3.2075v-3.6494c0-.4443-.2993-.8193-.708-.9326ZM31.4253,72.9106v36.8657h-3.2446v-36.8657h3.2446ZM33.3608,72.9106h5.6797c.0428,0,.0794-.0192.1208-.0244h5.5593v36.8901h-11.3599v-36.8657ZM46.6562,72.8862h3.2441v36.8901h-3.2441v-36.8901ZM51.8359,72.8862h11.3604v36.8901h-11.3604v-36.8901ZM65.1318,72.8862h3.1787v36.8901h-3.1787v-36.8901ZM129.4846,72.8862c.0414.0052.078.0244.1208.0244h121.8125v36.8657H71.4033v-36.8901h58.0813ZM270.4512,60.4883h15.6191v2.5366h-31.209v-2.5366h15.5898ZM351.0879,60.5127h63.0879v3.4124c-.0017.0236-.0137.0436-.0137.0676s.012.0441.0137.0676v1.4441h-126.1689v-4.9917h63.0811ZM431.7236,60.4883h15.5977v2.5366h-31.21v-2.5366h15.6123ZM462.4248,72.8862h168.2529v36.9146h-179.9307v-36.9146h11.6777ZM431.8445,109.8008c-.0414-.0052-.078-.0244-.1208-.0244h-16.7705v-3.7676h.1904c.5342,0,.9678-.4336.9678-.9678v-32.5h31.21v32.5c0,.5342.4336.9678.9678.9678h.1904v3.792h-16.635ZM447.3213,70.6055h-31.21v-4.0508c.0012-.0203.0117-.0375.0117-.058s-.0105-.0378-.0117-.058v-1.4781h31.21v5.645ZM253.6855,109.7764v-3.7012h.2075c.5347,0,.9683-.4336.9683-.9678v-32.5664h31.209v32.5664c0,.5342.4336.9678.9683.9678h.1733v3.7012h-33.5264ZM286.0703,66.4095c-.0027.0302-.0176.0562-.0176.087s.0148.0569.0176.087v4.0219h-31.209v-5.645h31.209v1.4491ZM414.7842,112.2998v-.5391h16.9395c.0428,0,.0794-.0192.1208-.0244h16.803v.5635c-.4844.0527-.8613.4629-.8613.9619v16.4824h-32.1406v-16.4824c0-.499-.377-.9092-.8613-.9619ZM633.3481,112.8489c-.137-.3329-.3904-.6014-.7068-.7678.2249-.07.4282-.1865.5946-.3448h3.8081v18.7334h-3.4854v-17.0449c0-.2201-.0866-.4132-.2105-.5759ZM633.8154,109.8008l.0009-36.9146h3.2277v36.9146h-3.2285ZM455.9619,66.082h-5.2148v-5.666h.8486c.5342,0,.9678-.4331.9678-.9673l.0009-.7916,3.3976.0002v7.4247ZM75.7559,66.0498h-4.7417v-2.9424c0-.2744-.1164-.5193-.2998-.6956v-3.7545h5.0415v7.3925ZM69.0776,64.0718v2.2725c-.1587.0444-.3052.1294-.4243.248-.1816.1816-.2837.4277-.2837.6846h-.0591v3.6738h-3.1768v-3.6738c0-.4443-.2998-.8193-.708-.9326v-2.2725h4.6519ZM63.1973,68.2095v2.7412h-11.3647v-2.7412c.4077-.1138.7075-.4883.7075-.9326v-3.1968h9.9492v3.1968c0,.4443.2998.8188.708.9326ZM52.2285,62.1445v-8.355l4.3452.0006v8.3544h-4.3452ZM44.3003,62.1445h-4.292v-8.3564s-.0002-.0009-.0002-.0013l4.2922.0008v8.357ZM38.0728,53.7881v8.332h-4.3301v-8.3345l4.3304.0008c0,.0006-.0004.001-.0004.0016ZM25.8145,62.1201h-4.3066v-8.332c0-.0018-.001-.0032-.001-.0049l4.3076.0009v8.3361ZM19.5723,53.7881v8.332h-4.2725v-8.3382l4.2736.0009c0,.0019-.0011.0034-.0011.0053ZM26.2451,72.9106v36.8657h-11.3599v-36.8657h11.3599ZM28.1807,111.7607h3.2446v18.6846h-3.2446v-18.6846ZM51.8359,111.7607h11.3604v18.709h-11.3604v-18.709ZM65.1318,111.7607h5.1675v.6963h-.7041c-.5322,0-.963.4302-.9669.9609h-.039v17.0518h-3.4575v-18.709ZM71.8271,132.4053h57.6575c.0414.0052.078.0244.1208.0244h121.6646v10.196H71.8271v-10.2205ZM253.2065,142.5742h.0566v-10.0348l.2921-.391c.0316-.0305.0507-.07.078-.1044l.2722-.3643h33.1207l.5964.7983v10.1382h.1025v.0095h-34.5186v-.0515ZM414.4561,142.6162h.0869v-10.1837l.5627-.7529h33.2202l.058.0776c.0635.1788.1786.324.3267.437l.1927.2578v10.1221h.0723v.0515h-34.5195v-.0095ZM450.9111,132.4053h179.4482v10.2205h-179.4482v-10.2205ZM632.2949,132.9184c.3257-.0792.6071-.2629.8138-.5131h60.2626l.6218.458v9.7625h-61.6982v-9.7073ZM688.8223,51.71l.7705-.3262.0381-4.6187c0-.458.0938-1.1333.3584-1.6543.3252-.6411.6953-.6411.8535-.6411h.001c1.168,0,1.2412,1.9292,1.2441,2.3091v4.7129l.79.2349v10.4087h-4.0557v-10.4253ZM643.8135,53.7903v8.3542h-4.4141v-8.3536l4.4141-.0006ZM635.4297,44.4697c1.168,0,1.2412,1.9292,1.2441,2.3091v4.7129l.79.2349v10.4087h-4.0557v-10.4258l.7754-.3281-.0039-4.6162c0-.4497.0977-1.1182.3721-1.645.3389-.6504.7158-.6504.877-.6504h.001ZM620.1068,58.0827l.0003.0006c.9331-1.4539,3.0597-1.453,3.9911.0014h.0005c.0628.2111.2121.3723.3974.4705-.0038.0352-.0206.0658-.0206.102v7.4248h-4.6895v-7.4248c0-.0459-.02-.0853-.0261-.1295.1615-.1013.2899-.2527.3468-.4451ZM605.5461,58.0827l.0003.0006c.9332-1.4539,3.0597-1.453,3.9911.0014h.0009c.0632.2124.2139.3743.4008.4723-.0037.0345-.0203.0647-.0203.1002v7.4248h-4.6895v-7.4248c0-.0466-.0202-.0865-.0266-.1313.1598-.1013.2866-.2523.3431-.4432ZM591.1296,58.0827l.0004.0006c.9329-1.4539,3.0597-1.453,3.9909.0014h.0009c.0584.1965.1919.3499.3589.4504-.0055.0418-.0247.0788-.0247.1221v7.4248h-4.6895v-7.4248c0-.0388-.0176-.0717-.0221-.1093.1796-.0995.324-.2584.3851-.4653ZM576.2807,58.0827l.0005.0006c.9332-1.4539,3.0598-1.453,3.9912.0014h.0005c.047.158.1429.2895.2642.3885-.0123.0616-.0372.1187-.0372.184v7.4248h-4.6895v-7.4248c0-.0207-.0105-.0379-.0118-.0582.2271-.0877.4098-.2725.4819-.5163ZM561.1442,58.0827l.0002.0006c.9329-1.4539,3.0598-1.453,3.9909.0014h.0009c.0575.1935.1877.3455.3511.4462-.0059.0432-.0255.0815-.0255.1263v7.4248h-4.6895v-7.4248c0-.0373-.0172-.0688-.0212-.105.1833-.0989.3309-.2595.393-.4695ZM546.4395,58.0827l.0003.0006c.9329-1.4539,3.0597-1.453,3.991.0014h.0008c.0693.233.2415.4091.455.5007-.002.025-.0145.0463-.0145.0718v7.4248h-4.6904v-7.4248c0-.0565-.0229-.1054-.0322-.1592.1356-.101.2395-.2445.29-.4153ZM531.3028,58.1083l.0002.0005c.9332-1.4536,3.0597-1.453,3.9911.0017h.0007c.064.2153.2177.3676.4084.4561-.005.04-.0235.0751-.0235.1165v7.3989h-4.6895v-7.3989c0-.0473-.0204-.0879-.0269-.1334.1581-.1014.2834-.2518.3395-.4415ZM516.7123,58.0827l.0002.0006c.9329-1.4539,3.0598-1.453,3.9909.0014h.0009c.0468.1573.1422.2881.2629.3871-.0125.0621-.0375.1196-.0375.1854v7.4248h-4.6895v-7.4248c0-.0203-.0104-.0373-.0116-.0573.2279-.0873.4113-.2728.4836-.5172ZM502.1215,58.0827l.0005.0006c.9332-1.4539,3.0597-1.453,3.9911.0014h.0006c.059.1982.1943.3524.3635.4528-.0053.041-.0242.0773-.0242.1198v7.4248h-4.6904v-7.4248c0-.0394-.0179-.073-.0225-.1112.1778-.0997.3205-.2578.3813-.4633ZM487.3708,58.0827l.0003.0006c.9332-1.4539,3.0597-1.453,3.9912.0014h.0008c.0481.1618.1463.2969.272.3965-.0113.0591-.0355.1135-.0355.176v7.4248h-4.6895v-7.4248c0-.0223-.0112-.0408-.0127-.0627.2228-.0892.4022-.2712.4734-.5118ZM472.2993,58.0827l.0003.0006c.9332-1.4539,3.0597-1.453,3.9911.0014h.0009c.0628.2113.2123.3726.3979.4708-.0038.0351-.0206.0657-.0206.1017v7.4248h-4.6904v-7.4248c0-.0458-.02-.0851-.0261-.1293.1616-.1013.29-.2528.3469-.4453ZM458.2947,58.0827l.0005.0006c.9332-1.4539,3.0598-1.453,3.9913.0014h.0005c.0549.1847.1752.3328.3278.434-.0071.0472-.028.0894-.028.1385v7.4248h-4.6895v-7.4248c0-.033-.0155-.0608-.0187-.0929.1946-.0969.3513-.2629.416-.4816ZM444.623,37.1895c1.4717,1.6997,2.1592,3.4927,2.1523,5.5801l-.0126,11.251h-4.2932l-.0009-11.2007c.0908-1.792.3447-3.6924,2.1543-5.6304ZM440.6016,41.8481c-.0302.3089-.0519.6166-.0674.9224v11.25h-17.6358l-.0009-11.2998c-.0148-.2886-.0364-.5798-.0649-.8726h17.769ZM418.8086,37.1895c1.8096,1.9375,2.0635,3.833,2.1543,5.5811v11.25h-4.3066v-11.2534c-.0068-2.085.6807-3.8779,2.1523-5.5776ZM414.7207,48.3749v5.6397h-9.626v-5.6396h0s9.626,0,9.626,0ZM402.0477,48.3749h1.8966v5.6397h-13.1172v-5.6396h0s1.8963,0,1.8963,0c0-5.428,9.3243-5.5409,9.3243,0ZM389.6768,48.3749h0v5.6397h-7.7314v-5.6396h0s7.7314,0,7.7314,0ZM378.8986,48.3749h1.8964v5.6397h-13.1172v-5.6396h0s1.8965,0,1.8965,0c0-5.29,9.3243-5.3198,9.3243,0ZM355.7495,48.3749h1.897v5.6397h-13.1177v-5.6396c0-.0084-.0045-.0154-.0048-.0238l1.9015-.0038c0-5.3464,9.324-5.2639,9.324.0275ZM332.6009,48.3749l1.8975-.0038c0,.0013-.0008.0025-.0008.0038v5.6396h-13.1182v-5.6396h0s1.8972,0,1.8972,0c0-5.2911,9.3243-5.2628,9.3243,0ZM320.23,48.3749h0v5.6397h-7.7324v-5.6396h0s7.7324,0,7.7324,0ZM309.4517,48.3749h1.8964v5.6397h-13.1177v-5.6396c0-.0103-.0053-.0189-.0059-.0291l1.9028.0015c0-5.2753,9.3243-5.1956,9.3243.0275ZM297.0871,48.345c-.0005.0105-.006.0193-.006.03v5.6396h-9.6196v-5.6772l9.6257.0076ZM283.373,37.2559c1.4712,1.7002,2.1592,3.4937,2.1519,5.5811v11.1592h-4.3053l-.0013-11.1099c.0918-1.792.3452-3.6919,2.1548-5.6304ZM279.358,41.8481c-.0339.3312-.0582.6611-.0748.9888v11.1592h-17.6349l-.0013-11.209c-.0159-.3105-.0381-.6237-.07-.939h17.7811ZM257.5586,37.2559c1.8091,1.9375,2.0625,3.8335,2.1533,5.5811v11.1592h-4.3052v-11.1626c-.0073-2.085.6807-3.8774,2.1519-5.5776ZM239.8986,58.0847h.0006c.9314-1.4544,3.058-1.4553,3.9911-.0014l.0005-.0006c.067.2264.2318.3975.4362.4922-.0025.0284-.0165.0528-.0165.0818v7.3931h-4.6899v-7.3926c0-.0528-.0219-.0983-.03-.1489.1436-.1011.2553-.2465.308-.4236ZM225.894,58.0847h.0009c.9315-1.4544,3.058-1.4553,3.9912-.0014l.0002-.0006c.0563.1902.1823.3408.3411.4421-.0065.0452-.0267.0854-.0267.1324v7.3926h-4.6899v-7.3926c0-.0351-.0163-.0648-.02-.0989.1882-.0977.3398-.2603.4033-.4736ZM210.8225,58.0847h.0009c.9314-1.4544,3.058-1.4553,3.9911-.0014l.0002-.0006c.0562.1901.1821.3406.3408.442-.0065.0452-.0267.0855-.0267.1325v7.3926h-4.6899v-7.3486c0-.0491-.0209-.0913-.028-.1385.1921-.097.3471-.2615.4115-.478ZM196.0724,58.0847c.9315-1.4544,3.058-1.4553,3.9911-.0014l.0006-.0006c.0734.2482.2605.4367.4933.5223-.0034.0332-.0194.0621-.0194.0962v7.3486h-4.6899v-7.3486c0-.0792-.0271-.1496-.045-.2233.1238-.0994.2211-.233.2687-.3932h.0006ZM181.4822,58.0847c.9312-1.4544,3.058-1.4553,3.9909-.0014l.0002-.0006c.0734.2481.2606.4367.4933.5223-.0034.0332-.0194.0621-.0194.0962v7.3486h-4.6899v-7.3926c0-.0662-.025-.1241-.0377-.1865.1201-.0989.2151-.2292.2617-.386h.0009ZM166.8909,58.1105h.0005c.9315-1.4547,3.058-1.4553,3.9911-.0017l.0003-.0005c.072.2433.254.4276.4802.5156-.0004.0117-.0067.0215-.0067.0334v7.3926h-4.6899v-7.3926c0-.0624-.0242-.1167-.0355-.1758.119-.0919.2135-.215.2599-.3709ZM151.7542,58.0847h.0009c.9312-1.4544,3.058-1.4553,3.9909-.0014l.0003-.0006c.0627.212.2124.3738.3984.4723-.0039.0352-.0206.066-.0206.1022v7.3926h-4.6899v-7.3926c0-.0457-.0199-.0848-.026-.1289.161-.101.2891-.252.3461-.4436ZM137.0503,58.0847c.9312-1.4544,3.058-1.4553,3.9909-.0014l.0003-.0006c.0786.2656.2873.4617.5432.5372-.0005.0131-.0076.0241-.0076.0374v7.3926h-4.6899v-7.3926c0-.0848-.0278-.1608-.0483-.2392.0932-.0923.1712-.2012.2105-.3333h.0009ZM121.9127,58.0847h.0006c.9314-1.4544,3.058-1.4553,3.9911-.0014l.0006-.0006c.0508.1718.1559.3157.2928.4167-.0091.0533-.0319.1018-.0319.1578v7.3926h-4.6899v-7.3926c0-.0261-.0128-.048-.0148-.0735.2117-.0922.3826-.2673.4515-.499ZM107.064,58.0847h.0009c.9312-1.4544,3.058-1.4553,3.9909-.0014l.0002-.0006c.0669.2261.2316.3972.4357.4919-.0026.0287-.0167.0533-.0167.0826v7.3926h-4.6899v-7.3926c0-.0527-.0219-.0981-.03-.1485.1439-.1011.256-.2466.3088-.424ZM92.6473,58.0847h.0009c.9315-1.4544,3.058-1.4553,3.9911-.0014l.0003-.0006c.0692.2339.2419.4106.4561.5026-.0049.0397-.0234.0748-.0234.1158v7.3486h-4.6899v-7.3926c0-.055-.0225-.1025-.0313-.155.1383-.1009.2449-.2448.2963-.4175ZM78.0869,58.0847h.0005c.9315-1.4544,3.058-1.4553,3.9912-.0014l.0002-.0006c.0551.186.1765.3348.3304.4364-.007.0471-.0279.0891-.0279.1381v7.3926h-4.6899v-7.3926c0-.033-.0156-.061-.0188-.0931.1935-.0967.3495-.2618.4142-.4794ZM66.7578,44.4697c.1611,0,.5376,0,.877.6509.2749.5264.3721,1.1948.3716,1.6445l-.0044,4.6162.7759.3286v10.4253h-4.0552v-10.4087l.7905-.2349-.0005-4.7061c.0029-.3867.0757-2.3159,1.2446-2.3159h.0005ZM62.7861,53.791v8.3536h-4.2769v-8.3542l4.2769.0006ZM9.3086,51.7266l.7905-.2349-.0005-4.7061c.0029-.3867.0757-2.3159,1.2446-2.3159h.0005c.1582,0,.5283,0,.8535.6411.2646.5215.3584,1.1963.3584,1.6636l.0381,4.6094.7695.3257v10.4258h-4.0547v-10.4087ZM9.7143,72.9106h3.2354v36.8657h-3.2358l.0004-36.8657ZM8.1934,132.8633l.588-.4336h30.2592c.0428,0,.0794-.0192.1208-.0244h30.1081l.6089.449v9.7714H8.1934v-9.7625Z" fill="#191919" fill-rule="evenodd"/><rect x="264.2296" y="45.5162" width="2.1897" height="5.0281" fill="#191919"/><rect x="274.4433" y="45.5162" width="2.1898" height="5.0281" fill="#191919"/><rect x="269.5048" y="45.5162" width="2.1898" height="5.0281" fill="#191919"/><rect x="425.571" y="45.5162" width="2.1898" height="5.0281" fill="#191919"/><rect x="435.7845" y="45.5162" width="2.1898" height="5.0281" fill="#191919"/><rect x="430.8461" y="45.5162" width="2.1898" height="5.0281" fill="#191919"/><path d="M83.96,80.0657c0-2.213-1.8046-4.0175-4.0176-4.0175s-4.0175,1.8046-4.0175,4.0175v7.1164h8.0351v-7.1164Z" fill="#191919" fill-rule="evenodd"/><path d="M83.96,104.7819v-7.1164c0-2.2131-1.8046-4.0176-4.0176-4.0176s-4.0175,1.8045-4.0175,4.0176v7.1164h8.0351Z" fill="#191919" fill-rule="evenodd"/><path d="M462.9609,80.0657c0-2.213-1.8046-4.0175-4.0176-4.0175s-4.0175,1.8046-4.0175,4.0175v7.1164h8.0351v-7.1164Z" fill="#191919" fill-rule="evenodd"/><path d="M462.9609,104.8059v-7.1161c0-2.213-1.8046-4.0175-4.0176-4.0175s-4.0175,1.8045-4.0175,4.0175v7.1161h8.0351Z" fill="#191919" fill-rule="evenodd"/><path d="M172.7824,80.0657c0-2.213-1.8048-4.0175-4.0178-4.0175s-4.0175,1.8046-4.0175,4.0175v7.1164h8.0353v-7.1164Z" fill="#191919" fill-rule="evenodd"/><path d="M172.7824,97.6655c0-2.2131-1.8048-4.0176-4.0178-4.0176s-4.0175,1.8045-4.0175,4.0176v7.1164h8.0353v-7.1164Z" fill="#191919" fill-rule="evenodd"/><path d="M551.7833,80.0657c0-2.213-1.8045-4.0175-4.0175-4.0175s-4.0175,1.8046-4.0175,4.0175v7.1164h8.035v-7.1164Z" fill="#191919" fill-rule="evenodd"/><path d="M551.7833,97.6898c0-2.213-1.8045-4.0175-4.0175-4.0175s-4.0175,1.8045-4.0175,4.0175v7.1161h8.035v-7.1161Z" fill="#191919" fill-rule="evenodd"/><path d="M57.4679,75.2828c-.9247,0-2.5415.7985-2.5415,3.0115v8.1223h5.0831v-8.1223c0-2.2131-1.6166-3.0115-2.5416-3.0115Z" fill="#191919" fill-rule="evenodd"/><path d="M644.3311,75.2828c-.9249,0-2.5418.7985-2.5418,3.0115v8.1223h5.0834v-8.1223c0-2.2131-1.6165-3.0115-2.5416-3.0115Z" fill="#191919" fill-rule="evenodd"/><path d="M662.8873,75.2828c-.9246,0-2.5415.7985-2.5415,3.0115v8.1223h5.0831v-8.1223c0-2.2131-1.6166-3.0115-2.5416-3.0115Z" fill="#191919" fill-rule="evenodd"/><path d="M681.4438,75.2828c-.925,0-2.5419.7985-2.5419,3.0115v8.1223h5.0834v-8.1223c0-2.2131-1.6169-3.0115-2.5415-3.0115Z" fill="#191919" fill-rule="evenodd"/><path d="M644.3311,93.6718c-.9249,0-2.5418.7982-2.5418,3.0112v8.1227h5.0834v-8.1227c0-2.213-1.6165-3.0112-2.5416-3.0112Z" fill="#191919" fill-rule="evenodd"/><path d="M662.8873,93.6718c-.9246,0-2.5415.7982-2.5415,3.0112v8.1227h5.0831v-8.1227c0-2.213-1.6166-3.0112-2.5416-3.0112Z" fill="#191919" fill-rule="evenodd"/><path d="M681.4438,93.6718c-.925,0-2.5419.7982-2.5419,3.0112v8.1227h5.0834v-8.1227c0-2.213-1.6169-3.0112-2.5415-3.0112Z" fill="#191919" fill-rule="evenodd"/><path d="M39.3551,75.2828c-.9247,0-2.5416.7985-2.5416,3.0115v8.1223h5.0831v-8.1223c0-2.2131-1.6166-3.0115-2.5416-3.0115Z" fill="#191919" fill-rule="evenodd"/><path d="M22.9215,78.2944c0-2.2131-1.6166-3.0115-2.5416-3.0115s-2.5418.7985-2.5418,3.0115v8.1223h5.0834v-8.1223Z" fill="#191919" fill-rule="evenodd"/><path d="M57.4679,93.6479c-.9247,0-2.5415.7982-2.5415,3.0113v8.1227h5.0831v-8.1227c0-2.2131-1.6166-3.0113-2.5416-3.0113Z" fill="#191919" fill-rule="evenodd"/><path d="M39.3551,93.6479c-.9247,0-2.5416.7982-2.5416,3.0113v8.1227h5.0831v-8.1227c0-2.2131-1.6166-3.0113-2.5416-3.0113Z" fill="#191919" fill-rule="evenodd"/><path d="M22.9215,104.7819v-8.1227c0-2.2131-1.6166-3.0113-2.5416-3.0113s-2.5418.7982-2.5418,3.0113v8.1227h5.0834Z" fill="#191919" fill-rule="evenodd"/><path d="M98.7636,80.0657c0-2.213-1.8046-4.0175-4.0176-4.0175s-4.0175,1.8046-4.0175,4.0175v7.1164h8.0351v-7.1164Z" fill="#191919" fill-rule="evenodd"/><path d="M98.7636,97.6655c0-2.2131-1.8046-4.0176-4.0176-4.0176s-4.0175,1.8045-4.0175,4.0176v7.1164h8.0351v-7.1164Z" fill="#191919" fill-rule="evenodd"/><path d="M477.7648,80.0657c0-2.213-1.8048-4.0175-4.0178-4.0175s-4.0175,1.8046-4.0175,4.0175v7.1164h8.0353v-7.1164Z" fill="#191919" fill-rule="evenodd"/><path d="M477.7648,97.6898c0-2.213-1.8048-4.0175-4.0178-4.0175s-4.0175,1.8045-4.0175,4.0175v7.1161h8.0353v-7.1161Z" fill="#191919" fill-rule="evenodd"/><path d="M187.5861,80.0657c0-2.213-1.8045-4.0175-4.0175-4.0175s-4.0175,1.8046-4.0175,4.0175v7.1164h8.035v-7.1164Z" fill="#191919" fill-rule="evenodd"/><path d="M187.5861,97.6655c0-2.2131-1.8045-4.0176-4.0175-4.0176s-4.0175,1.8045-4.0175,4.0176v7.1164h8.035v-7.1164Z" fill="#191919" fill-rule="evenodd"/><path d="M566.587,80.0657c0-2.213-1.8045-4.0175-4.0175-4.0175s-4.0175,1.8046-4.0175,4.0175v7.1164h8.035v-7.1164Z" fill="#191919" fill-rule="evenodd"/><path d="M566.587,97.6898c0-2.213-1.8045-4.0175-4.0175-4.0175s-4.0175,1.8045-4.0175,4.0175v7.1161h8.035v-7.1161Z" fill="#191919" fill-rule="evenodd"/><path d="M113.5675,80.0657c0-2.213-1.8047-4.0175-4.0178-4.0175s-4.0176,1.8046-4.0176,4.0175v7.1164h8.0353v-7.1164Z" fill="#191919" fill-rule="evenodd"/><path d="M113.5675,97.6655c0-2.2131-1.8047-4.0176-4.0178-4.0176s-4.0176,1.8045-4.0176,4.0176v7.1164h8.0353v-7.1164Z" fill="#191919" fill-rule="evenodd"/><path d="M492.5685,80.0657c0-2.213-1.8046-4.0175-4.0176-4.0175s-4.0175,1.8046-4.0175,4.0175v7.1164h8.0351v-7.1164Z" fill="#191919" fill-rule="evenodd"/><path d="M492.5685,97.6898c0-2.213-1.8046-4.0175-4.0176-4.0175s-4.0175,1.8045-4.0175,4.0175v7.1161h8.0351v-7.1161Z" fill="#191919" fill-rule="evenodd"/><path d="M202.3897,80.0657c0-2.213-1.8045-4.0175-4.0175-4.0175s-4.0176,1.8046-4.0176,4.0175v7.1164h8.0351v-7.1164Z" fill="#191919" fill-rule="evenodd"/><path d="M202.3897,97.6655c0-2.2131-1.8045-4.0176-4.0175-4.0176s-4.0176,1.8045-4.0176,4.0176v7.1164h8.0351v-7.1164Z" fill="#191919" fill-rule="evenodd"/><path d="M581.3909,80.0657c0-2.213-1.8048-4.0175-4.0178-4.0175s-4.0175,1.8046-4.0175,4.0175v7.1164h8.0353v-7.1164Z" fill="#191919" fill-rule="evenodd"/><path d="M581.3909,97.6898c0-2.213-1.8048-4.0175-4.0178-4.0175s-4.0175,1.8045-4.0175,4.0175v7.1161h8.0353v-7.1161Z" fill="#191919" fill-rule="evenodd"/><path d="M128.3712,80.0657c0-2.213-1.8048-4.0175-4.0176-4.0175s-4.0178,1.8046-4.0178,4.0175v7.1164h8.0354v-7.1164Z" fill="#191919" fill-rule="evenodd"/><path d="M128.3712,97.6655c0-2.2131-1.8048-4.0176-4.0176-4.0176s-4.0178,1.8045-4.0178,4.0176v7.1164h8.0354v-7.1164Z" fill="#191919" fill-rule="evenodd"/><path d="M507.3721,80.0657c0-2.213-1.8046-4.0175-4.0176-4.0175s-4.0175,1.8046-4.0175,4.0175v7.1164h8.0351v-7.1164Z" fill="#191919" fill-rule="evenodd"/><path d="M507.3721,97.6898c0-2.213-1.8046-4.0175-4.0176-4.0175s-4.0175,1.8045-4.0175,4.0175v7.1161h8.0351v-7.1161Z" fill="#191919" fill-rule="evenodd"/><path d="M217.1937,80.0657c0-2.213-1.8048-4.0175-4.0178-4.0175s-4.0175,1.8046-4.0175,4.0175v7.1164h8.0353v-7.1164Z" fill="#191919" fill-rule="evenodd"/><path d="M217.1937,97.6655c0-2.2131-1.8048-4.0176-4.0178-4.0176s-4.0175,1.8045-4.0175,4.0176v7.1164h8.0353v-7.1164Z" fill="#191919" fill-rule="evenodd"/><path d="M596.1946,80.0657c0-2.213-1.8045-4.0175-4.0175-4.0175s-4.0178,1.8046-4.0178,4.0175v7.1164h8.0353v-7.1164Z" fill="#191919" fill-rule="evenodd"/><path d="M596.1946,97.6898c0-2.213-1.8045-4.0175-4.0175-4.0175s-4.0178,1.8045-4.0178,4.0175v7.1161h8.0353v-7.1161Z" fill="#191919" fill-rule="evenodd"/><path d="M143.1749,80.0657c0-2.213-1.8046-4.0175-4.0176-4.0175s-4.0175,1.8046-4.0175,4.0175v7.1164h8.0351v-7.1164Z" fill="#191919" fill-rule="evenodd"/><path d="M143.1749,97.6655c0-2.2131-1.8046-4.0176-4.0176-4.0176s-4.0175,1.8045-4.0175,4.0176v7.1164h8.0351v-7.1164Z" fill="#191919" fill-rule="evenodd"/><path d="M522.176,80.0657c0-2.213-1.8048-4.0175-4.0178-4.0175s-4.0175,1.8046-4.0175,4.0175v7.1164h8.0353v-7.1164Z" fill="#191919" fill-rule="evenodd"/><path d="M522.176,97.6898c0-2.213-1.8048-4.0175-4.0178-4.0175s-4.0175,1.8045-4.0175,4.0175v7.1161h8.0353v-7.1161Z" fill="#191919" fill-rule="evenodd"/><path d="M231.9973,80.0657c0-2.213-1.8048-4.0175-4.0175-4.0175s-4.0178,1.8046-4.0178,4.0175v7.1164h8.0353v-7.1164Z" fill="#191919" fill-rule="evenodd"/><path d="M231.9973,97.6655c0-2.2131-1.8048-4.0176-4.0175-4.0176s-4.0178,1.8045-4.0178,4.0176v7.1164h8.0353v-7.1164Z" fill="#191919" fill-rule="evenodd"/><path d="M610.9982,80.0657c0-2.213-1.8045-4.0175-4.0176-4.0175s-4.0175,1.8046-4.0175,4.0175v7.1164h8.035v-7.1164Z" fill="#191919" fill-rule="evenodd"/><path d="M610.9982,97.6898c0-2.213-1.8045-4.0175-4.0176-4.0175s-4.0175,1.8045-4.0175,4.0175v7.1161h8.035v-7.1161Z" fill="#191919" fill-rule="evenodd"/><path d="M245.9129,80.0657c0-2.213-1.8049-4.0175-4.0178-4.0175s-4.0176,1.8046-4.0176,4.0175v7.1164h8.0354v-7.1164Z" fill="#191919" fill-rule="evenodd"/><path d="M245.9129,97.6655c0-2.2131-1.8049-4.0176-4.0178-4.0176s-4.0176,1.8045-4.0176,4.0176v7.1164h8.0354v-7.1164Z" fill="#191919" fill-rule="evenodd"/><path d="M624.9139,80.0657c0-2.213-1.8046-4.0175-4.0176-4.0175s-4.0175,1.8046-4.0175,4.0175v7.1164h8.0352v-7.1164Z" fill="#191919" fill-rule="evenodd"/><path d="M624.9139,97.6898c0-2.213-1.8046-4.0175-4.0176-4.0175s-4.0175,1.8045-4.0175,4.0175v7.1161h8.0352v-7.1161Z" fill="#191919" fill-rule="evenodd"/><path d="M157.9785,80.0657c0-2.213-1.8046-4.0175-4.0176-4.0175s-4.0175,1.8046-4.0175,4.0175v7.1164h8.0351v-7.1164Z" fill="#191919" fill-rule="evenodd"/><path d="M157.9785,97.6655c0-2.2131-1.8046-4.0176-4.0176-4.0176s-4.0175,1.8045-4.0175,4.0176v7.1164h8.0351v-7.1164Z" fill="#191919" fill-rule="evenodd"/><path d="M536.9797,80.0657c0-2.213-1.8048-4.0175-4.0176-4.0175s-4.0177,1.8046-4.0177,4.0175v7.1164h8.0353v-7.1164Z" fill="#191919" fill-rule="evenodd"/><path d="M536.9797,97.6898c0-2.213-1.8048-4.0175-4.0176-4.0175s-4.0177,1.8045-4.0177,4.0175v7.1161h8.0353v-7.1161Z" fill="#191919" fill-rule="evenodd"/><path d="M79.9424,116.1989c-2.213,0-3.3029,1.6594-3.3029,4.3798v6.5316h6.541v-6.5316c0-2.7204-1.025-4.3798-3.238-4.3798Z" fill="#191919" fill-rule="evenodd"/><path d="M458.9433,116.1989c-2.213,0-3.3029,1.6594-3.3029,4.3798v6.5316h6.5409v-6.5316c0-2.7204-1.025-4.3798-3.238-4.3798Z" fill="#191919" fill-rule="evenodd"/><path d="M168.7646,116.1989c-2.2127,0-3.3029,1.6594-3.3029,4.3798v6.5316h6.5413v-6.5316c0-2.7204-1.0253-4.3798-3.2383-4.3798Z" fill="#191919" fill-rule="evenodd"/><path d="M547.7658,116.1989c-2.213,0-3.3029,1.6594-3.3029,4.3798v6.5316h6.5409v-6.5316c0-2.7204-1.025-4.3798-3.238-4.3798Z" fill="#191919" fill-rule="evenodd"/><path d="M57.4841,115.3363c-1.2347,0-2.2745.194-2.2745,2.8021v8.676h4.8002v-8.676c0-2.6082-1.291-2.8021-2.5257-2.8021Z" fill="#191919" fill-rule="evenodd"/><path d="M644.3473,115.3363c-1.2348,0-2.2745.4876-2.2745,2.7006v7.0385h4.8v-7.0385c0-2.213-1.2908-2.7006-2.5256-2.7006Z" fill="#191919" fill-rule="evenodd"/><path d="M665.4291,118.0369c0-2.213-1.2909-2.7006-2.5257-2.7006s-2.2745.4876-2.2745,2.7006v7.0385h4.8002v-7.0385Z" fill="#191919" fill-rule="evenodd"/><path d="M683.9853,118.0369c0-2.213-1.2906-2.7006-2.5256-2.7006s-2.2743.4876-2.2743,2.7006v7.0385h4.7999v-7.0385Z" fill="#191919" fill-rule="evenodd"/><path d="M39.3713,115.3363c-1.2348,0-2.2742.194-2.2742,2.8021v8.676h4.7999v-8.676c0-2.6082-1.2909-2.8021-2.5256-2.8021Z" fill="#191919" fill-rule="evenodd"/><path d="M20.3958,115.3363c-1.2347,0-2.2742.2892-2.2742,2.8973v8.5807h4.7999v-8.5807c0-2.6082-1.2906-2.8973-2.5257-2.8973Z" fill="#191919" fill-rule="evenodd"/><path d="M94.746,116.1989c-2.213,0-3.3029,1.6594-3.3029,4.3798v6.5316h6.541v-6.5316c0-2.7204-1.025-4.3798-3.238-4.3798Z" fill="#191919" fill-rule="evenodd"/><path d="M473.7469,116.1989c-2.2127,0-3.3029,1.6594-3.3029,4.3798v6.5316h6.541v-6.5316c0-2.7204-1.025-4.3798-3.238-4.3798Z" fill="#191919" fill-rule="evenodd"/><path d="M183.5685,116.1989c-2.213,0-3.3029,1.6594-3.3029,4.3798v6.5316h6.541v-6.5316c0-2.7204-1.025-4.3798-3.238-4.3798Z" fill="#191919" fill-rule="evenodd"/><path d="M562.5695,116.1989c-2.213,0-3.3029,1.6594-3.3029,4.3798v6.5316h6.541v-6.5316c0-2.7204-1.025-4.3798-3.238-4.3798Z" fill="#191919" fill-rule="evenodd"/><path d="M109.5497,116.1989c-2.2128,0-3.303,1.6594-3.303,4.3798v6.5316h6.541v-6.5316c0-2.7204-1.025-4.3798-3.238-4.3798Z" fill="#191919" fill-rule="evenodd"/><path d="M488.5509,116.1989c-2.213,0-3.3029,1.6594-3.3029,4.3798v6.5316h6.541v-6.5316c0-2.7204-1.025-4.3798-3.238-4.3798Z" fill="#191919" fill-rule="evenodd"/><path d="M198.3722,116.1989c-2.213,0-3.3029,1.6594-3.3029,4.3798v6.5316h6.541v-6.5316c0-2.7204-1.025-4.3798-3.238-4.3798Z" fill="#191919" fill-rule="evenodd"/><path d="M577.3731,116.1989c-2.2126,0-3.3029,1.6594-3.3029,4.3798v6.5316h6.5409v-6.5316c0-2.7204-1.025-4.3798-3.238-4.3798Z" fill="#191919" fill-rule="evenodd"/><path d="M124.3536,116.1989c-2.213,0-3.3032,1.6594-3.3032,4.3798v6.5316h6.5413v-6.5316c0-2.7204-1.0253-4.3798-3.238-4.3798Z" fill="#191919" fill-rule="evenodd"/><path d="M503.3546,116.1989c-2.213,0-3.3029,1.6594-3.3029,4.3798v6.5316h6.5409v-6.5316c0-2.7204-1.025-4.3798-3.238-4.3798Z" fill="#191919" fill-rule="evenodd"/><path d="M213.1758,116.1989c-2.2127,0-3.3029,1.6594-3.3029,4.3798v6.5316h6.541v-6.5316c0-2.7204-1.025-4.3798-3.238-4.3798Z" fill="#191919" fill-rule="evenodd"/><path d="M592.1771,116.1989c-2.213,0-3.3032,1.6594-3.3032,4.3798v6.5316h6.5412v-6.5316c0-2.7204-1.025-4.3798-3.238-4.3798Z" fill="#191919" fill-rule="evenodd"/><path d="M139.1573,116.1989c-2.213,0-3.3029,1.6594-3.3029,4.3798v6.5316h6.541v-6.5316c0-2.7204-1.025-4.3798-3.238-4.3798Z" fill="#191919" fill-rule="evenodd"/><path d="M518.1582,116.1989c-2.213,0-3.3029,1.6594-3.3029,4.3798v6.5316h6.541v-6.5316c0-2.7204-1.025-4.3798-3.238-4.3798Z" fill="#191919" fill-rule="evenodd"/><path d="M227.9798,116.1989c-2.213,0-3.3032,1.6594-3.3032,4.3798v6.5316h6.5413v-6.5316c0-2.7204-1.0253-4.3798-3.238-4.3798Z" fill="#191919" fill-rule="evenodd"/><path d="M606.9807,116.1989c-2.2129,0-3.3029,1.6594-3.3029,4.3798v6.5316h6.541v-6.5316c0-2.7204-1.025-4.3798-3.2381-4.3798Z" fill="#191919" fill-rule="evenodd"/><path d="M241.8951,116.1989c-2.2127,0-3.303,1.6594-3.303,4.3798v6.5316h6.541v-6.5316c0-2.7204-1.0251-4.3798-3.238-4.3798Z" fill="#191919" fill-rule="evenodd"/><path d="M620.8962,116.1989c-2.213,0-3.3029,1.6594-3.3029,4.3798v6.5316h6.541v-6.5316c0-2.7204-1.0251-4.3798-3.2381-4.3798Z" fill="#191919" fill-rule="evenodd"/><path d="M153.9609,116.1989c-2.213,0-3.3029,1.6594-3.3029,4.3798v6.5316h6.541v-6.5316c0-2.7204-1.025-4.3798-3.238-4.3798Z" fill="#191919" fill-rule="evenodd"/><path d="M532.9621,116.1989c-2.213,0-3.3032,1.6594-3.3032,4.3798v6.5316h6.5413v-6.5316c0-2.7204-1.0253-4.3798-3.238-4.3798Z" fill="#191919" fill-rule="evenodd"/><path d="M374.2451,111.875c-5.498,0-10.1377,3.9023-11.127,9.21h-.915c-.9902-5.3076-5.6309-9.21-11.1279-9.21s-10.1367,3.9023-11.127,9.21l-.9155-.002c-.9897-5.3057-5.6304-9.208-11.1274-9.208-5.4009,0-10.1284,3.9951-11.1255,9.2412l-2.4272-.0029-.002,1.916,4.1118.0049.0938-.8545c.5151-4.7041,4.6216-8.3887,9.3491-8.3887,4.73,0,8.8364,3.6689,9.3491,8.3525l.0933.8516,4.2852.0078.0933-.8545c.5122-4.6865,4.6187-8.3574,9.3491-8.3574s8.8369,3.6699,9.3496,8.3564l.0938.8535h4.2852l.0928-.8545c.5117-4.6855,4.6182-8.3555,9.3486-8.3555s8.8369,3.6699,9.3496,8.3564l.0938.8525,4.0215.0039.002-1.916-2.3389-.002c-.9893-5.3076-5.6299-9.2109-11.1279-9.2109Z" fill="#191919" fill-rule="evenodd"/><path d="M34.9833,160.1857h-7.5888c.1465.4459.223.6876.223.7259,0,.0763-.0192.1718-.0575.2801-.0128.0255-.019.0445-.019.0573l-5.7106,16.8075c-.4266,1.2413-.8277,2.8839-1.2033,4.9211-.3376-1.891-.7384-3.5333-1.2161-4.9277l-5.7933-16.801c-.0193-.07-.0255-.159-.0255-.261,0-.2611.089-.5284.28-.8022h-7.5377c1.2415,1.1205,1.8654,2.6166,1.8654,4.4948v17.4566c0,1.9164-.6239,3.4315-1.8654,4.5521h6.9203c-1.2543-1.1333-1.8847-2.6484-1.8847-4.5521v-14.6937c0-1.7697-.1335-3.234-.4073-4.4055.4073,1.5281.866,3.037,1.3751,4.5138l5.9527,17.2721c.0955.2866.1465.6304.1465,1.025,0,.3376-.0256.6177-.0701.8405h4.2845c-.051-.1465-.0765-.4266-.0765-.8405,0-.3946.051-.7384.1531-1.025l5.9144-17.2721c.4711-1.394.9295-2.8967,1.3813-4.5138-.21,1.407-.3183,2.8715-.3183,4.4055v14.6937c0,1.9164-.6239,3.4315-1.8652,4.5521h7.1429c-1.2158-1.095-1.8272-2.6101-1.8272-4.5521v-17.4566c0-1.9037.6115-3.3998,1.8272-4.4948Z" fill="#191919" fill-rule="evenodd"/><path d="M80.9843,157.4991l4.119-3.5268c.7832-.6749,1.1778-1.2798,1.1778-1.821,0-.9102-.4456-1.3688-1.324-1.3688-.6494,0-1.2671.4777-1.8465,1.4261l-3.2467,5.2905h1.1205Z" fill="#191919" fill-rule="evenodd"/><path d="M79.5645,150.7825c-.6746,0-1.2668.5349-1.7889,1.6044l-2.4828,5.1122h1.1395l3.4698-3.6224c.6684-.6939,1.0057-1.2733,1.0057-1.7316,0-.3501-.14-.6622-.4138-.9422-.2736-.2801-.5792-.4204-.9295-.4204Z" fill="#191919" fill-rule="evenodd"/><path d="M83.9955,164.6805v12.8348c0,2.3362-.3373,3.9789-1.0057,4.9211-.8087,1.1333-2.3176,1.6999-4.5331,1.6999-2.1963,0-3.7051-.5666-4.5263-1.6999-.6942-.955-1.0443-2.5976-1.0443-4.9211v-12.8348c0-1.8782.6239-3.3743,1.8654-4.4948h-7.2577c1.2413,1.1205,1.8652,2.6166,1.8652,4.4948v12.5737c0,3.355.4331,5.6596,1.3053,6.9202,1.4069,2.0375,3.9472,3.056,7.6268,3.056,3.6671,0,6.2264-1.0185,7.6843-3.056.8722-1.2223,1.305-3.5269,1.305-6.9202v-12.5737c0-1.9037.6115-3.3998,1.8337-4.4948h-6.9966c1.254,1.1332,1.8779,2.6293,1.8779,4.4948Z" fill="#191919" fill-rule="evenodd"/><path d="M137.3433,182.9586c-1.3558.6556-3.3423.9867-5.9524.9867-1.4261,0-2.4448-.1465-3.056-.4456-.9105-.4521-1.3623-1.2925-1.3623-2.5338v-6.8439h4.7366c2.139,0,3.7944.7894,4.9594,2.3618v-7.5123c-1.165,1.5789-2.8204,2.3683-4.9594,2.3683h-4.7366v-5.6533c0-1.127.4138-1.91,1.2478-2.3493.5729-.2993,1.5089-.4456,2.8011-.4456,2.3621,0,4.24.3246,5.6278.9677,1.7189.783,2.9987,2.1518,3.8454,4.1063v-8.6966c-.8594.6111-1.7254.9167-2.5976.9167h-16.3171c1.2415,1.1205,1.8654,2.6166,1.8654,4.4948v17.4566c0,1.9164-.6239,3.4315-1.8654,4.5521h16.9157c1.0568,0,1.9927.2928,2.8011.8784v-9.0083c-1.006,2.1454-2.3238,3.6161-3.9537,4.3993Z" fill="#191919" fill-rule="evenodd"/><path d="M190.7551,177.3243v2.4445c0,1.4833-.6242,2.6359-1.8655,3.4698-1.0822.7194-2.4,1.0823-3.9537,1.0823-2.5463,0-4.4373-1.1968-5.6661-3.5971-.9612-1.8652-1.4388-4.2083-1.4388-7.0156,0-2.8967.4776-5.3033,1.4388-7.2198,1.2543-2.5018,3.1898-3.7496,5.7999-3.7496,1.9862,0,3.7054.7067,5.1439,2.1262.9998.9805,2.0693,2.5784,3.2088,4.7939v-10.1989c-.7829.6812-1.5596,1.025-2.33,1.025-.6367,0-1.5854-.14-2.8522-.4201-1.267-.2803-2.2283-.4203-2.8712-.4203-3.9537,0-6.8948,1.4833-8.8238,4.4565-1.6044,2.4766-2.4066,5.7999-2.4066,9.9826,0,8.7665,3.6796,13.1466,11.0394,13.1466.7512,0,1.84-.1718,3.285-.5222,1.4451-.35,2.5211-.5219,3.2468-.5219,1.006,0,1.8719.4584,2.5914,1.3813v-10.2433c0-2.1393.3436-3.6481,1.025-4.5328h-6.8248c1.5023,1.1078,2.2538,2.6229,2.2538,4.5328Z" fill="#191919" fill-rule="evenodd"/><path d="M242.4922,161.9366c0,.5729-.2548,1.3623-.7704,2.3683l-4.7749,9.435-4.6601-9.435c-.4838-.9805-.7256-1.7699-.7256-2.3683,0-.5856.2801-1.165.8402-1.7509h-7.2578c1.0443,1.0443,1.9355,2.2603,2.6677,3.6544l7.1812,13.637v4.6601c0,1.9164-.6239,3.4315-1.8651,4.5521h7.2577c-1.2161-1.095-1.8272-2.6101-1.8272-4.5521v-4.8511l7.1429-13.4459c.7194-1.3561,1.6171-2.5718,2.6993-3.6544h-6.8056c.5984.6238.8978,1.2032.8978,1.7509Z" fill="#191919" fill-rule="evenodd"/><path d="M294.2545,182.9586c-1.3558.6556-3.3423.9867-5.9524.9867-1.4261,0-2.4448-.1465-3.056-.4456-.9105-.4521-1.3623-1.2925-1.3623-2.5338v-6.8439h4.7366c2.139,0,3.7944.7894,4.9594,2.3618v-7.5123c-1.165,1.5789-2.8204,2.3683-4.9594,2.3683h-4.7366v-5.6533c0-1.127.4139-1.91,1.2478-2.3493.5729-.2993,1.5089-.4456,2.8011-.4456,2.3621,0,4.24.3246,5.6278.9677,1.7189.783,2.9987,2.1518,3.8455,4.1063v-8.6966c-.8595.6111-1.7255.9167-2.5977.9167h-16.3171c1.2416,1.1205,1.8655,2.6166,1.8655,4.4948v17.4566c0,1.9164-.6239,3.4315-1.8655,4.5521h16.9158c1.0568,0,1.9927.2928,2.8011.8784v-9.0083c-1.006,2.1454-2.3238,3.6161-3.9537,4.3993Z" fill="#191919" fill-rule="evenodd"/><path d="M332.2722,160.1857c-.6367,0-1.2988-.3056-1.98-.9167v9.626c1.1906-4.0555,3.215-6.08,6.061-6.08,1.4068,0,2.1072.8277,2.1072,2.4831v16.839c0,1.942-.6111,3.4571-1.8272,4.5521h7.2195c-1.2161-1.095-1.8272-2.6101-1.8272-4.5521v-16.839c0-1.6554.7067-2.4831,2.1265-2.4831,2.8712,0,4.8829,2.0245,6.0417,6.08v-9.626c-.6622.6111-1.3243.9167-1.9927.9167h-15.9288Z" fill="#191919" fill-rule="evenodd"/><path d="M397.7288,182.9586c-1.3558.6556-3.3423.9867-5.9524.9867-1.4261,0-2.4448-.1465-3.056-.4456-.9105-.4521-1.3623-1.2925-1.3623-2.5338v-6.8439h4.7366c2.139,0,3.7944.7894,4.9594,2.3618v-7.5123c-1.165,1.5789-2.8204,2.3683-4.9594,2.3683h-4.7366v-5.6533c0-1.127.4138-1.91,1.2478-2.3493.5729-.2993,1.5089-.4456,2.8011-.4456,2.3621,0,4.24.3246,5.6278.9677,1.7189.783,2.9987,2.1518,3.8454,4.1063v-8.6966c-.8594.6111-1.7254.9167-2.5976.9167h-16.3171c1.2415,1.1205,1.8654,2.6166,1.8654,4.4948v17.4566c0,1.9164-.6239,3.4315-1.8654,4.5521h16.9157c1.0568,0,1.9927.2928,2.8012.8784v-9.0083c-1.006,2.1454-2.3239,3.6161-3.9537,4.3993Z" fill="#191919" fill-rule="evenodd"/><path d="M463.3957,160.1857h-7.5888c.1465.4459.2231.6876.2231.7259,0,.0763-.0193.1718-.0576.2801-.0128.0255-.019.0445-.019.0573l-5.7106,16.8075c-.4266,1.2413-.8277,2.8839-1.2033,4.9211-.3376-1.891-.7384-3.5333-1.2161-4.9277l-5.7933-16.801c-.0192-.07-.0255-.159-.0255-.261,0-.2611.0891-.5284.2801-.8022h-7.5378c1.2416,1.1205,1.8654,2.6166,1.8654,4.4948v17.4566c0,1.9164-.6238,3.4315-1.8654,4.5521h6.9203c-1.2543-1.1333-1.8847-2.6484-1.8847-4.5521v-14.6937c0-1.7697-.1335-3.234-.4073-4.4055.4073,1.5281.866,3.037,1.3751,4.5138l5.9527,17.2721c.0955.2866.1465.6304.1465,1.025,0,.3376-.0255.6177-.07.8405h4.2845c-.051-.1465-.0765-.4266-.0765-.8405,0-.3946.051-.7384.1531-1.025l5.9144-17.2721c.4711-1.394.9295-2.8967,1.3813-4.5138-.2101,1.407-.3184,2.8715-.3184,4.4055v14.6937c0,1.9164-.6238,3.4315-1.8652,4.5521h7.1429c-1.2158-1.095-1.8272-2.6101-1.8272-4.5521v-17.4566c0-1.9037.6115-3.3998,1.8272-4.4948Z" fill="#191919" fill-rule="evenodd"/><path d="M534.5971,162.5923c0-1.1585.1339-2.139.3949-2.9477h-3.355c.2484.5731.3691,1.1906.3691,1.8654,0,2.4256-1.0823,3.6351-3.2468,3.6351-.6049,0-1.2733-.1653-1.9927-.5029v3.8961c.5094-.4073,1.1588-.6111,1.9545-.6111h2.4066v14.2099c0,1.942-.6112,3.4571-1.8272,4.5521h7.1494c-1.235-1.1077-1.8527-2.6229-1.8527-4.5521v-19.5449Z" fill="#191919" fill-rule="evenodd"/><path d="M574.8621,159.3073v9.4605c2.1517-4.1445,5.4116-6.2137,9.7725-6.2137,2.139,0,3.2085.6622,3.2085,1.98,0,.3948-.1083.9042-.3311,1.5281l-4.8193,13.3694c-1.1331,3.145-2.5591,5.5643-4.2845,7.2577h8.0726c-.8911-.8977-1.3433-1.8527-1.3433-2.8712,0-.7449.21-1.6871.6174-2.8204l5.5388-15.3111c.8215-2.2731,1.9165-4.1065,3.2853-5.5008h-16.8837c-.9932,0-1.9355-.2928-2.8332-.8785Z" fill="#191919" fill-rule="evenodd"/><path d="M640.758,172.3266c2.2856-1.0568,3.4316-2.916,3.4316-5.5771,0-2.4511-.9167-4.2908-2.7439-5.5195-1.5662-1.057-3.6289-1.5854-6.1883-1.5854-2.5528,0-4.6093.5284-6.1754,1.5854-1.8144,1.2413-2.7249,3.0812-2.7249,5.5195,0,2.6739,1.1333,4.5331,3.3933,5.5771-2.9602,1.2223-4.4373,3.4698-4.4373,6.7548,0,2.7946.9932,4.8956,2.986,6.3027,1.7251,1.2285,4.0489,1.8462,6.9583,1.8462s5.2332-.6111,6.9711-1.8272c1.9928-1.4196,2.986-3.5271,2.986-6.3217,0-3.285-1.4833-5.5325-4.4565-6.7548ZM631.5269,163.4262c.9422-.6556,2.1835-.9867,3.7306-.9867,1.5534,0,2.8012.3311,3.7433.9867,1.095.7577,1.6427,1.8782,1.6427,3.3616,0,1.5026-.5411,2.6421-1.6234,3.4123-.9421.6814-2.1965,1.025-3.7626,1.025-1.5533,0-2.8076-.3436-3.7499-1.025-1.0695-.7702-1.6044-1.9097-1.6044-3.4123,0-1.4833.5414-2.6039,1.6237-3.3616ZM639.7458,183.2386c-1.114.7957-2.6166,1.1968-4.4883,1.1968-1.8782,0-3.3805-.4011-4.4944-1.1968-1.2799-.9039-1.9228-2.26-1.9228-4.0617,0-1.8082.6495-3.1642,1.9417-4.0682,1.1012-.7832,2.5974-1.1778,4.4755-1.1778,1.8589,0,3.355.4011,4.4694,1.1968,1.2923.9042,1.9417,2.2538,1.9417,4.0492,0,1.8017-.6432,3.1578-1.9227,4.0617Z" fill="#191919" fill-rule="evenodd"/><path d="M692.3613,182.4937c-1.2222,1.0695-3.3358,1.6044-6.3407,1.6044-1.4199,0-2.3555-.051-2.8204-.1465-1.1522-.2545-1.7316-.8401-1.7316-1.7761,0-.8467.452-1.77,1.3623-2.7756,2.4703-2.0565,4.2527-3.5081,5.3353-4.3676l.108-.0955c1.5917-1.2923,2.7887-2.2601,3.5972-2.9095,1.0122-.8084,1.6298-1.4068,1.8655-1.8079.7573-1.2416,1.1394-2.5784,1.1394-4.011,0-2.1262-.7004-3.7816-2.1072-4.9594-1.3179-1.095-3.056-1.6424-5.2205-1.6424-.7704,0-1.9162.1528-3.4443.4584-1.5216.3056-2.6546.4584-3.3995.4584-1.0188,0-1.91-.3566-2.6677-1.0633v9.8806c2.4001-4.5263,5.4243-6.7866,9.0787-6.7866,1.2413,0,2.2407.2993,2.9857.8977.8215.6432,1.2288,1.5789,1.2288,2.7949,0,1.4071-.8021,2.7567-2.4066,4.049-2.9667,2.2728-5.0485,3.8326-6.2262,4.6603-3.6671,2.8011-5.5005,6.4045-5.5005,10.8228,0,.3121.0189.7767.0573,1.3943.0127.0383.0189.0828.0189.1338.5601-.4139,1.2416-.6177,2.05-.6177h14.0632c.8215,0,1.5981.2928,2.3303.8784v-10.8038c-1.1904,2.9032-2.311,4.8066-3.3553,5.7299Z" fill="#191919" fill-rule="evenodd"/></svg>