<svg width="707" height="199" viewBox="0 0 707 199" fill="none" xmlns="http://www.w3.org/2000/svg">
<path fill-rule="evenodd" clip-rule="evenodd" d="M16.2148 83.5341V92.0146H19.5508V83.5341C18.5332 82.9033 17.2329 82.9033 16.2148 83.5341Z" fill="#1A1A1A"/>
<path fill-rule="evenodd" clip-rule="evenodd" d="M25.8071 83.5339V92.0144H22.4707V83.5339C23.4892 82.9041 24.7881 82.9041 25.8071 83.5339Z" fill="#1A1A1A"/>
<path fill-rule="evenodd" clip-rule="evenodd" d="M16.041 103.1V113.462H19.7251V103.1L19.7246 103.101C18.6006 102.38 17.165 102.379 16.041 103.1Z" fill="#1A1A1A"/>
<path fill-rule="evenodd" clip-rule="evenodd" d="M25.6333 103.1V113.462H21.9492V103.1L21.9497 103.101C23.0747 102.382 24.5088 102.381 25.6333 103.1Z" fill="#1A1A1A"/>
<path fill-rule="evenodd" clip-rule="evenodd" d="M16.041 124.63V134.104H19.7251V124.63C18.5845 123.976 17.1816 123.976 16.041 124.63Z" fill="#1A1A1A"/>
<path fill-rule="evenodd" clip-rule="evenodd" d="M21.9492 124.63V134.104H25.6333V124.63C24.4927 123.976 23.0898 123.976 21.9492 124.63Z" fill="#1A1A1A"/>
<path fill-rule="evenodd" clip-rule="evenodd" d="M40.5439 124.63V134.104H44.228V124.63C43.0874 123.976 41.6846 123.976 40.5439 124.63Z" fill="#1A1A1A"/>
<path fill-rule="evenodd" clip-rule="evenodd" d="M34.6348 124.63V134.104H38.3188V124.63C37.1782 123.976 35.7759 123.976 34.6348 124.63Z" fill="#1A1A1A"/>
<path fill-rule="evenodd" clip-rule="evenodd" d="M53.2295 124.63V134.104H56.9131V124.63C55.7725 123.976 54.3701 123.976 53.2295 124.63Z" fill="#1A1A1A"/>
<path fill-rule="evenodd" clip-rule="evenodd" d="M59.1377 124.63V134.104H62.8218V124.63C61.6812 123.976 60.2783 123.976 59.1377 124.63Z" fill="#1A1A1A"/>
<path fill-rule="evenodd" clip-rule="evenodd" d="M44.228 103.1V113.462H40.5439V103.1C41.6689 102.381 43.103 102.382 44.2275 103.101L44.228 103.1Z" fill="#1A1A1A"/>
<path fill-rule="evenodd" clip-rule="evenodd" d="M34.6348 103.1V113.462H38.3188V103.1L38.3183 103.101C37.1948 102.38 35.7588 102.379 34.6348 103.1Z" fill="#1A1A1A"/>
<path fill-rule="evenodd" clip-rule="evenodd" d="M34.8086 83.5341V92.0146H38.145V83.5341C37.1269 82.9033 35.8266 82.9033 34.8086 83.5341Z" fill="#1A1A1A"/>
<path fill-rule="evenodd" clip-rule="evenodd" d="M44.401 83.5339V92.0144H41.0645V83.5339C42.0836 82.9041 43.3824 82.9041 44.401 83.5339Z" fill="#1A1A1A"/>
<path fill-rule="evenodd" clip-rule="evenodd" d="M62.8218 103.1V113.462H59.1377V103.1C60.2627 102.381 61.6968 102.382 62.8213 103.101L62.8218 103.1Z" fill="#1A1A1A"/>
<path fill-rule="evenodd" clip-rule="evenodd" d="M53.2295 103.1V113.462H56.9131V103.1C55.7895 102.379 54.353 102.379 53.2295 103.1Z" fill="#1A1A1A"/>
<path fill-rule="evenodd" clip-rule="evenodd" d="M53.4033 83.5341V92.0146H56.7397V83.5341C55.7217 82.9033 54.4214 82.9033 53.4033 83.5341Z" fill="#1A1A1A"/>
<path fill-rule="evenodd" clip-rule="evenodd" d="M62.9946 83.5339V92.0144H59.6582V83.5339C60.6772 82.9041 61.9761 82.9041 62.9946 83.5339Z" fill="#1A1A1A"/>
<path fill-rule="evenodd" clip-rule="evenodd" d="M19.7603 146.894H16.3545V141.054H19.7603V146.894Z" fill="#1A1A1A"/>
<path fill-rule="evenodd" clip-rule="evenodd" d="M38.354 146.894H34.9482V141.054H38.354V146.894Z" fill="#1A1A1A"/>
<path fill-rule="evenodd" clip-rule="evenodd" d="M56.9482 146.894H53.542V141.054H56.9482V146.894Z" fill="#1A1A1A"/>
<path fill-rule="evenodd" clip-rule="evenodd" d="M62.8564 146.894H59.1025V141.054H62.8564V146.894Z" fill="#1A1A1A"/>
<path fill-rule="evenodd" clip-rule="evenodd" d="M44.2627 146.894H40.5088V141.054H44.2627V146.894Z" fill="#1A1A1A"/>
<path fill-rule="evenodd" clip-rule="evenodd" d="M25.6685 146.894H21.915V141.054H25.6685V146.894Z" fill="#1A1A1A"/>
<path fill-rule="evenodd" clip-rule="evenodd" d="M16.251 62.7979H18.2666V67.2462H16.251V62.7979Z" fill="#1A1A1A"/>
<path fill-rule="evenodd" clip-rule="evenodd" d="M19.8037 62.7979H21.8193V67.2462H19.8037V62.7979Z" fill="#1A1A1A"/>
<path fill-rule="evenodd" clip-rule="evenodd" d="M23.3574 62.7979H25.3735V67.2462H23.3574V62.7979Z" fill="#1A1A1A"/>
<path fill-rule="evenodd" clip-rule="evenodd" d="M34.8955 62.7979H36.9111V67.2462H34.8955V62.7979Z" fill="#1A1A1A"/>
<path fill-rule="evenodd" clip-rule="evenodd" d="M38.4482 62.7979H40.4643V67.2462H38.4482V62.7979Z" fill="#1A1A1A"/>
<path fill-rule="evenodd" clip-rule="evenodd" d="M41.9512 62.7979H43.9668V67.2462H41.9512V62.7979Z" fill="#1A1A1A"/>
<path fill-rule="evenodd" clip-rule="evenodd" d="M53.4893 62.7979H55.505V67.2462H53.4893V62.7979Z" fill="#1A1A1A"/>
<path fill-rule="evenodd" clip-rule="evenodd" d="M57.043 62.7979H59.0586V67.2462H57.043V62.7979Z" fill="#1A1A1A"/>
<path fill-rule="evenodd" clip-rule="evenodd" d="M60.5957 62.7979H62.6113V67.2462H60.5957V62.7979Z" fill="#1A1A1A"/>
<path fill-rule="evenodd" clip-rule="evenodd" d="M71.1797 83.5545V91.9177H79.2778V83.5545C76.8198 81.9968 73.6377 81.9968 71.1797 83.5545Z" fill="#1A1A1A"/>
<path fill-rule="evenodd" clip-rule="evenodd" d="M78.4951 103.15C76.5015 101.873 73.956 101.873 71.9624 103.15L71.9619 103.149V113.494H78.4956V103.149L78.4951 103.15Z" fill="#1A1A1A"/>
<path fill-rule="evenodd" clip-rule="evenodd" d="M78.4956 124.739C76.4995 123.483 73.958 123.483 71.9619 124.739V134.104H78.4956V124.739Z" fill="#1A1A1A"/>
<path fill-rule="evenodd" clip-rule="evenodd" d="M94.3091 103.15C92.3149 101.873 89.7695 101.873 87.7759 103.15L87.7754 103.149V113.494H94.3091V103.15Z" fill="#1A1A1A"/>
<path fill-rule="evenodd" clip-rule="evenodd" d="M86.9941 83.5545V91.9177H95.0918V83.5545C92.6338 81.9968 89.4526 81.9968 86.9941 83.5545Z" fill="#1A1A1A"/>
<path fill-rule="evenodd" clip-rule="evenodd" d="M94.3091 124.739C92.313 123.483 89.7715 123.483 87.7754 124.739V134.104H94.3091V124.739Z" fill="#1A1A1A"/>
<path fill-rule="evenodd" clip-rule="evenodd" d="M110.122 103.15C108.128 101.873 105.583 101.873 103.589 103.15L103.589 103.149V113.494H110.123V103.149L110.122 103.15Z" fill="#1A1A1A"/>
<path fill-rule="evenodd" clip-rule="evenodd" d="M102.807 83.5545V91.9177H110.905V83.5545C108.447 81.9968 105.265 81.9968 102.807 83.5545Z" fill="#1A1A1A"/>
<path fill-rule="evenodd" clip-rule="evenodd" d="M110.123 124.739C108.126 123.483 105.585 123.483 103.589 124.739L103.589 134.104H110.123V124.739Z" fill="#1A1A1A"/>
<path fill-rule="evenodd" clip-rule="evenodd" d="M125.936 103.15C123.942 101.873 121.397 101.873 119.403 103.15L119.402 103.149V113.494H125.937V103.149L125.936 103.15Z" fill="#1A1A1A"/>
<path fill-rule="evenodd" clip-rule="evenodd" d="M118.621 83.5545V91.9177H126.719V83.5545C124.26 81.9968 121.08 81.9968 118.621 83.5545Z" fill="#1A1A1A"/>
<path fill-rule="evenodd" clip-rule="evenodd" d="M125.937 124.739C123.94 123.483 121.399 123.483 119.402 124.739V134.104H125.937V124.739Z" fill="#1A1A1A"/>
<path fill-rule="evenodd" clip-rule="evenodd" d="M141.75 103.15C139.755 101.873 137.21 101.873 135.216 103.15L135.216 103.149V113.494H141.75V103.15Z" fill="#1A1A1A"/>
<path fill-rule="evenodd" clip-rule="evenodd" d="M134.435 83.5545V91.9177H142.533V83.5545C140.075 81.9968 136.893 81.9968 134.435 83.5545Z" fill="#1A1A1A"/>
<path fill-rule="evenodd" clip-rule="evenodd" d="M141.75 124.739C139.754 123.483 137.212 123.483 135.216 124.739L135.216 134.104H141.75V124.739Z" fill="#1A1A1A"/>
<path fill-rule="evenodd" clip-rule="evenodd" d="M157.564 103.15C155.57 101.873 153.025 101.873 151.031 103.15L151.03 103.149V113.494H157.564V103.15Z" fill="#1A1A1A"/>
<path fill-rule="evenodd" clip-rule="evenodd" d="M150.248 83.5545V91.9177H158.346V83.5545C155.888 81.9968 152.706 81.9968 150.248 83.5545Z" fill="#1A1A1A"/>
<path fill-rule="evenodd" clip-rule="evenodd" d="M157.564 124.739C155.568 123.483 153.027 123.483 151.031 124.739L151.03 134.104H157.564V124.739Z" fill="#1A1A1A"/>
<path fill-rule="evenodd" clip-rule="evenodd" d="M173.377 103.15C171.383 101.873 168.838 101.873 166.844 103.15L166.844 103.149V113.494H173.378V103.149L173.377 103.15Z" fill="#1A1A1A"/>
<path fill-rule="evenodd" clip-rule="evenodd" d="M166.062 83.5545V91.9177H174.159V83.5545C171.701 81.9968 168.52 81.9968 166.062 83.5545Z" fill="#1A1A1A"/>
<path fill-rule="evenodd" clip-rule="evenodd" d="M173.377 124.739C171.381 123.483 168.84 123.483 166.844 124.739V134.104H173.378L173.377 124.739Z" fill="#1A1A1A"/>
<path fill-rule="evenodd" clip-rule="evenodd" d="M189.191 103.15C187.197 101.873 184.652 101.873 182.658 103.15L182.657 103.149V113.494H189.191V103.15Z" fill="#1A1A1A"/>
<path fill-rule="evenodd" clip-rule="evenodd" d="M181.875 83.5545V91.9177H189.973V83.5545C187.515 81.9968 184.332 81.9968 181.875 83.5545Z" fill="#1A1A1A"/>
<path fill-rule="evenodd" clip-rule="evenodd" d="M189.191 124.739C187.195 123.483 184.654 123.483 182.658 124.739L182.657 134.104H189.191V124.739Z" fill="#1A1A1A"/>
<path fill-rule="evenodd" clip-rule="evenodd" d="M205.004 103.15C203.01 101.873 200.465 101.873 198.471 103.15V113.494H205.004V103.149L205.004 103.15Z" fill="#1A1A1A"/>
<path fill-rule="evenodd" clip-rule="evenodd" d="M197.688 83.5545V91.9177H205.786V83.5545C203.329 81.9968 200.146 81.9968 197.688 83.5545Z" fill="#1A1A1A"/>
<path fill-rule="evenodd" clip-rule="evenodd" d="M205.004 124.739C203.008 123.483 200.467 123.483 198.471 124.739V134.104H205.004L205.004 124.739Z" fill="#1A1A1A"/>
<path fill-rule="evenodd" clip-rule="evenodd" d="M220.817 103.15C218.823 101.873 216.278 101.873 214.284 103.15V113.494H220.818V103.149L220.817 103.15Z" fill="#1A1A1A"/>
<path fill-rule="evenodd" clip-rule="evenodd" d="M213.502 83.5545V91.9177H221.6V83.5545C219.142 81.9968 215.959 81.9968 213.502 83.5545Z" fill="#1A1A1A"/>
<path fill-rule="evenodd" clip-rule="evenodd" d="M220.817 124.739C218.821 123.483 216.28 123.483 214.284 124.739V134.104H220.818L220.817 124.739Z" fill="#1A1A1A"/>
<path fill-rule="evenodd" clip-rule="evenodd" d="M236.631 103.15C234.637 101.873 232.092 101.873 230.098 103.15L230.098 103.149V113.494H236.631V103.149L236.631 103.15Z" fill="#1A1A1A"/>
<path fill-rule="evenodd" clip-rule="evenodd" d="M229.315 83.5545V91.9177H237.414V83.5545C234.956 81.9968 231.773 81.9968 229.315 83.5545Z" fill="#1A1A1A"/>
<path fill-rule="evenodd" clip-rule="evenodd" d="M236.631 124.739C234.635 123.483 232.094 123.483 230.098 124.739V134.104H236.631V124.739Z" fill="#1A1A1A"/>
<path fill-rule="evenodd" clip-rule="evenodd" d="M252.445 103.15C250.451 101.873 247.905 101.873 245.911 103.15V113.494H252.445V103.149L252.445 103.15Z" fill="#1A1A1A"/>
<path fill-rule="evenodd" clip-rule="evenodd" d="M245.129 83.5545V91.9177H253.228V83.5545H253.227C250.769 81.9968 247.587 81.9968 245.129 83.5545Z" fill="#1A1A1A"/>
<path fill-rule="evenodd" clip-rule="evenodd" d="M252.445 124.739C250.448 123.483 247.907 123.483 245.911 124.739V134.104H252.445L252.445 124.739Z" fill="#1A1A1A"/>
<path fill-rule="evenodd" clip-rule="evenodd" d="M69.6787 65.4345L69.6803 60.5429H69.8096V59.1709L70.7672 59.1699V57.8701L69.2286 57.4277V53.5214L68.8867 53.3164C68.8311 52.9414 68.5522 51.665 67.3896 50.2675L256.37 50.2666L256.369 51.0468H256.76V57.7548H256.217L256.216 59.3173L255.869 59.3183L255.872 61.7412L252.194 62.6289V64.25H254.682L254.681 65.4443H251.959C251.602 65.4443 251.289 65.2089 251.187 64.8662L251.186 64.8672C250.248 63.4033 248.107 63.4043 247.17 64.8681L247.169 64.8691C247.067 65.2099 246.754 65.4443 246.398 65.4443H236.146C235.789 65.4443 235.475 65.2089 235.373 64.8662C234.434 63.4023 232.294 63.4043 231.356 64.8681L231.356 64.8691C231.254 65.2099 230.94 65.4443 230.585 65.4443H220.332C219.975 65.4443 219.661 65.2089 219.56 64.8662L219.559 64.8672C218.621 63.4033 216.48 63.4043 215.543 64.8681L215.542 64.8691C215.44 65.2099 215.127 65.4443 214.771 65.4443H204.519C204.161 65.4443 203.847 65.2089 203.746 64.8662L203.746 64.8672C202.807 63.4033 200.667 63.4043 199.729 64.8681L199.729 64.8691C199.627 65.2099 199.314 65.4443 198.958 65.4443H188.705C188.348 65.4443 188.034 65.2089 187.933 64.8662L187.932 64.8672C186.993 63.4033 184.853 63.4043 183.916 64.8681L183.915 64.8691C183.813 65.2099 183.5 65.4443 183.144 65.4443H172.891C172.534 65.4443 172.22 65.2089 172.119 64.8662L172.119 64.8672C171.18 63.4033 169.04 63.4043 168.102 64.8681L168.102 64.8691C168 65.2099 167.687 65.4443 167.33 65.4443H157.078C156.721 65.4443 156.407 65.2089 156.306 64.8662L156.305 64.8672C155.366 63.4033 153.226 63.4043 152.289 64.8681L152.288 64.8691C152.186 65.2099 151.873 65.4443 151.517 65.4443H141.264C140.907 65.4443 140.593 65.2089 140.492 64.8662C139.553 63.4023 137.412 63.4043 136.475 64.8681L136.474 64.8691C136.373 65.2099 136.059 65.4443 135.703 65.4443H125.451C125.094 65.4443 124.78 65.2089 124.678 64.8662L124.678 64.8672C123.739 63.4033 121.599 63.4043 120.661 64.8681L120.661 64.8691C120.559 65.2099 120.246 65.4443 119.89 65.4443H109.637C109.28 65.4443 108.966 65.2089 108.865 64.8662L108.864 64.8672C107.925 63.4033 105.785 63.4043 104.848 64.8681L104.847 64.8691C104.746 65.2099 104.432 65.4443 104.076 65.4443H93.8232C93.4663 65.4443 93.1524 65.2089 93.0514 64.8662L93.0508 64.8672C92.1118 63.4033 89.9717 63.4043 89.0342 64.8681L89.0332 64.8691C88.9316 65.2099 88.6183 65.4443 88.2623 65.4443H78.0098C77.6528 65.4443 77.3389 65.2089 77.2378 64.8662L77.2374 64.8672C76.2984 63.4033 74.1578 63.4043 73.2203 64.8681L73.2197 64.8691C73.1182 65.2099 72.8048 65.4443 72.4488 65.4443L69.6787 65.4345Z" fill="#1A1A1A"/>
<path fill-rule="evenodd" clip-rule="evenodd" d="M637.286 65.4345L637.285 60.5429H637.155V59.1709L636.197 59.1699L636.198 57.8701L637.736 57.4277V53.5214L638.078 53.3164C638.134 52.9414 638.413 51.665 639.575 50.2675L450.595 50.2666L450.597 51.0468H450.205V57.7548H450.749V59.3173L451.097 59.3183L451.093 61.7412L454.771 62.6289V64.25H452.283L452.284 65.4443H455.006C455.363 65.4443 455.677 65.2089 455.778 64.8662C456.718 63.4023 458.857 63.4043 459.795 64.8681L459.796 64.8691C459.897 65.2099 460.211 65.4443 460.567 65.4443H470.819C471.177 65.4443 471.49 65.2089 471.592 64.8662C472.531 63.4023 474.672 63.4043 475.608 64.8681L475.609 64.8691C475.711 65.2099 476.024 65.4443 476.381 65.4443H486.634C486.99 65.4443 487.304 65.2089 487.405 64.8662C488.345 63.4023 490.485 63.4043 491.422 64.8681L491.423 64.8691C491.524 65.2099 491.839 65.4443 492.194 65.4443H502.446C502.804 65.4443 503.117 65.2089 503.219 64.8662L503.22 64.8672C504.158 63.4033 506.299 63.4043 507.236 64.8681C507.338 65.2089 507.651 65.4443 508.008 65.4443H518.261C518.617 65.4443 518.931 65.2089 519.032 64.8662L519.033 64.8672C519.972 63.4033 522.112 63.4043 523.049 64.8681L523.05 64.8691C523.152 65.2099 523.466 65.4443 523.821 65.4443H534.074C534.431 65.4443 534.745 65.2089 534.847 64.8662C535.785 63.4023 537.926 63.4043 538.863 64.8681L538.864 64.8691C538.965 65.2099 539.278 65.4443 539.635 65.4443H549.888C550.244 65.4443 550.559 65.2089 550.659 64.8662L550.66 64.8672C551.599 63.4033 553.739 63.4043 554.677 64.8681L554.678 64.8691C554.779 65.2099 555.093 65.4443 555.448 65.4443H565.701C566.059 65.4443 566.372 65.2089 566.474 64.8662C567.413 63.4023 569.553 63.4043 570.49 64.8681L570.491 64.8691C570.593 65.2099 570.906 65.4443 571.262 65.4443H581.515C581.872 65.4443 582.185 65.2089 582.286 64.8662L582.287 64.8672C583.226 63.4033 585.366 63.4043 586.304 64.8681L586.305 64.8691C586.406 65.2099 586.72 65.4443 587.075 65.4443H597.328C597.685 65.4443 597.999 65.2089 598.101 64.8662C599.04 63.4023 601.18 63.4043 602.117 64.8681L602.118 64.8691C602.22 65.2099 602.533 65.4443 602.89 65.4443H613.142C613.499 65.4443 613.813 65.2089 613.914 64.8662C614.854 63.4023 616.993 63.4043 617.931 64.8681L617.932 64.8691C618.033 65.2099 618.347 65.4443 618.703 65.4443H628.955C629.312 65.4443 629.626 65.2089 629.727 64.8662C630.667 63.4023 632.808 63.4043 633.744 64.8681L633.745 64.8691C633.847 65.2099 634.16 65.4443 634.517 65.4443H634.516L637.286 65.4345Z" fill="#1A1A1A"/>
<path fill-rule="evenodd" clip-rule="evenodd" d="M74.5342 66.916V69.1289H75.9243V66.916H74.5342Z" fill="#1A1A1A"/>
<path fill-rule="evenodd" clip-rule="evenodd" d="M90.3477 66.916V69.1289H91.7374V66.916H90.3477Z" fill="#1A1A1A"/>
<path fill-rule="evenodd" clip-rule="evenodd" d="M106.161 66.916V69.1289H107.552V66.916H106.161Z" fill="#1A1A1A"/>
<path fill-rule="evenodd" clip-rule="evenodd" d="M121.975 66.916V69.1289H123.365V66.916H121.975Z" fill="#1A1A1A"/>
<path fill-rule="evenodd" clip-rule="evenodd" d="M137.788 66.916V69.1289H139.179V66.916H137.788Z" fill="#1A1A1A"/>
<path fill-rule="evenodd" clip-rule="evenodd" d="M153.602 66.916V69.1289H154.992V66.916H153.602Z" fill="#1A1A1A"/>
<path fill-rule="evenodd" clip-rule="evenodd" d="M169.416 66.916V69.1289H170.806V66.916H169.416Z" fill="#1A1A1A"/>
<path fill-rule="evenodd" clip-rule="evenodd" d="M185.229 66.916V69.1289H186.619V66.916H185.229Z" fill="#1A1A1A"/>
<path fill-rule="evenodd" clip-rule="evenodd" d="M201.043 66.916V69.1289H202.433V66.916H201.043Z" fill="#1A1A1A"/>
<path fill-rule="evenodd" clip-rule="evenodd" d="M216.856 66.916V69.1289H218.246V66.916H216.856Z" fill="#1A1A1A"/>
<path fill-rule="evenodd" clip-rule="evenodd" d="M232.67 66.916V69.1289H234.06V66.916H232.67Z" fill="#1A1A1A"/>
<path fill-rule="evenodd" clip-rule="evenodd" d="M248.483 66.916V69.1289H249.874V66.916H248.483Z" fill="#1A1A1A"/>
<path fill-rule="evenodd" clip-rule="evenodd" d="M272.509 6.2353L272.514 6.7422L273.228 9.5918H271.421L272.134 6.7822L272.141 6.2373C271.998 6.0341 272.019 5.7578 272.191 5.5791L272.191 5.5781L272.325 0L272.458 5.5781C272.631 5.7558 272.652 6.0332 272.509 6.2353ZM271.074 11.4882V16.4384H273.576V11.4882H271.074ZM270.274 18.1757L260.942 46.8193L261.823 48.5273H282.812L283.707 46.8349L274.375 18.1757H270.274ZM270.293 37.1035L271.387 42.539H273.264L274.356 37.1035H270.293ZM272.221 34.3554L270.377 36.8652H274.272L272.429 34.3554H272.221Z" fill="#1A1A1A"/>
<path fill-rule="evenodd" clip-rule="evenodd" d="M434.456 6.2353L434.45 6.7422L433.735 9.5918H435.543L434.831 6.7822L434.823 6.2373C434.967 6.0341 434.945 5.7578 434.773 5.5791L434.64 0L434.506 5.5781C434.334 5.7558 434.313 6.0332 434.456 6.2353ZM435.891 11.4882V16.4384H433.389V11.4882H435.891ZM436.69 18.1757L446.022 46.8193L445.142 48.5273H424.152L423.257 46.8349L432.589 18.1757H436.69ZM436.671 37.1035L435.578 42.539H433.701L432.608 37.1035H436.671ZM434.744 34.3554L436.587 36.8652H432.692L434.535 34.3554H434.744Z" fill="#1A1A1A"/>
<path fill-rule="evenodd" clip-rule="evenodd" d="M404.765 55.0967V54.4551C404.675 54.4258 404.602 54.3594 404.564 54.2725C404.045 53.0372 402.852 52.2159 401.513 52.171C401.292 52.1631 401.116 51.9815 401.116 51.7598H401.115C400.802 51.5674 400.441 51.4639 400.073 51.4649C399.705 51.4639 399.344 51.5674 399.03 51.7598H399.029C399.029 51.9815 398.854 52.1631 398.632 52.171H398.633C397.293 52.2159 396.101 53.0372 395.581 54.2725C395.544 54.3594 395.471 54.4258 395.381 54.4551V55.0967H381.467V54.4551C381.377 54.4258 381.305 54.3594 381.268 54.2725H381.267C380.747 53.0372 379.555 52.2159 378.215 52.171H378.216C377.994 52.1631 377.818 51.9815 377.818 51.7598C377.505 51.5674 377.144 51.4639 376.775 51.4649C376.407 51.4639 376.046 51.5674 375.733 51.7598C375.733 51.9815 375.556 52.1631 375.335 52.171C373.995 52.2159 372.804 53.0372 372.284 54.2725H372.283C372.246 54.3594 372.173 54.4258 372.083 54.4551V55.0967H358.17V54.4551C358.08 54.4258 358.007 54.3594 357.97 54.2725C357.451 53.0372 356.258 52.2159 354.918 52.171C354.696 52.1631 354.522 51.9815 354.522 51.7598H354.521C354.207 51.5674 353.846 51.4639 353.478 51.4649C353.11 51.4639 352.749 51.5674 352.436 51.7598C352.436 51.9815 352.259 52.1631 352.038 52.171C350.698 52.2159 349.506 53.0372 348.987 54.2725C348.95 54.3594 348.876 54.4258 348.786 54.4551L348.786 54.4561V55.0967H334.872V54.4551C334.783 54.4258 334.71 54.3594 334.673 54.2725C334.154 53.0372 332.96 52.2159 331.621 52.171C331.399 52.1631 331.224 51.9815 331.224 51.7598H331.223C330.91 51.5674 330.548 51.4639 330.181 51.4649C329.812 51.4639 329.451 51.5674 329.138 51.7598H329.137C329.137 51.9815 328.962 52.1631 328.74 52.171C327.4 52.2159 326.209 53.0372 325.689 54.2725C325.652 54.3594 325.579 54.4258 325.488 54.4551L325.489 54.4561V55.0967H311.575V54.4551C311.485 54.4258 311.412 54.3594 311.375 54.2725C310.855 53.0372 309.663 52.2159 308.323 52.171C308.102 52.1631 307.926 51.9815 307.926 51.7598C307.613 51.5674 307.251 51.4639 306.883 51.4649C306.515 51.4639 306.154 51.5674 305.841 51.7598H305.84C305.84 51.9815 305.665 52.1631 305.442 52.171C304.102 52.2159 302.911 53.0372 302.392 54.2725C302.355 54.3594 302.281 54.4258 302.191 54.4551L302.191 54.4561V55.0967H287.896V51.0469H288.034L288.29 51.0499L288.284 50.2667H291.738L314.177 24.8145H315.247V23.9112L316.29 21.4434H316.09V15.9122C316.085 15.3682 316.205 14.8301 316.443 14.3399C316.653 13.8497 317.068 13.4776 317.579 13.3223L317.625 11.7413L317.854 10.9473L318.083 11.7413L318.129 13.3223C318.64 13.4776 319.055 13.8506 319.266 14.3409C319.503 14.8311 319.624 15.3692 319.618 15.9141V20.6436H387.338V15.9122C387.332 15.3682 387.453 14.8301 387.69 14.3399C387.901 13.8497 388.316 13.4776 388.827 13.3223L388.873 11.7413L389.102 10.9473L389.331 11.7413L389.377 13.3223C389.888 13.4776 390.303 13.8506 390.514 14.3409C390.751 14.8311 390.872 15.3692 390.866 15.9141V21.4434H390.666L391.709 23.9112V24.8145H392.778L415.218 50.2667H418.684L418.68 51.0479L419.07 51.0469L419.079 55.0967H404.765ZM388.399 15.9131V20.4005H389.805V15.9131H388.399ZM318.557 15.9131H317.151V20.4005H318.557V15.9131Z" fill="#1A1A1A"/>
<path fill-rule="evenodd" clip-rule="evenodd" d="M263.723 51.8818H265.843V57.7548H263.723V51.8818Z" fill="#1A1A1A"/>
<path fill-rule="evenodd" clip-rule="evenodd" d="M267.494 51.8818H269.614V57.7548H267.494V51.8818Z" fill="#1A1A1A"/>
<path fill-rule="evenodd" clip-rule="evenodd" d="M271.266 51.8818H273.385V57.7548H271.266V51.8818Z" fill="#1A1A1A"/>
<path fill-rule="evenodd" clip-rule="evenodd" d="M275.036 51.8818H277.156V57.7548H275.036V51.8818Z" fill="#1A1A1A"/>
<path fill-rule="evenodd" clip-rule="evenodd" d="M278.807 51.8818H280.927V57.7548H278.807V51.8818Z" fill="#1A1A1A"/>
<path fill-rule="evenodd" clip-rule="evenodd" d="M443.233 51.8818H441.112V57.7548H443.233V51.8818Z" fill="#1A1A1A"/>
<path fill-rule="evenodd" clip-rule="evenodd" d="M439.462 51.8818H437.342V57.7548H439.462V51.8818Z" fill="#1A1A1A"/>
<path fill-rule="evenodd" clip-rule="evenodd" d="M431.92 51.8818H429.8V57.7548H431.92V51.8818Z" fill="#1A1A1A"/>
<path fill-rule="evenodd" clip-rule="evenodd" d="M435.69 51.8818H433.571V57.7548H435.69V51.8818Z" fill="#1A1A1A"/>
<path fill-rule="evenodd" clip-rule="evenodd" d="M428.149 51.8818H426.029V57.7548H428.149V51.8818Z" fill="#1A1A1A"/>
<path fill-rule="evenodd" clip-rule="evenodd" d="M297.548 78.2696H292.922L292.352 74.0987V73.334H298.118V74.0987L297.548 78.2696Z" fill="#1A1A1A"/>
<path fill-rule="evenodd" clip-rule="evenodd" d="M297.285 79.5205H293.288L293.097 111.096H297.511L297.285 79.5205Z" fill="#1A1A1A"/>
<path fill-rule="evenodd" clip-rule="evenodd" d="M292.176 113.667V117.543H298.293V113.667H292.176Z" fill="#1A1A1A"/>
<path fill-rule="evenodd" clip-rule="evenodd" d="M312.492 86.6534C312.037 86.1807 311.505 85.7872 310.92 85.4913C308.369 84.251 305.389 84.251 302.838 85.4913C302.253 85.7872 301.722 86.1807 301.266 86.6534C300.604 87.3184 300.22 88.21 300.192 89.1475V113.719H313.566V89.1475C313.539 88.21 313.154 87.3184 312.492 86.6534Z" fill="#1A1A1A"/>
<path fill-rule="evenodd" clip-rule="evenodd" d="M315.474 113.667V117.543H321.591V113.667H315.474Z" fill="#1A1A1A"/>
<path fill-rule="evenodd" clip-rule="evenodd" d="M320.583 79.5205H316.585L316.395 111.096H320.809L320.583 79.5205Z" fill="#1A1A1A"/>
<path fill-rule="evenodd" clip-rule="evenodd" d="M320.845 78.2696H316.219L315.648 74.0987V73.334H321.415V74.0987L320.845 78.2696Z" fill="#1A1A1A"/>
<path fill-rule="evenodd" clip-rule="evenodd" d="M335.79 86.6534C335.335 86.1807 334.803 85.7872 334.218 85.4913C331.667 84.251 328.687 84.251 326.136 85.4913C325.55 85.7872 325.019 86.1807 324.564 86.6534C323.901 87.3184 323.518 88.21 323.49 89.1475V113.719H336.863V89.1475C336.836 88.21 336.452 87.3184 335.79 86.6534Z" fill="#1A1A1A"/>
<path fill-rule="evenodd" clip-rule="evenodd" d="M359.087 86.6534C358.632 86.1807 358.101 85.7872 357.515 85.4913C354.964 84.251 351.984 84.251 349.434 85.4913C348.848 85.7872 348.317 86.1807 347.862 86.6534C347.2 87.3184 346.815 88.21 346.788 89.1475V113.719H360.161V89.1475C360.133 88.21 359.75 87.3184 359.087 86.6534Z" fill="#1A1A1A"/>
<path fill-rule="evenodd" clip-rule="evenodd" d="M343.88 79.5205H339.883L339.692 111.096H344.106L343.88 79.5205Z" fill="#1A1A1A"/>
<path fill-rule="evenodd" clip-rule="evenodd" d="M344.142 78.2696H339.517L338.946 74.0987V73.334H344.713V74.0987L344.142 78.2696Z" fill="#1A1A1A"/>
<path fill-rule="evenodd" clip-rule="evenodd" d="M338.771 113.667V117.543H344.888V113.667H338.771Z" fill="#1A1A1A"/>
<path fill-rule="evenodd" clip-rule="evenodd" d="M382.384 86.6534C381.929 86.1807 381.397 85.7872 380.813 85.4913C378.262 84.251 375.281 84.251 372.731 85.4913C372.145 85.7872 371.613 86.1807 371.158 86.6534H371.159C370.497 87.3184 370.112 88.21 370.085 89.1475V113.719H383.458V89.1475C383.431 88.21 383.046 87.3184 382.384 86.6534Z" fill="#1A1A1A"/>
<path fill-rule="evenodd" clip-rule="evenodd" d="M367.439 78.2696H362.813L362.243 74.0987V73.334H368.01V74.0987L367.439 78.2696Z" fill="#1A1A1A"/>
<path fill-rule="evenodd" clip-rule="evenodd" d="M367.177 79.5205H363.181L362.989 111.096H367.403L367.177 79.5205Z" fill="#1A1A1A"/>
<path fill-rule="evenodd" clip-rule="evenodd" d="M362.068 113.667V117.543H368.186V113.667H362.068Z" fill="#1A1A1A"/>
<path fill-rule="evenodd" clip-rule="evenodd" d="M405.682 86.6534C405.227 86.1807 404.695 85.7872 404.11 85.4913C401.56 84.251 398.579 84.251 396.028 85.4913C395.442 85.7872 394.911 86.1807 394.456 86.6534C393.794 87.3184 393.41 88.21 393.383 89.1475V113.719H406.756V89.1475C406.727 88.21 406.344 87.3184 405.682 86.6534Z" fill="#1A1A1A"/>
<path fill-rule="evenodd" clip-rule="evenodd" d="M390.737 78.2696H386.111L385.541 74.0987V73.334H391.308V74.0987L390.737 78.2696Z" fill="#1A1A1A"/>
<path fill-rule="evenodd" clip-rule="evenodd" d="M390.475 79.5205H386.478L386.287 111.096H390.7L390.475 79.5205Z" fill="#1A1A1A"/>
<path fill-rule="evenodd" clip-rule="evenodd" d="M385.366 113.667V117.543H391.482V113.667H385.366Z" fill="#1A1A1A"/>
<path fill-rule="evenodd" clip-rule="evenodd" d="M414.034 78.2696H409.408L408.838 74.0987V73.334H414.604V74.0987L414.034 78.2696Z" fill="#1A1A1A"/>
<path fill-rule="evenodd" clip-rule="evenodd" d="M413.772 79.5205H409.775L409.584 111.096H413.998L413.772 79.5205Z" fill="#1A1A1A"/>
<path fill-rule="evenodd" clip-rule="evenodd" d="M408.663 113.667V117.543H414.78V113.667H408.663Z" fill="#1A1A1A"/>
<path fill-rule="evenodd" clip-rule="evenodd" d="M301.815 122.46V126.805H304.074V122.46H301.815Z" fill="#1A1A1A"/>
<path fill-rule="evenodd" clip-rule="evenodd" d="M305.533 122.46V126.805H307.793V122.46H305.533Z" fill="#1A1A1A"/>
<path fill-rule="evenodd" clip-rule="evenodd" d="M309.253 122.46V126.805H311.512V122.46H309.253Z" fill="#1A1A1A"/>
<path fill-rule="evenodd" clip-rule="evenodd" d="M302.979 133.339V135.25H305.864V133.339H302.979Z" fill="#1A1A1A"/>
<path fill-rule="evenodd" clip-rule="evenodd" d="M302.979 135.98V140.463H305.864V135.98H302.979Z" fill="#1A1A1A"/>
<path fill-rule="evenodd" clip-rule="evenodd" d="M307.463 135.98V140.463H310.348V135.98H307.463Z" fill="#1A1A1A"/>
<path fill-rule="evenodd" clip-rule="evenodd" d="M307.463 133.339V135.25H310.348V133.339H307.463Z" fill="#1A1A1A"/>
<path fill-rule="evenodd" clip-rule="evenodd" d="M403.976 135.98V140.463H401.093V135.98H403.976Z" fill="#1A1A1A"/>
<path fill-rule="evenodd" clip-rule="evenodd" d="M403.976 133.339V135.25H401.093V133.339H403.976Z" fill="#1A1A1A"/>
<path fill-rule="evenodd" clip-rule="evenodd" d="M405.141 122.46V126.805H402.882V122.46H405.141Z" fill="#1A1A1A"/>
<path fill-rule="evenodd" clip-rule="evenodd" d="M399.493 133.339V135.25H396.608V133.339H399.493Z" fill="#1A1A1A"/>
<path fill-rule="evenodd" clip-rule="evenodd" d="M399.493 135.98V140.463H396.608V135.98H399.493Z" fill="#1A1A1A"/>
<path fill-rule="evenodd" clip-rule="evenodd" d="M397.703 122.46V126.805H395.444V122.46H397.703Z" fill="#1A1A1A"/>
<path fill-rule="evenodd" clip-rule="evenodd" d="M401.423 122.46V126.805H399.163V122.46H401.423Z" fill="#1A1A1A"/>
<path fill-rule="evenodd" clip-rule="evenodd" d="M387.469 130.749H390.444V130.924C390.387 130.924 390.34 130.971 390.34 131.027V131.219C390.34 131.257 390.309 131.288 390.271 131.288H390.166V131.34C390.166 131.359 390.15 131.374 390.131 131.374V131.375H386.903C386.522 126.066 382.098 121.952 376.775 121.957C371.453 121.952 367.029 126.066 366.648 131.375H363.605C363.224 126.066 358.8 121.952 353.478 121.957C348.156 121.952 343.732 126.066 343.351 131.375H340.308C339.926 126.066 335.503 121.952 330.181 121.957C324.858 121.952 320.435 126.066 320.053 131.375H316.825V131.374C316.806 131.374 316.79 131.359 316.79 131.34L316.79 131.288H316.686C316.647 131.288 316.617 131.257 316.617 131.219L316.616 131.027C316.616 130.971 316.569 130.924 316.512 130.924V130.749H319.487V130.75C320.177 125.366 324.753 121.335 330.181 121.331C335.608 121.335 340.184 125.366 340.874 130.75L340.874 130.749H342.785V130.75C343.474 125.366 348.051 121.335 353.478 121.331C358.905 121.335 363.481 125.366 364.171 130.75V130.749H366.082V130.75C366.772 125.366 371.348 121.335 376.775 121.331C382.202 121.335 386.779 125.366 387.469 130.75V130.749Z" fill="#1A1A1A"/>
<path fill-rule="evenodd" clip-rule="evenodd" d="M323.676 145.503H336.686V141.089L336.755 141.02V134.387H333.704L333.096 133.778H331.597L331.284 133.466H329.078L328.765 133.778H327.266L326.658 134.387H323.606V140.984L323.685 141.093L323.676 145.503Z" fill="#1A1A1A"/>
<path fill-rule="evenodd" clip-rule="evenodd" d="M336.755 132.113C336.759 128.482 333.814 125.534 330.183 125.536C326.552 125.532 323.605 128.479 323.607 132.109L323.606 132.11V133.86H326.464L327.073 133.252H328.572L328.885 132.938H331.478L331.791 133.252H333.272L333.889 133.868H336.755V132.11L336.755 132.113Z" fill="#1A1A1A"/>
<path fill-rule="evenodd" clip-rule="evenodd" d="M346.973 145.503H359.982V141.089L360.053 141.02V134.387H357.001L356.393 133.778H354.893L354.581 133.466H352.375L352.062 133.778H350.563L349.955 134.387H346.903V140.984L346.982 141.093L346.973 145.503Z" fill="#1A1A1A"/>
<path fill-rule="evenodd" clip-rule="evenodd" d="M360.052 132.11C360.055 128.48 357.108 125.533 353.478 125.536C349.847 125.533 346.901 128.48 346.903 132.11V133.86H349.761L350.37 133.252H351.869L352.182 132.938H354.774L355.087 133.252H356.568L357.186 133.868H360.053V132.11H360.052Z" fill="#1A1A1A"/>
<path fill-rule="evenodd" clip-rule="evenodd" d="M370.27 145.503H383.28V141.089L383.35 141.02V134.387H380.299L379.69 133.778H378.191L377.879 133.466H375.672L375.359 133.778H373.86L373.252 134.387H370.201V140.984L370.279 141.093L370.27 145.503Z" fill="#1A1A1A"/>
<path fill-rule="evenodd" clip-rule="evenodd" d="M383.35 132.113C383.353 128.482 380.408 125.534 376.777 125.536C373.146 125.532 370.199 128.479 370.201 132.109V133.86H373.059L373.667 133.252H375.166L375.479 132.938H378.071L378.385 133.252H379.866L380.483 133.868H383.35V132.11V132.113Z" fill="#1A1A1A"/>
<path fill-rule="evenodd" clip-rule="evenodd" d="M267.007 83.8996C265.857 82.5549 263.778 82.5549 262.628 83.8996L262.628 92.8146H267.007L267.007 83.8996Z" fill="#1A1A1A"/>
<path fill-rule="evenodd" clip-rule="evenodd" d="M274.515 83.8996C273.365 82.5549 271.285 82.5549 270.136 83.8996L270.136 92.8146H274.515L274.515 83.8996Z" fill="#1A1A1A"/>
<path fill-rule="evenodd" clip-rule="evenodd" d="M281.865 83.8996C280.716 82.5549 278.636 82.5549 277.486 83.8996V92.8146H281.865V83.8996Z" fill="#1A1A1A"/>
<path fill-rule="evenodd" clip-rule="evenodd" d="M262.628 102.98V113.709H267.007V102.98H262.628Z" fill="#1A1A1A"/>
<path fill-rule="evenodd" clip-rule="evenodd" d="M270.136 102.98V113.709H274.515V102.98H270.136Z" fill="#1A1A1A"/>
<path fill-rule="evenodd" clip-rule="evenodd" d="M277.486 102.98V113.709H281.865V102.98H277.486Z" fill="#1A1A1A"/>
<path fill-rule="evenodd" clip-rule="evenodd" d="M262.646 123.359V134.155H267.025V123.359H262.646Z" fill="#1A1A1A"/>
<path fill-rule="evenodd" clip-rule="evenodd" d="M270.136 123.359V134.155H274.515V123.359H270.136Z" fill="#1A1A1A"/>
<path fill-rule="evenodd" clip-rule="evenodd" d="M277.625 123.359V134.155H282.004V123.359H277.625Z" fill="#1A1A1A"/>
<path fill-rule="evenodd" clip-rule="evenodd" d="M262.594 141.054V146.789H267.042V141.054H262.594Z" fill="#1A1A1A"/>
<path fill-rule="evenodd" clip-rule="evenodd" d="M270.101 141.054V146.789H274.549V141.054H270.101Z" fill="#1A1A1A"/>
<path fill-rule="evenodd" clip-rule="evenodd" d="M277.608 141.054V146.789H282.057V141.054H277.608Z" fill="#1A1A1A"/>
<path fill-rule="evenodd" clip-rule="evenodd" d="M439.949 83.8992C441.101 82.5564 443.176 82.5564 444.327 83.8992L444.328 92.8142H439.948V83.8992H439.949Z" fill="#1A1A1A"/>
<path fill-rule="evenodd" clip-rule="evenodd" d="M432.441 83.8992C433.593 82.5564 435.669 82.5564 436.82 83.8992V92.8142H432.441V83.8992Z" fill="#1A1A1A"/>
<path fill-rule="evenodd" clip-rule="evenodd" d="M425.091 83.8992C426.242 82.5564 428.318 82.5564 429.47 83.8992V92.8142H425.091V83.8992Z" fill="#1A1A1A"/>
<path fill-rule="evenodd" clip-rule="evenodd" d="M444.328 102.98V113.647H439.948V102.98H444.328Z" fill="#1A1A1A"/>
<path fill-rule="evenodd" clip-rule="evenodd" d="M436.82 102.98V113.647H432.441V102.98H436.82Z" fill="#1A1A1A"/>
<path fill-rule="evenodd" clip-rule="evenodd" d="M429.47 102.98V113.647H425.091V102.98H429.47Z" fill="#1A1A1A"/>
<path fill-rule="evenodd" clip-rule="evenodd" d="M429.331 123.052V134.155H424.952V123.052H429.331Z" fill="#1A1A1A"/>
<path fill-rule="evenodd" clip-rule="evenodd" d="M436.82 123.052V134.155H432.441V123.052H436.82Z" fill="#1A1A1A"/>
<path fill-rule="evenodd" clip-rule="evenodd" d="M444.31 123.052V134.155H439.931V123.052H444.31Z" fill="#1A1A1A"/>
<path fill-rule="evenodd" clip-rule="evenodd" d="M429.348 141.054V146.789H424.899V141.054H429.348Z" fill="#1A1A1A"/>
<path fill-rule="evenodd" clip-rule="evenodd" d="M436.856 141.054V146.789H432.406V141.054H436.856Z" fill="#1A1A1A"/>
<path fill-rule="evenodd" clip-rule="evenodd" d="M444.362 141.054V146.789H439.914V141.054H444.362Z" fill="#1A1A1A"/>
<path fill-rule="evenodd" clip-rule="evenodd" d="M628.46 124.739C630.459 123.486 632.996 123.486 634.994 124.739V134.103H628.46V124.739Z" fill="#1A1A1A"/>
<path fill-rule="evenodd" clip-rule="evenodd" d="M628.461 103.174C630.456 101.868 632.998 101.868 634.994 103.174V113.767H628.46V103.173L628.461 103.174Z" fill="#1A1A1A"/>
<path fill-rule="evenodd" clip-rule="evenodd" d="M635.776 83.5623V91.9753H627.678V83.5623C630.139 81.9988 633.316 81.9988 635.776 83.5623Z" fill="#1A1A1A"/>
<path fill-rule="evenodd" clip-rule="evenodd" d="M632.422 66.916V69.1289H631.032V66.916H632.422Z" fill="#1A1A1A"/>
<path fill-rule="evenodd" clip-rule="evenodd" d="M596.833 124.739C598.831 123.486 601.368 123.486 603.366 124.739H603.367V134.103H596.833V124.739Z" fill="#1A1A1A"/>
<path fill-rule="evenodd" clip-rule="evenodd" d="M604.149 83.5623V91.9753H596.051V83.5623C598.512 81.9988 601.688 81.9988 604.149 83.5623Z" fill="#1A1A1A"/>
<path fill-rule="evenodd" clip-rule="evenodd" d="M596.833 103.174C598.829 101.868 601.37 101.868 603.366 103.174L603.367 103.173V113.767H596.833V103.174Z" fill="#1A1A1A"/>
<path fill-rule="evenodd" clip-rule="evenodd" d="M612.646 124.739C614.644 123.486 617.183 123.486 619.181 124.739V134.103H612.646V124.739Z" fill="#1A1A1A"/>
<path fill-rule="evenodd" clip-rule="evenodd" d="M612.647 103.174C614.643 101.868 617.185 101.868 619.18 103.174L619.181 103.173V113.767H612.646V103.173L612.647 103.174Z" fill="#1A1A1A"/>
<path fill-rule="evenodd" clip-rule="evenodd" d="M619.962 83.5623V91.9753H611.864V83.5623C614.324 81.9988 617.501 81.9988 619.962 83.5623Z" fill="#1A1A1A"/>
<path fill-rule="evenodd" clip-rule="evenodd" d="M616.608 66.916V69.1289H615.219V66.916H616.608Z" fill="#1A1A1A"/>
<path fill-rule="evenodd" clip-rule="evenodd" d="M581.02 124.739C583.018 123.486 585.556 123.486 587.554 124.739V134.103H581.02V124.739Z" fill="#1A1A1A"/>
<path fill-rule="evenodd" clip-rule="evenodd" d="M581.02 103.174C583.016 101.868 585.557 101.868 587.553 103.174L587.554 103.173V113.767H581.02V103.174Z" fill="#1A1A1A"/>
<path fill-rule="evenodd" clip-rule="evenodd" d="M588.335 83.5623V91.9753H580.237V83.5623C582.698 81.9988 585.874 81.9988 588.335 83.5623Z" fill="#1A1A1A"/>
<path fill-rule="evenodd" clip-rule="evenodd" d="M600.795 66.916V69.1289H599.404V66.916H600.795Z" fill="#1A1A1A"/>
<path fill-rule="evenodd" clip-rule="evenodd" d="M584.981 66.916V69.1289H583.591V66.916H584.981Z" fill="#1A1A1A"/>
<path fill-rule="evenodd" clip-rule="evenodd" d="M517.766 124.739C519.764 123.486 522.301 123.486 524.299 124.739V134.103H517.766V124.739Z" fill="#1A1A1A"/>
<path fill-rule="evenodd" clip-rule="evenodd" d="M525.081 83.5623V91.9753H516.983V83.5623C519.444 81.9988 522.62 81.9988 525.081 83.5623Z" fill="#1A1A1A"/>
<path fill-rule="evenodd" clip-rule="evenodd" d="M517.766 103.174C519.762 101.868 522.303 101.868 524.299 103.174V113.767H517.766V103.174Z" fill="#1A1A1A"/>
<path fill-rule="evenodd" clip-rule="evenodd" d="M565.206 124.739C567.204 123.486 569.741 123.486 571.739 124.739L571.74 134.103H565.206V124.739Z" fill="#1A1A1A"/>
<path fill-rule="evenodd" clip-rule="evenodd" d="M565.206 103.174C567.202 101.868 569.743 101.868 571.739 103.174L571.74 103.173V113.767H565.206V103.174Z" fill="#1A1A1A"/>
<path fill-rule="evenodd" clip-rule="evenodd" d="M549.393 124.739C551.391 123.486 553.928 123.486 555.926 124.739V134.103H549.393V124.739Z" fill="#1A1A1A"/>
<path fill-rule="evenodd" clip-rule="evenodd" d="M549.393 103.174C551.389 101.868 553.93 101.868 555.926 103.174V113.767H549.393V103.174Z" fill="#1A1A1A"/>
<path fill-rule="evenodd" clip-rule="evenodd" d="M572.522 83.5623V91.9753H564.424V83.5623C566.885 81.9988 570.061 81.9988 572.522 83.5623Z" fill="#1A1A1A"/>
<path fill-rule="evenodd" clip-rule="evenodd" d="M569.168 66.916V69.1289H567.777V66.916H569.168Z" fill="#1A1A1A"/>
<path fill-rule="evenodd" clip-rule="evenodd" d="M556.708 83.5623V91.9753H548.61V83.5623C551.071 81.9988 554.247 81.9988 556.708 83.5623Z" fill="#1A1A1A"/>
<path fill-rule="evenodd" clip-rule="evenodd" d="M553.354 66.916V69.1289H551.964V66.916H553.354Z" fill="#1A1A1A"/>
<path fill-rule="evenodd" clip-rule="evenodd" d="M533.579 124.739C535.577 123.486 538.114 123.486 540.112 124.739V134.103H533.578V124.739H533.579Z" fill="#1A1A1A"/>
<path fill-rule="evenodd" clip-rule="evenodd" d="M533.579 103.174C535.575 101.868 538.116 101.868 540.112 103.174V113.767H533.578V103.173L533.579 103.174Z" fill="#1A1A1A"/>
<path fill-rule="evenodd" clip-rule="evenodd" d="M540.894 83.5623V91.9753H532.797V83.5623C535.258 81.9988 538.434 81.9988 540.894 83.5623Z" fill="#1A1A1A"/>
<path fill-rule="evenodd" clip-rule="evenodd" d="M537.54 66.916V69.1289H536.15V66.916H537.54Z" fill="#1A1A1A"/>
<path fill-rule="evenodd" clip-rule="evenodd" d="M521.728 66.916V69.1289H520.337V66.916H521.728Z" fill="#1A1A1A"/>
<path fill-rule="evenodd" clip-rule="evenodd" d="M486.139 124.739C488.137 123.486 490.674 123.486 492.672 124.739V134.103H486.138V124.739H486.139Z" fill="#1A1A1A"/>
<path fill-rule="evenodd" clip-rule="evenodd" d="M493.454 83.5623V91.9753H485.356V83.5623C487.817 81.9988 490.993 81.9988 493.454 83.5623Z" fill="#1A1A1A"/>
<path fill-rule="evenodd" clip-rule="evenodd" d="M486.139 103.174C488.135 101.868 490.676 101.868 492.672 103.174V113.767H486.138V103.173L486.139 103.174Z" fill="#1A1A1A"/>
<path fill-rule="evenodd" clip-rule="evenodd" d="M501.952 124.739C503.95 123.486 506.487 123.486 508.485 124.739V134.103H501.951L501.952 124.739Z" fill="#1A1A1A"/>
<path fill-rule="evenodd" clip-rule="evenodd" d="M501.952 103.174C503.948 101.868 506.489 101.868 508.485 103.174V113.767H501.951V103.173L501.952 103.174Z" fill="#1A1A1A"/>
<path fill-rule="evenodd" clip-rule="evenodd" d="M509.268 83.5623V91.9753H501.169V83.5623H501.17C503.631 81.9988 506.807 81.9988 509.268 83.5623Z" fill="#1A1A1A"/>
<path fill-rule="evenodd" clip-rule="evenodd" d="M505.913 66.916V69.1289H504.523V66.916H505.913Z" fill="#1A1A1A"/>
<path fill-rule="evenodd" clip-rule="evenodd" d="M470.324 124.739C472.323 123.486 474.86 123.486 476.858 124.739V134.103H470.324V124.739Z" fill="#1A1A1A"/>
<path fill-rule="evenodd" clip-rule="evenodd" d="M470.325 103.174C472.32 101.868 474.862 101.868 476.857 103.174L476.858 103.173V113.767H470.324V103.173L470.325 103.174Z" fill="#1A1A1A"/>
<path fill-rule="evenodd" clip-rule="evenodd" d="M490.1 66.916V69.1289H488.71V66.916H490.1Z" fill="#1A1A1A"/>
<path fill-rule="evenodd" clip-rule="evenodd" d="M477.641 83.5623V91.9753H469.542V83.5623C472.003 81.9988 475.18 81.9988 477.641 83.5623Z" fill="#1A1A1A"/>
<path fill-rule="evenodd" clip-rule="evenodd" d="M474.286 66.916V69.1289H472.896V66.916H474.286Z" fill="#1A1A1A"/>
<path fill-rule="evenodd" clip-rule="evenodd" d="M454.511 124.739C456.51 123.486 459.047 123.486 461.045 124.739V134.103H454.511V124.739Z" fill="#1A1A1A"/>
<path fill-rule="evenodd" clip-rule="evenodd" d="M454.511 103.174C456.508 101.868 459.049 101.868 461.045 103.174V113.767H454.511V103.174Z" fill="#1A1A1A"/>
<path fill-rule="evenodd" clip-rule="evenodd" d="M461.827 83.5623V91.9753H453.729V83.5623H453.73C456.19 81.9988 459.367 81.9988 461.827 83.5623Z" fill="#1A1A1A"/>
<path fill-rule="evenodd" clip-rule="evenodd" d="M458.473 66.916V69.1289H457.083V66.916H458.473Z" fill="#1A1A1A"/>
<path fill-rule="evenodd" clip-rule="evenodd" d="M685.007 124.63V134.104H681.322V124.63C682.464 123.978 683.865 123.978 685.007 124.63Z" fill="#1A1A1A"/>
<path fill-rule="evenodd" clip-rule="evenodd" d="M681.322 103.101V113.491H685.007V103.101C683.884 102.38 682.446 102.38 681.322 103.101Z" fill="#1A1A1A"/>
<path fill-rule="evenodd" clip-rule="evenodd" d="M690.915 124.63V134.104H687.23V124.63C688.372 123.978 689.773 123.978 690.915 124.63Z" fill="#1A1A1A"/>
<path fill-rule="evenodd" clip-rule="evenodd" d="M690.915 103.101V113.491H687.23V103.101C688.355 102.382 689.79 102.382 690.915 103.101Z" fill="#1A1A1A"/>
<path fill-rule="evenodd" clip-rule="evenodd" d="M690.741 83.5254V91.8418H687.405V83.5254C688.424 82.9082 689.723 82.9082 690.741 83.5254Z" fill="#1A1A1A"/>
<path fill-rule="evenodd" clip-rule="evenodd" d="M687.152 62.7979H685.136V67.2462H687.152V62.7979Z" fill="#1A1A1A"/>
<path fill-rule="evenodd" clip-rule="evenodd" d="M690.705 62.7979H688.689V67.2462H690.705V62.7979Z" fill="#1A1A1A"/>
<path fill-rule="evenodd" clip-rule="evenodd" d="M672.321 103.101V113.491H668.637V103.101H668.638C669.762 102.382 671.196 102.382 672.321 103.101Z" fill="#1A1A1A"/>
<path fill-rule="evenodd" clip-rule="evenodd" d="M672.321 124.63V134.104H668.637V124.63H668.638C669.778 123.978 671.18 123.978 672.321 124.63Z" fill="#1A1A1A"/>
<path fill-rule="evenodd" clip-rule="evenodd" d="M666.413 124.63V134.104H662.729V124.63C663.87 123.978 665.271 123.978 666.412 124.63H666.413Z" fill="#1A1A1A"/>
<path fill-rule="evenodd" clip-rule="evenodd" d="M662.729 103.101V113.491H666.413V103.101H666.412C665.289 102.38 663.853 102.38 662.729 103.101Z" fill="#1A1A1A"/>
<path fill-rule="evenodd" clip-rule="evenodd" d="M672.147 83.5254V91.8418H668.811V83.5254C669.829 82.9082 671.128 82.9082 672.147 83.5254Z" fill="#1A1A1A"/>
<path fill-rule="evenodd" clip-rule="evenodd" d="M672.061 62.7979H670.045V67.2462H672.061V62.7979Z" fill="#1A1A1A"/>
<path fill-rule="evenodd" clip-rule="evenodd" d="M681.148 83.5254V91.8418H684.485V83.5254C683.468 82.9062 682.167 82.9062 681.148 83.5254Z" fill="#1A1A1A"/>
<path fill-rule="evenodd" clip-rule="evenodd" d="M683.599 62.7979H681.583V67.2462H683.599V62.7979Z" fill="#1A1A1A"/>
<path fill-rule="evenodd" clip-rule="evenodd" d="M662.555 83.5254V91.8418H665.892V83.5254C664.873 82.9062 663.573 82.9062 662.555 83.5254Z" fill="#1A1A1A"/>
<path fill-rule="evenodd" clip-rule="evenodd" d="M665.005 62.7979H662.989V67.2462H665.005V62.7979Z" fill="#1A1A1A"/>
<path fill-rule="evenodd" clip-rule="evenodd" d="M668.508 62.7979H666.491V67.2462H668.508V62.7979Z" fill="#1A1A1A"/>
<path fill-rule="evenodd" clip-rule="evenodd" d="M653.727 124.63V134.104H650.043V124.63C651.185 123.978 652.585 123.978 653.727 124.63Z" fill="#1A1A1A"/>
<path fill-rule="evenodd" clip-rule="evenodd" d="M647.818 124.63V134.104H644.135V124.63C645.276 123.978 646.677 123.978 647.818 124.63Z" fill="#1A1A1A"/>
<path fill-rule="evenodd" clip-rule="evenodd" d="M653.727 103.101V113.491H650.043V103.101C651.168 102.382 652.602 102.382 653.727 103.101Z" fill="#1A1A1A"/>
<path fill-rule="evenodd" clip-rule="evenodd" d="M644.135 103.101V113.491H647.818V103.101C646.694 102.38 645.259 102.38 644.135 103.101Z" fill="#1A1A1A"/>
<path fill-rule="evenodd" clip-rule="evenodd" d="M653.554 83.5254V91.8418H650.217V83.5254C651.235 82.9082 652.534 82.9082 653.554 83.5254Z" fill="#1A1A1A"/>
<path fill-rule="evenodd" clip-rule="evenodd" d="M643.961 83.5254V91.8418H647.298V83.5254C646.279 82.9062 644.98 82.9062 643.961 83.5254Z" fill="#1A1A1A"/>
<path fill-rule="evenodd" clip-rule="evenodd" d="M653.467 62.7979H651.451V67.2462H653.467V62.7979Z" fill="#1A1A1A"/>
<path fill-rule="evenodd" clip-rule="evenodd" d="M646.36 62.7979H644.345V67.2462H646.36V62.7979Z" fill="#1A1A1A"/>
<path fill-rule="evenodd" clip-rule="evenodd" d="M649.913 62.7979H647.897V67.2462H649.913V62.7979Z" fill="#1A1A1A"/>
<path fill-rule="evenodd" clip-rule="evenodd" d="M681.288 146.894H685.041V141.054H681.288V146.894Z" fill="#1A1A1A"/>
<path fill-rule="evenodd" clip-rule="evenodd" d="M687.196 146.894H690.602V141.054H687.196V146.894Z" fill="#1A1A1A"/>
<path fill-rule="evenodd" clip-rule="evenodd" d="M662.693 146.894H666.447V141.054H662.693V146.894Z" fill="#1A1A1A"/>
<path fill-rule="evenodd" clip-rule="evenodd" d="M644.1 146.894H647.854V141.054H644.1V146.894Z" fill="#1A1A1A"/>
<path fill-rule="evenodd" clip-rule="evenodd" d="M650.008 146.894H653.414V141.054H650.008V146.894Z" fill="#1A1A1A"/>
<path fill-rule="evenodd" clip-rule="evenodd" d="M668.603 146.894H672.008V141.054H668.603V146.894Z" fill="#1A1A1A"/>
<path fill-rule="evenodd" clip-rule="evenodd" d="M0.140625 149.951V151.342H706.816V149.951H0.140625Z" fill="#1A1A1A"/>
<path fill-rule="evenodd" clip-rule="evenodd" d="M0.108398 149.979H706.753V151.268H0.108398V149.979Z" fill="#1A1A1A"/>
<path fill-rule="evenodd" clip-rule="evenodd" d="M67.2695 50.2617H61.5259L48.9844 33.0879V27.5273L48.6206 26.1923L47.6294 25.2285L47.5249 25.1289V25.0244L47.3511 22.4873L47.1772 25.0244V25.1289L47.0732 25.2285L46.1509 26.082L45.7305 27.2666H33.1094L32.689 26.082L31.7671 25.2285L31.6626 25.1289V25.0244L31.4888 22.4873L31.3149 25.0244V25.1289L31.2109 25.2285L30.2197 26.1923L29.8555 27.5273V33.0879H29.7969L13.4477 55.4912L13.4473 55.9218H28.2051L28.1982 53.5214L28.5679 53.3037C28.6528 52.789 29.0483 51.3574 30.1196 50.1933C31.2222 51.4853 31.5859 52.7353 31.6787 53.3164L32.0205 53.5214L32.0244 55.9218H46.8032L46.8008 53.5224L47.1631 53.3037C47.2368 52.8173 47.6167 51.413 48.7148 50.1933C49.8223 51.4707 50.1987 52.7929 50.2744 53.3164L50.6162 53.5214L50.6152 55.9218H65.4072L65.4038 55.7226H65.4116V53.5175L65.7783 53.3037C65.8755 52.6904 66.2607 51.4277 67.2695 50.2617ZM30.5859 27.4345H32.3413V31.1289H30.5859V27.4345ZM46.4731 27.4345H48.2285V31.1289H46.4731V27.4345Z" fill="#1A1A1A"/>
<path fill-rule="evenodd" clip-rule="evenodd" d="M639.695 50.2617H645.439L657.98 33.0879V27.5273L658.344 26.1923L659.335 25.2285L659.439 25.1289V25.0244L659.613 22.4873L659.787 25.0244V25.1289L659.892 25.2285L660.814 26.082L661.234 27.2666H673.855L674.275 26.082L675.198 25.2285L675.302 25.1289V25.0244L675.476 22.4873L675.649 25.0244V25.1289L675.754 25.2285L676.745 26.1923L677.109 27.5273V33.0879H677.167L693.517 55.4912V55.9218H678.76L678.766 53.5214L678.397 53.3037C678.312 52.789 677.916 51.3574 676.845 50.1933C675.742 51.4853 675.379 52.7353 675.286 53.3164L674.944 53.5214L674.94 55.9218H660.162L660.163 53.5224L659.802 53.3037C659.728 52.8173 659.348 51.413 658.249 50.1933C657.143 51.4707 656.766 52.7929 656.69 53.3164L656.349 53.5214L656.35 55.9218H641.558L641.561 55.7226H641.553V53.5175L641.186 53.3037C641.089 52.6904 640.704 51.4277 639.695 50.2617ZM676.378 27.4345H674.623V31.1289H676.378V27.4345ZM660.491 27.4345H658.736V31.1289H660.491V27.4345Z" fill="#1A1A1A"/>
<path fill-rule="evenodd" clip-rule="evenodd" d="M30.1622 197.254H37.3056C36.083 196.146 35.4718 194.618 35.4718 192.708V175.251C35.4718 173.341 36.083 171.852 37.3056 170.743H29.7042C29.8184 171.011 29.9332 171.24 29.9332 171.47C29.9332 171.622 29.8951 171.698 29.8565 171.813L24.1266 188.621C23.6685 189.958 23.2867 191.601 22.943 193.549C22.5987 191.563 22.1788 189.92 21.7203 188.621L15.9522 171.813C15.9141 171.736 15.9141 171.622 15.9141 171.546C15.9141 171.278 15.9903 171.049 16.1817 170.743H8.65625C9.87845 171.852 10.5279 173.341 10.5279 175.251V192.708C10.5279 194.618 9.87845 196.146 8.65625 197.254H15.5704C14.3477 196.146 13.6983 194.618 13.6983 192.708V178.002C13.6983 176.358 13.5841 174.869 13.2784 173.608C13.6983 175.137 14.1568 176.664 14.6534 178.116L20.6129 195.382C20.7271 195.688 20.7652 196.031 20.7652 196.413C20.7652 196.681 20.7652 196.948 20.6891 197.254H24.9674C24.8907 196.948 24.8906 196.681 24.8906 196.413C24.8906 196.031 24.9288 195.688 25.044 195.382L30.9643 178.116C31.4609 176.626 31.9195 175.137 32.3394 173.608C32.1104 175.06 32.0343 176.512 32.0343 178.002V192.708C32.0343 194.618 31.3849 196.146 30.1622 197.254ZM71.6817 175.251V187.818C71.6817 190.875 71.873 193.128 72.9805 194.732C74.5088 196.91 76.9536 197.795 80.6201 197.795C84.2866 197.795 86.7706 196.872 88.2984 194.732C89.4444 193.128 89.5972 190.836 89.5972 187.818V175.251C89.5972 173.379 90.2086 171.852 91.4308 170.743H84.4404C85.6626 171.852 86.3121 173.341 86.3121 175.251V188.086C86.3121 192.746 85.2041 194.694 80.7729 194.694C76.3417 194.694 75.1964 192.708 75.1964 188.086V175.251C75.1964 173.341 75.8457 171.852 77.0679 170.743H69.81C71.0322 171.852 71.6817 173.341 71.6817 175.251ZM77.6026 168.069H78.7486L82.1866 164.44C82.836 163.753 83.2178 163.295 83.2178 162.722C83.2178 161.996 82.5683 161.347 81.8808 161.347C81.1553 161.347 80.5826 161.882 80.086 162.951L77.6026 168.069ZM82.1866 168.069H83.2944L87.42 164.556C88.2223 163.867 88.604 163.295 88.604 162.76C88.604 161.92 88.0308 161.385 87.2672 161.385C86.5797 161.385 86.0064 161.843 85.4337 162.798L82.1866 168.069ZM140.209 170.743H123.897C125.12 171.852 125.769 173.341 125.769 175.251V192.708C125.769 194.618 125.12 196.146 123.897 197.254H140.819C141.889 197.254 142.768 197.527 143.608 198.139V189.117C141.584 193.472 138.871 194.503 133.714 194.503C130.62 194.503 129.283 193.854 129.283 191.523V184.687H134.02C136.274 184.687 137.649 185.26 138.986 187.055V179.529C137.649 181.324 136.274 181.897 134.02 181.897H129.283V176.244C129.283 174.182 130.505 173.455 133.333 173.455C138.336 173.455 141.202 174.831 142.806 178.536V169.826C141.965 170.438 141.125 170.743 140.209 170.743ZM196.626 198.139V187.895C196.626 185.832 196.931 184.305 197.657 183.35H190.819C192.309 184.457 193.073 185.985 193.073 187.895V190.34C193.073 192.938 190.781 194.886 187.267 194.886C182.912 194.886 180.162 191.027 180.162 184.266C180.162 177.199 183.027 173.303 187.382 173.303C191.163 173.303 193.302 175.48 195.747 180.217V170.018C194.983 170.705 194.257 171.049 193.417 171.049C192.309 171.049 190.399 170.209 187.687 170.209C180.582 170.209 176.457 175.289 176.457 184.647C176.457 193.281 180.276 197.795 187.496 197.795C190.781 197.795 192.92 196.757 194.028 196.757C195.022 196.757 195.9 197.216 196.626 198.139ZM244.028 174.869L239.253 184.305L234.593 174.869C234.058 173.8 233.867 172.921 233.867 172.501C233.867 171.89 234.135 171.355 234.708 170.743H227.443C228.52 171.813 229.398 173.035 230.124 174.41L237.305 188.048V192.708C237.305 194.618 236.656 196.146 235.434 197.254H242.691C241.469 196.146 240.857 194.618 240.857 192.708V187.856L248.001 174.41C248.765 172.997 249.682 171.775 250.713 170.743H243.914C244.486 171.355 244.792 171.89 244.792 172.501C244.792 172.883 244.563 173.8 244.028 174.869ZM297.122 170.743H280.811C282.034 171.852 282.683 173.341 282.683 175.251V192.708C282.683 194.618 282.034 196.146 280.811 197.254H297.733C298.803 197.254 299.682 197.527 300.522 198.139V189.117C298.497 193.472 295.785 194.503 290.628 194.503C287.534 194.503 286.197 193.854 286.197 191.523V184.687H290.934C293.188 184.687 294.563 185.26 295.9 187.055V179.529C294.563 181.324 293.188 181.897 290.934 181.897H286.197V176.244C286.197 174.182 287.419 173.455 290.247 173.455C295.251 173.455 298.115 174.831 299.72 178.536V169.826C298.879 170.438 298.039 170.743 297.122 170.743ZM344.334 192.708V175.862C344.334 174.105 344.868 173.379 346.473 173.379C349.185 173.379 351.362 175.442 352.508 179.453V169.826C351.897 170.399 351.21 170.743 350.522 170.743H334.593C333.905 170.743 333.256 170.399 332.645 169.826V179.453C333.791 175.442 335.93 173.379 338.68 173.379C340.246 173.379 340.781 174.105 340.781 175.862V192.708C340.781 194.618 340.17 196.146 338.947 197.254H346.167C344.944 196.146 344.334 194.618 344.334 192.708ZM400.598 170.743H384.287C385.51 171.852 386.158 173.341 386.158 175.251V192.708C386.158 194.618 385.51 196.146 384.287 197.254H401.209C402.278 197.254 403.157 197.527 403.997 198.139V189.117C401.973 193.472 399.261 194.503 394.105 194.503C391.01 194.503 389.673 193.854 389.673 191.523V184.687H394.409C396.663 184.687 398.038 185.26 399.376 187.055V179.529C398.038 181.324 396.663 181.897 394.409 181.897H389.673V176.244C389.673 174.182 390.896 173.455 393.723 173.455C398.727 173.455 401.591 174.831 403.195 178.536V169.826C402.356 170.438 401.515 170.743 400.598 170.743ZM458.581 197.254H465.725C464.503 196.146 463.891 194.618 463.891 192.708V175.251C463.891 173.341 464.503 171.852 465.725 170.743H458.123C458.237 171.011 458.353 171.24 458.353 171.47C458.353 171.622 458.314 171.698 458.276 171.813L452.546 188.621C452.088 189.958 451.706 191.601 451.362 193.549C451.019 191.563 450.598 189.92 450.14 188.621L444.371 171.813C444.333 171.736 444.333 171.622 444.333 171.546C444.333 171.278 444.409 171.049 444.601 170.743H437.075C438.298 171.852 438.947 173.341 438.947 175.251V192.708C438.947 194.618 438.298 196.146 437.075 197.254H443.989C442.767 196.146 442.117 194.618 442.117 192.708V178.002C442.117 176.358 442.003 174.869 441.697 173.608C442.117 175.137 442.576 176.664 443.072 178.116L449.032 195.382C449.147 195.688 449.185 196.031 449.185 196.413C449.185 196.681 449.185 196.948 449.108 197.254H453.387C453.31 196.948 453.31 196.681 453.31 196.413C453.31 196.031 453.349 195.688 453.463 195.382L459.384 178.116C459.88 176.626 460.339 175.137 460.759 173.608C460.53 175.06 460.453 176.512 460.453 178.002V192.708C460.453 194.618 459.804 196.146 458.581 197.254ZM533.451 178.498V192.708C533.451 194.618 532.84 196.146 531.618 197.254H538.761C537.538 196.146 536.928 194.618 536.928 192.708V173.15C536.928 171.966 537.08 170.935 537.31 170.209H533.948C534.215 170.781 534.33 171.355 534.33 172.08C534.33 174.487 533.222 175.709 531.083 175.709C530.396 175.709 529.746 175.519 529.097 175.213V179.109C529.593 178.688 530.242 178.498 531.045 178.498H533.451ZM580.739 197.254H588.799C587.921 196.375 587.462 195.42 587.462 194.389C587.462 193.739 587.653 192.746 588.073 191.563L593.612 176.244C594.452 173.952 595.599 172.08 596.897 170.743H580.013C578.943 170.743 578.026 170.438 577.187 169.865V179.338C579.402 175.099 582.496 173.111 586.966 173.111C589.143 173.111 590.174 173.724 590.174 175.099C590.174 175.48 590.06 176.015 589.83 176.626L585.018 189.996C584.024 192.746 582.878 195.152 580.739 197.254ZM637.576 184.495C641.664 184.495 643.994 186.481 643.994 189.729C643.994 193.014 641.664 195 637.576 195C633.488 195 631.159 193.014 631.159 189.729C631.159 186.443 633.489 184.495 637.576 184.495ZM637.576 172.997C641.015 172.997 642.963 174.64 642.963 177.353C642.963 180.103 641.015 181.783 637.576 181.783C634.177 181.783 632.229 180.103 632.229 177.353C632.229 174.64 634.177 172.997 637.576 172.997ZM643.077 182.891C645.331 181.859 646.515 179.987 646.515 177.313C646.515 172.883 643.23 170.209 637.576 170.209C631.923 170.209 628.676 172.883 628.676 177.313C628.676 179.987 629.822 181.859 632.075 182.891C629.173 184.075 627.645 186.405 627.645 189.652C627.645 194.732 631.197 197.795 637.576 197.795C643.955 197.795 647.546 194.732 647.546 189.652C647.546 186.405 645.981 184.075 643.077 182.891ZM679.593 197.871C680.166 197.451 680.815 197.254 681.655 197.254H695.713C696.515 197.254 697.279 197.527 698.043 198.139V187.322C696.974 189.92 696.095 191.829 694.682 193.052C693.269 194.313 691.243 194.656 688.341 194.656C685.094 194.656 683.795 194.351 683.795 192.746C683.795 190.722 686.201 188.697 690.48 185.603C693.191 183.655 695.178 182.241 696.057 180.79C696.82 179.529 697.202 178.23 697.202 176.779C697.202 172.807 694.452 170.171 689.868 170.171C687.08 170.171 684.788 171.087 683.03 171.087C681.961 171.087 681.121 170.743 680.356 170.018V179.911C682.726 175.48 685.857 173.111 689.448 173.111C692.084 173.111 693.65 174.525 693.65 176.817C693.65 178.65 692.695 179.567 691.243 180.866C690.212 181.783 687.958 183.158 685.017 185.526C681.273 188.506 679.517 191.868 679.517 196.337C679.517 196.834 679.555 197.337 679.593 197.871Z" fill="#1A1A1A"/>
</svg>
