<svg width="707" height="199" viewBox="0 0 707 199" fill="none" xmlns="http://www.w3.org/2000/svg">
<path fill-rule="evenodd" clip-rule="evenodd" d="M16.2148 83.6972V92.1777H19.5508V83.6972C18.5332 83.0664 17.2329 83.0664 16.2148 83.6972Z" fill="#F2F2F2"/>
<path fill-rule="evenodd" clip-rule="evenodd" d="M25.8071 83.697V92.1775H22.4707V83.697C23.4892 83.0672 24.7881 83.0672 25.8071 83.697Z" fill="#F2F2F2"/>
<path fill-rule="evenodd" clip-rule="evenodd" d="M16.041 103.263V113.625H19.7251V103.263L19.7246 103.264C18.6006 102.543 17.165 102.542 16.041 103.263Z" fill="#F2F2F2"/>
<path fill-rule="evenodd" clip-rule="evenodd" d="M25.6333 103.263V113.625H21.9492V103.263L21.9497 103.264C23.0747 102.545 24.5088 102.544 25.6333 103.263Z" fill="#F2F2F2"/>
<path fill-rule="evenodd" clip-rule="evenodd" d="M16.041 124.793V134.267H19.7251V124.793C18.5845 124.139 17.1816 124.139 16.041 124.793Z" fill="#F2F2F2"/>
<path fill-rule="evenodd" clip-rule="evenodd" d="M21.9492 124.793V134.267H25.6333V124.793C24.4927 124.139 23.0898 124.139 21.9492 124.793Z" fill="#F2F2F2"/>
<path fill-rule="evenodd" clip-rule="evenodd" d="M40.5439 124.793V134.267H44.228V124.793C43.0874 124.139 41.6846 124.139 40.5439 124.793Z" fill="#F2F2F2"/>
<path fill-rule="evenodd" clip-rule="evenodd" d="M34.6348 124.793V134.267H38.3188V124.793C37.1782 124.139 35.7759 124.139 34.6348 124.793Z" fill="#F2F2F2"/>
<path fill-rule="evenodd" clip-rule="evenodd" d="M53.2295 124.793V134.267H56.9131V124.793C55.7725 124.139 54.3701 124.139 53.2295 124.793Z" fill="#F2F2F2"/>
<path fill-rule="evenodd" clip-rule="evenodd" d="M59.1377 124.793V134.267H62.8218V124.793C61.6812 124.139 60.2783 124.139 59.1377 124.793Z" fill="#F2F2F2"/>
<path fill-rule="evenodd" clip-rule="evenodd" d="M44.228 103.263V113.625H40.5439V103.263C41.6689 102.544 43.103 102.545 44.2275 103.264L44.228 103.263Z" fill="#F2F2F2"/>
<path fill-rule="evenodd" clip-rule="evenodd" d="M34.6348 103.263V113.625H38.3188V103.263L38.3183 103.264C37.1948 102.543 35.7588 102.542 34.6348 103.263Z" fill="#F2F2F2"/>
<path fill-rule="evenodd" clip-rule="evenodd" d="M34.8086 83.6972V92.1777H38.145V83.6972C37.1269 83.0664 35.8266 83.0664 34.8086 83.6972Z" fill="#F2F2F2"/>
<path fill-rule="evenodd" clip-rule="evenodd" d="M44.401 83.697V92.1775H41.0645V83.697C42.0836 83.0672 43.3824 83.0672 44.401 83.697Z" fill="#F2F2F2"/>
<path fill-rule="evenodd" clip-rule="evenodd" d="M62.8218 103.263V113.625H59.1377V103.263C60.2627 102.544 61.6968 102.545 62.8213 103.264L62.8218 103.263Z" fill="#F2F2F2"/>
<path fill-rule="evenodd" clip-rule="evenodd" d="M53.2295 103.263V113.625H56.9131V103.263C55.7895 102.542 54.353 102.542 53.2295 103.263Z" fill="#F2F2F2"/>
<path fill-rule="evenodd" clip-rule="evenodd" d="M53.4033 83.6972V92.1777H56.7397V83.6972C55.7217 83.0664 54.4214 83.0664 53.4033 83.6972Z" fill="#F2F2F2"/>
<path fill-rule="evenodd" clip-rule="evenodd" d="M62.9946 83.697V92.1775H59.6582V83.697C60.6772 83.0672 61.9761 83.0672 62.9946 83.697Z" fill="#F2F2F2"/>
<path fill-rule="evenodd" clip-rule="evenodd" d="M19.7603 147.057H16.3545V141.217H19.7603V147.057Z" fill="#F2F2F2"/>
<path fill-rule="evenodd" clip-rule="evenodd" d="M38.354 147.057H34.9482V141.217H38.354V147.057Z" fill="#F2F2F2"/>
<path fill-rule="evenodd" clip-rule="evenodd" d="M56.9482 147.057H53.542V141.217H56.9482V147.057Z" fill="#F2F2F2"/>
<path fill-rule="evenodd" clip-rule="evenodd" d="M62.8564 147.057H59.1025V141.217H62.8564V147.057Z" fill="#F2F2F2"/>
<path fill-rule="evenodd" clip-rule="evenodd" d="M44.2627 147.057H40.5088V141.217H44.2627V147.057Z" fill="#F2F2F2"/>
<path fill-rule="evenodd" clip-rule="evenodd" d="M25.6685 147.057H21.915V141.217H25.6685V147.057Z" fill="#F2F2F2"/>
<path fill-rule="evenodd" clip-rule="evenodd" d="M16.251 62.9609H18.2666V67.4092H16.251V62.9609Z" fill="#F2F2F2"/>
<path fill-rule="evenodd" clip-rule="evenodd" d="M19.8037 62.9609H21.8193V67.4092H19.8037V62.9609Z" fill="#F2F2F2"/>
<path fill-rule="evenodd" clip-rule="evenodd" d="M23.3574 62.9609H25.3735V67.4092H23.3574V62.9609Z" fill="#F2F2F2"/>
<path fill-rule="evenodd" clip-rule="evenodd" d="M34.8955 62.9609H36.9111V67.4092H34.8955V62.9609Z" fill="#F2F2F2"/>
<path fill-rule="evenodd" clip-rule="evenodd" d="M38.4482 62.9609H40.4643V67.4092H38.4482V62.9609Z" fill="#F2F2F2"/>
<path fill-rule="evenodd" clip-rule="evenodd" d="M41.9512 62.9609H43.9668V67.4092H41.9512V62.9609Z" fill="#F2F2F2"/>
<path fill-rule="evenodd" clip-rule="evenodd" d="M53.4893 62.9609H55.505V67.4092H53.4893V62.9609Z" fill="#F2F2F2"/>
<path fill-rule="evenodd" clip-rule="evenodd" d="M57.043 62.9609H59.0586V67.4092H57.043V62.9609Z" fill="#F2F2F2"/>
<path fill-rule="evenodd" clip-rule="evenodd" d="M60.5957 62.9609H62.6113V67.4092H60.5957V62.9609Z" fill="#F2F2F2"/>
<path fill-rule="evenodd" clip-rule="evenodd" d="M71.1797 83.7176V92.0808H79.2778V83.7176C76.8198 82.1599 73.6377 82.1599 71.1797 83.7176Z" fill="#F2F2F2"/>
<path fill-rule="evenodd" clip-rule="evenodd" d="M78.4951 103.314C76.5015 102.036 73.956 102.036 71.9624 103.314L71.9619 103.313V113.657H78.4956V103.313L78.4951 103.314Z" fill="#F2F2F2"/>
<path fill-rule="evenodd" clip-rule="evenodd" d="M78.4956 124.902C76.4995 123.646 73.958 123.646 71.9619 124.902V134.267H78.4956V124.902Z" fill="#F2F2F2"/>
<path fill-rule="evenodd" clip-rule="evenodd" d="M94.3091 103.314C92.3149 102.036 89.7695 102.036 87.7759 103.314L87.7754 103.313V113.657H94.3091V103.314Z" fill="#F2F2F2"/>
<path fill-rule="evenodd" clip-rule="evenodd" d="M86.9941 83.7176V92.0808H95.0918V83.7176C92.6338 82.1599 89.4526 82.1599 86.9941 83.7176Z" fill="#F2F2F2"/>
<path fill-rule="evenodd" clip-rule="evenodd" d="M94.3091 124.902C92.313 123.646 89.7715 123.646 87.7754 124.902V134.267H94.3091V124.902Z" fill="#F2F2F2"/>
<path fill-rule="evenodd" clip-rule="evenodd" d="M110.122 103.314C108.128 102.036 105.583 102.036 103.589 103.314L103.589 103.313V113.657H110.123V103.313L110.122 103.314Z" fill="#F2F2F2"/>
<path fill-rule="evenodd" clip-rule="evenodd" d="M102.807 83.7176V92.0808H110.905V83.7176C108.447 82.1599 105.265 82.1599 102.807 83.7176Z" fill="#F2F2F2"/>
<path fill-rule="evenodd" clip-rule="evenodd" d="M110.123 124.902C108.126 123.646 105.585 123.646 103.589 124.902L103.589 134.267H110.123V124.902Z" fill="#F2F2F2"/>
<path fill-rule="evenodd" clip-rule="evenodd" d="M125.936 103.314C123.942 102.036 121.397 102.036 119.403 103.314L119.402 103.313V113.657H125.937V103.313L125.936 103.314Z" fill="#F2F2F2"/>
<path fill-rule="evenodd" clip-rule="evenodd" d="M118.621 83.7176V92.0808H126.719V83.7176C124.26 82.1599 121.08 82.1599 118.621 83.7176Z" fill="#F2F2F2"/>
<path fill-rule="evenodd" clip-rule="evenodd" d="M125.937 124.902C123.94 123.646 121.399 123.646 119.402 124.902V134.267H125.937V124.902Z" fill="#F2F2F2"/>
<path fill-rule="evenodd" clip-rule="evenodd" d="M141.75 103.314C139.755 102.036 137.21 102.036 135.216 103.314L135.216 103.313V113.657H141.75V103.314Z" fill="#F2F2F2"/>
<path fill-rule="evenodd" clip-rule="evenodd" d="M134.435 83.7176V92.0808H142.533V83.7176C140.075 82.1599 136.893 82.1599 134.435 83.7176Z" fill="#F2F2F2"/>
<path fill-rule="evenodd" clip-rule="evenodd" d="M141.75 124.902C139.754 123.646 137.212 123.646 135.216 124.902L135.216 134.267H141.75V124.902Z" fill="#F2F2F2"/>
<path fill-rule="evenodd" clip-rule="evenodd" d="M157.564 103.314C155.57 102.036 153.025 102.036 151.031 103.314L151.03 103.313V113.657H157.564V103.314Z" fill="#F2F2F2"/>
<path fill-rule="evenodd" clip-rule="evenodd" d="M150.248 83.7176V92.0808H158.346V83.7176C155.888 82.1599 152.706 82.1599 150.248 83.7176Z" fill="#F2F2F2"/>
<path fill-rule="evenodd" clip-rule="evenodd" d="M157.564 124.902C155.568 123.646 153.027 123.646 151.031 124.902L151.03 134.267H157.564V124.902Z" fill="#F2F2F2"/>
<path fill-rule="evenodd" clip-rule="evenodd" d="M173.377 103.314C171.383 102.036 168.838 102.036 166.844 103.314L166.844 103.313V113.657H173.378V103.313L173.377 103.314Z" fill="#F2F2F2"/>
<path fill-rule="evenodd" clip-rule="evenodd" d="M166.062 83.7176V92.0808H174.159V83.7176C171.701 82.1599 168.52 82.1599 166.062 83.7176Z" fill="#F2F2F2"/>
<path fill-rule="evenodd" clip-rule="evenodd" d="M173.377 124.902C171.381 123.646 168.84 123.646 166.844 124.902V134.267H173.378L173.377 124.902Z" fill="#F2F2F2"/>
<path fill-rule="evenodd" clip-rule="evenodd" d="M189.191 103.314C187.197 102.036 184.652 102.036 182.658 103.314L182.657 103.313V113.657H189.191V103.314Z" fill="#F2F2F2"/>
<path fill-rule="evenodd" clip-rule="evenodd" d="M181.875 83.7176V92.0808H189.973V83.7176C187.515 82.1599 184.332 82.1599 181.875 83.7176Z" fill="#F2F2F2"/>
<path fill-rule="evenodd" clip-rule="evenodd" d="M189.191 124.902C187.195 123.646 184.654 123.646 182.658 124.902L182.657 134.267H189.191V124.902Z" fill="#F2F2F2"/>
<path fill-rule="evenodd" clip-rule="evenodd" d="M205.004 103.314C203.01 102.036 200.465 102.036 198.471 103.314V113.657H205.004V103.313L205.004 103.314Z" fill="#F2F2F2"/>
<path fill-rule="evenodd" clip-rule="evenodd" d="M197.688 83.7176V92.0808H205.786V83.7176C203.329 82.1599 200.146 82.1599 197.688 83.7176Z" fill="#F2F2F2"/>
<path fill-rule="evenodd" clip-rule="evenodd" d="M205.004 124.902C203.008 123.646 200.467 123.646 198.471 124.902V134.267H205.004L205.004 124.902Z" fill="#F2F2F2"/>
<path fill-rule="evenodd" clip-rule="evenodd" d="M220.817 103.314C218.823 102.036 216.278 102.036 214.284 103.314V113.657H220.818V103.313L220.817 103.314Z" fill="#F2F2F2"/>
<path fill-rule="evenodd" clip-rule="evenodd" d="M213.502 83.7176V92.0808H221.6V83.7176C219.142 82.1599 215.959 82.1599 213.502 83.7176Z" fill="#F2F2F2"/>
<path fill-rule="evenodd" clip-rule="evenodd" d="M220.817 124.902C218.821 123.646 216.28 123.646 214.284 124.902V134.267H220.818L220.817 124.902Z" fill="#F2F2F2"/>
<path fill-rule="evenodd" clip-rule="evenodd" d="M236.631 103.314C234.637 102.036 232.092 102.036 230.098 103.314L230.098 103.313V113.657H236.631V103.313L236.631 103.314Z" fill="#F2F2F2"/>
<path fill-rule="evenodd" clip-rule="evenodd" d="M229.315 83.7176V92.0808H237.414V83.7176C234.956 82.1599 231.773 82.1599 229.315 83.7176Z" fill="#F2F2F2"/>
<path fill-rule="evenodd" clip-rule="evenodd" d="M236.631 124.902C234.635 123.646 232.094 123.646 230.098 124.902V134.267H236.631V124.902Z" fill="#F2F2F2"/>
<path fill-rule="evenodd" clip-rule="evenodd" d="M252.445 103.314C250.451 102.036 247.905 102.036 245.911 103.314V113.657H252.445V103.313L252.445 103.314Z" fill="#F2F2F2"/>
<path fill-rule="evenodd" clip-rule="evenodd" d="M245.129 83.7176V92.0808H253.228V83.7176H253.227C250.769 82.1599 247.587 82.1599 245.129 83.7176Z" fill="#F2F2F2"/>
<path fill-rule="evenodd" clip-rule="evenodd" d="M252.445 124.902C250.448 123.646 247.907 123.646 245.911 124.902V134.267H252.445L252.445 124.902Z" fill="#F2F2F2"/>
<path fill-rule="evenodd" clip-rule="evenodd" d="M69.6787 65.5976L69.6803 60.706H69.8096V59.334L70.7672 59.333V58.0332L69.2286 57.5908V53.6845L68.8867 53.4795C68.8311 53.1045 68.5522 51.8281 67.3896 50.4306L256.37 50.4297L256.369 51.2099H256.76V57.9179H256.217L256.216 59.4804L255.869 59.4814L255.872 61.9043L252.194 62.792V64.4131H254.682L254.681 65.6074H251.959C251.602 65.6074 251.289 65.372 251.187 65.0293L251.186 65.0303C250.248 63.5664 248.107 63.5674 247.17 65.0312L247.169 65.0322C247.067 65.373 246.754 65.6074 246.398 65.6074H236.146C235.789 65.6074 235.475 65.372 235.373 65.0293C234.434 63.5654 232.294 63.5674 231.356 65.0312L231.356 65.0322C231.254 65.373 230.94 65.6074 230.585 65.6074H220.332C219.975 65.6074 219.661 65.372 219.56 65.0293L219.559 65.0303C218.621 63.5664 216.48 63.5674 215.543 65.0312L215.542 65.0322C215.44 65.373 215.127 65.6074 214.771 65.6074H204.519C204.161 65.6074 203.847 65.372 203.746 65.0293L203.746 65.0303C202.807 63.5664 200.667 63.5674 199.729 65.0312L199.729 65.0322C199.627 65.373 199.314 65.6074 198.958 65.6074H188.705C188.348 65.6074 188.034 65.372 187.933 65.0293L187.932 65.0303C186.993 63.5664 184.853 63.5674 183.916 65.0312L183.915 65.0322C183.813 65.373 183.5 65.6074 183.144 65.6074H172.891C172.534 65.6074 172.22 65.372 172.119 65.0293L172.119 65.0303C171.18 63.5664 169.04 63.5674 168.102 65.0312L168.102 65.0322C168 65.373 167.687 65.6074 167.33 65.6074H157.078C156.721 65.6074 156.407 65.372 156.306 65.0293L156.305 65.0303C155.366 63.5664 153.226 63.5674 152.289 65.0312L152.288 65.0322C152.186 65.373 151.873 65.6074 151.517 65.6074H141.264C140.907 65.6074 140.593 65.372 140.492 65.0293C139.553 63.5654 137.412 63.5674 136.475 65.0312L136.474 65.0322C136.373 65.373 136.059 65.6074 135.703 65.6074H125.451C125.094 65.6074 124.78 65.372 124.678 65.0293L124.678 65.0303C123.739 63.5664 121.599 63.5674 120.661 65.0312L120.661 65.0322C120.559 65.373 120.246 65.6074 119.89 65.6074H109.637C109.28 65.6074 108.966 65.372 108.865 65.0293L108.864 65.0303C107.925 63.5664 105.785 63.5674 104.848 65.0312L104.847 65.0322C104.746 65.373 104.432 65.6074 104.076 65.6074H93.8232C93.4663 65.6074 93.1524 65.372 93.0514 65.0293L93.0508 65.0303C92.1118 63.5664 89.9717 63.5674 89.0342 65.0312L89.0332 65.0322C88.9316 65.373 88.6183 65.6074 88.2623 65.6074H78.0098C77.6528 65.6074 77.3389 65.372 77.2378 65.0293L77.2374 65.0303C76.2984 63.5664 74.1578 63.5674 73.2203 65.0312L73.2197 65.0322C73.1182 65.373 72.8048 65.6074 72.4488 65.6074L69.6787 65.5976Z" fill="#F2F2F2"/>
<path fill-rule="evenodd" clip-rule="evenodd" d="M637.286 65.5976L637.285 60.706H637.155V59.334L636.197 59.333L636.198 58.0332L637.736 57.5908V53.6845L638.078 53.4795C638.134 53.1045 638.413 51.8281 639.575 50.4306L450.595 50.4297L450.597 51.2099H450.205V57.9179H450.749V59.4804L451.097 59.4814L451.093 61.9043L454.771 62.792V64.4131H452.283L452.284 65.6074H455.006C455.363 65.6074 455.677 65.372 455.778 65.0293C456.718 63.5654 458.857 63.5674 459.795 65.0312L459.796 65.0322C459.897 65.373 460.211 65.6074 460.567 65.6074H470.819C471.177 65.6074 471.49 65.372 471.592 65.0293C472.531 63.5654 474.672 63.5674 475.608 65.0312L475.609 65.0322C475.711 65.373 476.024 65.6074 476.381 65.6074H486.634C486.99 65.6074 487.304 65.372 487.405 65.0293C488.345 63.5654 490.485 63.5674 491.422 65.0312L491.423 65.0322C491.524 65.373 491.839 65.6074 492.194 65.6074H502.446C502.804 65.6074 503.117 65.372 503.219 65.0293L503.22 65.0303C504.158 63.5664 506.299 63.5674 507.236 65.0312C507.338 65.372 507.651 65.6074 508.008 65.6074H518.261C518.617 65.6074 518.931 65.372 519.032 65.0293L519.033 65.0303C519.972 63.5664 522.112 63.5674 523.049 65.0312L523.05 65.0322C523.152 65.373 523.466 65.6074 523.821 65.6074H534.074C534.431 65.6074 534.745 65.372 534.847 65.0293C535.785 63.5654 537.926 63.5674 538.863 65.0312L538.864 65.0322C538.965 65.373 539.278 65.6074 539.635 65.6074H549.888C550.244 65.6074 550.559 65.372 550.659 65.0293L550.66 65.0303C551.599 63.5664 553.739 63.5674 554.677 65.0312L554.678 65.0322C554.779 65.373 555.093 65.6074 555.448 65.6074H565.701C566.059 65.6074 566.372 65.372 566.474 65.0293C567.413 63.5654 569.553 63.5674 570.49 65.0312L570.491 65.0322C570.593 65.373 570.906 65.6074 571.262 65.6074H581.515C581.872 65.6074 582.185 65.372 582.286 65.0293L582.287 65.0303C583.226 63.5664 585.366 63.5674 586.304 65.0312L586.305 65.0322C586.406 65.373 586.72 65.6074 587.075 65.6074H597.328C597.685 65.6074 597.999 65.372 598.101 65.0293C599.04 63.5654 601.18 63.5674 602.117 65.0312L602.118 65.0322C602.22 65.373 602.533 65.6074 602.89 65.6074H613.142C613.499 65.6074 613.813 65.372 613.914 65.0293C614.854 63.5654 616.993 63.5674 617.931 65.0312L617.932 65.0322C618.033 65.373 618.347 65.6074 618.703 65.6074H628.955C629.312 65.6074 629.626 65.372 629.727 65.0293C630.667 63.5654 632.808 63.5674 633.744 65.0312L633.745 65.0322C633.847 65.373 634.16 65.6074 634.517 65.6074H634.516L637.286 65.5976Z" fill="#F2F2F2"/>
<path fill-rule="evenodd" clip-rule="evenodd" d="M74.5342 67.0791V69.292H75.9243V67.0791H74.5342Z" fill="#F2F2F2"/>
<path fill-rule="evenodd" clip-rule="evenodd" d="M90.3477 67.0791V69.292H91.7374V67.0791H90.3477Z" fill="#F2F2F2"/>
<path fill-rule="evenodd" clip-rule="evenodd" d="M106.161 67.0791V69.292H107.552V67.0791H106.161Z" fill="#F2F2F2"/>
<path fill-rule="evenodd" clip-rule="evenodd" d="M121.975 67.0791V69.292H123.365V67.0791H121.975Z" fill="#F2F2F2"/>
<path fill-rule="evenodd" clip-rule="evenodd" d="M137.788 67.0791V69.292H139.179V67.0791H137.788Z" fill="#F2F2F2"/>
<path fill-rule="evenodd" clip-rule="evenodd" d="M153.602 67.0791V69.292H154.992V67.0791H153.602Z" fill="#F2F2F2"/>
<path fill-rule="evenodd" clip-rule="evenodd" d="M169.416 67.0791V69.292H170.806V67.0791H169.416Z" fill="#F2F2F2"/>
<path fill-rule="evenodd" clip-rule="evenodd" d="M185.229 67.0791V69.292H186.619V67.0791H185.229Z" fill="#F2F2F2"/>
<path fill-rule="evenodd" clip-rule="evenodd" d="M201.043 67.0791V69.292H202.433V67.0791H201.043Z" fill="#F2F2F2"/>
<path fill-rule="evenodd" clip-rule="evenodd" d="M216.856 67.0791V69.292H218.246V67.0791H216.856Z" fill="#F2F2F2"/>
<path fill-rule="evenodd" clip-rule="evenodd" d="M232.67 67.0791V69.292H234.06V67.0791H232.67Z" fill="#F2F2F2"/>
<path fill-rule="evenodd" clip-rule="evenodd" d="M248.483 67.0791V69.292H249.874V67.0791H248.483Z" fill="#F2F2F2"/>
<path fill-rule="evenodd" clip-rule="evenodd" d="M272.509 6.39839L272.514 6.90529L273.228 9.75489H271.421L272.134 6.94529L272.141 6.40039C271.998 6.19719 272.019 5.92089 272.191 5.74219L272.191 5.74119L272.325 0.163086L272.458 5.74119C272.631 5.91889 272.652 6.19629 272.509 6.39839ZM271.074 11.6513V16.6015H273.576V11.6513H271.074ZM270.274 18.3388L260.942 46.9824L261.823 48.6904H282.812L283.707 46.998L274.375 18.3388H270.274ZM270.293 37.2666L271.387 42.7021H273.264L274.356 37.2666H270.293ZM272.221 34.5185L270.377 37.0283H274.272L272.429 34.5185H272.221Z" fill="#F2F2F2"/>
<path fill-rule="evenodd" clip-rule="evenodd" d="M434.456 6.39839L434.45 6.90529L433.735 9.75489H435.543L434.831 6.94529L434.823 6.40039C434.967 6.19719 434.945 5.92089 434.773 5.74219L434.64 0.163086L434.506 5.74119C434.334 5.91889 434.313 6.19629 434.456 6.39839ZM435.891 11.6513V16.6015H433.389V11.6513H435.891ZM436.69 18.3388L446.022 46.9824L445.142 48.6904H424.152L423.257 46.998L432.589 18.3388H436.69ZM436.671 37.2666L435.578 42.7021H433.701L432.608 37.2666H436.671ZM434.744 34.5185L436.587 37.0283H432.692L434.535 34.5185H434.744Z" fill="#F2F2F2"/>
<path fill-rule="evenodd" clip-rule="evenodd" d="M404.765 55.2598V54.6182C404.675 54.5889 404.602 54.5225 404.564 54.4356C404.045 53.2003 402.852 52.3789 401.513 52.334C401.292 52.3261 401.116 52.1446 401.116 51.9229H401.115C400.802 51.7305 400.441 51.627 400.073 51.628C399.705 51.627 399.344 51.7305 399.03 51.9229H399.029C399.029 52.1446 398.854 52.3261 398.632 52.334H398.633C397.293 52.3789 396.101 53.2003 395.581 54.4356C395.544 54.5225 395.471 54.5889 395.381 54.6182V55.2598H381.467V54.6182C381.377 54.5889 381.305 54.5225 381.268 54.4356H381.267C380.747 53.2003 379.555 52.3789 378.215 52.334H378.216C377.994 52.3261 377.818 52.1446 377.818 51.9229C377.505 51.7305 377.144 51.627 376.775 51.628C376.407 51.627 376.046 51.7305 375.733 51.9229C375.733 52.1446 375.556 52.3261 375.335 52.334C373.995 52.3789 372.804 53.2003 372.284 54.4356H372.283C372.246 54.5225 372.173 54.5889 372.083 54.6182V55.2598H358.17V54.6182C358.08 54.5889 358.007 54.5225 357.97 54.4356C357.451 53.2003 356.258 52.3789 354.918 52.334C354.696 52.3261 354.522 52.1446 354.522 51.9229H354.521C354.207 51.7305 353.846 51.627 353.478 51.628C353.11 51.627 352.749 51.7305 352.436 51.9229C352.436 52.1446 352.259 52.3261 352.038 52.334C350.698 52.3789 349.506 53.2003 348.987 54.4356C348.95 54.5225 348.876 54.5889 348.786 54.6182L348.786 54.6192V55.2598H334.872V54.6182C334.783 54.5889 334.71 54.5225 334.673 54.4356C334.154 53.2003 332.96 52.3789 331.621 52.334C331.399 52.3261 331.224 52.1446 331.224 51.9229H331.223C330.91 51.7305 330.548 51.627 330.181 51.628C329.812 51.627 329.451 51.7305 329.138 51.9229H329.137C329.137 52.1446 328.962 52.3261 328.74 52.334C327.4 52.3789 326.209 53.2003 325.689 54.4356C325.652 54.5225 325.579 54.5889 325.488 54.6182L325.489 54.6192V55.2598H311.575V54.6182C311.485 54.5889 311.412 54.5225 311.375 54.4356C310.855 53.2003 309.663 52.3789 308.323 52.334C308.102 52.3261 307.926 52.1446 307.926 51.9229C307.613 51.7305 307.251 51.627 306.883 51.628C306.515 51.627 306.154 51.7305 305.841 51.9229H305.84C305.84 52.1446 305.665 52.3261 305.442 52.334C304.102 52.3789 302.911 53.2003 302.392 54.4356C302.355 54.5225 302.281 54.5889 302.191 54.6182L302.191 54.6192V55.2598H287.896V51.2099H288.034L288.29 51.213L288.284 50.4298H291.738L314.177 24.9776H315.247V24.0743L316.29 21.6065H316.09V16.0753C316.085 15.5313 316.205 14.9932 316.443 14.503C316.653 14.0128 317.068 13.6407 317.579 13.4854L317.625 11.9044L317.854 11.1104L318.083 11.9044L318.129 13.4854C318.64 13.6407 319.055 14.0137 319.266 14.504C319.503 14.9942 319.624 15.5323 319.618 16.0772V20.8067H387.338V16.0753C387.332 15.5313 387.453 14.9932 387.69 14.503C387.901 14.0128 388.316 13.6407 388.827 13.4854L388.873 11.9044L389.102 11.1104L389.331 11.9044L389.377 13.4854C389.888 13.6407 390.303 14.0137 390.514 14.504C390.751 14.9942 390.872 15.5323 390.866 16.0772V21.6065H390.666L391.709 24.0743V24.9776H392.778L415.218 50.4298H418.684L418.68 51.2109L419.07 51.2099L419.079 55.2598H404.765ZM388.399 16.0762V20.5636H389.805V16.0762H388.399ZM318.557 16.0762H317.151V20.5636H318.557V16.0762Z" fill="#F2F2F2"/>
<path fill-rule="evenodd" clip-rule="evenodd" d="M263.723 52.0449H265.843V57.9179H263.723V52.0449Z" fill="#F2F2F2"/>
<path fill-rule="evenodd" clip-rule="evenodd" d="M267.494 52.0449H269.614V57.9179H267.494V52.0449Z" fill="#F2F2F2"/>
<path fill-rule="evenodd" clip-rule="evenodd" d="M271.266 52.0449H273.385V57.9179H271.266V52.0449Z" fill="#F2F2F2"/>
<path fill-rule="evenodd" clip-rule="evenodd" d="M275.036 52.0449H277.156V57.9179H275.036V52.0449Z" fill="#F2F2F2"/>
<path fill-rule="evenodd" clip-rule="evenodd" d="M278.807 52.0449H280.927V57.9179H278.807V52.0449Z" fill="#F2F2F2"/>
<path fill-rule="evenodd" clip-rule="evenodd" d="M443.233 52.0449H441.112V57.9179H443.233V52.0449Z" fill="#F2F2F2"/>
<path fill-rule="evenodd" clip-rule="evenodd" d="M439.462 52.0449H437.342V57.9179H439.462V52.0449Z" fill="#F2F2F2"/>
<path fill-rule="evenodd" clip-rule="evenodd" d="M431.92 52.0449H429.8V57.9179H431.92V52.0449Z" fill="#F2F2F2"/>
<path fill-rule="evenodd" clip-rule="evenodd" d="M435.69 52.0449H433.571V57.9179H435.69V52.0449Z" fill="#F2F2F2"/>
<path fill-rule="evenodd" clip-rule="evenodd" d="M428.149 52.0449H426.029V57.9179H428.149V52.0449Z" fill="#F2F2F2"/>
<path fill-rule="evenodd" clip-rule="evenodd" d="M297.548 78.4327H292.922L292.352 74.2618V73.4971H298.118V74.2618L297.548 78.4327Z" fill="#F2F2F2"/>
<path fill-rule="evenodd" clip-rule="evenodd" d="M297.285 79.6836H293.288L293.097 111.259H297.511L297.285 79.6836Z" fill="#F2F2F2"/>
<path fill-rule="evenodd" clip-rule="evenodd" d="M292.176 113.83V117.706H298.293V113.83H292.176Z" fill="#F2F2F2"/>
<path fill-rule="evenodd" clip-rule="evenodd" d="M312.492 86.8164C312.037 86.3437 311.505 85.9502 310.92 85.6543C308.369 84.414 305.389 84.414 302.838 85.6543C302.253 85.9502 301.722 86.3437 301.266 86.8164C300.604 87.4814 300.22 88.373 300.192 89.3105V113.882H313.566V89.3105C313.539 88.373 313.154 87.4814 312.492 86.8164Z" fill="#F2F2F2"/>
<path fill-rule="evenodd" clip-rule="evenodd" d="M315.474 113.83V117.706H321.591V113.83H315.474Z" fill="#F2F2F2"/>
<path fill-rule="evenodd" clip-rule="evenodd" d="M320.583 79.6836H316.585L316.395 111.259H320.809L320.583 79.6836Z" fill="#F2F2F2"/>
<path fill-rule="evenodd" clip-rule="evenodd" d="M320.845 78.4327H316.219L315.648 74.2618V73.4971H321.415V74.2618L320.845 78.4327Z" fill="#F2F2F2"/>
<path fill-rule="evenodd" clip-rule="evenodd" d="M335.79 86.8164C335.335 86.3437 334.803 85.9502 334.218 85.6543C331.667 84.414 328.687 84.414 326.136 85.6543C325.55 85.9502 325.019 86.3437 324.564 86.8164C323.901 87.4814 323.518 88.373 323.49 89.3105V113.882H336.863V89.3105C336.836 88.373 336.452 87.4814 335.79 86.8164Z" fill="#F2F2F2"/>
<path fill-rule="evenodd" clip-rule="evenodd" d="M359.087 86.8164C358.632 86.3437 358.101 85.9502 357.515 85.6543C354.964 84.414 351.984 84.414 349.434 85.6543C348.848 85.9502 348.317 86.3437 347.862 86.8164C347.2 87.4814 346.815 88.373 346.788 89.3105V113.882H360.161V89.3105C360.133 88.373 359.75 87.4814 359.087 86.8164Z" fill="#F2F2F2"/>
<path fill-rule="evenodd" clip-rule="evenodd" d="M343.88 79.6836H339.883L339.692 111.259H344.106L343.88 79.6836Z" fill="#F2F2F2"/>
<path fill-rule="evenodd" clip-rule="evenodd" d="M344.142 78.4327H339.517L338.946 74.2618V73.4971H344.713V74.2618L344.142 78.4327Z" fill="#F2F2F2"/>
<path fill-rule="evenodd" clip-rule="evenodd" d="M338.771 113.83V117.706H344.888V113.83H338.771Z" fill="#F2F2F2"/>
<path fill-rule="evenodd" clip-rule="evenodd" d="M382.384 86.8164C381.929 86.3437 381.397 85.9502 380.813 85.6543C378.262 84.414 375.281 84.414 372.731 85.6543C372.145 85.9502 371.613 86.3437 371.158 86.8164H371.159C370.497 87.4814 370.112 88.373 370.085 89.3105V113.882H383.458V89.3105C383.431 88.373 383.046 87.4814 382.384 86.8164Z" fill="#F2F2F2"/>
<path fill-rule="evenodd" clip-rule="evenodd" d="M367.439 78.4327H362.813L362.243 74.2618V73.4971H368.01V74.2618L367.439 78.4327Z" fill="#F2F2F2"/>
<path fill-rule="evenodd" clip-rule="evenodd" d="M367.177 79.6836H363.181L362.989 111.259H367.403L367.177 79.6836Z" fill="#F2F2F2"/>
<path fill-rule="evenodd" clip-rule="evenodd" d="M362.068 113.83V117.706H368.186V113.83H362.068Z" fill="#F2F2F2"/>
<path fill-rule="evenodd" clip-rule="evenodd" d="M405.682 86.8164C405.227 86.3437 404.695 85.9502 404.11 85.6543C401.56 84.414 398.579 84.414 396.028 85.6543C395.442 85.9502 394.911 86.3437 394.456 86.8164C393.794 87.4814 393.41 88.373 393.383 89.3105V113.882H406.756V89.3105C406.727 88.373 406.344 87.4814 405.682 86.8164Z" fill="#F2F2F2"/>
<path fill-rule="evenodd" clip-rule="evenodd" d="M390.737 78.4327H386.111L385.541 74.2618V73.4971H391.308V74.2618L390.737 78.4327Z" fill="#F2F2F2"/>
<path fill-rule="evenodd" clip-rule="evenodd" d="M390.475 79.6836H386.478L386.287 111.259H390.7L390.475 79.6836Z" fill="#F2F2F2"/>
<path fill-rule="evenodd" clip-rule="evenodd" d="M385.366 113.83V117.706H391.482V113.83H385.366Z" fill="#F2F2F2"/>
<path fill-rule="evenodd" clip-rule="evenodd" d="M414.034 78.4327H409.408L408.838 74.2618V73.4971H414.604V74.2618L414.034 78.4327Z" fill="#F2F2F2"/>
<path fill-rule="evenodd" clip-rule="evenodd" d="M413.772 79.6836H409.775L409.584 111.259H413.998L413.772 79.6836Z" fill="#F2F2F2"/>
<path fill-rule="evenodd" clip-rule="evenodd" d="M408.663 113.83V117.706H414.78V113.83H408.663Z" fill="#F2F2F2"/>
<path fill-rule="evenodd" clip-rule="evenodd" d="M301.815 122.623V126.968H304.074V122.623H301.815Z" fill="#F2F2F2"/>
<path fill-rule="evenodd" clip-rule="evenodd" d="M305.533 122.623V126.968H307.793V122.623H305.533Z" fill="#F2F2F2"/>
<path fill-rule="evenodd" clip-rule="evenodd" d="M309.253 122.623V126.968H311.512V122.623H309.253Z" fill="#F2F2F2"/>
<path fill-rule="evenodd" clip-rule="evenodd" d="M302.979 133.502V135.413H305.864V133.502H302.979Z" fill="#F2F2F2"/>
<path fill-rule="evenodd" clip-rule="evenodd" d="M302.979 136.144V140.626H305.864V136.144H302.979Z" fill="#F2F2F2"/>
<path fill-rule="evenodd" clip-rule="evenodd" d="M307.463 136.144V140.626H310.348V136.144H307.463Z" fill="#F2F2F2"/>
<path fill-rule="evenodd" clip-rule="evenodd" d="M307.463 133.502V135.413H310.348V133.502H307.463Z" fill="#F2F2F2"/>
<path fill-rule="evenodd" clip-rule="evenodd" d="M403.976 136.144V140.626H401.093V136.144H403.976Z" fill="#F2F2F2"/>
<path fill-rule="evenodd" clip-rule="evenodd" d="M403.976 133.502V135.413H401.093V133.502H403.976Z" fill="#F2F2F2"/>
<path fill-rule="evenodd" clip-rule="evenodd" d="M405.141 122.623V126.968H402.882V122.623H405.141Z" fill="#F2F2F2"/>
<path fill-rule="evenodd" clip-rule="evenodd" d="M399.493 133.502V135.413H396.608V133.502H399.493Z" fill="#F2F2F2"/>
<path fill-rule="evenodd" clip-rule="evenodd" d="M399.493 136.144V140.626H396.608V136.144H399.493Z" fill="#F2F2F2"/>
<path fill-rule="evenodd" clip-rule="evenodd" d="M397.703 122.623V126.968H395.444V122.623H397.703Z" fill="#F2F2F2"/>
<path fill-rule="evenodd" clip-rule="evenodd" d="M401.423 122.623V126.968H399.163V122.623H401.423Z" fill="#F2F2F2"/>
<path fill-rule="evenodd" clip-rule="evenodd" d="M387.469 130.912H390.444V131.087C390.387 131.087 390.34 131.134 390.34 131.19V131.382C390.34 131.42 390.309 131.451 390.271 131.451H390.166V131.503C390.166 131.522 390.15 131.537 390.131 131.537V131.538H386.903C386.522 126.23 382.098 122.115 376.775 122.12C371.453 122.115 367.029 126.23 366.648 131.538H363.605C363.224 126.23 358.8 122.115 353.478 122.12C348.156 122.115 343.732 126.23 343.351 131.538H340.308C339.926 126.23 335.503 122.115 330.181 122.12C324.858 122.115 320.435 126.23 320.053 131.538H316.825V131.537C316.806 131.537 316.79 131.522 316.79 131.503L316.79 131.451H316.686C316.647 131.451 316.617 131.42 316.617 131.382L316.616 131.19C316.616 131.134 316.569 131.087 316.512 131.087V130.912H319.487V130.913C320.177 125.529 324.753 121.498 330.181 121.494C335.608 121.498 340.184 125.529 340.874 130.913L340.874 130.912H342.785V130.913C343.474 125.529 348.051 121.498 353.478 121.494C358.905 121.498 363.481 125.529 364.171 130.913V130.912H366.082V130.913C366.772 125.529 371.348 121.498 376.775 121.494C382.202 121.498 386.779 125.529 387.469 130.913V130.912Z" fill="#F2F2F2"/>
<path fill-rule="evenodd" clip-rule="evenodd" d="M323.676 145.666H336.686V141.252L336.755 141.183V134.55H333.704L333.096 133.941H331.597L331.284 133.629H329.078L328.765 133.941H327.266L326.658 134.55H323.606V141.147L323.685 141.256L323.676 145.666Z" fill="#F2F2F2"/>
<path fill-rule="evenodd" clip-rule="evenodd" d="M336.755 132.276C336.759 128.646 333.814 125.697 330.183 125.699C326.552 125.695 323.605 128.642 323.607 132.272L323.606 132.273V134.023H326.464L327.073 133.415H328.572L328.885 133.102H331.478L331.791 133.415H333.272L333.889 134.031H336.755V132.273L336.755 132.276Z" fill="#F2F2F2"/>
<path fill-rule="evenodd" clip-rule="evenodd" d="M346.973 145.666H359.982V141.252L360.053 141.183V134.55H357.001L356.393 133.941H354.893L354.581 133.629H352.375L352.062 133.941H350.563L349.955 134.55H346.903V141.147L346.982 141.256L346.973 145.666Z" fill="#F2F2F2"/>
<path fill-rule="evenodd" clip-rule="evenodd" d="M360.052 132.273C360.055 128.644 357.108 125.696 353.478 125.699C349.847 125.696 346.901 128.644 346.903 132.273V134.023H349.761L350.37 133.415H351.869L352.182 133.102H354.774L355.087 133.415H356.568L357.186 134.031H360.053V132.273H360.052Z" fill="#F2F2F2"/>
<path fill-rule="evenodd" clip-rule="evenodd" d="M370.27 145.666H383.28V141.252L383.35 141.183V134.55H380.299L379.69 133.941H378.191L377.879 133.629H375.672L375.359 133.941H373.86L373.252 134.55H370.201V141.147L370.279 141.256L370.27 145.666Z" fill="#F2F2F2"/>
<path fill-rule="evenodd" clip-rule="evenodd" d="M383.35 132.276C383.353 128.646 380.408 125.697 376.777 125.699C373.146 125.695 370.199 128.642 370.201 132.272V134.023H373.059L373.667 133.415H375.166L375.479 133.102H378.071L378.385 133.415H379.866L380.483 134.031H383.35V132.273V132.276Z" fill="#F2F2F2"/>
<path fill-rule="evenodd" clip-rule="evenodd" d="M267.007 84.0627C265.857 82.718 263.778 82.718 262.628 84.0627L262.628 92.9777H267.007L267.007 84.0627Z" fill="#F2F2F2"/>
<path fill-rule="evenodd" clip-rule="evenodd" d="M274.515 84.0627C273.365 82.718 271.285 82.718 270.136 84.0627L270.136 92.9777H274.515L274.515 84.0627Z" fill="#F2F2F2"/>
<path fill-rule="evenodd" clip-rule="evenodd" d="M281.865 84.0627C280.716 82.718 278.636 82.718 277.486 84.0627V92.9777H281.865V84.0627Z" fill="#F2F2F2"/>
<path fill-rule="evenodd" clip-rule="evenodd" d="M262.628 103.144V113.872H267.007V103.144H262.628Z" fill="#F2F2F2"/>
<path fill-rule="evenodd" clip-rule="evenodd" d="M270.136 103.144V113.872H274.515V103.144H270.136Z" fill="#F2F2F2"/>
<path fill-rule="evenodd" clip-rule="evenodd" d="M277.486 103.144V113.872H281.865V103.144H277.486Z" fill="#F2F2F2"/>
<path fill-rule="evenodd" clip-rule="evenodd" d="M262.646 123.522V134.318H267.025V123.522H262.646Z" fill="#F2F2F2"/>
<path fill-rule="evenodd" clip-rule="evenodd" d="M270.136 123.522V134.318H274.515V123.522H270.136Z" fill="#F2F2F2"/>
<path fill-rule="evenodd" clip-rule="evenodd" d="M277.625 123.522V134.318H282.004V123.522H277.625Z" fill="#F2F2F2"/>
<path fill-rule="evenodd" clip-rule="evenodd" d="M262.594 141.217V146.952H267.042V141.217H262.594Z" fill="#F2F2F2"/>
<path fill-rule="evenodd" clip-rule="evenodd" d="M270.101 141.217V146.952H274.549V141.217H270.101Z" fill="#F2F2F2"/>
<path fill-rule="evenodd" clip-rule="evenodd" d="M277.608 141.217V146.952H282.057V141.217H277.608Z" fill="#F2F2F2"/>
<path fill-rule="evenodd" clip-rule="evenodd" d="M439.949 84.0623C441.101 82.7195 443.176 82.7195 444.327 84.0623L444.328 92.9773H439.948V84.0623H439.949Z" fill="#F2F2F2"/>
<path fill-rule="evenodd" clip-rule="evenodd" d="M432.441 84.0623C433.593 82.7195 435.669 82.7195 436.82 84.0623V92.9773H432.441V84.0623Z" fill="#F2F2F2"/>
<path fill-rule="evenodd" clip-rule="evenodd" d="M425.091 84.0623C426.242 82.7195 428.318 82.7195 429.47 84.0623V92.9773H425.091V84.0623Z" fill="#F2F2F2"/>
<path fill-rule="evenodd" clip-rule="evenodd" d="M444.328 103.144V113.811H439.948V103.144H444.328Z" fill="#F2F2F2"/>
<path fill-rule="evenodd" clip-rule="evenodd" d="M436.82 103.144V113.811H432.441V103.144H436.82Z" fill="#F2F2F2"/>
<path fill-rule="evenodd" clip-rule="evenodd" d="M429.47 103.144V113.811H425.091V103.144H429.47Z" fill="#F2F2F2"/>
<path fill-rule="evenodd" clip-rule="evenodd" d="M429.331 123.215V134.318H424.952V123.215H429.331Z" fill="#F2F2F2"/>
<path fill-rule="evenodd" clip-rule="evenodd" d="M436.82 123.215V134.318H432.441V123.215H436.82Z" fill="#F2F2F2"/>
<path fill-rule="evenodd" clip-rule="evenodd" d="M444.31 123.215V134.318H439.931V123.215H444.31Z" fill="#F2F2F2"/>
<path fill-rule="evenodd" clip-rule="evenodd" d="M429.348 141.217V146.952H424.899V141.217H429.348Z" fill="#F2F2F2"/>
<path fill-rule="evenodd" clip-rule="evenodd" d="M436.856 141.217V146.952H432.406V141.217H436.856Z" fill="#F2F2F2"/>
<path fill-rule="evenodd" clip-rule="evenodd" d="M444.362 141.217V146.952H439.914V141.217H444.362Z" fill="#F2F2F2"/>
<path fill-rule="evenodd" clip-rule="evenodd" d="M628.46 124.902C630.459 123.649 632.996 123.649 634.994 124.902V134.266H628.46V124.902Z" fill="#F2F2F2"/>
<path fill-rule="evenodd" clip-rule="evenodd" d="M628.461 103.337C630.456 102.031 632.998 102.031 634.994 103.337V113.93H628.46V103.336L628.461 103.337Z" fill="#F2F2F2"/>
<path fill-rule="evenodd" clip-rule="evenodd" d="M635.776 83.7254V92.1384H627.678V83.7254C630.139 82.1619 633.316 82.1619 635.776 83.7254Z" fill="#F2F2F2"/>
<path fill-rule="evenodd" clip-rule="evenodd" d="M632.422 67.0791V69.292H631.032V67.0791H632.422Z" fill="#F2F2F2"/>
<path fill-rule="evenodd" clip-rule="evenodd" d="M596.833 124.902C598.831 123.649 601.368 123.649 603.366 124.902H603.367V134.266H596.833V124.902Z" fill="#F2F2F2"/>
<path fill-rule="evenodd" clip-rule="evenodd" d="M604.149 83.7254V92.1384H596.051V83.7254C598.512 82.1619 601.688 82.1619 604.149 83.7254Z" fill="#F2F2F2"/>
<path fill-rule="evenodd" clip-rule="evenodd" d="M596.833 103.337C598.829 102.031 601.37 102.031 603.366 103.337L603.367 103.336V113.93H596.833V103.337Z" fill="#F2F2F2"/>
<path fill-rule="evenodd" clip-rule="evenodd" d="M612.646 124.902C614.644 123.649 617.183 123.649 619.181 124.902V134.266H612.646V124.902Z" fill="#F2F2F2"/>
<path fill-rule="evenodd" clip-rule="evenodd" d="M612.647 103.337C614.643 102.031 617.185 102.031 619.18 103.337L619.181 103.336V113.93H612.646V103.336L612.647 103.337Z" fill="#F2F2F2"/>
<path fill-rule="evenodd" clip-rule="evenodd" d="M619.962 83.7254V92.1384H611.864V83.7254C614.324 82.1619 617.501 82.1619 619.962 83.7254Z" fill="#F2F2F2"/>
<path fill-rule="evenodd" clip-rule="evenodd" d="M616.608 67.0791V69.292H615.219V67.0791H616.608Z" fill="#F2F2F2"/>
<path fill-rule="evenodd" clip-rule="evenodd" d="M581.02 124.902C583.018 123.649 585.556 123.649 587.554 124.902V134.266H581.02V124.902Z" fill="#F2F2F2"/>
<path fill-rule="evenodd" clip-rule="evenodd" d="M581.02 103.337C583.016 102.031 585.557 102.031 587.553 103.337L587.554 103.336V113.93H581.02V103.337Z" fill="#F2F2F2"/>
<path fill-rule="evenodd" clip-rule="evenodd" d="M588.335 83.7254V92.1384H580.237V83.7254C582.698 82.1619 585.874 82.1619 588.335 83.7254Z" fill="#F2F2F2"/>
<path fill-rule="evenodd" clip-rule="evenodd" d="M600.795 67.0791V69.292H599.404V67.0791H600.795Z" fill="#F2F2F2"/>
<path fill-rule="evenodd" clip-rule="evenodd" d="M584.981 67.0791V69.292H583.591V67.0791H584.981Z" fill="#F2F2F2"/>
<path fill-rule="evenodd" clip-rule="evenodd" d="M517.766 124.902C519.764 123.649 522.301 123.649 524.299 124.902V134.266H517.766V124.902Z" fill="#F2F2F2"/>
<path fill-rule="evenodd" clip-rule="evenodd" d="M525.081 83.7254V92.1384H516.983V83.7254C519.444 82.1619 522.62 82.1619 525.081 83.7254Z" fill="#F2F2F2"/>
<path fill-rule="evenodd" clip-rule="evenodd" d="M517.766 103.337C519.762 102.031 522.303 102.031 524.299 103.337V113.93H517.766V103.337Z" fill="#F2F2F2"/>
<path fill-rule="evenodd" clip-rule="evenodd" d="M565.206 124.902C567.204 123.649 569.741 123.649 571.739 124.902L571.74 134.266H565.206V124.902Z" fill="#F2F2F2"/>
<path fill-rule="evenodd" clip-rule="evenodd" d="M565.206 103.337C567.202 102.031 569.743 102.031 571.739 103.337L571.74 103.336V113.93H565.206V103.337Z" fill="#F2F2F2"/>
<path fill-rule="evenodd" clip-rule="evenodd" d="M549.393 124.902C551.391 123.649 553.928 123.649 555.926 124.902V134.266H549.393V124.902Z" fill="#F2F2F2"/>
<path fill-rule="evenodd" clip-rule="evenodd" d="M549.393 103.337C551.389 102.031 553.93 102.031 555.926 103.337V113.93H549.393V103.337Z" fill="#F2F2F2"/>
<path fill-rule="evenodd" clip-rule="evenodd" d="M572.522 83.7254V92.1384H564.424V83.7254C566.885 82.1619 570.061 82.1619 572.522 83.7254Z" fill="#F2F2F2"/>
<path fill-rule="evenodd" clip-rule="evenodd" d="M569.168 67.0791V69.292H567.777V67.0791H569.168Z" fill="#F2F2F2"/>
<path fill-rule="evenodd" clip-rule="evenodd" d="M556.708 83.7254V92.1384H548.61V83.7254C551.071 82.1619 554.247 82.1619 556.708 83.7254Z" fill="#F2F2F2"/>
<path fill-rule="evenodd" clip-rule="evenodd" d="M553.354 67.0791V69.292H551.964V67.0791H553.354Z" fill="#F2F2F2"/>
<path fill-rule="evenodd" clip-rule="evenodd" d="M533.579 124.902C535.577 123.649 538.114 123.649 540.112 124.902V134.266H533.578V124.902H533.579Z" fill="#F2F2F2"/>
<path fill-rule="evenodd" clip-rule="evenodd" d="M533.579 103.337C535.575 102.031 538.116 102.031 540.112 103.337V113.93H533.578V103.336L533.579 103.337Z" fill="#F2F2F2"/>
<path fill-rule="evenodd" clip-rule="evenodd" d="M540.894 83.7254V92.1384H532.797V83.7254C535.258 82.1619 538.434 82.1619 540.894 83.7254Z" fill="#F2F2F2"/>
<path fill-rule="evenodd" clip-rule="evenodd" d="M537.54 67.0791V69.292H536.15V67.0791H537.54Z" fill="#F2F2F2"/>
<path fill-rule="evenodd" clip-rule="evenodd" d="M521.728 67.0791V69.292H520.337V67.0791H521.728Z" fill="#F2F2F2"/>
<path fill-rule="evenodd" clip-rule="evenodd" d="M486.139 124.902C488.137 123.649 490.674 123.649 492.672 124.902V134.266H486.138V124.902H486.139Z" fill="#F2F2F2"/>
<path fill-rule="evenodd" clip-rule="evenodd" d="M493.454 83.7254V92.1384H485.356V83.7254C487.817 82.1619 490.993 82.1619 493.454 83.7254Z" fill="#F2F2F2"/>
<path fill-rule="evenodd" clip-rule="evenodd" d="M486.139 103.337C488.135 102.031 490.676 102.031 492.672 103.337V113.93H486.138V103.336L486.139 103.337Z" fill="#F2F2F2"/>
<path fill-rule="evenodd" clip-rule="evenodd" d="M501.952 124.902C503.95 123.649 506.487 123.649 508.485 124.902V134.266H501.951L501.952 124.902Z" fill="#F2F2F2"/>
<path fill-rule="evenodd" clip-rule="evenodd" d="M501.952 103.337C503.948 102.031 506.489 102.031 508.485 103.337V113.93H501.951V103.336L501.952 103.337Z" fill="#F2F2F2"/>
<path fill-rule="evenodd" clip-rule="evenodd" d="M509.268 83.7254V92.1384H501.169V83.7254H501.17C503.631 82.1619 506.807 82.1619 509.268 83.7254Z" fill="#F2F2F2"/>
<path fill-rule="evenodd" clip-rule="evenodd" d="M505.913 67.0791V69.292H504.523V67.0791H505.913Z" fill="#F2F2F2"/>
<path fill-rule="evenodd" clip-rule="evenodd" d="M470.324 124.902C472.323 123.649 474.86 123.649 476.858 124.902V134.266H470.324V124.902Z" fill="#F2F2F2"/>
<path fill-rule="evenodd" clip-rule="evenodd" d="M470.325 103.337C472.32 102.031 474.862 102.031 476.857 103.337L476.858 103.336V113.93H470.324V103.336L470.325 103.337Z" fill="#F2F2F2"/>
<path fill-rule="evenodd" clip-rule="evenodd" d="M490.1 67.0791V69.292H488.71V67.0791H490.1Z" fill="#F2F2F2"/>
<path fill-rule="evenodd" clip-rule="evenodd" d="M477.641 83.7254V92.1384H469.542V83.7254C472.003 82.1619 475.18 82.1619 477.641 83.7254Z" fill="#F2F2F2"/>
<path fill-rule="evenodd" clip-rule="evenodd" d="M474.286 67.0791V69.292H472.896V67.0791H474.286Z" fill="#F2F2F2"/>
<path fill-rule="evenodd" clip-rule="evenodd" d="M454.511 124.902C456.51 123.649 459.047 123.649 461.045 124.902V134.266H454.511V124.902Z" fill="#F2F2F2"/>
<path fill-rule="evenodd" clip-rule="evenodd" d="M454.511 103.337C456.508 102.031 459.049 102.031 461.045 103.337V113.93H454.511V103.337Z" fill="#F2F2F2"/>
<path fill-rule="evenodd" clip-rule="evenodd" d="M461.827 83.7254V92.1384H453.729V83.7254H453.73C456.19 82.1619 459.367 82.1619 461.827 83.7254Z" fill="#F2F2F2"/>
<path fill-rule="evenodd" clip-rule="evenodd" d="M458.473 67.0791V69.292H457.083V67.0791H458.473Z" fill="#F2F2F2"/>
<path fill-rule="evenodd" clip-rule="evenodd" d="M685.007 124.793V134.267H681.322V124.793C682.464 124.141 683.865 124.141 685.007 124.793Z" fill="#F2F2F2"/>
<path fill-rule="evenodd" clip-rule="evenodd" d="M681.322 103.264V113.654H685.007V103.264C683.884 102.543 682.446 102.543 681.322 103.264Z" fill="#F2F2F2"/>
<path fill-rule="evenodd" clip-rule="evenodd" d="M690.915 124.793V134.267H687.23V124.793C688.372 124.141 689.773 124.141 690.915 124.793Z" fill="#F2F2F2"/>
<path fill-rule="evenodd" clip-rule="evenodd" d="M690.915 103.264V113.654H687.23V103.264C688.355 102.545 689.79 102.545 690.915 103.264Z" fill="#F2F2F2"/>
<path fill-rule="evenodd" clip-rule="evenodd" d="M690.741 83.6885V92.0049H687.405V83.6885C688.424 83.0713 689.723 83.0713 690.741 83.6885Z" fill="#F2F2F2"/>
<path fill-rule="evenodd" clip-rule="evenodd" d="M687.152 62.9609H685.136V67.4092H687.152V62.9609Z" fill="#F2F2F2"/>
<path fill-rule="evenodd" clip-rule="evenodd" d="M690.705 62.9609H688.689V67.4092H690.705V62.9609Z" fill="#F2F2F2"/>
<path fill-rule="evenodd" clip-rule="evenodd" d="M672.321 103.264V113.654H668.637V103.264H668.638C669.762 102.545 671.196 102.545 672.321 103.264Z" fill="#F2F2F2"/>
<path fill-rule="evenodd" clip-rule="evenodd" d="M672.321 124.793V134.267H668.637V124.793H668.638C669.778 124.141 671.18 124.141 672.321 124.793Z" fill="#F2F2F2"/>
<path fill-rule="evenodd" clip-rule="evenodd" d="M666.413 124.793V134.267H662.729V124.793C663.87 124.141 665.271 124.141 666.412 124.793H666.413Z" fill="#F2F2F2"/>
<path fill-rule="evenodd" clip-rule="evenodd" d="M662.729 103.264V113.654H666.413V103.264H666.412C665.289 102.543 663.853 102.543 662.729 103.264Z" fill="#F2F2F2"/>
<path fill-rule="evenodd" clip-rule="evenodd" d="M672.147 83.6885V92.0049H668.811V83.6885C669.829 83.0713 671.128 83.0713 672.147 83.6885Z" fill="#F2F2F2"/>
<path fill-rule="evenodd" clip-rule="evenodd" d="M672.061 62.9609H670.045V67.4092H672.061V62.9609Z" fill="#F2F2F2"/>
<path fill-rule="evenodd" clip-rule="evenodd" d="M681.148 83.6885V92.0049H684.485V83.6885C683.468 83.0693 682.167 83.0693 681.148 83.6885Z" fill="#F2F2F2"/>
<path fill-rule="evenodd" clip-rule="evenodd" d="M683.599 62.9609H681.583V67.4092H683.599V62.9609Z" fill="#F2F2F2"/>
<path fill-rule="evenodd" clip-rule="evenodd" d="M662.555 83.6885V92.0049H665.892V83.6885C664.873 83.0693 663.573 83.0693 662.555 83.6885Z" fill="#F2F2F2"/>
<path fill-rule="evenodd" clip-rule="evenodd" d="M665.005 62.9609H662.989V67.4092H665.005V62.9609Z" fill="#F2F2F2"/>
<path fill-rule="evenodd" clip-rule="evenodd" d="M668.508 62.9609H666.491V67.4092H668.508V62.9609Z" fill="#F2F2F2"/>
<path fill-rule="evenodd" clip-rule="evenodd" d="M653.727 124.793V134.267H650.043V124.793C651.185 124.141 652.585 124.141 653.727 124.793Z" fill="#F2F2F2"/>
<path fill-rule="evenodd" clip-rule="evenodd" d="M647.818 124.793V134.267H644.135V124.793C645.276 124.141 646.677 124.141 647.818 124.793Z" fill="#F2F2F2"/>
<path fill-rule="evenodd" clip-rule="evenodd" d="M653.727 103.264V113.654H650.043V103.264C651.168 102.545 652.602 102.545 653.727 103.264Z" fill="#F2F2F2"/>
<path fill-rule="evenodd" clip-rule="evenodd" d="M644.135 103.264V113.654H647.818V103.264C646.694 102.543 645.259 102.543 644.135 103.264Z" fill="#F2F2F2"/>
<path fill-rule="evenodd" clip-rule="evenodd" d="M653.554 83.6885V92.0049H650.217V83.6885C651.235 83.0713 652.534 83.0713 653.554 83.6885Z" fill="#F2F2F2"/>
<path fill-rule="evenodd" clip-rule="evenodd" d="M643.961 83.6885V92.0049H647.298V83.6885C646.279 83.0693 644.98 83.0693 643.961 83.6885Z" fill="#F2F2F2"/>
<path fill-rule="evenodd" clip-rule="evenodd" d="M653.467 62.9609H651.451V67.4092H653.467V62.9609Z" fill="#F2F2F2"/>
<path fill-rule="evenodd" clip-rule="evenodd" d="M646.36 62.9609H644.345V67.4092H646.36V62.9609Z" fill="#F2F2F2"/>
<path fill-rule="evenodd" clip-rule="evenodd" d="M649.913 62.9609H647.897V67.4092H649.913V62.9609Z" fill="#F2F2F2"/>
<path fill-rule="evenodd" clip-rule="evenodd" d="M681.288 147.057H685.041V141.217H681.288V147.057Z" fill="#F2F2F2"/>
<path fill-rule="evenodd" clip-rule="evenodd" d="M687.196 147.057H690.602V141.217H687.196V147.057Z" fill="#F2F2F2"/>
<path fill-rule="evenodd" clip-rule="evenodd" d="M662.693 147.057H666.447V141.217H662.693V147.057Z" fill="#F2F2F2"/>
<path fill-rule="evenodd" clip-rule="evenodd" d="M644.1 147.057H647.854V141.217H644.1V147.057Z" fill="#F2F2F2"/>
<path fill-rule="evenodd" clip-rule="evenodd" d="M650.008 147.057H653.414V141.217H650.008V147.057Z" fill="#F2F2F2"/>
<path fill-rule="evenodd" clip-rule="evenodd" d="M668.603 147.057H672.008V141.217H668.603V147.057Z" fill="#F2F2F2"/>
<path fill-rule="evenodd" clip-rule="evenodd" d="M0.140625 150.114V151.505H706.816V150.114H0.140625Z" fill="#F2F2F2"/>
<path fill-rule="evenodd" clip-rule="evenodd" d="M0.108398 150.142H706.753V151.431H0.108398V150.142Z" fill="#F2F2F2"/>
<path fill-rule="evenodd" clip-rule="evenodd" d="M67.2695 50.4248H61.5259L48.9844 33.251V27.6904L48.6206 26.3554L47.6294 25.3916L47.5249 25.292V25.1875L47.3511 22.6504L47.1772 25.1875V25.292L47.0732 25.3916L46.1509 26.2451L45.7305 27.4297H33.1094L32.689 26.2451L31.7671 25.3916L31.6626 25.292V25.1875L31.4888 22.6504L31.3149 25.1875V25.292L31.2109 25.3916L30.2197 26.3554L29.8555 27.6904V33.251H29.7969L13.4477 55.6543L13.4473 56.0849H28.2051L28.1982 53.6845L28.5679 53.4668C28.6528 52.9521 29.0483 51.5205 30.1196 50.3564C31.2222 51.6484 31.5859 52.8984 31.6787 53.4795L32.0205 53.6845L32.0244 56.0849H46.8032L46.8008 53.6855L47.1631 53.4668C47.2368 52.9804 47.6167 51.5761 48.7148 50.3564C49.8223 51.6338 50.1987 52.956 50.2744 53.4795L50.6162 53.6845L50.6152 56.0849H65.4072L65.4038 55.8857H65.4116V53.6806L65.7783 53.4668C65.8755 52.8535 66.2607 51.5908 67.2695 50.4248ZM30.5859 27.5976H32.3413V31.292H30.5859V27.5976ZM46.4731 27.5976H48.2285V31.292H46.4731V27.5976Z" fill="#F2F2F2"/>
<path fill-rule="evenodd" clip-rule="evenodd" d="M639.695 50.4248H645.439L657.98 33.251V27.6904L658.344 26.3554L659.335 25.3916L659.439 25.292V25.1875L659.613 22.6504L659.787 25.1875V25.292L659.892 25.3916L660.814 26.2451L661.234 27.4297H673.855L674.275 26.2451L675.198 25.3916L675.302 25.292V25.1875L675.476 22.6504L675.649 25.1875V25.292L675.754 25.3916L676.745 26.3554L677.109 27.6904V33.251H677.167L693.517 55.6543V56.0849H678.76L678.766 53.6845L678.397 53.4668C678.312 52.9521 677.916 51.5205 676.845 50.3564C675.742 51.6484 675.379 52.8984 675.286 53.4795L674.944 53.6845L674.94 56.0849H660.162L660.163 53.6855L659.802 53.4668C659.728 52.9804 659.348 51.5761 658.249 50.3564C657.143 51.6338 656.766 52.956 656.69 53.4795L656.349 53.6845L656.35 56.0849H641.558L641.561 55.8857H641.553V53.6806L641.186 53.4668C641.089 52.8535 640.704 51.5908 639.695 50.4248ZM676.378 27.5976H674.623V31.292H676.378V27.5976ZM660.491 27.5976H658.736V31.292H660.491V27.5976Z" fill="#F2F2F2"/>
<path fill-rule="evenodd" clip-rule="evenodd" d="M30.1622 197.417H37.3056C36.083 196.31 35.4718 194.781 35.4718 192.871V175.414C35.4718 173.504 36.083 172.015 37.3056 170.906H29.7042C29.8184 171.174 29.9332 171.403 29.9332 171.633C29.9332 171.785 29.8951 171.861 29.8565 171.977L24.1266 188.784C23.6685 190.121 23.2867 191.764 22.943 193.712C22.5987 191.726 22.1788 190.083 21.7203 188.784L15.9522 171.977C15.9141 171.899 15.9141 171.785 15.9141 171.709C15.9141 171.441 15.9903 171.212 16.1817 170.906H8.65625C9.87845 172.015 10.5279 173.504 10.5279 175.414V192.871C10.5279 194.781 9.87845 196.31 8.65625 197.417H15.5704C14.3477 196.31 13.6983 194.781 13.6983 192.871V178.165C13.6983 176.522 13.5841 175.032 13.2784 173.772C13.6983 175.3 14.1568 176.827 14.6534 178.279L20.6129 195.545C20.7271 195.851 20.7652 196.194 20.7652 196.576C20.7652 196.844 20.7652 197.111 20.6891 197.417H24.9674C24.8907 197.111 24.8906 196.844 24.8906 196.576C24.8906 196.194 24.9288 195.851 25.044 195.545L30.9643 178.279C31.4609 176.789 31.9195 175.3 32.3394 173.772C32.1104 175.223 32.0343 176.675 32.0343 178.165V192.871C32.0343 194.781 31.3849 196.31 30.1622 197.417ZM71.6817 175.414V187.981C71.6817 191.038 71.873 193.291 72.9805 194.896C74.5088 197.073 76.9536 197.958 80.6201 197.958C84.2866 197.958 86.7706 197.035 88.2984 194.896C89.4444 193.291 89.5972 190.999 89.5972 187.981V175.414C89.5972 173.542 90.2086 172.015 91.4308 170.906H84.4404C85.6626 172.015 86.3121 173.504 86.3121 175.414V188.249C86.3121 192.909 85.2041 194.857 80.7729 194.857C76.3417 194.857 75.1964 192.871 75.1964 188.249V175.414C75.1964 173.504 75.8457 172.015 77.0679 170.906H69.81C71.0322 172.015 71.6817 173.504 71.6817 175.414ZM77.6026 168.232H78.7486L82.1866 164.604C82.836 163.916 83.2178 163.458 83.2178 162.885C83.2178 162.159 82.5683 161.51 81.8808 161.51C81.1553 161.51 80.5826 162.045 80.086 163.114L77.6026 168.232ZM82.1866 168.232H83.2944L87.42 164.719C88.2223 164.03 88.604 163.458 88.604 162.923C88.604 162.083 88.0308 161.548 87.2672 161.548C86.5797 161.548 86.0064 162.006 85.4337 162.961L82.1866 168.232ZM140.209 170.906H123.897C125.12 172.015 125.769 173.504 125.769 175.414V192.871C125.769 194.781 125.12 196.31 123.897 197.417H140.819C141.889 197.417 142.768 197.69 143.608 198.302V189.28C141.584 193.635 138.871 194.666 133.714 194.666C130.62 194.666 129.283 194.017 129.283 191.687V184.85H134.02C136.274 184.85 137.649 185.423 138.986 187.218V179.692C137.649 181.487 136.274 182.061 134.02 182.061H129.283V176.407C129.283 174.345 130.505 173.618 133.333 173.618C138.336 173.618 141.202 174.994 142.806 178.699V169.989C141.965 170.601 141.125 170.906 140.209 170.906ZM196.626 198.302V188.058C196.626 185.995 196.931 184.468 197.657 183.513H190.819C192.309 184.62 193.073 186.148 193.073 188.058V190.503C193.073 193.101 190.781 195.049 187.267 195.049C182.912 195.049 180.162 191.19 180.162 184.429C180.162 177.362 183.027 173.466 187.382 173.466C191.163 173.466 193.302 175.644 195.747 180.38V170.181C194.983 170.868 194.257 171.212 193.417 171.212C192.309 171.212 190.399 170.372 187.687 170.372C180.582 170.372 176.457 175.452 176.457 184.811C176.457 193.444 180.276 197.958 187.496 197.958C190.781 197.958 192.92 196.92 194.028 196.92C195.022 196.92 195.9 197.379 196.626 198.302ZM244.028 175.032L239.253 184.468L234.593 175.032C234.058 173.963 233.867 173.084 233.867 172.664C233.867 172.053 234.135 171.518 234.708 170.906H227.443C228.52 171.977 229.398 173.198 230.124 174.573L237.305 188.211V192.871C237.305 194.781 236.656 196.31 235.434 197.417H242.691C241.469 196.31 240.857 194.781 240.857 192.871V188.02L248.001 174.573C248.765 173.16 249.682 171.939 250.713 170.906H243.914C244.486 171.518 244.792 172.053 244.792 172.664C244.792 173.046 244.563 173.963 244.028 175.032ZM297.122 170.906H280.811C282.034 172.015 282.683 173.504 282.683 175.414V192.871C282.683 194.781 282.034 196.31 280.811 197.417H297.733C298.803 197.417 299.682 197.69 300.522 198.302V189.28C298.497 193.635 295.785 194.666 290.628 194.666C287.534 194.666 286.197 194.017 286.197 191.687V184.85H290.934C293.188 184.85 294.563 185.423 295.9 187.218V179.692C294.563 181.487 293.188 182.061 290.934 182.061H286.197V176.407C286.197 174.345 287.419 173.618 290.247 173.618C295.251 173.618 298.115 174.994 299.72 178.699V169.989C298.879 170.601 298.039 170.906 297.122 170.906ZM344.334 192.871V176.025C344.334 174.269 344.868 173.542 346.473 173.542C349.185 173.542 351.362 175.605 352.508 179.616V169.989C351.897 170.563 351.21 170.906 350.522 170.906H334.593C333.905 170.906 333.256 170.563 332.645 169.989V179.616C333.791 175.605 335.93 173.542 338.68 173.542C340.246 173.542 340.781 174.269 340.781 176.025V192.871C340.781 194.781 340.17 196.31 338.947 197.417H346.167C344.944 196.31 344.334 194.781 344.334 192.871ZM400.598 170.906H384.287C385.51 172.015 386.158 173.504 386.158 175.414V192.871C386.158 194.781 385.51 196.31 384.287 197.417H401.209C402.278 197.417 403.157 197.69 403.997 198.302V189.28C401.973 193.635 399.261 194.666 394.105 194.666C391.01 194.666 389.673 194.017 389.673 191.687V184.85H394.409C396.663 184.85 398.038 185.423 399.376 187.218V179.692C398.038 181.487 396.663 182.061 394.409 182.061H389.673V176.407C389.673 174.345 390.896 173.618 393.723 173.618C398.727 173.618 401.591 174.994 403.195 178.699V169.989C402.356 170.601 401.515 170.906 400.598 170.906ZM458.581 197.417H465.725C464.503 196.31 463.891 194.781 463.891 192.871V175.414C463.891 173.504 464.503 172.015 465.725 170.906H458.123C458.237 171.174 458.353 171.403 458.353 171.633C458.353 171.785 458.314 171.861 458.276 171.977L452.546 188.784C452.088 190.121 451.706 191.764 451.362 193.712C451.019 191.726 450.598 190.083 450.14 188.784L444.371 171.977C444.333 171.899 444.333 171.785 444.333 171.709C444.333 171.441 444.409 171.212 444.601 170.906H437.075C438.298 172.015 438.947 173.504 438.947 175.414V192.871C438.947 194.781 438.298 196.31 437.075 197.417H443.989C442.767 196.31 442.117 194.781 442.117 192.871V178.165C442.117 176.522 442.003 175.032 441.697 173.772C442.117 175.3 442.576 176.827 443.072 178.279L449.032 195.545C449.147 195.851 449.185 196.194 449.185 196.576C449.185 196.844 449.185 197.111 449.108 197.417H453.387C453.31 197.111 453.31 196.844 453.31 196.576C453.31 196.194 453.349 195.851 453.463 195.545L459.384 178.279C459.88 176.789 460.339 175.3 460.759 173.772C460.53 175.223 460.453 176.675 460.453 178.165V192.871C460.453 194.781 459.804 196.31 458.581 197.417ZM533.451 178.661V192.871C533.451 194.781 532.84 196.31 531.618 197.417H538.761C537.538 196.31 536.928 194.781 536.928 192.871V173.314C536.928 172.129 537.08 171.098 537.31 170.372H533.948C534.215 170.944 534.33 171.518 534.33 172.243C534.33 174.65 533.222 175.872 531.083 175.872C530.396 175.872 529.746 175.682 529.097 175.376V179.272C529.593 178.852 530.242 178.661 531.045 178.661H533.451ZM580.739 197.417H588.799C587.921 196.538 587.462 195.583 587.462 194.552C587.462 193.902 587.653 192.909 588.073 191.726L593.612 176.407C594.452 174.115 595.599 172.243 596.897 170.906H580.013C578.943 170.906 578.026 170.601 577.187 170.028V179.501C579.402 175.262 582.496 173.274 586.966 173.274C589.143 173.274 590.174 173.887 590.174 175.262C590.174 175.644 590.06 176.178 589.83 176.789L585.018 190.159C584.024 192.909 582.878 195.315 580.739 197.417ZM637.576 184.658C641.664 184.658 643.994 186.645 643.994 189.892C643.994 193.177 641.664 195.163 637.576 195.163C633.488 195.163 631.159 193.177 631.159 189.892C631.159 186.607 633.489 184.658 637.576 184.658ZM637.576 173.16C641.015 173.16 642.963 174.803 642.963 177.516C642.963 180.266 641.015 181.946 637.576 181.946C634.177 181.946 632.229 180.266 632.229 177.516C632.229 174.803 634.177 173.16 637.576 173.16ZM643.077 183.054C645.331 182.022 646.515 180.15 646.515 177.477C646.515 173.046 643.23 170.372 637.576 170.372C631.923 170.372 628.676 173.046 628.676 177.477C628.676 180.15 629.822 182.022 632.075 183.054C629.173 184.238 627.645 186.568 627.645 189.815C627.645 194.896 631.197 197.958 637.576 197.958C643.955 197.958 647.546 194.896 647.546 189.815C647.546 186.568 645.981 184.238 643.077 183.054ZM679.593 198.034C680.166 197.614 680.815 197.417 681.655 197.417H695.713C696.515 197.417 697.279 197.69 698.043 198.302V187.485C696.974 190.083 696.095 191.992 694.682 193.215C693.269 194.476 691.243 194.819 688.341 194.819C685.094 194.819 683.795 194.514 683.795 192.909C683.795 190.885 686.201 188.86 690.48 185.766C693.191 183.818 695.178 182.404 696.057 180.953C696.82 179.692 697.202 178.394 697.202 176.942C697.202 172.97 694.452 170.334 689.868 170.334C687.08 170.334 684.788 171.25 683.03 171.25C681.961 171.25 681.121 170.906 680.356 170.181V180.074C682.726 175.644 685.857 173.274 689.448 173.274C692.084 173.274 693.65 174.689 693.65 176.98C693.65 178.814 692.695 179.73 691.243 181.029C690.212 181.946 687.958 183.321 685.017 185.689C681.273 188.669 679.517 192.031 679.517 196.5C679.517 196.997 679.555 197.5 679.593 198.034Z" fill="#F2F2F2"/>
</svg>
