<svg width="53" height="10" viewBox="0 0 53 10" fill="none" xmlns="http://www.w3.org/2000/svg">
<path d="M4.81802 9.63636C7.4791 9.63636 9.6362 7.47926 9.6362 4.81818V1.44545C9.6362 1.0621 9.48391 0.694439 9.21283 0.423364C8.94176 0.152289 8.5741 0 8.19074 0L5.05892 0V2.11374C5.05892 2.59604 5.08832 3.09568 5.34127 3.50619C5.52236 3.80039 5.76461 4.0522 6.05159 4.24453C6.33856 4.43686 6.66355 4.56521 7.00451 4.62088L7.09677 4.63581C7.13481 4.64882 7.16783 4.67339 7.19122 4.70609C7.2146 4.73879 7.22717 4.77798 7.22717 4.81818C7.22717 4.85838 7.2146 4.89757 7.19122 4.93028C7.16783 4.96298 7.13481 4.98755 7.09677 5.00055L7.00451 5.01549C6.50635 5.09686 6.04633 5.33266 5.68941 5.68958C5.33249 6.0465 5.0967 6.50651 5.01532 7.00467L5.00038 7.09694C4.98738 7.13498 4.96281 7.168 4.93011 7.19138C4.89741 7.21476 4.85821 7.22733 4.81802 7.22733C4.77782 7.22733 4.73862 7.21476 4.70592 7.19138C4.67322 7.168 4.64865 7.13498 4.63565 7.09694L4.62071 7.00467C4.56503 6.66373 4.43667 6.33874 4.24434 6.05177C4.05201 5.76479 3.80021 5.52254 3.50602 5.34144C3.09552 5.08848 2.59587 5.05909 2.11357 5.05909H0.00561523C0.131611 7.60815 2.23788 9.63636 4.81802 9.63636Z" fill="black"/>
<path d="M0 4.57727H2.11374C2.59604 4.57727 3.09568 4.54788 3.50619 4.29493C3.82709 4.09721 4.09721 3.82709 4.29493 3.50619C4.54788 3.09568 4.57727 2.59604 4.57727 2.11374V0H1.44545C1.0621 0 0.694439 0.152289 0.423364 0.423364C0.152289 0.694439 0 1.0621 0 1.44545L0 4.57727ZM11.1914 0.481818C11.1914 0.609604 11.1407 0.732157 11.0503 0.822515C10.96 0.912874 10.8374 0.963636 10.7096 0.963636C10.5818 0.963636 10.4593 0.912874 10.3689 0.822515C10.2786 0.732157 10.2278 0.609604 10.2278 0.481818C10.2278 0.354032 10.2786 0.23148 10.3689 0.141121C10.4593 0.0507628 10.5818 0 10.7096 0C10.8374 0 10.96 0.0507628 11.0503 0.141121C11.1407 0.23148 11.1914 0.354032 11.1914 0.481818ZM51.0031 2.91596C52.35 2.91596 53 3.85671 53 4.94635V6.99287H51.5904V5.18918C51.5904 4.69532 51.4102 4.2877 50.8935 4.2877C50.3767 4.2877 50.2045 4.69532 50.2045 5.18918V6.99263H48.7949V5.18918C48.7949 4.69532 48.6227 4.2877 48.1057 4.2877C47.5889 4.2877 47.4087 4.69532 47.4087 5.18918V6.99263H45.9994V4.9461C45.9994 3.85647 46.6492 2.91572 47.9961 2.91572C48.7323 2.91572 49.2647 3.20578 49.5075 3.68398C49.7658 3.20578 50.3298 2.91548 51.0031 2.91548V2.91596ZM43.4665 5.73845C43.9206 5.73845 44.1165 5.32289 44.1165 4.82878V3.07255H45.5258V5.00127C45.5258 6.15378 44.8525 7.11043 43.4665 7.11043C42.0803 7.11043 41.407 6.15402 41.407 5.00127V3.07255H42.8165V4.82878C42.8165 5.32265 43.0121 5.73845 43.4665 5.73845ZM39.3344 7.11814C38.4496 7.11814 37.8779 6.81243 37.5411 6.21666L38.5592 5.64426C38.7001 5.89505 38.9114 6.02056 39.2638 6.02056C39.5537 6.02056 39.6866 5.91865 39.6866 5.79314C39.6866 5.31494 37.6194 5.80109 37.6194 4.28023C37.6194 3.54305 38.2458 2.94728 39.3108 2.94728C40.2427 2.94728 40.7517 3.40188 40.9789 3.84105L39.9608 4.42116C39.8748 4.18604 39.6083 4.04486 39.3421 4.04486C39.1386 4.04486 39.029 4.13111 39.029 4.24867C39.029 4.73483 41.0962 4.28794 41.0962 5.76182C41.0962 6.58501 40.2896 7.11814 39.3344 7.11814ZM34.4098 8.79607H33.0002V5.02488C33.0002 3.82515 33.9007 2.95499 35.1537 2.95499C36.3753 2.95499 37.3072 3.88803 37.3072 5.02488C37.3072 6.27929 36.477 7.11043 35.232 7.11043C34.9422 7.11043 34.6526 7.02419 34.4098 6.89072V8.79607ZM35.1537 5.78543C35.6001 5.78543 35.8976 5.44045 35.8976 5.03259C35.8976 4.61726 35.6001 4.27999 35.1537 4.27999C34.7073 4.27999 34.4098 4.61726 34.4098 5.03283C34.4098 5.44045 34.7073 5.78543 35.1537 5.78543ZM31.5882 2.65723C31.1262 2.65723 30.7426 2.27298 30.7426 1.81043C30.7426 1.34789 31.1262 0.963636 31.5882 0.963636C32.0503 0.963636 32.4341 1.34789 32.4341 1.81043C32.4341 2.27298 32.0503 2.65723 31.5882 2.65723ZM30.8836 3.07255H32.2931V6.99287H30.8836V3.07255ZM28.1791 7.11043C26.9575 7.11043 26.0256 6.16968 26.0256 5.02488C26.0256 3.88803 26.9575 2.94728 28.1791 2.94728C29.4008 2.94728 30.3326 3.88803 30.3326 5.02488C30.3326 6.16968 29.4008 7.11043 28.1791 7.11043ZM28.1791 5.78543C28.6255 5.78543 28.9231 5.44045 28.9231 5.03259C28.9231 4.61726 28.6255 4.27228 28.1791 4.27228C27.7327 4.27228 27.4352 4.61726 27.4352 5.03259C27.4352 5.44045 27.7327 5.78543 28.1791 5.78543ZM23.3641 8.91364C22.3932 8.91364 21.6883 8.48241 21.3282 7.71391L22.4949 7.08682C22.6202 7.35351 22.855 7.6279 23.3405 7.6279C23.8498 7.6279 24.1863 7.30629 24.2256 6.74184C24.0377 6.90662 23.7399 7.0319 23.2937 7.0319C22.2051 7.0319 21.3279 6.19305 21.3279 5.01693C21.3279 3.88032 22.26 2.95499 23.4816 2.95499C24.7346 2.95499 25.6351 3.8254 25.6351 5.02488V6.5773C25.6351 7.98855 24.6561 8.91364 23.3641 8.91364ZM23.458 5.70714C23.8808 5.70714 24.202 5.41684 24.202 4.98561C24.202 4.56234 23.8811 4.27999 23.458 4.27999C23.043 4.27999 22.7141 4.56234 22.7141 4.98585C22.7141 5.41708 23.043 5.70689 23.458 5.70689V5.70714ZM18.9371 7.11043C17.7155 7.11043 16.7834 6.16968 16.7834 5.02488C16.7834 3.88803 17.7155 2.94728 18.9371 2.94728C20.1586 2.94728 21.0906 3.88803 21.0906 5.02488C21.0906 6.16968 20.1588 7.11043 18.9371 7.11043ZM18.9371 5.78543C19.3835 5.78543 19.6811 5.44045 19.6811 5.03259C19.6811 4.61726 19.3835 4.27228 18.9371 4.27228C18.4907 4.27228 18.1932 4.61726 18.1932 5.03259C18.1932 5.44045 18.4907 5.78543 18.9371 5.78543ZM14.2168 1.70082V5.65992H16.5505V6.99287H14.0209C13.1283 6.99287 12.7682 6.52237 12.7682 5.77748V1.70082H14.2168Z" fill="black"/>
</svg>
