<svg width="173" height="81" viewBox="0 0 173 81" fill="none" xmlns="http://www.w3.org/2000/svg">
<path d="M26.6404 0L0 27.1488V81H54.3709L80.0724 55.3007L78.5287 53.7548L55.0096 77.2739V64.0688H52.8272V78.8176H2.18468V28.6926H49.7127L52.0237 26.5101H3.72832L27.5432 2.18242H80.2688V14.2952H82.4512V0H26.6404Z" fill="black"/>
<path d="M128.722 54.0125H116.499V51.0498C115.532 52.1812 114.555 53.0057 113.568 53.5235C111.84 54.4247 109.876 54.8754 107.674 54.8754C104.116 54.8754 100.948 53.7344 98.1709 51.4525C94.8591 48.7296 93.2031 45.1246 93.2031 40.6376C93.2031 36.0738 94.9002 32.4304 98.2943 29.7075C100.989 27.5407 104.085 26.4573 107.582 26.4573C109.618 26.4573 111.531 26.86 113.321 27.6653C114.35 28.1256 115.409 28.883 116.499 29.9376V27.3202H128.722V33.0723H126.62V46.6911H128.722V54.0125ZM116.808 40.6663C116.808 38.9789 116.17 37.5503 114.895 36.3806C113.619 35.1917 112.077 34.5973 110.266 34.5973C108.25 34.5973 106.595 35.3068 105.299 36.7258C104.249 37.8763 103.725 39.1898 103.725 40.6663C103.725 42.1428 104.249 43.4563 105.299 44.6069C106.574 46.0259 108.23 46.7354 110.266 46.7354C112.097 46.7354 113.64 46.1505 114.895 44.9808C116.17 43.8111 116.808 42.373 116.808 40.6663Z" fill="black"/>
<path d="M150.814 34.3632H147.486V47.0514L149.68 47.103V54.0117H137.98V34.3632H134.597V26.5972H137.98V19.2944H147.486V26.5972H150.814V34.3632Z" fill="black"/>
<path d="M172.847 34.3632H169.519V47.0514L171.712 47.103V54.0117H160.012V34.3632H156.629V26.5972H160.012V19.2944H169.519V26.5972H172.847V34.3632Z" fill="black"/>
<path d="M44.6798 16.8115L54.6869 26.8254L20.0029 61.1934H22.657H54.3709L72.0199 43.5377L82.6047 54.1225V16.8115H44.6798ZM49.9429 18.9962H80.4223V48.8504L72.0199 40.448L53.4659 59.011H25.3089L57.7834 26.8344L49.9429 18.9962Z" fill="black"/>
</svg>
