<svg width="175" height="60" viewBox="0 0 175 60" fill="none" xmlns="http://www.w3.org/2000/svg">
<path d="M132.819 3.74117L132.818 40.4858C131.732 57.3754 113.899 62.0394 99.7028 59.0392C80.0786 54.8919 84.4196 36.576 83.9353 21.2349C84.1165 18.8096 87.0874 18.5297 87.5787 20.9408C88.812 33.1345 82.9087 50.6051 98.5814 55.1384C109.947 58.4259 127.534 55.7205 129.142 41.4978L129.129 2.98083C129.31 1.50396 129.273 0.385859 131.053 0.217041L173.676 0.300436C174.421 0.632023 174.753 1.37646 174.839 2.15028C175.346 6.67478 174.455 12.0998 174.845 16.7218C174.972 17.5048 174.017 18.808 173.248 18.808H162.451V57.3957C162.451 57.752 161.535 58.732 161.035 58.6587C155.374 58.2529 149.02 59.1727 143.442 58.6592C142.655 58.5867 141.692 57.8881 141.692 57.0609V18.808H137.423C137.33 18.808 136.508 18.365 136.391 18.249C135.523 17.3825 135.932 15.5954 137.123 15.3277C137.821 15.171 143.386 15.171 144.084 15.3277C144.713 15.4691 145.375 16.4758 145.375 17.0502V55.1357H158.935V16.7154C158.935 16.2107 159.829 15.3875 160.368 15.3019C163.192 14.8531 167.234 15.5375 170.243 15.3006C170.565 15.2753 170.849 15.2024 171.156 15.125V3.74117H132.819Z" fill="black"/>
<path d="M61.7539 55.1358C61.9479 55.0757 62.7099 53.2647 62.872 52.9057C70.2224 36.6201 76.623 19.8643 84.073 3.62761C84.6577 2.35327 85.1139 0.362329 86.6898 0.217724C91.8957 -0.259909 97.8238 0.594033 103.108 0.22193C104.062 0.317758 104.717 1.20307 104.701 2.14444L104.697 38.3085C104.617 42.7561 111.398 43.2454 112.017 38.9372C112.56 31.975 111.444 24.2503 112.053 17.3783C112.125 16.5719 112.365 15.8317 113.108 15.4194C116.978 15.1499 120.933 15.3267 124.832 15.3278C126.034 15.7649 126.505 17.3151 125.564 18.2497C125.448 18.3649 124.624 18.808 124.532 18.808H115.743V37.9764C115.743 47.6192 101.805 47.9741 101.173 38.652L101.187 4.654L101.011 3.74123H88.0371L87.5883 4.46429L64.5922 57.8067C64.2465 58.2169 63.8476 58.6497 63.2643 58.6551H45.5115C44.6103 58.5724 43.8518 57.6779 43.9559 56.7708C49.9725 43.0945 56.1058 29.4689 62.3662 15.9048C62.6593 15.5671 62.9732 15.3458 63.4206 15.2851C66.2246 14.9047 69.8932 15.5757 72.7933 15.302C74.4135 15.6555 74.5144 17.9181 73.0992 18.6022C71.7773 19.2412 67.0787 18.5721 65.2601 18.7987C65.0761 18.8216 64.8873 18.7867 64.766 18.9742L48.6123 55.1358H61.7539Z" fill="black"/>
<path d="M28.0236 11.4417C32.0627 7.99881 35.797 4.20403 39.6617 0.565311C40.6586 -0.352153 42.6623 -0.218674 41.953 1.51897L33.7464 17.9198C33.1303 19.2586 30.5571 19.628 31.1143 17.6308L36.3906 6.92191C35.3074 7.80264 34.2363 8.73597 33.2091 9.68176C31.5203 11.2367 29.757 13.2801 28.0239 14.7085C27.3745 15.2436 25.6464 16.5511 25.1833 15.2013C24.8615 12.7621 24.8637 10.2912 24.6749 7.84135C24.66 7.64877 24.622 7.09088 24.341 7.09056L18.65 18.3455C18.2338 18.932 16.5257 19.3263 16.2436 18.5951C16.0558 18.1084 16.9071 16.4748 17.1639 15.9019C19.4212 10.8664 22.3387 5.97894 24.6412 0.946412C25.0147 -0.0354461 27.0778 -0.452958 27.3157 0.680475L28.0236 11.4417Z" fill="black"/>
<path d="M14.2946 8.59844C14.2474 8.83073 14.2606 8.8118 14.4011 8.94469C15.4825 9.96731 15.8317 10.0145 15.5572 11.7858C14.4602 18.8641 6.60441 19.2233 0.977673 18.8154C0.781778 18.8012 0.164164 18.7382 0.0882761 18.6163C-0.286357 18.0146 0.634642 16.2219 0.924942 15.567C3.00687 10.8704 5.77098 6.31095 7.89984 1.61579C8.36061 0.877009 9.14225 0.325784 10.0249 0.225247C11.4911 0.0582389 16.3986 0.0696666 17.5926 0.693463C20.7539 2.345 17.0037 8.18532 14.2946 8.59844ZM7.76502 7.92624H11.6991C12.3406 7.92624 13.9869 7.00664 14.4685 6.51036C15.1146 5.84462 16.2137 3.75727 15.1967 3.08944C14.5816 2.68551 10.2996 2.56445 10.0915 2.84046L7.76502 7.92624ZM3.5798 16.1293H9.02059C9.15388 16.1293 10.3991 15.5058 10.6003 15.3652C11.919 14.4433 13.8235 10.8355 11.3548 10.4468C10.5073 10.3134 7.71735 10.325 6.83464 10.4277C6.59315 10.4559 6.39509 10.4443 6.27564 10.7058L3.5798 16.1293Z" fill="black"/>
<path d="M48.0266 16.297C48.1491 16.3321 48.4952 16.8045 48.5435 16.961C48.8526 17.9633 47.7488 18.7061 46.8546 18.8079C44.438 19.0831 41.4955 18.6339 39.0224 18.7721C38.0626 18.4236 38.2358 17.9654 38.5397 17.1882C40.5086 12.1535 44.0326 7.1707 46.0121 2.06158C46.5788 1.06565 47.3387 0.3541 48.5284 0.225295C50.1314 0.0517357 53.6067 0.0722117 55.2332 0.217705C57.1523 0.389355 56.6292 2.31163 55.4851 2.66197C54.0114 3.11326 50.7526 2.51651 49.0207 2.72651C48.7892 2.75458 48.7239 2.74508 48.5304 2.90582C47.7524 3.5522 46.5632 7.06356 45.9341 8.09227C46.4546 8.51575 49.9659 8.02985 50.8403 8.29366C51.8956 8.61203 51.4018 10.4051 50.1934 10.5956C48.5151 10.8602 46.3454 10.3639 44.5922 10.8537L41.9191 16.0484C41.902 16.1012 42.3105 16.297 42.3347 16.297H48.0266Z" fill="black"/>
</svg>
