<svg width="171" height="153" viewBox="0 0 171 153" fill="none" xmlns="http://www.w3.org/2000/svg">
<path d="M160.35 0.261472C165.633 -1.29136 171.267 4.35919 169.72 9.62677C168.586 13.4855 144.144 34.6469 144.145 37.6085C151.236 46.9074 160.745 54.7046 168.918 63.2498C170.175 64.9507 170.265 67.4634 169.881 69.4422C168.835 74.833 143.431 93.4392 144.341 98.1103C144.879 100.875 166.478 119.144 169.357 123.461C172.648 131.21 165.912 137.539 159.094 132.688C153.811 128.929 141.735 116.418 136.441 111.136C133.88 108.581 125.739 100.568 125.738 97.2311C125.737 92.3993 149.503 72.7589 153.419 67.4195L126.647 40.7515L125.857 35.7832L160.35 0.261472Z" fill="black"/>
<path d="M5.06825 1.29434C8.94278 0.516536 10.7851 2.46999 13.5746 4.70398C23.8981 12.9719 33.0775 25.8507 43.4449 34.4668C45.604 37.4522 44.2276 40.0814 42.3626 42.7488C39.2837 47.1524 18.1319 65.4277 17.7539 67.5605C25.2957 77.9824 36.9927 85.7571 44.4287 96.2513C45.1615 100.476 40.5611 104.771 37.7491 108.038C33.0885 113.454 25.6462 120.702 20.2779 125.527C17.8299 127.727 10.3347 134.724 7.90767 134.858C3.16828 135.121 -0.960801 130.015 0.696821 125.528L26.8614 97.3714L1.17378 71.59C0.00623131 70.1367 -0.118457 68.2053 0.186704 66.4403C0.807254 62.8514 26.9172 39.5751 26.9169 37.6084L0.734321 11.3796C-0.943962 7.12393 0.15437 2.28073 5.06825 1.29434Z" fill="black"/>
<path d="M94.4134 127.163C97.275 124.341 110.193 110.499 112.314 109.591C114.52 108.647 117.277 108.647 119.482 109.591L151.876 141.965C154.52 147.702 149.207 154.528 143.175 151.707C142.588 151.432 138.617 147.962 137.523 147.06C129.98 140.843 123.356 132.015 115.898 125.518C113.965 125.518 93.3915 150.789 87.9046 152.021C86.65 152.303 85.3462 152.454 84.0671 152.239C80.5147 151.641 60.1302 129.086 55.2175 125.518C50.5088 130.651 31.9167 152.463 26.27 152.977C21.2069 153.437 16.5233 147.013 19.6827 142.403C29.3595 133.659 37.0295 122.632 46.9631 114.165C49.8721 111.685 53.2154 108.232 57.2261 109.043C67.9332 116.437 76.6385 126.726 86.0743 135.762C88.3462 132.399 91.5742 129.962 94.4134 127.163Z" fill="black"/>
<path d="M111.264 43.2568C102.999 41.7241 95.9641 37.2232 86.9902 37.1998C64.6834 37.1418 41.3262 63.0621 56.7624 83.8649C69.2361 100.675 92.3266 109.583 109.249 93.155C121.422 81.3383 122.474 50.1911 101.539 48.3627C97.2173 47.9853 86.0406 50.1083 83.9343 48.484C79.643 45.1747 84.615 42.621 88.1093 42.2138C119.631 38.5402 141.457 76.4385 114.367 98.2703C87.3473 120.045 38.6621 98.3242 42.3734 62.292C45.0524 36.2819 83.8742 24.9288 104.995 35.656C107.795 37.0782 111.821 39.6966 111.264 43.2568Z" fill="black"/>
</svg>
