<svg width="184" height="72" viewBox="0 0 184 72" fill="none" xmlns="http://www.w3.org/2000/svg">
<path d="M38.2567 67.4596H23.7828L0 10.3213H14.4654L38.2567 67.4596Z" fill="black"/>
<path d="M68.4132 67.4596H53.9479L30.165 10.3213H44.6304L68.4132 67.4596Z" fill="black"/>
<path d="M98.3309 67.4596H83.8655L60.0742 10.3213H74.5481L98.3309 67.4596Z" fill="black"/>
<path d="M137.625 10.3213L121.041 50.1522L104.457 10.3213H89.9912L113.783 67.4596H113.842H128.248H128.307L152.09 10.3213H137.625Z" fill="black"/>
<path d="M113.783 67.4598L120.999 50.0502L118.778 44.7065L113.783 67.4598Z" fill="black"/>
<path d="M159.11 57.8187L168.751 46.1869L166.479 40.707L159.11 57.8187Z" fill="black"/>
<path d="M164.659 71.2804H179.124L166.48 40.7073L184 0H169.534L152.091 40.8009L164.659 71.2804Z" fill="black"/>
</svg>
