<svg width="174" height="143" viewBox="0 0 174 143" fill="none" xmlns="http://www.w3.org/2000/svg">
<path d="M149.754 76.8227C149.751 75.4165 149.891 74.0136 150.173 72.6359C151.849 72.6359 156.444 72.6359 157.422 72.5243C158.18 72.4814 158.921 72.2869 159.601 71.9521C159.83 71.8354 160.031 71.672 160.192 71.4724C160.354 71.2728 160.471 71.0416 160.537 70.7937C160.688 69.9229 160.758 69.0399 160.746 68.1561C160.759 67.4509 160.712 66.746 160.607 66.0487C160.543 65.4262 160.244 64.8517 159.769 64.4438C159.132 63.9647 158.381 63.6615 157.59 63.5646C156.332 63.3798 155.06 63.3144 153.791 63.3692H140.005C140.396 57.9264 141.304 53.0278 141.304 53.0278C141.304 53.0278 148.008 52.4277 150.941 52.4277C154.33 52.3085 157.723 52.5282 161.068 53.0836C163.155 53.4873 165.196 54.1047 167.157 54.9258C169.091 55.7356 170.771 57.0519 172.018 58.7358C173.289 60.4384 174.002 63.8716 173.932 67.556C173.806 74.827 170.16 76.8227 170.16 76.8227C170.16 76.8227 173.876 77.9531 173.974 85.4475C174.133 88.5339 173.574 91.6153 172.339 94.4491C171.338 96.2288 169.844 97.6824 168.037 98.6359C166.017 99.6839 163.82 100.347 161.557 100.59C158.864 100.92 156.154 101.079 153.441 101.064C150.83 101.088 148.219 100.972 145.62 100.715C143.58 100.465 141.599 99.8602 139.767 98.9289C137.819 97.9711 136.2 96.4553 135.116 94.5747C133.867 92.1211 133.284 89.3829 133.426 86.6337V84.1914H145.55V85.7545C145.501 86.8251 145.692 87.8931 146.109 88.8806C146.449 89.5823 147.008 90.1551 147.701 90.5135C148.481 90.9004 149.331 91.1281 150.201 91.1834C151.165 91.2671 152.254 91.309 153.455 91.309C154.899 91.309 156.114 91.2671 157.101 91.1834C157.954 91.1394 158.785 90.9007 159.531 90.4856C160.178 90.094 160.671 89.4932 160.928 88.7829C161.441 87.0761 161.527 85.2695 161.179 83.5216C161.116 83.2326 160.994 82.9597 160.821 82.7196C160.648 82.4796 160.428 82.2775 160.174 82.126C159.433 81.7472 158.627 81.5105 157.799 81.4282C156.374 81.2378 154.936 81.1539 153.497 81.177H150.215C149.925 79.7432 149.771 78.2854 149.754 76.8227Z" fill="black"/>
<path d="M122.028 100.017C122.028 100.017 118.298 100.296 115.589 100.296C112.879 100.296 109.15 100.017 109.15 100.017V63.4245H95.3779C95.6409 59.9482 96.0791 56.4874 96.6909 53.0553C96.6909 53.0553 103.772 52.2598 114.932 52.2598C126.092 52.2598 136.177 52.9994 136.177 52.9994C136.177 52.9994 135.674 58.3585 134.78 63.3687H122.028V100.017Z" fill="black"/>
<path d="M44.2014 113.499C41.8299 115.577 39.2236 117.371 36.4355 118.844C37.299 120.716 38.6759 122.304 40.4064 123.426C42.137 124.547 44.1502 125.156 46.2127 125.18C50.2331 121.781 53.8341 117.916 56.9397 113.666C52.7745 112.547 48.3947 112.489 44.2014 113.499Z" fill="black"/>
<path d="M17.2587 114.713C11.8534 112.368 6.39209 92.2997 16.1553 63.7179C28.1673 28.535 46.6322 16.0723 55.4038 15.542C60.4912 10.7974 66.604 7.28749 73.2681 5.2844C70.0358 2.10721 65.7436 0.233715 61.2142 0.0230116C42.5119 -0.856213 20.4573 23.5527 7.85867 57.2424C-5.22881 92.2439 -3.46891 137.657 24.6196 136.052C20.4007 129.674 17.8683 122.333 17.2587 114.713Z" fill="black"/>
<path d="M67.8492 114.029C58.4212 125.431 49.4401 129.688 41.6323 126.743C28.0839 121.635 26.9386 94.2535 37.7773 65.588C48.6161 36.9225 67.3324 17.8447 80.8668 22.9526C87.4176 25.4228 91.6776 34.4802 92.0408 46.1055C95.0214 46.9663 98.1573 47.1475 101.217 46.6358C102.335 26.8184 96.0494 11.7878 85.7415 7.94996C68.1006 1.29297 41.4508 25.8136 27.4973 62.7131C13.5439 99.6126 17.5804 134.935 35.2213 141.578C47.6942 146.295 66.7458 134.237 79.4841 114.057C75.6511 113.229 71.6861 113.219 67.8492 114.029Z" fill="black"/>
<path d="M89.8606 63.4247H73.7562C71.8747 63.3777 69.9955 63.5842 68.1692 64.0387C66.9803 64.3013 65.902 64.9254 65.0824 65.8251C64.4361 66.7774 64.0201 67.8667 63.8672 69.0071C63.4173 71.8356 63.221 74.6986 63.2806 77.5621C63.2035 80.5535 63.5181 83.5421 64.2164 86.452C64.5386 87.5523 65.1921 88.5269 66.088 89.2432C67.0437 89.9159 68.1531 90.3382 69.3145 90.4713C71.1042 90.6748 72.9048 90.768 74.706 90.7504C76.225 90.7744 77.7434 90.6717 79.2454 90.4434C80.2726 90.301 81.2398 89.8758 82.0388 89.2153C82.7338 88.5498 83.2192 87.6962 83.4356 86.759C83.7459 85.4473 83.8867 84.1012 83.8546 82.7537H73.7981C73.5038 81.4069 73.3864 80.0276 73.4489 78.6506C73.42 77.0894 73.5369 75.5289 73.7981 73.9893H97.0259V80.9673C97.0982 84.6622 96.7704 88.3541 96.0482 91.9785C95.5324 94.2331 94.2791 96.2515 92.4865 97.7144C90.4058 99.2383 87.9666 100.2 85.405 100.506C81.6213 100.988 77.807 101.189 73.9936 101.106C70.3893 101.136 66.7871 100.927 63.2108 100.478C60.495 100.173 57.8733 99.3031 55.5147 97.9238C53.4474 96.6294 51.8247 94.7354 50.8636 92.4949C49.83 90.1643 49.1176 84.2609 49.0757 77.1434C49.0338 70.0258 49.8719 64.0387 51.0032 61.6941C52.0609 59.4217 53.779 57.5202 55.9337 56.2374C58.3205 54.7842 60.952 53.7769 63.6996 53.2648C68.1802 52.5654 72.7143 52.2665 77.248 52.3716C81.9145 52.3356 86.5789 52.5826 91.2154 53.1112C91.2154 53.1112 90.6009 59.6984 89.8606 63.4247Z" fill="black"/>
<path d="M72.1777 24.8647C74.4913 31.2538 75.6041 38.0149 75.4601 44.8078C78.3077 45.7713 81.3487 46.0205 84.3154 45.5335C84.6367 39.6022 84.9579 30.475 83.7009 27.3908C79.2732 22.6597 72.9459 24.5298 72.1777 24.8647Z" fill="black"/>
</svg>
