<svg width="176" height="122" viewBox="0 0 176 122" fill="none" xmlns="http://www.w3.org/2000/svg">
<path d="M59.0324 13.8253C58.1653 14.5906 38.8586 13.6784 35.903 13.517C32.9218 18.3211 30.6265 23.5852 29.001 29.0207C22.724 50.0111 22.8679 79.4494 31.0994 99.8612C32.4654 103.249 34.4647 106.47 36.3155 109.588C44.9848 96.9977 47.3608 80.5703 47.9085 65.4861C46.8763 64.4526 37.2618 68.5263 39.6396 59.9686C40.0436 58.5147 48.5213 58.72 50.151 58.7665C49.8475 52.5053 50.9085 46.304 51.6794 40.1159C55.8499 40.6447 74.3665 38.6177 76.1552 41.7217C77.1057 43.3714 73.8639 55.6672 74.8096 58.7665C76.9139 58.8529 83.0144 58.4488 83.3697 60.9074C84.2494 66.9953 79.0014 65.4178 74.8104 65.4869C75.2038 70.7979 74.8232 76.1059 75.7541 81.3675C76.5406 85.8128 82.7073 107.546 86.5436 108.7C90.7939 109.977 107.161 107.25 109.266 109.89C112.409 113.833 104.513 120.278 101 121.202C97.7377 122.059 75.8621 122.093 72.3692 121.379C68.4012 120.568 63.6113 115.271 61.7361 111.836C58.8076 115.329 55.0959 120.419 50.3522 121.382C46.4645 122.171 27.0268 122.145 22.9123 121.503C12.9643 119.951 6.29078 102.55 4.01726 94.0544C-2.27753 70.5314 -2.07399 32.3079 11.1515 11.1711C13.6346 7.20275 18.2661 1.59646 23.0332 0.628475C27.1217 -0.201747 43.0311 -0.0494859 47.5334 0.457452C51.913 0.950562 57.5488 4.69661 59.9299 8.29279C60.6373 9.36123 59.3974 13.5031 59.0324 13.8253Z" fill="black"/>
<path d="M175.723 13.9141H152.178C151.587 13.9141 144.071 9.16193 141.526 8.78834C137.614 8.2142 132.529 19.803 131.275 22.9102C121.06 48.2181 122.129 85.552 136.093 109.27C136.615 109.604 137.074 108.843 137.228 108.843H159.279C159.485 108.843 159.997 112.421 159.985 112.92C159.907 116.095 152.394 121.184 149.205 121.568C144.64 122.117 126.583 122.233 122.448 121.381C118.206 120.506 113.496 115.15 111.295 111.604C98.3388 90.7295 97.7767 51.1078 104.179 27.9559C105.503 23.1695 107.6 18.5953 109.198 13.9141H98.3593C97.1353 13.9141 96.7683 8.73213 97.3614 8.04595C97.7612 7.58341 107.246 3.66686 108.599 3.22428C122.937 -1.46598 153.479 -1.0613 167.488 4.58341C172.144 6.45928 177.24 8.00558 175.723 13.9141Z" fill="black"/>
</svg>
