<?xml version="1.0" encoding="UTF-8"?>
<svg xmlns="http://www.w3.org/2000/svg" xmlns:xlink="http://www.w3.org/1999/xlink" viewBox="0 0 1000 1000">
  <defs>
    <style>
      .cls-1 {
        fill: #f9ae1b;
      }

      .cls-1, .cls-2, .cls-3, .cls-4, .cls-5, .cls-6, .cls-7, .cls-8, .cls-9, .cls-10, .cls-11, .cls-12, .cls-13, .cls-14, .cls-15, .cls-16, .cls-17, .cls-18, .cls-19, .cls-20 {
        stroke-width: 0px;
      }

      .cls-2 {
        fill: url(#linear-gradient);
      }

      .cls-3 {
        fill: url(#linear-gradient-11);
      }

      .cls-4 {
        fill: url(#linear-gradient-12);
      }

      .cls-5 {
        fill: url(#linear-gradient-13);
      }

      .cls-6 {
        fill: url(#linear-gradient-10);
      }

      .cls-7 {
        fill: url(#linear-gradient-17);
      }

      .cls-8 {
        fill: url(#linear-gradient-16);
      }

      .cls-9 {
        fill: url(#linear-gradient-19);
      }

      .cls-10 {
        fill: url(#linear-gradient-15);
      }

      .cls-11 {
        fill: url(#linear-gradient-18);
      }

      .cls-12 {
        fill: url(#linear-gradient-14);
      }

      .cls-21, .cls-22 {
        mix-blend-mode: multiply;
      }

      .cls-23, .cls-24 {
        mix-blend-mode: hard-light;
      }

      .cls-23, .cls-25 {
        opacity: .5;
      }

      .cls-13 {
        fill: url(#linear-gradient-4);
      }

      .cls-14 {
        fill: url(#linear-gradient-2);
      }

      .cls-15 {
        fill: url(#linear-gradient-3);
      }

      .cls-16 {
        fill: url(#linear-gradient-8);
      }

      .cls-17 {
        fill: url(#linear-gradient-9);
      }

      .cls-18 {
        fill: url(#linear-gradient-7);
      }

      .cls-19 {
        fill: url(#linear-gradient-5);
      }

      .cls-20 {
        fill: url(#linear-gradient-6);
      }

      .cls-26 {
        isolation: isolate;
      }

      .cls-22 {
        opacity: .7;
      }
    </style>
    <linearGradient id="linear-gradient" x1="-12894.8036" y1="-15296.6167" x2="-12688.0015" y2="-15503.4188" gradientTransform="translate(7917.2889 9095.844) scale(.5743)" gradientUnits="userSpaceOnUse">
      <stop offset="0" stop-color="gray"/>
      <stop offset=".0958" stop-color="#898989"/>
      <stop offset=".4798" stop-color="#acacac"/>
      <stop offset=".7949" stop-color="#c2c2c1"/>
      <stop offset="1" stop-color="#cacac9"/>
    </linearGradient>
    <linearGradient id="linear-gradient-2" x1="-12860.93" y1="-15240.2855" x2="-12653.5323" y2="-15447.6833" xlink:href="#linear-gradient"/>
    <linearGradient id="linear-gradient-3" x1="-12827.0566" y1="-15183.9544" x2="-12619.063" y2="-15391.948" xlink:href="#linear-gradient"/>
    <linearGradient id="linear-gradient-4" x1="-13733.2706" y1="-15389.3989" x2="-13377.6514" y2="-14673.0386" gradientTransform="translate(7917.2889 9095.844) scale(.5743)" gradientUnits="userSpaceOnUse">
      <stop offset="0" stop-color="#cccbcb"/>
      <stop offset="1" stop-color="#e4e3e3"/>
    </linearGradient>
    <linearGradient id="linear-gradient-5" x1="-13740.6767" y1="-15364.2884" x2="-13359.1002" y2="-15049.2442" gradientTransform="translate(7917.2889 9095.844) scale(.5743)" gradientUnits="userSpaceOnUse">
      <stop offset="0" stop-color="#b2b3b3"/>
      <stop offset="1" stop-color="gray"/>
    </linearGradient>
    <linearGradient id="linear-gradient-6" x1="-13007.3556" y1="-15464.5934" x2="-13326.7964" y2="-14842.1898" gradientTransform="translate(7917.2889 9095.844) scale(.5743)" gradientUnits="userSpaceOnUse">
      <stop offset="0" stop-color="#e6e6e5"/>
      <stop offset=".2876" stop-color="#e3e3e2"/>
      <stop offset=".4956" stop-color="#d9d9d8"/>
      <stop offset=".6786" stop-color="#c9c9c9"/>
      <stop offset=".8461" stop-color="#b3b3b3"/>
      <stop offset="1" stop-color="#989898"/>
    </linearGradient>
    <linearGradient id="linear-gradient-7" x1="-12831.3875" y1="-14502.7131" x2="-11958.8118" y2="-15171.0802" gradientTransform="translate(7917.2889 9095.844) scale(.5743)" gradientUnits="userSpaceOnUse">
      <stop offset="0" stop-color="#f2f2f2"/>
      <stop offset=".9083" stop-color="#cfcece"/>
      <stop offset="1" stop-color="#cccbcb"/>
    </linearGradient>
    <linearGradient id="linear-gradient-8" x1="-12963.952" y1="-14419.5306" x2="-12892.8801" y2="-14662.386" gradientTransform="translate(7917.2889 9095.844) scale(.5743)" gradientUnits="userSpaceOnUse">
      <stop offset="0" stop-color="#b2b3b3"/>
      <stop offset=".4115" stop-color="#c4c5c4"/>
      <stop offset="1" stop-color="#e6e6e5"/>
    </linearGradient>
    <linearGradient id="linear-gradient-9" x1="-13174.7125" y1="-15119.6464" x2="-13065.1099" y2="-15100.6163" gradientTransform="translate(7917.2906 9095.8453) scale(.5743)" gradientUnits="userSpaceOnUse">
      <stop offset="0" stop-color="#cccbcb"/>
      <stop offset=".0191" stop-color="#c4c3c4"/>
      <stop offset=".1111" stop-color="#a7a6a7"/>
      <stop offset=".2136" stop-color="#8f8f8f"/>
      <stop offset=".3291" stop-color="#7c7c7d"/>
      <stop offset=".465" stop-color="#6f6f70"/>
      <stop offset=".6408" stop-color="#686869"/>
      <stop offset="1" stop-color="#666667"/>
    </linearGradient>
    <linearGradient id="linear-gradient-10" x1="-13139.128" y1="-14907.0767" x2="-12994.0877" y2="-14907.0767" gradientTransform="translate(7917.2889 9095.844) scale(.5743)" gradientUnits="userSpaceOnUse">
      <stop offset="0" stop-color="#e6e6e5"/>
      <stop offset=".2971" stop-color="#e3e3e2"/>
      <stop offset=".4808" stop-color="#dadada"/>
      <stop offset=".6337" stop-color="#cccccb"/>
      <stop offset=".7696" stop-color="#b7b7b7"/>
      <stop offset=".8932" stop-color="#9d9d9d"/>
      <stop offset="1" stop-color="gray"/>
    </linearGradient>
    <linearGradient id="linear-gradient-11" x1="-12937.057" y1="-15063.1758" x2="-12805.3458" y2="-15063.1758" xlink:href="#linear-gradient-10"/>
    <linearGradient id="linear-gradient-12" x1="-12999.4194" y1="-15204.8884" x2="-12873.3341" y2="-15204.8884" xlink:href="#linear-gradient-10"/>
    <linearGradient id="linear-gradient-13" x1="-13107.1012" y1="-15375.7599" x2="-13050.5669" y2="-15375.7599" xlink:href="#linear-gradient-10"/>
    <linearGradient id="linear-gradient-14" x1="-13088.5874" y1="-15397.2706" x2="-12957.8322" y2="-15397.2706" xlink:href="#linear-gradient-10"/>
    <linearGradient id="linear-gradient-15" x1="-13050.5669" y1="-15170.2049" x2="-12937.057" y2="-15170.2049" xlink:href="#linear-gradient-10"/>
    <linearGradient id="linear-gradient-16" x1="-13021.2978" y1="-14995.7666" x2="-12883.6298" y2="-14995.7666" xlink:href="#linear-gradient-10"/>
    <linearGradient id="linear-gradient-17" x1="-13122.9124" y1="-15128.1672" x2="-13021.2978" y2="-15128.1672" xlink:href="#linear-gradient-10"/>
    <linearGradient id="linear-gradient-18" x1="-13088.5874" y1="-15387.0484" x2="-12999.4194" y2="-15387.0484" xlink:href="#linear-gradient-10"/>
    <linearGradient id="linear-gradient-19" x1="-13247.4988" y1="-15043.6015" x2="-12896.0308" y2="-15281.7117" gradientTransform="translate(7917.2889 9095.844) scale(.5743)" gradientUnits="userSpaceOnUse">
      <stop offset="0" stop-color="#3c3e95"/>
      <stop offset=".5" stop-color="#93549f"/>
      <stop offset=".9572" stop-color="#f9ac1b"/>
    </linearGradient>
  </defs>
  <g class="cls-26">
    <g id="logok">
      <g id="logo_mark_detailed" data-name="logo mark detailed">
        <g id="hajo">
          <g id="napsugarak" class="cls-25">
            <path class="cls-2" d="M512.227,301.7314c8.4426-9.9902,17.5632-19.1779,26.8883-28.1235,9.3521-8.9138,18.9708-17.5121,28.8175-25.8404,9.8453-8.3301,19.9288-16.3783,30.2777-24.1125,10.3742-7.7041,20.9576-15.1607,32.2252-21.8076-8.434,10.0004-17.552,19.1912-26.8792,28.1344-9.3527,8.9132-18.9706,17.5123-28.8268,25.8295-9.8546,8.3191-19.9374,16.3681-30.2868,24.1016-10.3762,7.7017-20.9571,15.1613-32.216,21.8185Z"/>
            <path class="cls-14" d="M531.9936,334.3455c8.4098-10.0549,17.5019-19.3112,26.8-28.3263,9.3251-8.9835,18.9186-17.6531,28.7416-26.0538,9.8215-8.4026,19.8828-16.5245,30.2111-24.3339,10.3539-7.7795,20.9182-15.3126,32.1711-22.0397-8.4011,10.0651-17.4906,19.3244-26.7907,28.3372-9.3257,8.9829-18.9184,17.6532-28.7509,26.043-9.8308,8.3916-19.8915,16.5143-30.2203,24.3231-10.3559,7.7771-20.9177,15.3131-32.1619,22.0505Z"/>
            <path class="cls-15" d="M551.7602,366.9595c8.377-10.1197,17.4407-19.4444,26.7117-28.5291,9.2982-9.0533,18.8664-17.794,28.6656-26.2672,9.7977-8.475,19.8367-16.6707,30.1445-24.5553,10.3335-7.8548,20.8788-15.4644,32.1171-22.2718-8.3682,10.1298-17.4293,19.4575-26.7023,28.5399-9.2988,9.0527-18.8663,17.7942-28.675,26.2564-9.8071,8.4641-19.8455,16.6606-30.1537,24.5445-10.3355,7.8525-20.8783,15.465-32.1078,22.2826Z"/>
          </g>
          <g id="hajótest">
            <polygon class="cls-13" points="343.7784 647.3632 133.4028 707.0498 25 242.4497 214.4489 483.0856 329.6196 629.3824 343.7784 647.3632"/>
            <polygon class="cls-19" points="260.1244 410.1378 214.4489 483.0856 25 242.4497 260.1244 410.1378"/>
            <polygon class="cls-20" points="400.6669 185.5507 329.6196 629.3824 214.4489 483.0856 260.1244 410.1378 400.6669 185.5507"/>
            <polygon class="cls-18" points="975 104.9585 819.1797 895.0415 343.7784 647.3632 371.642 623.4169 454.9369 551.8417 518.3716 497.3393 563.3292 458.7062 975 104.9585"/>
            <polygon class="cls-16" points="819.1797 895.0415 133.4028 707.0498 343.7784 647.3632 819.1797 895.0415"/>
            <polygon class="cls-17" points="400.6669 185.5507 390.0346 345.9006 380.9544 482.8955 371.642 623.4169 343.7784 647.3632 329.6196 629.3824 400.6669 185.5507"/>
            <polygon class="cls-6" points="454.9369 551.8417 371.642 623.4169 380.9544 482.8955 439.3105 446.353 454.9369 551.8417"/>
            <polygon class="cls-3" points="563.3292 458.7062 518.3716 497.3393 487.689 416.061 524.2843 393.1388 563.3292 458.7062"/>
            <polygon class="cls-4" points="524.2843 393.1388 487.689 416.061 451.875 321.194 475.758 311.6493 524.2843 393.1388"/>
            <polygon class="cls-5" points="422.5016 332.9349 390.0346 345.9006 400.6669 185.5507 422.5016 332.9349"/>
            <polygon class="cls-12" points="475.758 311.6493 451.875 321.194 400.6669 185.5507 475.758 311.6493"/>
            <polygon class="cls-10" points="487.689 416.061 439.3105 446.353 422.5016 332.9349 451.875 321.194 487.689 416.061"/>
            <polygon class="cls-8" points="518.3716 497.3393 454.9369 551.8417 439.3105 446.353 487.689 416.061 518.3716 497.3393"/>
            <polygon class="cls-7" points="439.3105 446.353 380.9544 482.8955 390.0346 345.9006 422.5016 332.9349 439.3105 446.353"/>
            <polygon class="cls-11" points="451.875 321.194 422.5016 332.9349 400.6669 185.5507 451.875 321.194"/>
          </g>
          <g id="extra_shading" data-name="extra shading">
            <g class="cls-24">
              <polygon class="cls-9" points="563.3315 458.7061 518.3738 497.3392 454.9393 551.8416 371.6444 623.4168 380.9567 482.8954 390.037 345.9005 400.6691 185.5506 475.7604 311.6492 524.2866 393.1387 563.3315 458.7061"/>
            </g>
            <g class="cls-22">
              <polygon class="cls-9" points="563.3315 458.7061 518.3738 497.3392 454.9393 551.8416 371.6444 623.4168 380.9567 482.8954 390.037 345.9005 400.6691 185.5506 475.7604 311.6492 524.2866 393.1387 563.3315 458.7061"/>
            </g>
            <g class="cls-21">
              <path class="cls-1" d="M512.227,301.7314c8.4426-9.9902,17.5632-19.1779,26.8883-28.1235,9.3521-8.9138,18.9708-17.5121,28.8175-25.8404,9.8453-8.3301,19.9288-16.3783,30.2777-24.1125,10.3742-7.7041,20.9576-15.1607,32.2252-21.8076-8.434,10.0004-17.552,19.1912-26.8792,28.1344-9.3527,8.9132-18.9706,17.5123-28.8268,25.8295-9.8546,8.3191-19.9374,16.3681-30.2868,24.1016-10.3762,7.7017-20.9571,15.1613-32.216,21.8185Z"/>
              <path class="cls-1" d="M531.9936,334.3455c8.4098-10.0549,17.5019-19.3112,26.8-28.3263,9.3251-8.9835,18.9186-17.6531,28.7416-26.0538,9.8215-8.4026,19.8828-16.5245,30.2111-24.3339,10.3539-7.7795,20.9182-15.3126,32.1711-22.0397-8.4011,10.0651-17.4906,19.3244-26.7907,28.3372-9.3257,8.9829-18.9184,17.6532-28.7509,26.043-9.8308,8.3916-19.8915,16.5143-30.2203,24.3231-10.3559,7.7771-20.9177,15.3131-32.1619,22.0505Z"/>
              <path class="cls-1" d="M551.7602,366.9595c8.377-10.1197,17.4407-19.4444,26.7117-28.5291,9.2982-9.0533,18.8664-17.794,28.6656-26.2672,9.7977-8.475,19.8367-16.6707,30.1445-24.5553,10.3335-7.8548,20.8788-15.4644,32.1171-22.2718-8.3682,10.1298-17.4293,19.4575-26.7023,28.5399-9.2988,9.0527-18.8663,17.7942-28.675,26.2564-9.8071,8.4641-19.8455,16.6606-30.1537,24.5445-10.3355,7.8525-20.8783,15.465-32.1078,22.2826Z"/>
            </g>
            <g class="cls-23">
              <path class="cls-1" d="M512.227,301.7314c8.4426-9.9902,17.5632-19.1779,26.8883-28.1235,9.3521-8.9138,18.9708-17.5121,28.8175-25.8404,9.8453-8.3301,19.9288-16.3783,30.2777-24.1125,10.3742-7.7041,20.9576-15.1607,32.2252-21.8076-8.434,10.0004-17.552,19.1912-26.8792,28.1344-9.3527,8.9132-18.9706,17.5123-28.8268,25.8295-9.8546,8.3191-19.9374,16.3681-30.2868,24.1016-10.3762,7.7017-20.9571,15.1613-32.216,21.8185Z"/>
              <path class="cls-1" d="M531.9936,334.3455c8.4098-10.0549,17.5019-19.3112,26.8-28.3263,9.3251-8.9835,18.9186-17.6531,28.7416-26.0538,9.8215-8.4026,19.8828-16.5245,30.2111-24.3339,10.3539-7.7795,20.9182-15.3126,32.1711-22.0397-8.4011,10.0651-17.4906,19.3244-26.7907,28.3372-9.3257,8.9829-18.9184,17.6532-28.7509,26.043-9.8308,8.3916-19.8915,16.5143-30.2203,24.3231-10.3559,7.7771-20.9177,15.3131-32.1619,22.0505Z"/>
              <path class="cls-1" d="M551.7602,366.9595c8.377-10.1197,17.4407-19.4444,26.7117-28.5291,9.2982-9.0533,18.8664-17.794,28.6656-26.2672,9.7977-8.475,19.8367-16.6707,30.1445-24.5553,10.3335-7.8548,20.8788-15.4644,32.1171-22.2718-8.3682,10.1298-17.4293,19.4575-26.7023,28.5399-9.2988,9.0527-18.8663,17.7942-28.675,26.2564-9.8071,8.4641-19.8455,16.6606-30.1537,24.5445-10.3355,7.8525-20.8783,15.465-32.1078,22.2826Z"/>
            </g>
          </g>
        </g>
      </g>
    </g>
  </g>
</svg>