<svg width="394" height="134" viewBox="0 0 394 134" fill="none" xmlns="http://www.w3.org/2000/svg">
<path d="M12.4495 132.552L9.87695 131.005C12.8525 126.068 15.6291 120.904 18.1319 115.664C25.8545 99.4973 28.8698 86.8935 33.0446 69.4382C33.4128 67.9056 33.786 66.3332 34.1741 64.726C39.344 43.28 43.3645 28.457 46.146 20.6747C48.5096 14.0568 49.8232 12.788 51.515 12.788H51.5896C53.774 12.8327 55.008 15.042 55.839 16.9627C56.7894 19.167 57.7696 22.3964 59.0136 26.4865C61.4518 34.5225 65.1389 46.6636 71.9459 61.8151C80.6586 81.2061 84.8881 84.1667 88.1572 84.4852C89.7047 84.6394 93.3271 84.9828 109.539 65.8257C116.246 57.8991 122.61 49.6044 128.462 41.1703L130.93 42.882C125.028 51.3957 118.6 59.7701 111.832 67.7613C97.1237 85.137 92.0384 87.5155 88.6598 87.5155C88.3861 87.5155 88.1224 87.5005 87.8686 87.4757C84.9926 87.197 82.5395 85.6396 79.9122 82.4053C76.877 78.6734 73.3739 72.3441 69.1992 63.0442C62.3126 47.7185 58.5956 35.463 56.1326 27.3623C54.9185 23.3666 53.9631 20.207 53.0774 18.1569C52.341 16.4502 51.8533 15.9775 51.6443 15.8481C51.2612 16.2711 50.1416 17.9828 47.9423 24.7549C45.2752 32.9651 41.6279 46.6537 37.0999 65.4376C36.7118 67.0448 36.3386 68.6171 35.9704 70.1497C31.7508 87.7792 28.7056 100.517 20.8487 116.973C18.311 122.287 15.4848 127.536 12.4594 132.562L12.4495 132.552Z" fill="black"/>
<path d="M121.998 0.00498072H9.99153C4.4733 0.00498072 0 4.4733 0 9.99651V134H121.993C127.506 134 131.985 129.532 131.985 124.008V9.99154C131.985 4.47331 127.511 0 121.993 0L121.998 0.00498072ZM126.088 123.829C126.088 126.357 124.038 128.402 121.516 128.402H5.0704V9.93182C5.0704 7.40408 7.12046 5.359 9.64322 5.359H121.506C124.033 5.359 126.078 7.40906 126.078 9.93182V123.829H126.083H126.088Z" fill="black"/>
<path d="M126.217 124.63V52.7342C119.032 63.92 107.911 76.5984 102.622 81.6141C100.253 83.8632 93.9789 89.7546 87.8437 90.088C81.6039 90.4264 75.0806 80.2259 72.6573 76.0561C68.1741 68.3335 64.278 57.8992 62.7603 53.6149C62.3075 52.3461 60.8645 51.7888 59.6554 52.3959C55.809 54.3414 49.42 59.8696 44.3994 66.4129C38.4682 74.1453 28.5861 94.0936 22.212 109.141C15.8379 124.193 10.8223 129.213 10.8223 129.213H121.635C124.162 129.213 126.213 127.158 126.213 124.635L126.217 124.63Z" fill="black"/>
<path d="M162.208 5.45361V16.8384H175.369V5.45361H178.922V32.6666H175.369V19.9085H162.208V32.6666H158.695V5.45361H162.208Z" fill="black"/>
<path d="M187.809 7.63299C187.849 8.8471 186.963 9.81242 185.55 9.81242C184.301 9.81242 183.41 8.8471 183.41 7.63299C183.41 6.41888 184.341 5.41376 185.629 5.41376C186.953 5.41376 187.804 6.38405 187.804 7.63299H187.809ZM183.853 32.6616V13.1164H187.406V32.6616H183.853Z" fill="black"/>
<path d="M208.723 3.99561V27.616C208.723 29.3526 208.763 31.328 208.887 32.6616H205.698L205.533 29.268H205.454C204.359 31.4474 201.981 33.1044 198.796 33.1044C194.074 33.1044 190.442 29.1088 190.442 23.1726C190.402 16.6691 194.437 12.6735 199.204 12.6735C202.195 12.6735 204.21 14.0867 205.096 15.664H205.175V4.00059H208.728L208.723 3.99561ZM205.165 21.0778C205.165 20.6299 205.125 20.0278 205.001 19.585C204.474 17.321 202.538 15.465 199.876 15.465C196.199 15.465 194.019 18.6943 194.019 23.0183C194.019 26.9741 195.955 30.2433 199.791 30.2433C202.175 30.2433 204.354 28.6659 205.001 26.0039C205.12 25.5212 205.165 25.0385 205.165 24.4713V21.0728V21.0778Z" fill="black"/>
<path d="M213.16 19.2167C213.16 16.9179 213.12 14.9375 212.996 13.1213H216.106L216.225 16.9577H216.39C217.275 14.3305 219.42 12.6785 221.798 12.6785C222.201 12.6785 222.485 12.7183 222.808 12.7979V16.1466C222.445 16.067 222.082 16.0272 221.594 16.0272C219.092 16.0272 217.315 17.923 216.832 20.5901C216.753 21.0727 216.668 21.64 216.668 22.2421V32.6566H213.155V19.2167H213.16Z" fill="black"/>
<path d="M242.19 22.7298C242.19 29.9547 237.184 33.1094 232.457 33.1094C227.168 33.1094 223.093 29.2332 223.093 23.0582C223.093 16.5199 227.372 12.6785 232.781 12.6785C238.394 12.6785 242.185 16.7538 242.185 22.7298H242.19ZM226.69 22.9338C226.69 27.213 229.153 30.4424 232.627 30.4424C236.1 30.4424 238.563 27.2528 238.563 22.8542C238.563 19.5452 236.911 15.3456 232.706 15.3456C228.502 15.3456 226.69 19.2218 226.69 22.9338Z" fill="black"/>
<path d="M262.093 3.99561V27.616C262.093 29.3526 262.133 31.328 262.257 32.6616H259.068L258.904 29.268H258.824C257.729 31.4474 255.351 33.1044 252.166 33.1044C247.444 33.1044 243.812 29.1088 243.812 23.1726C243.772 16.6691 247.807 12.6735 252.574 12.6735C255.565 12.6735 257.58 14.0867 258.466 15.664H258.545V4.00059H262.098L262.093 3.99561ZM258.545 21.0778C258.545 20.6299 258.506 20.0278 258.381 19.585C257.854 17.321 255.918 15.465 253.256 15.465C249.579 15.465 247.399 18.6943 247.399 23.0183C247.399 26.9741 249.335 30.2433 253.171 30.2433C255.555 30.2433 257.734 28.6659 258.381 26.0039C258.501 25.5212 258.545 25.0385 258.545 24.4713V21.0728V21.0778Z" fill="black"/>
<path d="M270.492 7.63293C270.532 8.84704 269.647 9.81236 268.233 9.81236C266.984 9.81236 266.094 8.84704 266.094 7.63293C266.094 6.41882 267.024 5.4137 268.313 5.4137C269.642 5.4137 270.487 6.38399 270.487 7.63293H270.492ZM266.537 32.6615V13.1163H270.089V32.6615H266.537Z" fill="black"/>
<path d="M274.533 18.4107C274.533 16.3955 274.494 14.7335 274.369 13.1213H277.519L277.718 16.3507H277.798C278.763 14.4897 281.027 12.6735 284.256 12.6735C286.963 12.6735 291.163 14.2857 291.163 20.9932V32.6616H287.61V21.3962C287.61 18.2465 286.441 15.6242 283.087 15.6242C280.743 15.6242 278.927 17.2762 278.325 19.2566C278.161 19.7044 278.081 20.3065 278.081 20.9086V32.6566H274.528V18.4007H274.523L274.533 18.4107Z" fill="black"/>
<path d="M306.309 32.6616L306.026 30.1986H305.906C304.811 31.7311 302.717 33.1045 299.93 33.1045C295.974 33.1045 293.954 30.3229 293.954 27.4917C293.954 22.7696 298.149 20.1871 305.702 20.222V19.8189C305.702 18.2067 305.254 15.2958 301.259 15.2958C299.442 15.2958 297.547 15.8631 296.168 16.7488L295.357 14.4052C296.974 13.3553 299.313 12.6686 301.776 12.6686C307.752 12.6686 309.205 16.7438 309.205 20.6648V27.9694C309.205 29.6661 309.285 31.3181 309.529 32.6566H306.309V32.6666V32.6616ZM305.782 22.69C301.906 22.6104 297.502 23.2921 297.502 27.0936C297.502 29.3925 299.034 30.4871 300.851 30.4871C303.393 30.4871 305.01 28.875 305.573 27.213C305.692 26.8498 305.772 26.4468 305.772 26.0835V22.69H305.777H305.782Z" fill="black"/>
<path d="M313.494 18.4107C313.494 16.3955 313.454 14.7336 313.33 13.1214H316.44L316.604 16.2711H316.724C317.818 14.4101 319.63 12.6785 322.859 12.6785C325.521 12.6785 327.546 14.2907 328.387 16.5945H328.467C329.069 15.4998 329.835 14.6589 330.646 14.0519C331.815 13.1662 333.109 12.6835 334.97 12.6835C337.553 12.6835 341.389 14.3803 341.389 21.1624V32.6715H337.916V21.6052C337.916 17.8485 336.547 15.5894 333.676 15.5894C331.661 15.5894 330.084 17.0822 329.482 18.8187C329.318 19.3014 329.198 19.9483 329.198 20.5951V32.6666H325.725V20.9584C325.725 17.8484 324.357 15.5894 321.65 15.5894C319.431 15.5894 317.813 17.3658 317.246 19.1422C317.047 19.6696 316.962 20.2717 316.962 20.8787V32.6715H313.489V18.4107H313.494Z" fill="black"/>
<path d="M349.663 7.63293C349.703 8.84704 348.817 9.81236 347.404 9.81236C346.155 9.81236 345.265 8.84704 345.265 7.63293C345.265 6.41882 346.195 5.4137 347.484 5.4137C348.812 5.4137 349.658 6.38399 349.658 7.63293H349.663ZM345.712 32.6615V13.1163H349.265V32.6615H345.712Z" fill="black"/>
<path d="M357.217 22.0879H357.297C357.779 21.4012 358.466 20.5553 359.033 19.8687L364.771 13.1264H369.05L361.496 21.1624L370.095 32.6716H365.771L359.028 23.307L357.212 25.3222V32.6716H353.699V4.00562H357.212V22.0929H357.217V22.0879Z" fill="black"/>
<path d="M382.733 32.6616L382.449 30.1986H382.33C381.235 31.7311 379.14 33.1045 376.354 33.1045C372.398 33.1045 370.378 30.3229 370.378 27.4917C370.378 22.7696 374.573 20.1871 382.126 20.222V19.8189C382.126 18.2067 381.678 15.2958 377.682 15.2958C375.866 15.2958 373.97 15.8631 372.592 16.7488L371.781 14.4052C373.398 13.3553 375.737 12.6686 378.2 12.6686C384.176 12.6686 385.629 16.7438 385.629 20.6648V27.9694C385.629 29.6661 385.709 31.3181 385.952 32.6566H382.733V32.6666V32.6616ZM382.211 22.69C378.334 22.6104 373.931 23.2921 373.931 27.0936C373.931 29.3925 375.463 30.4871 377.279 30.4871C379.822 30.4871 381.439 28.875 382.002 27.213C382.121 26.8498 382.201 26.4468 382.201 26.0835V22.69H382.206H382.211Z" fill="black"/>
<path d="M393.879 7.63293C393.919 8.84704 393.033 9.81236 391.62 9.81236C390.371 9.81236 389.48 8.84704 389.48 7.63293C389.48 6.41882 390.411 5.4137 391.7 5.4137C393.023 5.4137 393.874 6.38399 393.874 7.63293H393.879ZM389.918 32.6615V13.1163H393.471V32.6615H389.918Z" fill="black"/>
<path d="M158.7 54.2668C160.477 53.9036 163.024 53.6996 165.442 53.6996C169.199 53.6996 171.618 54.3862 173.314 55.9188C174.683 57.1329 175.454 58.9839 175.454 61.0887C175.454 64.6813 173.195 67.0647 170.329 68.0301V68.1495C172.429 68.876 173.678 70.8116 174.324 73.6379C175.21 77.4345 175.857 80.0567 176.424 81.1066H172.792C172.344 80.3404 171.742 77.9967 170.976 74.6032C170.165 70.8464 168.712 69.4333 165.522 69.3138H162.213V81.1066H158.7V54.2619V54.2668ZM162.208 66.6617H165.801C169.558 66.6617 171.936 64.6017 171.936 61.4918C171.936 57.9788 169.393 56.4463 165.676 56.4015C163.98 56.4015 162.77 56.5657 162.203 56.7249V66.6567H162.208V66.6617Z" fill="black"/>
<path d="M180.982 71.9859C181.061 76.7926 184.131 78.768 187.684 78.768C190.227 78.768 191.759 78.3201 193.093 77.7579L193.695 80.3005C192.446 80.8678 190.301 81.5146 187.191 81.5146C181.176 81.5146 177.578 77.5588 177.578 71.6624C177.578 65.766 181.051 61.1285 186.744 61.1285C193.123 61.1285 194.815 66.7413 194.815 70.3339C194.815 71.0604 194.735 71.6276 194.695 71.9859H180.977H180.982ZM191.401 69.4432C191.441 67.1842 190.471 63.6712 186.475 63.6712C182.882 63.6712 181.305 66.9802 181.021 69.4432H191.401Z" fill="black"/>
<path d="M197.78 66.8607C197.78 64.8455 197.741 63.1836 197.616 61.5714H200.766L200.965 64.8007H201.045C202.015 62.9397 204.274 61.1235 207.503 61.1235C210.21 61.1235 214.41 62.7357 214.41 69.4432V81.1116H210.857V69.8462C210.857 66.6965 209.688 64.0742 206.334 64.0742C203.99 64.0742 202.174 65.7262 201.572 67.7066C201.408 68.1544 201.328 68.7565 201.328 69.3586V81.1066H197.775V66.8508H197.77L197.78 66.8607Z" fill="black"/>
<path d="M235.607 52.4506V76.071C235.607 77.8075 235.647 79.783 235.771 81.1165H232.581L232.417 77.723H232.338C231.243 79.9024 228.865 81.5594 225.68 81.5594C220.958 81.5594 217.325 77.5637 217.325 71.6275C217.286 65.1241 221.321 61.1285 226.088 61.1285C229.078 61.1285 231.094 62.5416 231.979 64.119H232.059V52.4555H235.612L235.607 52.4506ZM232.059 69.5227C232.059 69.0749 232.019 68.4728 231.895 68.03C231.367 65.766 229.432 63.91 226.77 63.91C223.093 63.91 220.913 67.1393 220.913 71.4633C220.913 75.4192 222.849 78.6883 226.685 78.6883C229.069 78.6883 231.248 77.111 231.895 74.4489C232.014 73.9662 232.059 73.4835 232.059 72.9163V69.5178V69.5227Z" fill="black"/>
<path d="M239.567 77.4792C240.617 78.1659 242.473 78.8924 244.255 78.8924C246.837 78.8924 248.051 77.5986 248.051 75.9865C248.051 74.2897 247.041 73.3592 244.419 72.3939C240.906 71.145 239.249 69.2043 239.249 66.8657C239.249 63.716 241.791 61.1285 245.991 61.1285C247.971 61.1285 249.703 61.6958 250.798 62.3427L249.912 64.9251C249.146 64.4425 247.733 63.7956 245.916 63.7956C243.817 63.7956 242.642 65.0097 242.642 66.4577C242.642 68.0699 243.812 68.8013 246.354 69.7666C249.748 71.0604 251.479 72.7571 251.479 75.6581C251.479 79.0864 248.817 81.5146 244.175 81.5146C242.035 81.5146 240.055 80.9872 238.687 80.1811L239.567 77.4742V77.4792Z" fill="black"/>
<path d="M252.36 79.0566L261.207 67.5474C262.053 66.4975 262.864 65.567 263.75 64.5171V64.4375H253.171V61.5714H268.074L268.034 63.7906L259.317 75.1356C258.506 76.2303 257.704 77.1956 256.814 78.2007V78.2803H268.243V81.1067H252.375V79.0516H252.37L252.36 79.0566Z" fill="black"/>
<path d="M272.11 71.9859C272.189 76.7926 275.259 78.768 278.812 78.768C281.355 78.768 282.887 78.3201 284.221 77.7579L284.823 80.3005C283.574 80.8678 281.429 81.5146 278.319 81.5146C272.304 81.5146 268.706 77.5588 268.706 71.6624C268.706 65.766 272.179 61.1285 277.872 61.1285C284.251 61.1285 285.942 66.7413 285.942 70.3339C285.942 71.0604 285.863 71.6276 285.823 71.9859H272.105H272.11ZM282.524 69.4432C282.564 67.1842 281.594 63.6712 277.598 63.6712C274.005 63.6712 272.428 66.9802 272.144 69.4432H282.524Z" fill="black"/>
<path d="M288.903 67.6717C288.903 65.3729 288.864 63.3925 288.739 61.5763H291.849L291.969 65.4127H292.133C293.019 62.7854 295.163 61.1334 297.542 61.1334C297.945 61.1334 298.228 61.1732 298.552 61.2528V64.6016C298.188 64.522 297.825 64.4822 297.338 64.4822C294.835 64.4822 293.058 66.378 292.576 69.045C292.496 69.5277 292.411 70.0949 292.411 70.697V81.1115H288.898V67.6717H288.903Z" fill="black"/>
<path d="M302.229 71.9858C302.308 76.7925 305.378 78.7679 308.931 78.7679C311.474 78.7679 313.006 78.3201 314.34 77.7578L314.942 80.3005C313.693 80.8677 311.548 81.5146 308.439 81.5146C302.423 81.5146 298.825 77.5588 298.825 71.6624C298.825 65.766 302.298 61.1285 307.991 61.1285C314.37 61.1285 316.062 66.7413 316.062 70.3338C316.062 71.0603 315.982 71.6276 315.942 71.9858H302.224H302.229ZM312.648 69.4432C312.688 67.1841 311.718 63.6711 307.722 63.6711C304.129 63.6711 302.552 66.9801 302.269 69.4432H312.648Z" fill="black"/>
<path d="M322.536 70.5378H322.615C323.098 69.8512 323.784 69.0053 324.352 68.3186L330.089 61.5763H334.368L326.815 69.6123L335.413 81.1215H331.089L324.347 71.7569L322.531 73.7721V81.1215H319.018V52.4556H322.531V70.5428H322.536V70.5378Z" fill="black"/>
<path d="M163.86 105.339H155.58V102.349H175.727V105.339H167.408V129.562H163.855V105.339H163.86Z" fill="black"/>
<path d="M185.42 129.561L185.137 127.098H185.017C183.923 128.631 181.828 130.004 179.041 130.004C175.086 130.004 173.065 127.223 173.065 124.392C173.065 119.67 177.26 117.087 184.813 117.122V116.719C184.813 115.107 184.366 112.196 180.37 112.196C178.554 112.196 176.658 112.763 175.28 113.649L174.469 111.305C176.086 110.255 178.424 109.568 180.887 109.568C186.863 109.568 188.316 113.644 188.316 117.565V124.869C188.316 126.566 188.396 128.218 188.64 129.557H185.42V129.566V129.561ZM184.903 119.59C181.027 119.51 176.623 120.192 176.623 123.994C176.623 126.292 178.156 127.387 179.972 127.387C182.515 127.387 184.132 125.775 184.694 124.113C184.813 123.75 184.893 123.347 184.893 122.983V119.59H184.898H184.903Z" fill="black"/>
<path d="M192.611 115.316C192.611 113.3 192.571 111.638 192.446 110.026H195.596L195.795 113.256H195.875C196.84 111.395 199.104 109.578 202.333 109.578C205.04 109.578 209.24 111.191 209.24 117.898V129.566H205.687V118.301C205.687 115.151 204.518 112.529 201.164 112.529C198.82 112.529 197.004 114.181 196.402 116.161C196.238 116.609 196.158 117.211 196.158 117.813V129.561H192.606V115.306H192.601L192.611 115.316Z" fill="black"/>
<path d="M213.081 125.929C214.131 126.616 215.987 127.342 217.768 127.342C220.351 127.342 221.565 126.049 221.565 124.436C221.565 122.74 220.555 121.809 217.932 120.844C214.419 119.595 212.762 117.654 212.762 115.316C212.762 112.166 215.305 109.578 219.505 109.578C221.485 109.578 223.217 110.146 224.311 110.793L223.426 113.375C222.659 112.892 221.246 112.246 219.43 112.246C217.33 112.246 216.156 113.46 216.156 114.908C216.156 116.52 217.325 117.251 219.868 118.217C223.262 119.51 224.993 121.207 224.993 124.108C224.993 127.536 222.331 129.965 217.689 129.965C215.549 129.965 213.569 129.437 212.2 128.631L213.081 125.924V125.929Z" fill="black"/>
<path d="M225.88 127.502L234.727 115.992C235.573 114.942 236.379 114.012 237.27 112.962V112.882H226.691V110.016H241.594L241.554 112.236L232.836 123.581C232.025 124.675 231.224 125.641 230.333 126.646V126.725H241.763V129.552H225.895V127.497H225.89L225.88 127.502Z" fill="black"/>
<path d="M245.623 120.441C245.703 125.247 248.773 127.223 252.326 127.223C254.868 127.223 256.401 126.775 257.734 126.213L258.337 128.755C257.088 129.323 254.943 129.97 251.833 129.97C245.817 129.97 242.22 126.014 242.22 120.117C242.22 114.221 245.693 109.583 251.385 109.583C257.764 109.583 259.456 115.196 259.456 118.789C259.456 119.515 259.376 120.083 259.337 120.441H245.618H245.623ZM256.038 117.898C256.077 115.639 255.107 112.126 251.112 112.126C247.519 112.126 245.942 115.435 245.658 117.898H256.038ZM256.889 101.582L251.962 107.354H249.42L252.973 101.582H256.889Z" fill="black"/>
<path d="M265.935 118.983H266.015C266.497 118.296 267.184 117.45 267.751 116.764L273.488 110.021H277.768L270.214 118.057L278.812 129.567H274.488L267.746 120.202L265.93 122.217V129.567H262.417V100.901H265.93V118.988H265.935V118.983Z" fill="black"/>
</svg>
