<svg width="476" height="110" viewBox="0 0 476 110" fill="none" xmlns="http://www.w3.org/2000/svg">
<path d="M389.091 68.5342C391.424 63.7269 392.803 61.1155 393.981 58.4173C401.076 42.1599 407.727 25.6833 415.479 9.74544C417.424 5.75071 422.812 1.12594 426.71 1.0392C430.596 0.957023 436.467 5.35351 438.252 9.25694C450.811 36.7316 462.622 64.5486 474.487 92.3337C477.628 99.6932 475.437 106.382 469.762 108.815C463.238 111.613 457.02 108.961 453.665 101.446C446.319 84.988 439.215 68.4247 431.965 51.9253C430.755 49.1723 429.304 46.5244 427.171 42.242C425.149 45.8761 423.579 48.2364 422.451 50.7931C415.178 67.2788 407.965 83.7919 400.82 100.332C398.606 105.459 395.917 109.413 389.434 109.577C382.508 109.751 379.591 105.455 377.267 100.15C370.14 83.8969 363.082 67.612 355.96 51.3546C354.874 48.8756 353.577 46.4924 351.518 42.3288C349.409 46.0496 347.802 48.378 346.692 50.9209C339.579 67.1783 332.8 83.5864 325.363 99.6886C323.655 103.382 320.327 107.532 316.78 108.815C313.671 109.938 307.868 108.518 305.713 106.062C303.344 103.364 301.951 97.447 303.275 94.2284C315.328 65.028 327.86 36.0148 340.876 7.2299C342.314 4.04324 347.93 0.495917 351.112 0.911369C355.175 1.44096 360.402 5.01111 362.215 8.70453C369.661 23.8617 375.984 39.5713 382.768 55.0572C384.421 58.819 386.252 62.4942 389.091 68.5342Z" fill="black"/>
<path d="M123.263 43.6345C116.976 58.0156 110.69 72.3966 104.394 86.7777C102.171 91.8544 100.623 97.4288 97.4411 101.816C95.0169 105.163 90.383 109.13 86.9498 108.938C83.0053 108.719 77.5405 105.071 75.7828 101.442C67.8252 84.9835 60.9634 68.0001 53.6451 51.2268C52.4718 48.5423 51.0017 45.9903 48.6506 41.3792C42.1494 56.1529 36.4929 68.9908 30.8454 81.8379C28.056 88.1838 25.3624 94.5754 22.4861 100.88C18.9662 108.596 13.2458 111.486 6.62134 109.075C0.617825 106.897 -1.77902 99.885 1.4259 92.0096C6.44329 79.6876 11.8259 67.5162 17.1446 55.3174C23.6777 40.3246 30.3113 25.382 36.8718 10.4029C39.1819 5.12985 41.8161 0.404647 48.6506 0.345297C55.8274 0.281381 58.6579 5.07963 61.0913 10.7133C68.122 26.9982 75.2623 43.2373 82.4209 59.4674C83.4664 61.8414 84.8497 64.0648 87.1461 68.3517C92.7067 55.7511 97.3726 45.2142 102.011 34.6589C105.915 25.7746 109.224 16.5571 113.954 8.13845C115.899 4.67331 120.862 0.961628 124.487 0.925104C128.153 0.893146 133.7 4.43134 135.252 7.84627C148.213 36.3618 160.435 65.2152 172.898 93.9545C175.811 100.675 172.907 105.514 167.374 108.664C161.686 111.906 154.774 109.061 151.623 102.149C144.392 86.2526 137.58 70.1687 130.591 54.1624C129.075 50.6927 127.509 47.2412 125.966 43.7806C125.066 43.735 124.162 43.6848 123.263 43.6345Z" fill="black"/>
<path d="M238.199 67.8814C240.29 64.0008 241.833 61.5538 242.988 58.9332C249.58 43.9632 256.081 28.9521 262.619 13.9593C263.728 11.421 264.66 8.77302 266.052 6.39901C269.531 0.463975 275.096 -1.50828 280.999 1.38619C286.656 4.16196 289.527 9.19761 286.601 15.9544C274.16 44.6891 261.98 73.5425 249.06 102.058C247.521 105.455 242.015 108.97 238.367 108.952C234.729 108.938 229.314 105.363 227.757 101.949C214.888 73.7023 202.716 45.1411 190.376 16.6575C187.463 9.9372 189.381 4.53632 195.745 1.23553C201.671 -1.84156 208.218 0.984431 211.363 7.98321C218.745 24.4233 225.826 40.9957 233.081 57.4905C234.396 60.4672 235.952 63.3343 238.199 67.8814Z" fill="black"/>
</svg>
