<svg width="495" height="114" viewBox="0 0 495 114" fill="none" xmlns="http://www.w3.org/2000/svg">
<path d="M18.3196 95.7309C15.0547 93.8862 12.3066 92.3441 9.57108 90.7851C7.89448 89.8271 6.25991 88.7934 4.55391 87.8858C1.41503 86.2134 0.0367674 83.5031 0.0283634 80.0995C-0.00945446 64.4471 -0.00945446 48.7947 0.0283634 33.1423C0.0367674 29.8984 1.35198 27.2974 4.27656 25.6208C18.4499 17.4773 32.6189 9.33809 46.7712 1.16524C49.3092 -0.301255 51.7548 -0.435718 54.318 1.06019C59.0242 3.79988 63.7682 6.46394 68.4661 9.22044C68.9787 9.52299 69.5964 10.2037 69.6048 10.7121C69.6804 17.1832 69.6553 23.6585 69.6553 30.5917C67.2685 29.3017 65.1675 28.2134 63.1127 27.0452C60.0579 25.3098 57.0199 23.5408 53.9987 21.7423C51.8472 20.4607 49.7336 20.3725 47.5444 21.6331C39.0564 26.5074 30.5642 31.3859 22.0468 36.214C19.4331 37.6973 18.3028 39.8655 18.3112 42.8279C18.3406 59.4467 18.3238 76.0656 18.3238 92.6844C18.3238 93.4996 18.3238 94.3106 18.3238 95.7309H18.3196Z" fill="black"/>
<path d="M31.5769 82.5954C35.3461 84.7594 38.6741 86.6713 42.002 88.5832C43.7375 89.5791 45.4855 90.5539 47.1957 91.5876C49.5698 93.0289 51.8893 92.9112 54.2424 91.5498C62.596 86.7049 70.9495 81.8642 79.3157 77.0488C81.736 75.6579 82.9462 73.7544 82.9336 70.8424C82.8579 53.9505 82.8999 37.0543 82.8999 20.1623V17.5361C84.5933 18.4899 86.0094 19.2757 87.4128 20.0783C90.6442 21.9314 93.8587 23.8138 97.1026 25.6417C99.7625 27.1418 101.074 29.4529 101.078 32.4195C101.116 48.5551 101.111 64.6907 101.078 80.8263C101.078 83.8812 99.7079 86.1965 96.985 87.7512C83.1563 95.6593 69.2981 103.513 55.5828 111.602C52.0364 113.694 49.0698 113.677 45.6662 111.534C41.5314 108.925 37.1824 106.648 32.9762 104.147C32.3669 103.786 31.6442 102.971 31.6316 102.357C31.5349 95.9493 31.5727 89.5412 31.5727 82.5954H31.5769Z" fill="black"/>
<path d="M69.6679 56.7449C69.6679 59.3627 69.6301 61.9805 69.6805 64.5984C69.7141 66.4262 68.9914 67.8465 67.4493 68.7373C62.6758 71.498 57.8729 74.1957 53.07 76.9102C51.3472 77.885 49.6371 77.717 47.9563 76.7631C43.4013 74.1747 38.8548 71.5779 34.2872 69.0147C32.4089 67.96 31.5727 66.3884 31.5811 64.2748C31.5979 59.245 31.6021 54.2153 31.5811 49.1897C31.5727 47.0677 32.4383 45.4962 34.283 44.4331C38.8211 41.8236 43.3551 39.2016 47.889 36.5711C49.7253 35.508 51.5405 35.487 53.381 36.5459C57.978 39.1974 62.5834 41.832 67.1803 44.4793C68.8779 45.4541 69.7267 46.8912 69.6889 48.8914C69.6301 51.5092 69.6679 54.127 69.6679 56.7449Z" fill="black"/>
<path d="M134.873 80.3095V32.8481H154.463C163.451 32.8481 169.972 39.273 169.972 48.1224C169.972 56.9717 163.451 63.2201 154.463 63.2201H144.164V80.3095H134.873ZM153.555 54.8665C158.244 54.8665 160.829 52.463 160.829 48.0929C160.829 43.7229 158.043 41.2017 153.555 41.2017H144.168V54.8665H153.555Z" fill="black"/>
<path d="M197.832 80.8978C183.999 80.8978 173.162 70.2163 173.162 56.5809C173.162 42.9455 183.999 32.264 197.832 32.264C211.665 32.264 222.472 42.9455 222.472 56.5809C222.472 70.2163 211.648 80.8978 197.832 80.8978ZM197.832 41.2311C189.209 41.2311 182.457 47.971 182.457 56.5767C182.457 65.1824 189.209 71.9224 197.832 71.9224C206.454 71.9224 213.178 65.1824 213.178 56.5767C213.178 47.971 206.438 41.2311 197.832 41.2311Z" fill="black"/>
<path d="M229.329 80.3095V32.8481H238.62V72.6451H254.621V80.3095H229.329Z" fill="black"/>
<path d="M269.513 32.8481H260.218V80.3095H269.513V32.8481Z" fill="black"/>
<path d="M315.067 80.3095L288.561 48.1014V80.3095H279.472V32.8481H287.027L313.562 64.9765V32.8481H322.676V80.3095H315.067Z" fill="black"/>
<path d="M346.001 80.3095L327.398 32.8481H337.109L350.005 66.9472L362.901 32.8481H372.616L353.98 80.3095H346.001Z" fill="black"/>
<path d="M377.365 80.3095V32.8481H405.594V41.4958H386.656V52.7361H403.245V60.514H386.656V71.6619H405.594V80.3095H377.365Z" fill="black"/>
<path d="M448.571 80.3095L422.065 48.1014V80.3095H412.98V32.8481H420.531L447.067 64.9765V32.8481H456.181V80.3095H448.571Z" fill="black"/>
<path d="M473.729 80.3095V40.5084H461.72V32.8481H494.999V40.5084H483.02V80.3095H473.729Z" fill="black"/>
</svg>
